<?xml version="1.0" encoding="utf-8"?>
<!-- Generator: Adobe Illustrator 22.0.1, SVG Export Plug-In . SVG Version: 6.00 Build 0)  -->
<svg version="1.1" id="Capa_1" xmlns="http://www.w3.org/2000/svg" xmlns:xlink="http://www.w3.org/1999/xlink" x="0px" y="0px"
	 viewBox="0 0 166 166" style="enable-background:new 0 0 166 166;" xml:space="preserve">
<style type="text/css">
	.st0{fill:#02747C;}
	.st1{opacity:0.5;fill:#FFFFFF;enable-background:new    ;}
	.st2{fill:#82E1F1;}
	.st3{fill:#F6AF08;}
	.st4{fill:#A6B01E;}
	.st5{fill:#9FEFFA;}
	.st6{fill:#FBCA1B;}
	.st7{fill:#FACA21;}
	.st8{fill:#C6F6FA;}
	.st9{fill:#E0FAFD;}
	.st10{fill:#548144;}
	.st11{fill:#8F981D;}
	.st12{fill:#FAF9F3;}
	.st13{fill:#8C7326;}
	.st14{fill:#DFDED5;}
	.st15{fill:#A95F40;}
	.st16{fill:#A6350E;}
</style>
<g id="Innovando_Ruralidad">
	<g>
		<path class="st0" d="M145.8,30.6V143c0,1.5-1.3,2.8-2.8,2.8H30.6c-0.7,0-1.4-0.3-1.9-0.8l-0.3-0.3l-7.1-7.2l-0.3-0.2
			c-0.5-0.5-0.8-1.2-0.8-1.9V23.1c0-1.6,1.3-2.8,2.8-2.8h112.4c0.7,0,1.5,0.3,2,0.8l0.2,0.2l7.1,7.1l0,0
			C145.4,28.9,145.8,29.7,145.8,30.6z"/>
		<path class="st1" d="M145.2,77.1c0-2.7-0.2-5.5-0.5-8.2c-0.5-4.4-2.5-8.5-5.6-11.6c-9.6-9.6-23.9-23.9-24.1-24.1
			c-1.8-2-4.3-3.2-7-3.4l-0.1-0.1H60.7c-4.7,0-9.3,1.7-12.8,4.8l0,0c-4.4,3.8-6.9,9.3-6.9,15l0.2,64.7c0,5.1,2,10.1,5.7,13.7
			l10.3,10.5c3,3.1,7,5.1,11.3,5.7c33.9,4.6,66.4-17,74.8-50.9C144.6,87.9,145.2,82.5,145.2,77.1L145.2,77.1z"/>
	</g>
	<g>
		<circle class="st2" cx="82.5" cy="77.8" r="48.5"/>
		<g>
			<path class="st2" d="M34.5,74.1c0-0.9,0.1-1.7,0.1-2.6c0.1-0.2,0.2-0.4,0.4-0.5c1.6-11.8,7-21.5,15.9-29.4
				c7.8-6.9,16.9-10.8,27.1-11.8c11.4-1.1,22.2,1.5,31.7,8.2c11.4,7.9,18.4,18.8,20.5,32.6c-1.6,0.4-3.1,0.8-4.7,1.1
				c0.3-2.9-2.7-3.6-3.9-5.5c-0.1-0.2-1-0.3-1.2-0.1c-1.3,1.1-3.4,2.2-3.6,3.6c-0.3,1.9-1.3,3.9-0.5,5.9c-0.8,0.2-1.5,0.5-2.3,0.7
				c-0.6-1-1.3-1.8-2.5-2.2c-0.8-0.2-1.2-0.7-1.2-1.5c-0.2-2.4-1.5-3.4-3.8-3.2c-1.4,0.1-1.9-0.5-2.2-1.8c-1-3.6-3.5-5.5-7-6.6
				c-3.7-1.1-6.8,0.5-10,1.7c-3-0.8-6.1-0.8-9.1-0.5c-1.4,0.1-2.1-0.1-2.9-1.2c-6.1-8-17.3-8.7-24.6-3.1c-3,2.3-4.4,5.2-5.1,8.7
				c-0.2,1.1-0.3,2-1.9,1.7c-5.1-0.8-7,0.6-7.6,5.6C35.7,75.8,35.1,74.7,34.5,74.1z M90.7,51.1L90.7,51.1c3,0,6.1,0,9.1,0
				c1.5,0,2.7-1,1.8-2.2c-1.6-2.2-2.2-5.9-6.3-5.2c-0.9,0.2-1.3-0.7-1.9-1.2c-2.3-1.8-5.6-2.1-7.1-0.1c-1.5,2.1-4,3.1-5.3,5.3
				c-0.5,0.8-1.4,1.4-0.9,2.4c0.5,1.1,1.6,0.9,2.5,0.9C85.3,51.1,88,51.1,90.7,51.1z"/>
			<path class="st3" d="M117.5,110.6c-0.1,0.1-0.3,0.2-0.4,0.2c-2.3,0-3.5-2.5-5.8-2.7l0,0c-0.3-0.7-0.8-1-1.6-1l0,0
				c-0.5-1.2-1.8-1-2.6-1.6c-1.7-1.2-3.6-1.9-5.4-2.9c-8.2-4.2-16.7-7.4-25.5-9.9C66.5,90,57,85.5,46.4,87.2
				c-2.5-0.3-4.8,0.7-7.3,0.8c2.4,0.7,4.8,1.3,7.3,1.3c0.1,0.1,0.2,0.3,0.4,0.3c7.5,1.3,14.8,3.4,21.8,6.3c2.5,1.1,4.9,2.7,7.6,3.3
				c0.7,0.8,1.7,1,2.6,1.5c0.3,0,0.7,0,1,0c0.4,0.9,1.2,1.1,2.1,1.1c0.2,0.4,0.6,0.5,1,0.5c0.9,1.3,2.6,1.6,3.7,2.6
				c0.9,0.4,1.7,0.7,2.6,1.1c0.3,0.7,0.8,1,1.6,1.1l0,0c0.5,0.8,1.1,1.5,2.1,1.6c0.4,0.6,1,0.5,1.5,0.5c0.1,1,0.6,1.5,1.6,1.6l0,0
				c0.4,0.4,0.7,0.7,1.1,1.1c2.5,2.1,5,4.1,7.5,6.2c1.2,1,0.7,1.6-0.7,1.6l0,0c-0.2-0.2-0.3-0.3-0.5-0.5l0,0
				c-0.2-0.2-0.4-0.4-0.5-0.5c-0.2-0.2-0.3-0.3-0.5-0.5c-0.5-0.9-1.2-1.6-2.1-2.1c-3.4-2.3-6.8-4.8-10.3-7
				c-10.5-6.2-21.6-10.9-33.3-14.4c-5.3-1.6-10.5-3.6-16-4.3c-0.2-0.2-0.4-0.3-0.5-0.5c-1-0.2-2.1-0.4-3.1-0.5c-1-1.9-0.5-3,1.7-3.1
				c0.7-0.1,1.6,0.3,2-0.8c0.5-0.1,1-0.3,1.6-0.4v0.2c0.6,0.5,1.1,0.5,1.5-0.2c0-0.1,0-0.2,0.1-0.3c0.5,0.1,1.1,0.1,1.6,0.2
				c0.5,0.3,1,0.3,1.4-0.1c0.2-0.1,0.4-0.3,0.6-0.4c0.2,0.1,0.4,0.2,0.6,0.3c1.2,0.6,2.4,0.7,3.6-0.1c0.7-0.2,1.6,0,2.2-0.6
				c6.7,0.3,13.5,0.7,20.2,1c2.6,0.5,5.3,1.1,8,1.2c1.8,0.8,3.7,1.1,5.7,1c0.4,0.6,1,0.5,1.6,0.5c1.5,0.9,3.1,0.5,4.7,0.7
				c0.1,0.8,0.7,0.8,1.3,1c9.2,2.6,18.1,5.8,26.8,9.8c0.9,0.4,2.4,0.4,2.3,2c0,0.5-0.2,0.9-0.6,1.2c-4.4-0.6-8.3-2.9-12.4-4.4
				c-9.7-3.5-19.5-6.6-29.7-8.6c-1.4-0.3-2.9-0.4-4.4-0.7c-1.4-0.3-2.8-0.6-4.2-0.9c0.2,0.6,0.5,0.8,0.8,0.9
				c15.4,3.9,29.2,11,42,20.2C116.5,109.3,117,110,117.5,110.6z"/>
			<path class="st4" d="M124.4,101.2c0.1-1.7-1.4-1.6-2.3-2c-8.7-4-17.6-7.2-26.8-9.8c-0.6-0.2-1.2-0.2-1.3-1c0.4-0.9,1.2-1.4,2-1.9
				c3.2-1.9,6.3-3.9,9.5-5.9c2.8-1.4,5.7-2.9,8.5-4.3c0.8-0.2,1.5-0.5,2.3-0.7c1.5-0.1,2.8,0.4,3.9,1.3c0.2,0.9-0.3,2,0.6,2.9
				c0.8-1,0.3-2,0.5-2.8c2.1-1.1,5.4-1.3,4.1-5.2c1.6-0.4,3.1-0.8,4.7-1.1C131.7,81.4,130.1,91.7,124.4,101.2z M110.8,84.1
				c0,0.9,2.8,3.4,3.9,3.4c0.8,0,4.2-2.4,4.2-3c0.1-2.1-2.6-6.5-4-6.6C113.3,77.7,110.9,81.3,110.8,84.1z"/>
			<path class="st5" d="M43.9,84.7c0,0.1-0.1,0.2-0.1,0.3c-0.5,0.1-1,0.1-1.5,0.2V85c-0.7-0.5-1.4-0.6-2,0.1
				c-1.8,0.2-3.6,0.3-5.2,1.2c-0.9-4-0.7-8.1-0.6-12.2c0.6,0.6,1.3,1.7,1.5-0.3c0.6-4.9,2.6-6.4,7.6-5.6c1.6,0.2,1.7-0.7,1.9-1.7
				c0.7-3.5,2.1-6.4,5.1-8.7c7.3-5.6,18.5-4.9,24.6,3.1c0.9,1.1,1.5,1.4,2.9,1.2c3-0.3,6.1-0.4,9.1,0.5c-0.8,2.3-2.3,3.3-4.9,3.1
				c-1.8-0.2-3.6-0.3-5.2,0.8c-1.3,0.9-1.9,0.2-2.5-0.8c-2.1-0.8-4.3-0.2-6.4-0.4c-0.9-0.1-2.1,0.1-1.6-1.5c0.4-1.3-0.4-1.5-1.4-1.5
				c-0.9,0-2.1-0.2-1.7,1.4c0.4,1.5-0.7,1.5-1.7,1.5c-3.4,0-6.8,0.1-10.1-0.1c-2.2-0.1-3.3,0.5-3,2.8c0.3,1.8-1.3,3.9,0.7,5.5
				c0,0.7,0.1,1.3,0.1,2c-2.1,0.6-3.8,1.8-5.4,3.2C43.4,80.8,43.9,82.8,43.9,84.7z"/>
			<path class="st6" d="M117.5,110.6c-0.5-0.6-1-1.2-1.7-1.7c-12.8-9.2-26.6-16.3-42-20.2c-0.3-0.1-0.6-0.3-0.8-0.9
				c1.4,0.3,2.8,0.7,4.2,0.9c1.4,0.3,2.9,0.4,4.4,0.7c10.2,2,20,5,29.7,8.6c4.1,1.5,8,3.8,12.4,4.4
				C122.2,105.5,120.2,108.3,117.5,110.6z"/>
			<path class="st7" d="M111.3,108.1c2.2,0.2,3.4,2.7,5.8,2.7c-2.3,3.9-6.1,6.2-9.8,8.4c-12.6,7.4-26,8.7-39.9,4.5
				c-0.6-0.2-1.1-0.6-1.6-0.8c0.4-0.2,1.9,0.3,0.8-1c-0.7-0.9-1.6-1.8-2.4-2.7c1.8,0.1,3.9-0.1,3.7,2.7c0,0.6,0.5,0.9,1,1
				c3.2,0.5,6.2,2.4,9.6,1.2c0.9-0.3,1.7-0.3,2.5,0.6c1.6,1.7,5.4,0.4,6.2-1.9c0.8,0.5,1.5,1.3,2.6,1.1l0,0c0.1,0.7,0.2,1.3,1.1,0.5
				c0.9,0,1.3-1,2.3-1.1c3.9-0.2,7.4-1.8,10.8-3.7c1.4,0,1.9-0.5,0.7-1.6c-2.5-2.1-5-4.2-7.5-6.2c-0.4-0.3-0.7-0.7-1.1-1.1
				c2.4-0.3,4.2,0.2,5.5,2.8c0.7,1.5,2.6,2.5,4,3.7c0.5,0.4,1.4,0.6,1.7,0.2c1.1-1.6,3.3-1.6,4.6-3c3-1.6,3.1-1.7,0.3-3.8
				C111.2,109.9,111.3,109,111.3,108.1z"/>
			<path class="st3" d="M64.2,119.1c0.8,0.9,1.7,1.7,2.4,2.7c1.1,1.3-0.4,0.8-0.8,1c-0.7,0-1.2-0.3-1.6-0.8c-3.1-3.4-7-5.8-10.7-8.4
				c-2.1-1.5-4.1-3.4-6.8-4c-0.1-0.1-0.2-0.3-0.4-0.4c-0.2-0.2-0.3-0.4-0.5-0.6l0,0c-0.2-0.7-0.4-1.5-1.4-1.6l-0.1-0.1
				c0-0.4-0.1-0.8-0.6-0.9l0,0c0-0.4,0.1-0.8,0.1-1.1c2.2,0,3.4,2,5.2,2.7c3.5,2.6,7,5.2,10.5,7.8c0.5,0.4,1,0.7,1.6,1.1
				C61.8,117.8,62.9,118.5,64.2,119.1L64.2,119.1z"/>
			<path class="st7" d="M46.7,109.7c2.7,0.6,4.7,2.5,6.8,4c3.7,2.6,7.6,5,10.7,8.4c-4.9-1-8.6-4.1-12.4-7
				C49.9,113.5,47.9,112,46.7,109.7z"/>
			<path class="st7" d="M43.8,105c0,0.4-0.1,0.8-0.1,1.1c-4.8-5.7-7.3-12.5-8.7-19.8c1.6-0.9,3.4-1,5.2-1.2c0.2,0.1,0.3,0.2,0.5,0.3
				c-0.4,1-1.3,0.7-2,0.8c-2.2,0.2-2.7,1.3-1.7,3.1c0.2,1.3-0.6,2.8,1,3.7c-0.3,1.5,0.5,2.4,1.6,3.1c-0.7,0.6-0.4,1.1,0,1.8
				C41,100.2,42.4,102.6,43.8,105z"/>
			<path class="st7" d="M44.4,107.1c1,0.1,1.2,0.9,1.4,1.6C45,108.4,44.6,107.9,44.4,107.1z"/>
			<path class="st7" d="M43.7,106.1c0.5,0.1,0.6,0.5,0.6,0.9C43.9,106.9,43.7,106.5,43.7,106.1z"/>
			<path class="st7" d="M45.8,108.7c0.2,0.2,0.3,0.4,0.5,0.6C46.2,109.1,46,108.9,45.8,108.7z"/>
			<path class="st5" d="M34.9,71c-0.1,0.2-0.2,0.4-0.4,0.5C34.7,71.3,34.8,71.1,34.9,71z"/>
			<path class="st8" d="M74.7,65.8c0.6,1.1,1.2,1.8,2.5,0.8c1.6-1.2,3.5-1,5.2-0.8c2.5,0.2,4.1-0.8,4.9-3.1c3.2-1.2,6.3-2.8,10-1.7
				c3.5,1.1,6,3,7,6.6c0.4,1.3,0.8,1.9,2.2,1.8c2.3-0.2,3.7,0.8,3.8,3.2c0.1,0.8,0.4,1.3,1.2,1.5c1.2,0.3,1.9,1.2,2.5,2.2
				c-2.8,1.4-5.7,2.9-8.5,4.3c-10.2-4-20.5-5.6-31.3-3.3c0-1.2,0-2.5,0-3.7c1.1-0.4,0.9-1.3,0.8-2.2C74.9,69.6,74.8,67.7,74.7,65.8z
				"/>
			<path class="st9" d="M90.7,51.1c-2.7,0-5.4,0-8.1,0c-0.9,0-2,0.2-2.5-0.9c-0.5-1.1,0.4-1.6,0.9-2.4c1.3-2.2,3.8-3.2,5.3-5.3
				s4.8-1.8,7.1,0.1c0.6,0.5,1,1.3,1.9,1.2c4.1-0.7,4.7,3,6.3,5.2c0.9,1.3-0.2,2.2-1.8,2.2C96.8,51.1,93.8,51.1,90.7,51.1L90.7,51.1
				z"/>
			<path class="st10" d="M120.2,76.8c-1.2-0.9-2.5-1.4-3.9-1.3c-0.8-2,0.3-4,0.5-5.9c0.2-1.3,2.3-2.4,3.6-3.6
				c0.2-0.2,1.1-0.1,1.2,0.1c1.2,1.9,4.2,2.6,3.9,5.5c1.3,3.9-2,4.1-4.1,5.2c-0.2-0.8,0.2-1.8-0.6-2.5
				C119.9,75.2,120.3,76.1,120.2,76.8z"/>
			<path class="st6" d="M38,93c-1.6-0.9-0.9-2.4-1-3.7c1,0.2,2.1,0.4,3.1,0.5c0.2,0.2,0.4,0.3,0.5,0.5c5.5,0.7,10.7,2.6,16,4.3
				c11.6,3.5,22.8,8.2,33.3,14.4c3.6,2.1,6.9,4.6,10.3,7c0.2,1.2-0.7,3.5,2.1,2.1c0.2,0.2,0.3,0.3,0.5,0.5s0.4,0.4,0.5,0.5l0,0
				c0.2,0.2,0.3,0.3,0.5,0.5l0,0c-3.4,1.8-6.9,3.4-10.8,3.7c-1,0.1-1.4,1.1-2.3,1.1c-0.2-0.4-0.6-0.5-1.1-0.5l0,0c0-0.3,0-0.7,0-1
				c0.8-0.1,1.1-0.3,0.5-1.2c-1.3-1.7-2.9-2.9-5.2-3c-1.8-1.1-3.5-2.4-4.7-4.2c0-1.1-0.8-1.1-1.6-1.1c-2.8-2.1-6-3.7-8.4-6.3
				c0-1.1-0.8-1.1-1.6-1.1c-1,0.2-1.5-0.5-2.1-1.1c-0.1-0.7-0.2-1.3-1.1-0.5c-2.5-0.1-3.8-2.2-5.8-3.2C53,97.6,45.7,94.9,38,93z"/>
			<path class="st6" d="M111.2,114.1c-0.6,1.6-2.8,1.6-3.9,3.2c-0.3,0.4-1.2,0.3-1.7-0.2c-1.4-1.2-3.2-2.2-4-3.7
				c-1.2-2.6-3-3.1-5.5-2.8l0,0c-0.1-1-0.6-1.5-1.6-1.6c-0.6,0-1.2,0-1.5-0.5c-0.1-1.4-1-1.6-2.1-1.6l0,0c-0.1-1.1-0.8-1.1-1.6-1.1
				c-0.9-0.4-1.7-0.7-2.6-1.1c-0.2-2.8-1.2-3.4-3.7-2.6c-0.4,0-0.8-0.1-1-0.5c-0.2-1.4-1.3-1-2.1-1.1c-0.3,0-0.7,0-1,0
				c-0.1-1.8-0.7-2.7-2.6-1.5c-2.7-0.6-5.1-2.2-7.6-3.3c-7.1-2.9-14.3-5-21.8-6.3c-0.1,0-0.3-0.2-0.4-0.3c0-0.7,0-1.4,0-2.1
				c10.5-1.5,20,3,29.7,5.7c8.8,2.5,17.3,5.7,25.5,9.9c1.8,0.9,3.7,1.7,5.4,2.9c-0.1,2.1,1.5,1.5,2.6,1.6l0,0c0.1,1.1,0.8,1.1,1.6,1
				l0,0c0,0.9-0.1,1.8,0.8,2.5C114.9,112.7,114.9,112.8,111.2,114.1c-0.4,0.3,0,0.3,0.4,0.3c0.6,0,0.1-0.3,0.1-0.5
				c-0.1-0.4-0.4-0.5-0.8-0.4C110.8,113.5,110.6,113.7,111.2,114.1z"/>
			<path class="st11" d="M74.2,77.3c10.8-2.3,21.2-0.7,31.3,3.2c-3.2,2-6.3,4-9.5,5.9c-0.8,0.5-1.6,1-2,1.9
				c-1.6-0.2-3.2,0.2-4.7-0.7c0-1.6,0.1-3.1,0-4.7c-0.1-1,0.1-3-1.8-0.9c-0.6,0.7-1,0.2-1.5-0.3c-0.3-0.4-1-1-1.2-0.4
				c-1.2,3.3-1.6,0-2.3-0.2c-1,0-0.9,2.8-2,1c-1.1-1.7-1.3-1.5-2,0c-0.2,0.4-0.7,0.8-1,0.5c-1.3-1.3-2.3,0.5-3.5,0.2
				C74.2,81.1,74.2,79.2,74.2,77.3z"/>
			<path class="st12" d="M74.2,77.3c0,1.9,0,3.8,0,5.7c0,0.7-0.1,1.3-0.1,2c-6.7-0.3-13.5-0.7-20.2-1c-0.8-2.5-1.4-2.8-3.8-1.5
				c-0.9-1.1-0.3-2.4-0.4-3.6c0-1.1,0-2.1,0-3.2c0-0.7-0.1-1.3-0.1-2c8.2-0.2,16.5-0.2,24.7,0C74.2,74.9,74.2,76.1,74.2,77.3z
				 M53.7,76.8c0,0.8,0,1.7,0,2.5c-0.3,0.2-0.5,0.7-0.1,0.8c1.9,0.5,3.9,0.3,5.9,0.1c0.7-0.1,1-0.7,1-1.3c0-1.1,0.5-2.3-0.8-3
				c-1-0.6-5.7-0.2-6.2,0.5C53.5,76.5,53.7,76.7,53.7,76.8z M66.3,79.9c0.2,0.1,0.5,0.3,0.7,0.3c1.1,0.3,2.4,0.6,3.2-0.4
				c0.7-0.9,0.6-2.2,0.2-3.2c-0.5-1.2-1.8-0.8-2.8-0.9c-1,0-2.1-0.1-3.1,0c-0.5,0.1-1.4,0.1-0.8,1.1C63.6,78.7,63.6,80.4,66.3,79.9z
				"/>
			<path class="st13" d="M74.1,85c0-0.7,0.1-1.3,0.1-2c1.2,0.3,2.2-1.6,3.5-0.2c0.3,0.3,0.8-0.1,1-0.5c0.7-1.6,0.9-1.8,2,0s1-1,2-1
				c0.6,0.2,1.1,3.5,2.3,0.2c0.2-0.6,0.9,0,1.2,0.4c0.4,0.5,0.9,1,1.5,0.3c1.8-2,1.7-0.1,1.8,0.9c0.1,1.6,0,3.1,0,4.7
				c-0.6,0.1-1.2,0.1-1.6-0.5c0-2.5,0-2.5-2.1-1.6c-0.2,0.1-0.6,0.2-0.7,0.2c-1.4-2.9-1.9,0.7-2.9,0.4C79.3,86.1,76.7,85.5,74.1,85z
				"/>
			<path class="st14" d="M49.6,78.8c0.2,1.2-0.4,2.5,0.4,3.6c-0.7,0.8-2.5,0.2-2.5,1.9c-0.2,0.1-0.4,0.3-0.6,0.4
				c-0.5-0.2-1-0.2-1.4,0.1c-0.5-0.1-1.1-0.1-1.6-0.2c0.1-2-0.4-3.9,0.3-5.9C45.9,79,47.8,79.2,49.6,78.8z"/>
			<path class="st10" d="M47.5,84.4c0-1.7,1.8-1.1,2.5-1.9c2.5-1.3,3.1-1.1,3.8,1.5c-0.6,0.6-1.5,0.4-2.2,0.6
				c-1.2,0-2.4,0.1-3.6,0.1C47.9,84.6,47.7,84.5,47.5,84.4z"/>
			<path class="st7" d="M46.4,87.2c0,0.7,0,1.4,0,2.1c-2.5,0-4.9-0.6-7.3-1.3C41.6,87.9,43.9,86.9,46.4,87.2z"/>
			<path class="st11" d="M82,86.2c1,0.3,1.5-3.2,2.9-0.4c0,0,0.4-0.1,0.7-0.2c2.1-0.9,2.1-1,2.1,1.6C85.8,87.2,83.9,87,82,86.2z"/>
			<path class="st7" d="M83,102.4c2.5-0.9,3.4-0.2,3.7,2.6C85.6,104,83.9,103.7,83,102.4z"/>
			<path class="st7" d="M102.4,118c-2.8,1.4-1.9-0.9-2.1-2.1C101.2,116.5,101.9,117.2,102.4,118z"/>
			<path class="st7" d="M76.2,99.2c1.9-1.2,2.5-0.3,2.6,1.5C78,100.3,76.9,100.1,76.2,99.2z"/>
			<path class="st7" d="M109.7,107.1c-1.1-0.1-2.7,0.6-2.6-1.6C107.9,106.1,109.3,105.9,109.7,107.1z"/>
			<path class="st7" d="M90.9,107.1c1.1-0.1,2,0.2,2.1,1.6C91.9,108.6,91.4,107.9,90.9,107.1z"/>
			<path class="st7" d="M79.9,100.8c0.8,0.1,1.9-0.3,2.1,1.1C81.1,101.9,80.3,101.7,79.9,100.8z"/>
			<path class="st7" d="M94.5,109.2c1,0,1.6,0.5,1.6,1.6C95.1,110.7,94.6,110.2,94.5,109.2z"/>
			<path class="st7" d="M48,84.7c1.2,0,2.4-0.1,3.6-0.1C50.5,85.4,49.3,85.3,48,84.7z"/>
			<path class="st7" d="M89.3,106c0.8,0,1.5,0,1.6,1.1C90.1,107.1,89.6,106.7,89.3,106z"/>
			<path class="st7" d="M111.3,108.1c-0.8,0-1.5,0-1.6-1C110.5,107.1,111,107.4,111.3,108.1z"/>
			<path class="st14" d="M40.7,85.4c-0.2-0.1-0.3-0.2-0.5-0.3c0.6-0.7,1.3-0.6,2-0.1C41.7,85.1,41.2,85.2,40.7,85.4z"/>
			<path class="st7" d="M42.2,85.2c0.5-0.1,1-0.1,1.5-0.2C43.3,85.8,42.8,85.7,42.2,85.2z"/>
			<path class="st7" d="M45.5,84.9c0.4-0.3,0.9-0.3,1.4-0.1C46.5,85.2,46,85.2,45.5,84.9z"/>
			<path class="st7" d="M40.7,90.3c-0.2-0.2-0.4-0.3-0.5-0.5C40.3,90,40.5,90.2,40.7,90.3z"/>
			<path class="st7" d="M103.5,119.1c-0.2-0.2-0.4-0.4-0.5-0.5C103.1,118.7,103.3,118.9,103.5,119.1z"/>
			<path class="st7" d="M104,119.6c-0.2-0.2-0.3-0.3-0.5-0.5C103.6,119.3,103.8,119.4,104,119.6z"/>
			<path class="st10" d="M110.8,84.1c0.1-2.8,2.5-6.4,4.2-6.2c1.4,0.1,4,4.5,4,6.6c0,0.6-3.4,3-4.2,3
				C113.6,87.4,110.8,85,110.8,84.1z"/>
			<path class="st13" d="M120.2,76.8c0.2-0.8-0.2-1.7,0.5-2.5c0.8,0.7,0.4,1.7,0.6,2.5c-0.2,0.9,0.2,1.9-0.5,2.8
				C119.8,78.8,120.4,77.7,120.2,76.8z"/>
			<path class="st15" d="M74.2,73.6c-8.2-0.2-16.5-0.2-24.7,0c-2-1.6-0.4-3.7-0.7-5.5c-0.3-2.3,0.8-3,3-2.8
				c3.4,0.2,6.8,0.1,10.1,0.1c1,0,2.1,0,1.7-1.5c-0.4-1.6,0.8-1.4,1.7-1.4c1,0,1.8,0.1,1.4,1.5c-0.5,1.6,0.7,1.4,1.6,1.5
				c2.1,0.2,4.3-0.4,6.4,0.4c0.1,1.9,0.2,3.8,0.3,5.7C75.1,72.3,75.3,73.2,74.2,73.6z M57.3,72.6c2.1,0,4.2,0,6.3,0
				c1,0,1.7-0.2,1.7-1.4c0-1.5-0.1-2.9,0.4-4.4c0.2-0.6-0.3-1.1-0.9-0.9c-4.5,1.2-9.1,0.3-13.7,0.4c-0.5,0-1.2,0-1.4,0.5
				c-0.4,1.7-0.5,3.5,0,5.2c0.4,1.2,1.8,0.6,2.8,0.6C54.2,72.6,55.7,72.6,57.3,72.6z M71.1,67.4c0.6,1.3,0.1,2.8,0.7,4.1
				c0.3,0.6,0.6,1.1,1.3,1c0.4,0,0.8-0.1,0.8-0.5c-0.1-1.8,0.1-3.8-0.7-5.3c-0.6-1.1-2.5-0.5-3.9-0.4c-0.6,0-1.2,0.2-1.8,0.4
				c-2.5,0.7-0.9,2.8-1.2,4.2c-0.3,1.2,0.5,1.6,1.7,1.7c2.3,0.2,3.5-0.5,3.1-3C71,68.9,71.1,68.2,71.1,67.4z"/>
			<path class="st15" d="M49.6,78.8c-1.8,0.4-3.6,0.2-5.4,0c1.6-1.5,3.3-2.6,5.4-3.2C49.6,76.7,49.6,77.8,49.6,78.8z"/>
			<path class="st6" d="M43.8,105c-1.4-2.4-2.8-4.7-4.2-7.1c-0.4-0.6-0.7-1.2,0-1.8c2.5,0.6,5,1.4,7.3,2.6c0.2,0.6-0.4,1.6,0.5,1.7
				c0.6,0.1,0.4-0.8,0.5-1.2c1.6,0,2.9,0.9,4.2,1.6c0.6,2.2,2.9,1.9,4.3,2.9c0.1-0.3,0.3-0.6,0.4-0.8c0.7,0,1.3,0.4,1.6,1
				c1.1,2.4,3,3.4,5.2,2.6c3.1,1,5.9,2.6,8.4,4.7c0.4,1.3,0.8,2.7,2.6,1.6c0.7,0.4,1.5,0.5,1.6,1.5c0.9,2.5,2.6,3.7,5.2,3.7
				c1.5,0.3,2.3,1.5,3.1,2.6c0.1,1.4,1,1.6,2.1,1.6c0.2,0.2,0.3,0.3,0.5,0.5c-0.8,2.3-4.6,3.6-6.2,1.9c-0.9-0.9-1.6-0.9-2.5-0.6
				c-3.4,1.2-6.4-0.7-9.6-1.2c-0.5-0.1-1.1-0.4-1-1c0.1-2.8-1.9-2.6-3.7-2.7l0,0c0-2.2-1.3-2.7-3.2-2.6c-0.5-0.4-1-0.7-1.6-1.1
				c0-0.3,0-0.7-0.1-1c-0.8-2.4-7.4-7.1-10-7.1c-0.1,0-0.2,0.2-0.4,0.3C47.2,107,46,105,43.8,105z M53.3,104c-0.6,0.1-1,0.5-1,1.2
				c0,0.4,0.3,0.7,0.7,0.5c0.6-0.2,1.1-0.6,1.1-1.3C54.1,104.1,53.7,104.1,53.3,104z"/>
			<path class="st3" d="M52.2,100.8c-1.3-0.7-2.6-1.5-4.2-1.6c-0.2-0.4-0.6-0.5-1.1-0.5c-2.3-1.3-4.8-2-7.3-2.6
				c-1.1-0.8-1.9-1.7-1.6-3.1c7.6,1.9,15,4.6,21.9,8.3c1.9,1,3.3,3.1,5.8,3.2c0.2,0.4,0.6,0.5,1.1,0.5c0.6,0.6,1.1,1.2,2.1,1.1
				c0.3,0.7,0.8,1,1.6,1.1c2.4,2.6,5.6,4.2,8.4,6.3c0.3,0.7,0.8,1,1.6,1.1c1.2,1.8,2.9,3,4.7,4.2c1.4,1.6,2.5,3.5,4.7,4.2
				c0,0.3,0,0.7,0,1c-1.1,0.2-1.8-0.6-2.6-1.1c-0.2-0.2-0.3-0.3-0.5-0.5c-0.5-0.8-1-1.5-2.1-1.6c-0.8-1.1-1.6-2.3-3.1-2.6
				c-1.3-1.8-3.3-2.8-5.2-3.7c-0.1-1-0.9-1.2-1.6-1.5c-0.8-0.7-1.5-1.5-2.6-1.6c-2.5-2.2-5.2-3.8-8.4-4.7c-1.4-1.6-3.2-2.3-5.2-2.6
				c-0.3-0.7-0.8-1-1.6-1C55.5,101.7,53.8,101.4,52.2,100.8z"/>
			<path class="st3" d="M89.8,123.8c0.4,0,0.8,0.1,1.1,0.5C90.1,125.1,89.9,124.5,89.8,123.8z"/>
			<path class="st7" d="M49,107.6c0.1-0.1,0.2-0.3,0.4-0.3c2.6,0,9.2,4.7,10,7.1c0.1,0.3,0.1,0.7,0.1,1
				C56,112.8,52.5,110.2,49,107.6z"/>
			<path class="st7" d="M61.1,116.5c1.9-0.1,3.2,0.4,3.2,2.6C62.9,118.5,61.8,117.8,61.1,116.5z"/>
			<path class="st7" d="M89.8,122.8c-2.2-0.7-3.3-2.6-4.7-4.2c2.2,0.1,3.8,1.3,5.2,3C90.9,122.4,90.6,122.6,89.8,122.8z"/>
			<path class="st7" d="M70.5,107.1c-0.7,0-1.3-0.4-1.6-1.1C69.7,106,70.4,106,70.5,107.1z"/>
			<path class="st7" d="M80.4,114.4c-0.7,0-1.3-0.4-1.6-1.1C79.6,113.4,80.4,113.4,80.4,114.4z"/>
			<path class="st7" d="M66.8,105c-0.4,0-0.8-0.1-1.1-0.5C66.6,103.7,66.7,104.3,66.8,105z"/>
			<path class="st7" d="M110.5,113.9c0.1-0.1,0.3-0.3,0.5-0.4c0.4-0.1,0.7,0.1,0.8,0.4c0,0.1,0.4,0.5-0.1,0.5
				C111.2,114.4,110.7,114.4,110.5,113.9z"/>
			<path class="st8" d="M66.3,79.9c-2.7,0.5-2.7-1.2-2.6-3c1.5,0,2.9,0,4.4-0.1c0.9,0,1.8,0.2,1.9,1.3c0.1,1.3-0.8,1.3-1.7,1.3
				C67.5,79.3,66.8,79.2,66.3,79.9z"/>
			<path class="st14" d="M53.7,76.8c-0.1-0.1-0.3-0.4-0.3-0.4c0.5-0.7,5.2-1.1,6.2-0.5c1.3,0.7,0.8,2,0.8,3c0,0.7-0.3,1.3-1,1.3
				c-2,0.2-3.9,0.4-5.9-0.1c-0.4-0.1-0.1-0.6,0.1-0.8c1.1,0.1,2.2,0.4,3-0.6c0.4-0.6,0.5-0.5,0.6,0.1c0.1,0.7,0.5,1.1,1.2,0.8
				c0.7-0.3,0.8-1,0.8-1.7s-0.3-1.2-1.1-1.2C56.8,76.8,55.3,76.8,53.7,76.8z"/>
			<path class="st8" d="M53.7,76.8c1.5,0,3.1,0,4.6,0c0.7,0,1.1,0.5,1.1,1.2s-0.1,1.4-0.8,1.7c-0.7,0.3-1.1-0.1-1.2-0.8
				c-0.1-0.6-0.2-0.7-0.6-0.1c-0.8,1-1.9,0.7-3,0.6C53.8,78.5,53.8,77.7,53.7,76.8z"/>
			<path class="st14" d="M66.3,79.9c0.5-0.7,1.2-0.5,1.9-0.5c0.9,0,1.8,0,1.7-1.3C69.8,77,69,76.8,68,76.8c-1.5,0-2.9,0-4.4,0.1
				c-0.6-1,0.3-1.1,0.8-1.1c1-0.1,2.1-0.1,3.1,0c1,0,2.3-0.4,2.8,0.9c0.4,1,0.6,2.3-0.2,3.2c-0.8,1-2.1,0.7-3.2,0.4
				C66.7,80.1,66.5,80,66.3,79.9z"/>
			<path class="st16" d="M57.3,72.6c-1.6,0-3.1,0.1-4.7,0c-1-0.1-2.4,0.6-2.8-0.6c-0.5-1.6-0.4-3.4,0-5.2c0.1-0.6,0.8-0.5,1.4-0.5
				c4.6-0.2,9.1,0.7,13.7-0.4c0.6-0.2,1.1,0.4,0.9,0.9c-0.5,1.5-0.3,2.9-0.4,4.4c0,1.2-0.7,1.4-1.7,1.4
				C61.5,72.6,59.4,72.6,57.3,72.6z"/>
			<path class="st16" d="M71.1,67.4c0,0.7-0.1,1.5,0,2.2c0.4,2.5-0.8,3.2-3.1,3c-1.2-0.1-2-0.5-1.7-1.7c0.3-1.4-1.2-3.4,1.2-4.2
				c0.6-0.2,1.2-0.3,1.8-0.4c1.4-0.1,3.3-0.8,3.9,0.4c0.8,1.5,0.6,3.5,0.7,5.3c0,0.4-0.4,0.5-0.8,0.5c-0.7,0-1.1-0.5-1.3-1
				C71.2,70.2,71.7,68.8,71.1,67.4z"/>
			<path class="st7" d="M58.5,103.9c2,0.3,3.8,1.1,5.2,2.6C61.5,107.3,59.5,106.3,58.5,103.9z"/>
			<path class="st7" d="M76.3,114.4c2,0.9,3.9,1.9,5.2,3.7C78.8,118.1,77.1,116.9,76.3,114.4z"/>
			<path class="st7" d="M52.2,100.8c1.6,0.6,3.3,0.9,4.7,2.1c-0.1,0.3-0.3,0.6-0.4,0.8C55.1,102.7,52.8,103,52.2,100.8z"/>
			<path class="st7" d="M53.3,104c0.4,0,0.8,0.1,0.7,0.5c-0.1,0.7-0.5,1.1-1.1,1.3c-0.4,0.1-0.7-0.1-0.7-0.5
				C52.3,104.6,52.7,104.2,53.3,104z"/>
			<path class="st7" d="M72.1,111.3c1.1,0.1,1.8,0.9,2.6,1.6C72.8,114,72.5,112.6,72.1,111.3z"/>
			<path class="st7" d="M46.9,98.7c0.4,0,0.8,0.1,1.1,0.5c-0.1,0.5,0.1,1.3-0.5,1.2C46.6,100.3,47.1,99.3,46.9,98.7z"/>
			<path class="st7" d="M84.6,120.7c1,0.1,1.6,0.7,2.1,1.6C85.6,122.3,84.7,122,84.6,120.7z"/>
		</g>
	</g>
</g>
</svg>
