<?xml version="1.0" encoding="utf-8"?>
<!-- Generator: Adobe Illustrator 22.0.1, SVG Export Plug-In . SVG Version: 6.00 Build 0)  -->
<svg version="1.1" id="Capa_1" xmlns="http://www.w3.org/2000/svg" xmlns:xlink="http://www.w3.org/1999/xlink" x="0px" y="0px"
	 viewBox="0 0 166 166" style="enable-background:new 0 0 166 166;" xml:space="preserve">
<style type="text/css">
	.st0{fill:#8A3F25;}
	.st1{opacity:0.37;fill:#FFFFFF;enable-background:new    ;}
	.st2{fill:#4D4D4D;}
	.st3{fill:#454545;}
	.st4{fill:#D9D9D9;}
	.st5{fill:#414141;}
	.st6{fill:#ECECEC;}
	.st7{fill:#9B9B9B;}
	.st8{fill:#B5B5B5;}
	.st9{fill:#EDEDED;}
	.st10{fill:#2A2A2A;}
	.st11{fill:#B1B1B1;}
	.st12{fill:#3D3D3D;}
	.st13{fill:#CBCBCB;}
	.st14{fill:#FEFEFE;}
	.st15{fill:#010101;}
	.st16{fill:#D3D3D3;}
	.st17{fill:#202020;}
	.st18{fill:#747474;}
</style>
<title>btn6vivienda rural</title>
<g id="Comunidad">
	<g id="Layer_1_2_">
		<path class="st0" d="M145.8,30.6V143c0,1.5-1.3,2.8-2.8,2.8H30.6c-0.7,0-1.4-0.3-1.9-0.8l-0.3-0.3l-7.1-7.2l-0.3-0.2
			c-0.5-0.5-0.8-1.2-0.8-1.9V23.1c0-1.6,1.3-2.8,2.8-2.8h112.4c0.7,0,1.5,0.3,2,0.8l0.2,0.2l7.1,7.1l0,0
			C145.4,28.9,145.8,29.7,145.8,30.6z"/>
		<circle class="st1" cx="86.1" cy="83.1" r="50.2"/>
	</g>
</g>
<g>
	<g>
		<path class="st2" d="M131.9,97.9c-0.3,0.3-0.6,0.4-0.9,0.6c0,0,0,0,0,0C131,97.9,131.5,98,131.9,97.9L131.9,97.9z"/>
		<path class="st3" d="M131.9,97.9c-0.3,0.2-0.8,0.1-0.9,0.6c-0.4-0.1-0.7,0.2-1,0.4c-1.3,0.7-2.7,1.2-4.1,1.7
			c-0.9,0.3-1.8,0.5-2.7,0.8c-0.6,0.2-1.2,0.1-1.8,0.2c-0.9,0.2-1.8,0.2-2.7,0.2c-0.8,0-1.6,0.1-2.5,0c-1.3-0.2-2.5-0.2-3.8-0.6
			c-0.7-0.2-1.4-0.4-2.1-0.6c-0.7-0.1-1.3-0.5-1.9-0.7c-1.7-0.7-3.3-1.7-4.8-2.7c-0.6-0.4-0.9-0.8-0.8-1.6c0.1-1.5,0-2.9,0.2-4.4
			c0.4-2.1,1.5-3.5,3.7-4c0.7-0.2,1.5-0.3,2.2-0.2c0,0.2,0.2,0.4,0.3,0.5c1,0.9,2,1.9,3,2.8c0.1,0.1,0.1,0.1,0.2,0.2
			c0.1,0,0.2,0.1,0.3,0c0.1-0.1,0-0.2-0.1-0.3c-0.5-0.3-0.8-0.7-1.1-1c-0.8-0.7-1.6-1.4-2.4-2.2c1.3-0.8,2.7-1.3,4.1-1.9
			c0.1,0,0.2,0,0.3,0c0.3,1.1,0.7,2.2,1,3.2c0.2,0.7,0.3,1.4,0.7,2c0,0.1,0.1,0.2,0.1,0.4c0,0.1,0,0.2,0,0.3
			c0.3,0.9,0.5,1.8,0.8,2.7c0.2,0.7,0.2,1.4,0.7,2c0.3,1.5,0.8,2.9,1.3,4.4c0.5-1.5,0.9-2.8,1.3-4.2c0.1-0.5,0.3-1,0.4-1.5
			c0.3-1.2,0.8-2.4,1.1-3.7c0.2-0.1,0.1-0.2,0.1-0.3c0-0.1,0.1-0.1,0.1-0.2c0.5-1.7,1-3.4,1.6-5.1c0.5,0,0.9,0.3,1.3,0.5
			c0.9,0.4,1.8,0.8,2.7,1.2c0.1,0.1,0.3,0.1,0.3,0.3c-0.5,0.7-1.2,1.1-1.8,1.7c-0.5,0.5-1,0.9-1.5,1.4c-0.1,0.1-0.3,0.2-0.1,0.4
			c0.2,0.2,0.3-0.1,0.4-0.1c0.2-0.1,0.3-0.3,0.5-0.4c1-1,2.1-1.8,3.1-2.9c1.3,0,2.6,0.2,3.7,0.9c1.3,0.8,1.9,2.1,2.1,3.6
			c0.3,1.5,0.1,3,0.1,4.6c0,0.3-0.1,0.5-0.3,0.6c-0.4,0.2-0.7,0.5-1,0.7C132,97.5,131.8,97.6,131.9,97.9z"/>
		<path class="st4" d="M114.7,84.2c0.2-0.8,0.2-1.7,0.3-2.5c0-0.2,0-0.4-0.2-0.5c-1.8-1.3-2.7-3.1-3.3-5.2c-0.1-0.2-0.1-0.4-0.2-0.7
			c0-0.2-0.1-0.2-0.3-0.2c-0.7,0-1.2-0.4-1.4-1c-0.2-0.7-0.1-1.3,0.4-1.9c0,0,0-0.1,0.1-0.1c0.2,0.1,0.5,0.3,0.8,0.5
			c-0.1-1.6,0.7-2.9,1.6-4.1c0.5-0.7,0.9-1.5,1.1-2.4c0.2-1.4,0.7-1.3,1.7-1.2c0.2,0,0.4,0,0.6,0.1c1.1,0.2,2.2,0.5,3.4,0.7
			c1.1,0.2,2.2,0.3,3-0.9c0.3,1.7,1.2,2.9,2.3,4.1c0.9,0.9,1,2,1,3.2c0,0.2-0.1,0.4-0.1,0.6c0.3-0.1,0.5-0.3,0.8-0.4
			c0.7,0.8,0.8,1.6,0.3,2.3c-0.2,0.4-0.6,0.7-1.1,0.7c-0.4,0-0.5,0.2-0.6,0.5c-0.5,1.7-1.2,3.4-2.5,4.7c-0.1,0.1-0.2,0.3-0.3,0.3
			c-0.9,0.5-1,1.3-0.9,2.2c0.1,0.5,0.1,0.9,0.2,1.4c-0.1,0.1-0.3,0.2-0.4,0.3c-0.9,0.9-1.8,1.8-2.7,2.6c-0.2,0.2-0.3,0.3-0.6,0.1
			c-0.6-0.6-1.2-1.2-1.8-1.8C115.5,85.1,115.2,84.6,114.7,84.2z"/>
		<path class="st5" d="M126.2,72.3c-0.2,0.1-0.5,0.3-0.8,0.4c-0.1-0.2,0-0.4,0.1-0.6c0-1.2-0.1-2.3-1-3.2c-1.1-1.1-2-2.4-2.3-4.1
			c-0.8,1.2-1.9,1.1-3,0.9c-1.1-0.2-2.2-0.4-3.4-0.7c-0.2,0-0.4-0.1-0.6-0.1c-1,0-1.5-0.1-1.7,1.2c-0.2,0.9-0.5,1.7-1.1,2.4
			c-0.9,1.2-1.7,2.5-1.6,4.1c-0.3-0.2-0.6-0.3-0.8-0.5c-0.2-0.8-0.5-1.7-0.6-2.5c-0.7-3.6,0.5-7.3,3.7-9.6c2.6-1.8,5.8-2.1,8.6-0.1
			c0.2,0.2,0.5,0.3,0.8,0.3c1.6,0,3.2,1.1,3.7,2.6c0.4,1.1,0.6,2.2,0.7,3.4c0.1,1.7-0.1,3.3-0.5,4.9
			C126.4,71.6,126.3,71.9,126.2,72.3z"/>
		<path class="st6" d="M114.7,84.2c0.5,0.3,0.9,0.8,1.3,1.2c0.6,0.6,1.2,1.2,1.8,1.8c0.3,0.3,0.4,0.1,0.6-0.1
			c0.9-0.9,1.8-1.8,2.7-2.6c0.1-0.1,0.3-0.2,0.4-0.3c0.6,0,0.9,0.3,1.2,0.8c-0.5,1.7-1,3.4-1.6,5.1c0,0.1-0.1,0.1-0.1,0.2
			c-0.6-0.2-0.8-0.7-1.2-1c-0.5-0.5-1-1-1.5-1.5c-0.1-0.2-0.3-0.3-0.5,0c-0.5,0.6-1.1,1-1.5,1.6c-0.2,0-0.3,0.2-0.4,0.3
			c-0.2,0.2-0.4,0.6-0.8,0.6c-0.4-0.6-0.5-1.3-0.7-2c-0.3-1.1-0.7-2.1-1-3.2C113.7,84.6,114.1,84.2,114.7,84.2z"/>
		<path class="st5" d="M127.5,87c-1,1-2.1,1.9-3.1,2.9c-0.2,0.2-0.3,0.3-0.5,0.4c-0.1,0.1-0.2,0.3-0.4,0.1c-0.1-0.1,0-0.3,0.1-0.4
			c0.5-0.5,1-0.9,1.5-1.4c0.6-0.6,1.3-1,1.8-1.7C127.2,87,127.4,87,127.5,87z"/>
		<path class="st5" d="M109,87c0.8,0.7,1.6,1.5,2.4,2.2c0.4,0.3,0.7,0.8,1.1,1c0.1,0.1,0.1,0.2,0.1,0.3c-0.1,0.1-0.2,0-0.3,0
			c-0.1,0-0.2-0.1-0.2-0.2c-1-0.9-2-1.8-3-2.8c-0.1-0.1-0.3-0.3-0.3-0.5C108.9,87,108.9,87,109,87z"/>
		<path class="st2" d="M116.3,89.4c0.4-0.6,1.1-1.1,1.5-1.6c0.2-0.2,0.3-0.1,0.5,0c0.5,0.5,1,1,1.5,1.5c-0.1,0.1-0.1,0.2-0.2,0.3
			c-0.5,0.4-0.6,1-0.6,1.6c0.1,1,0.1,2,0.2,3.1c0,0.5-0.1,1.1,0.2,1.6c-0.4,1.3-0.8,2.7-1.3,4.2c-0.5-1.5-1-2.9-1.3-4.4
			c0.1-0.2,0.1-0.4,0.1-0.5c0.1-1.3,0.1-2.6,0.2-3.9c0.1-0.7-0.1-1.2-0.6-1.7C116.4,89.6,116.4,89.5,116.3,89.4z"/>
		<path class="st6" d="M116.5,89.6c0.5,0.5,0.7,1,0.6,1.7c-0.1,1.3-0.2,2.6-0.2,3.9c0,0.2,0,0.4-0.1,0.5c-0.4-0.6-0.4-1.3-0.7-2
			c-0.3-0.9-0.6-1.8-0.8-2.7c0-0.1,0-0.2,0-0.3C115.8,90.5,116,89.9,116.5,89.6z"/>
		<path class="st6" d="M119.4,95.9c-0.2-0.5-0.1-1-0.2-1.6c-0.1-1-0.1-2-0.2-3.1c-0.1-0.7,0.1-1.2,0.6-1.6c0.6,0.2,0.8,0.8,1.3,1
			c-0.3,1.3-0.7,2.5-1.1,3.7C119.7,94.9,119.5,95.4,119.4,95.9z"/>
		<path class="st4" d="M116.5,89.6c-0.5,0.3-0.7,0.8-1.3,1.1c-0.1-0.1-0.2-0.2-0.1-0.4c0.4,0,0.6-0.3,0.8-0.6
			c0.1-0.1,0.2-0.3,0.4-0.3C116.4,89.5,116.4,89.6,116.5,89.6z"/>
		<path class="st4" d="M120.9,90.7c-0.5-0.3-0.7-0.9-1.3-1c0.1-0.1,0.1-0.2,0.2-0.3c0.4,0.3,0.7,0.9,1.2,1
			C121,90.5,121.1,90.6,120.9,90.7z"/>
	</g>
	<g>
		<path class="st5" d="M68.3,94.6c-0.8,0.7-1.7,1.2-2.6,1.8c-1.2,0.8-2.5,1.3-3.8,1.8c-0.6,0.3-1.4,0.4-2,0.7
			c-0.9,0.3-1.8,0.4-2.7,0.7c-0.7,0.2-1.4,0.2-2.2,0.3c-1.3,0-2.7,0.1-4,0c-1-0.1-2.1-0.2-3.1-0.5c-1-0.2-1.9-0.6-2.9-0.7
			c0,0-0.1,0-0.1,0.1c-0.2-0.1-0.3-0.1-0.5-0.2c-0.3-0.5-0.8-0.6-1.4-0.7c-1-0.3-1.9-0.9-2.7-1.4c-0.8-0.5-1.6-1.1-2.4-1.6
			c-0.1-0.1-0.3-0.2-0.2-0.3c0-1.2,0-2.3,0-3.5c0.1-1.3,0.2-2.7,1-3.8c0.5-0.8,1.3-1.3,2.1-1.7c0.3-0.1,0.6-0.2,0.9-0.2
			c1.7-0.1,3.2-0.5,4.7-1.3c0.2-0.1,0.5-0.2,0.7-0.3c0.2-0.1,0.4-0.2,0.6-0.2c-1,0.9-1.8,1.9-2.2,3.2c0,0,0,0,0,0
			c-0.3,0.8-0.6,1.6-0.9,2.4c0,0-0.1,0-0.1,0.1c0.1,0,0.1,0,0.1,0c0.5-0.3,1.1-0.6,1.6-0.9c0.9-0.5,1.7-1,2.6-1.5
			c0.5-0.3,0.7-0.2,0.9,0.3c0.1,0.3,0.2,0.6,0.3,0.9c1,3.3,2,6.6,3.2,9.9c1-3.3,2-6.6,3-9.9c0.1-0.5,0.3-0.9,0.4-1.4
			c0.3-0.1,0.6,0,0.9,0.2c1.2,0.8,2.5,1.5,3.8,2.3c0.1,0.1,0.1,0.2,0.3,0.1c0.1-0.1,0-0.2,0-0.3c-0.3-0.8-0.7-1.5-0.9-2.3
			c-0.3-1.1-0.8-2.1-1.8-2.8c-0.1,0-0.1-0.1-0.2-0.2c0.2,0,0.3,0,0.4,0.1c2,1.1,4.1,1.5,6.3,1.8c0.5,0.3,1.1,0.5,1.6,1
			c1,1,1.3,2.3,1.5,3.7c0,0.3,0,0.5,0,0.8C68.3,92.1,68.3,93.3,68.3,94.6z M60.5,94c-0.5,0-1,0-1.4,0c-0.3,0-0.4,0.1-0.4,0.4
			c0,0.5,0,1.1,0,1.6c0,0.3,0.1,0.5,0.4,0.5c1.3,0,2.5,0,3.8,0c0.6,0,0.7-0.2,0.7-0.7c0-1.9,0-1.9-1.9-1.7c-0.1-0.3-0.3-0.5-0.6-0.6
			C60.8,93.4,60.6,93.7,60.5,94z"/>
		<path class="st2" d="M43,97.9c0.5,0,1.1,0.1,1.4,0.7C43.9,98.3,43.4,98.2,43,97.9z"/>
		<path class="st7" d="M47.6,83.5c-0.2-0.1-0.4,0.1-0.6,0.2c-0.2,0.1-0.5,0.2-0.7,0.3c-1.5,0.8-3,1.2-4.7,1.3
			c-0.3,0-0.6,0.1-0.9,0.2c-0.4-1.8-0.2-3.6,0-5.4c0.5-4.2,1.5-8.3,2.5-12.3c0.3-1.1,0.3-2.3,0.7-3.5C44.8,62,46,60,48,58.6
			c1.1-0.7,2.2-1.1,3.5-1.1c1.3,0,2.6-0.1,3.8,0.1c2,0.3,3.5,1.6,4.7,3.2c1.5,1.9,2.3,4.1,2.5,6.6c0.1,1.2,0.5,2.3,0.8,3.5
			c0.8,3.4,1.5,6.8,1.9,10.2c0.2,1.5,0.3,3-0.1,4.5c-2.2-0.3-4.4-0.7-6.3-1.8c-0.1-0.1-0.3-0.1-0.4-0.1c-0.2-0.2-0.5-0.3-0.7-0.6
			c-0.4-0.4-0.7-0.9-1.4-0.7c-0.2-0.5-0.2-1.1-0.2-1.7c0-0.3,0-0.6-0.5-0.4c-1.8,0.9-3.6,0.9-5.4,0c-0.3-0.2-0.4-0.1-0.4,0.2
			c0,0.5-0.1,1-0.2,1.5c0,0.2-0.1,0.4-0.3,0.3c-0.4-0.1-0.6,0.2-0.9,0.4c-0.3,0.2-0.4,0.6-0.8,0.6C47.6,83.4,47.5,83.4,47.6,83.5
			L47.6,83.5z M48.7,66.3c0,0.9-0.2,1.7-0.1,2.5c0,0.3,0,0.5-0.4,0.6c-0.9,0.2-1.9,0.5-2.7,0.9c-0.9,0.4-1.2,0.7-1.1,1.9
			c0,0.7,0.5,1.2,1.3,1.3c0.4,0.1,0.5,0.2,0.6,0.5c0.4,1.3,0.9,2.6,1.7,3.7c1.2,1.7,2.8,2.7,4.9,2.8c2.4,0,4.2-1.1,5.4-3.1
			c0.6-1,1.1-2.2,1.5-3.3c0.1-0.3,0.2-0.5,0.6-0.5c1.2-0.2,1.7-1.6,1-2.7c-0.3-0.3-0.7-0.4-1-0.6c-1.8-1-3.9-1.4-5.9-1.5
			c-1.4-0.1-2.7,0-4.1,0.2c-1,0.2-1,0.1-1.2-0.9c0-0.1,0-0.1,0-0.2C48.8,67.3,49.1,66.8,48.7,66.3z"/>
		<path class="st8" d="M68.3,94.6c0-1.2,0-2.4,0-3.6C68.4,92.1,68.4,93.3,68.3,94.6z"/>
		<path class="st4" d="M47.7,83.4c0.4-0.1,0.5-0.4,0.8-0.6c0.3-0.2,0.5-0.5,0.9-0.4c0.2,0,0.3-0.1,0.3-0.3c0.1-0.5,0.2-1,0.2-1.5
			c0-0.3,0.1-0.4,0.4-0.2c1.8,0.9,3.6,0.9,5.4,0c0.5-0.2,0.5,0.1,0.5,0.4c0,0.6,0,1.1,0.2,1.7c0,0.5,0,0.9,0,1.4
			c0,0.5-0.1,0.8-0.5,1.1c-0.8,0.8-1.5,1.6-2.3,2.4c-0.1,0.1-0.3,0.2-0.2,0.4c0.1,0.2,0.3,0,0.5,0c0.8-0.3,1.6-0.7,2.5-0.9
			c-0.1,0.5-0.3,0.9-0.4,1.4c-2.1,0-4.1,0-6.2,0c-0.1-0.3-0.2-0.6-0.3-0.9c-0.2-0.5-0.3-0.6-0.9-0.3c-0.9,0.5-1.7,1-2.6,1.5
			c-0.5,0.3-1,0.6-1.6,0.9c0,0,0,0-0.1-0.1c0.3-0.8,0.6-1.6,0.9-2.4c0,0,0,0,0,0c0.3-1.3,1.1-2.4,2.2-3.2c0,0,0,0,0,0
			C47.6,83.5,47.7,83.4,47.7,83.4z"/>
		<path class="st9" d="M49.8,88.1c2.1,0,4.1,0,6.2,0c-1,3.3-2,6.6-3,9.9C51.8,94.7,50.8,91.4,49.8,88.1z"/>
		<path class="st9" d="M56.4,86.7c-0.9,0.1-1.7,0.6-2.5,0.9c-0.2,0-0.3,0.2-0.5,0c-0.1-0.2,0.1-0.3,0.2-0.4c0.8-0.8,1.5-1.6,2.3-2.4
			c0.3-0.3,0.5-0.6,0.5-1.1c0-0.5,0-0.9,0-1.4c0.7-0.2,1,0.3,1.4,0.7c0.2,0.2,0.5,0.4,0.7,0.6c0.1,0.1,0.1,0.2,0.2,0.2
			c1,0.7,1.5,1.7,1.8,2.8c0.2,0.8,0.6,1.5,0.9,2.3c0,0.1,0.1,0.2,0,0.3c-0.1,0.1-0.2,0-0.3-0.1c-1.3-0.8-2.5-1.5-3.8-2.3
			C57,86.7,56.7,86.6,56.4,86.7z"/>
		<path class="st9" d="M61.7,94c1.9-0.2,1.9-0.2,1.9,1.7c0,0.6-0.1,0.7-0.7,0.7c-1.3-0.1-2.5,0-3.8,0c-0.4,0-0.5-0.1-0.4-0.5
			c0-0.5,0-1.1,0-1.6c0-0.3,0.1-0.4,0.4-0.4c0.5,0,0.9,0,1.4,0c0.1,0.4,0.2,0.8,0.7,0.7C61.6,94.6,61.8,94.4,61.7,94z"/>
		<path class="st8" d="M61.7,94c0,0.4-0.2,0.6-0.5,0.7c-0.5,0.1-0.6-0.3-0.7-0.7c0.1-0.3,0.3-0.5,0.6-0.5
			C61.4,93.5,61.7,93.7,61.7,94z"/>
		<path class="st4" d="M44.5,89.2c0,0.1-0.1,0.1-0.1,0C44.4,89.2,44.5,89.2,44.5,89.2C44.5,89.2,44.5,89.2,44.5,89.2z"/>
		<path class="st4" d="M48.7,66.3c0.3,0.6,0.1,1.1,0.3,1.5c0,0,0,0.1,0,0.2c0.2,1,0.2,1.1,1.2,0.9c1.4-0.2,2.7-0.3,4.1-0.2
			c2.1,0.1,4.1,0.5,5.9,1.5c0.3,0.2,0.8,0.3,1,0.6c0.8,1,0.2,2.4-1,2.7c-0.4,0.1-0.5,0.2-0.6,0.5c-0.4,1.2-0.8,2.3-1.5,3.3
			c-1.3,2-3,3.2-5.4,3.1c-2.1,0-3.7-1-4.9-2.8c-0.8-1.1-1.3-2.4-1.7-3.7c-0.1-0.3-0.2-0.5-0.6-0.5c-0.8-0.1-1.2-0.6-1.3-1.3
			c0-1.2,0.2-1.5,1.1-1.9c0.9-0.4,1.8-0.7,2.7-0.9c0.3-0.1,0.4-0.3,0.4-0.6C48.5,67.9,48.7,67.2,48.7,66.3z"/>
		<path class="st5" d="M47.7,83.4c0,0.1,0,0.1-0.1,0.1C47.5,83.4,47.6,83.4,47.7,83.4z"/>
	</g>
	<g>
		<path class="st2" d="M90.6,103.9c-1.3,1.7-2.8,3.1-4.6,4.3c-10.3,7.3-24.4,5.6-32.6-4.1c-0.1-0.1-0.1-0.2-0.2-0.3
			c0.2,0,0.3,0.1,0.4,0.2c0.5,0.5,1,0.9,1.5,1.4c1.3,1.1,2.6,2.1,4.1,2.9c0.2,0.2,0.4,0.3,0.7,0.4c0.2,0.1,0.5,0.3,0.7,0.4
			c0.2,0.1,0.3,0,0.4-0.2c0.1-0.5,0.4-0.6,0.9-0.6c1,0,2,0,2.9,0c0.2,0,0.5,0,0.7,0c0.6,0,1.1,0,1.7,0c0.2,0,0.5,0,0.7,0
			c0.6,0,1.1,0,1.7,0c0.2,0,0.5,0,0.7,0c1.1,0,2.3,0,3.4,0c0.2,0,0.5,0,0.7,0c0.6,0,1.1,0,1.7,0c0.2,0,0.5,0,0.7,0
			c0.6,0,1.1,0,1.7,0c0.4,0,0.8,0,1.1,0c0.9,0,1.8,0,2.7,0c0.4,0,0.7,0.1,0.8,0.5c0,0.1,0.1,0.2,0.2,0.2c0.3-0.1,0.6-0.1,0.7-0.4
			c0.4,0,0.7-0.2,0.9-0.5c0.1-0.1,0.3-0.1,0.4-0.2c1.6-1,3.2-2.2,4.5-3.6C90.2,104.1,90.3,103.9,90.6,103.9z M63.3,109.1
			c-0.3,0-0.6,0.1-0.8,0.3c-0.2,0.2-0.3,0.4,0.1,0.5c0.5,0.2,1,0.4,1.5,0.6c0.3,0.1,0.3,0,0.3-0.2C64.5,109.6,64,109.1,63.3,109.1z
			 M81.1,109.1c-0.7,0-1.3,0.5-1.3,1.1c0,0.3,0.1,0.4,0.3,0.3c0.4-0.2,0.9-0.3,1.3-0.5c0.2-0.1,0.5-0.1,0.5-0.3
			c0-0.2-0.3-0.4-0.5-0.4C81.3,109.1,81.2,109.1,81.1,109.1z"/>
		<path class="st10" d="M84.2,108.5c-0.1,0.3-0.4,0.4-0.7,0.4c0.1-0.7,0-1.5,0-2.2c-0.1-2.4,0.4-4.7,0.5-7.1c0-0.4-0.1-0.9,0.2-1.4
			c0.4,0.2,0.9,0.1,1.4,0.1c0.2,0,0.4,0,0.4-0.3c0-0.3-0.1-0.4-0.4-0.4c-0.5,0-0.9,0-1.4,0c-0.1-0.6,0.2-1.1,0.1-1.7
			c0.4,0,0.8,0,1.2,0c0.2,0,0.4,0.1,0.4-0.2c1.1,0.1,2.2,0.3,3.2,0.8c0.8,0.4,1,1.3,1.3,2.1c0.4,0.9,0.8,1.9,1.2,2.8
			c0.1,0.2,0.1,0.4,0.3,0.5c-0.4,0.7-0.9,1.3-1.4,1.8c-0.3,0-0.4,0.2-0.6,0.4c-1.4,1.4-2.9,2.5-4.5,3.6c-0.1,0.1-0.3,0.1-0.4,0.2
			c0-0.1,0-0.3-0.1-0.4c0-0.2,0-0.4,0-0.6c0.2-0.6,0.2-1.2,0.2-1.8c0-0.2,0.2-0.5-0.1-0.6c-0.5-0.2-0.8,0-0.8,0.6c0,0.6,0,1.2,0,1.8
			c0,0.2,0,0.3,0,0.5C84.2,107.9,84.2,108.2,84.2,108.5z M85,100.7c0.2,0,0.3,0,0.5,0c0.3,0,0.3-0.2,0.4-0.4c0-0.3-0.2-0.2-0.4-0.2
			c-0.3,0-0.6,0-1,0c-0.2,0-0.2,0.1-0.2,0.3c0,0.2,0,0.3,0.2,0.3C84.6,100.7,84.8,100.7,85,100.7z M84.9,102.4
			c-0.2,0.2-0.6-0.2-0.6,0.4c0,0.5,0.3,0.3,0.6,0.3c0.3,0,0.6,0.1,0.6-0.4C85.4,102.2,85.1,102.5,84.9,102.4z"/>
		<path class="st10" d="M59.3,108.3c-1.5-0.8-2.8-1.8-4.1-2.9c-0.5-0.4-1-0.9-1.5-1.4c-0.1-0.1-0.2-0.2-0.4-0.2
			c-0.1-0.1-0.2-0.2-0.3-0.4c0-0.2,0-0.3-0.2-0.3c-0.2-0.2-0.4-0.5-0.6-0.8c0.3,0,0.3-0.3,0.4-0.4c0.6-1.3,1.1-2.7,1.7-4
			c0.3-0.7,0.7-1.3,1.6-1.4c0.6,0.2,1.1,0.4,1.6,0.8c0-0.5,0-0.9,0-1.3c0.3,0,0.5-0.2,0.8-0.1c0,0.1,0,0.1,0,0.2c0,0.6,0,1.1,0,1.7
			c0,0.2,0,0.4,0,0.6c0,0.6-0.1,1.2,0.3,1.7c0,0.2,0,0.4,0.1,0.6c0,0.6,0.1,1.1,0.2,1.7c0,0.2,0,0.4,0,0.6c0,0.6,0,1.1,0.2,1.7
			c-0.1,0.2,0,0.4,0,0.7c-0.1,0.6,0.2,1.2,0.1,1.7c0,0.2,0,0.4,0,0.5C59.3,107.9,59.3,108.1,59.3,108.3z"/>
		<path class="st2" d="M52.8,103.1c0.2,0,0.3,0.1,0.2,0.3C52.9,103.4,52.8,103.3,52.8,103.1z"/>
		<path class="st11" d="M77.7,79.1c0.1,1,0.5,1.9,0.8,2.8c0.1,0.3,0.3,0.5,0.7,0.5c0.4,0,0.4-0.3,0.5-0.6c0.1-0.5,0.2-1,0.4-1.5
			c0-0.1,0-0.3,0.2-0.3c0.2,0,0.3,0.1,0.3,0.3c0.2,0.5,0.1,1,0,1.5c-0.1,0.5-0.2,1-0.5,1.5c-0.2,0.4-0.5,0.6-0.9,0.5
			c-0.3-0.1-0.4,0.1-0.4,0.3c-0.2,0.9-0.3,1.7-0.6,2.6c-0.3,1.1-0.7,2.1-1.6,2.8c-0.2,0.1-0.2,0.3-0.1,0.5c0.1,0.5,0.3,1,0.5,1.4
			c0.8,1.5,0.6,2.9-0.5,4.1c-0.2,0.2-0.3,0.5-0.5,0.7c-1.5,2.1-2.9,4.2-3.8,6.6c-0.1,0-0.1,0-0.2,0c-0.1-0.1-0.1-0.3-0.2-0.4
			c-1.1-2.7-2.8-5-4.5-7.3c-0.5-0.7-0.7-1.5-0.6-2.3c0.1-0.5,0.3-0.9,0.4-1.3c0,0,0,0,0,0c0.1,0,0.1,0,0.1-0.1
			c0.1-0.2,0.1-0.3,0.2-0.5c0.3-0.7,0.4-1.4-0.2-2.1c-1-1.1-1.1-2.6-1.4-4c0-0.2-0.1-0.4-0.1-0.6c0-0.2-0.1-0.4-0.4-0.3
			c-0.5,0.1-0.7-0.2-0.9-0.5c-0.4-0.7-0.6-1.6-0.6-2.4c0-0.2,0.1-0.4,0.2-0.6c0.1-0.2,0.2-0.3,0.4-0.3c0.2,0,0.2,0.2,0.2,0.4
			c0.1,0.7,0.3,1.3,0.6,1.9c0.1,0.2,0.3,0.4,0.6,0.4c0.2,0,0.4-0.2,0.4-0.5c0.1-1,0.5-2.1,0.5-3.1c1.4,0.1,2.9,0.2,4.3,0.3
			c0.7,0,1.4,0.1,2.2,0.1C74.7,79.4,76.2,79.2,77.7,79.1z"/>
		<path class="st10" d="M72.2,102.9c0.9-2.4,2.3-4.5,3.8-6.6c0.2-0.2,0.3-0.5,0.5-0.7c1.1-1.3,1.3-2.6,0.5-4.1
			c0.7,0.2,1.3,0.7,1.6,1.3c0.2,0.3,0.4,0.4,0.8,0.5c-0.1,0.4,0.1,0.6,0.5,0.5c0.2,0,0.5,0,0.7,0c0.3,0.1,0.6,0.2,1,0.4
			c0,0.1,0,0.3,0,0.4c-0.2,1.1-0.4,2.2-0.5,3.3c-0.3,0-0.6,0-0.9,0c-0.2,0-0.4,0-0.4,0.3c0,0.3,0.1,0.4,0.4,0.4c0.3,0,0.5,0,0.8,0
			c-0.1,0.6-0.2,1.2-0.2,1.7c-0.3,0-0.6,0-0.8,0c-0.2,0-0.4,0.2-0.4,0.4c0,0.3,0.3,0.2,0.4,0.2c0.2,0,0.5,0,0.7,0
			c0,0.6-0.1,1.2-0.1,1.8c-0.3-0.1-0.5,0-0.8-0.1c-0.2,0-0.3,0.1-0.3,0.3c0,0.2,0,0.3,0.3,0.3c0.2,0,0.5,0,0.7,0
			c-0.1,0.6-0.2,1.1-0.2,1.7c-0.2,0.1-0.6-0.2-0.7,0.2c-0.2,0.5,0.3,0.5,0.6,0.5c0.1,0.6-0.1,1.1-0.1,1.7c-0.2,0-0.5-0.2-0.5,0.2
			c0,0.3,0.1,0.4,0.4,0.3c0,0.2,0,0.4,0,0.5c-0.4,0-0.8,0-1.1,0c0-0.2,0-0.4,0-0.6c0.1-0.5-0.1-0.6-0.6-0.6c-0.2,0-0.4,0-0.6,0
			c-0.4-0.1-0.6,0.1-0.6,0.5c0,0.2,0,0.4,0,0.6c-0.2,0-0.5,0-0.7,0c0-0.2,0-0.4,0-0.6c0.1-0.4,0-0.6-0.5-0.6c-0.2,0-0.4,0-0.6,0
			c-0.5-0.1-0.7,0.1-0.6,0.6c0,0.2,0,0.4,0,0.6c-0.2,0-0.5,0-0.7,0c0-0.2,0-0.4,0-0.6c0.1-0.4-0.1-0.6-0.6-0.5c-0.4,0-0.8,0-1.1,0
			c0-0.6,0-1.1,0-1.7c0.5,0,0.9,0,1.4,0c0.2,0,0.3-0.1,0.3-0.3c0-0.2-0.1-0.3-0.3-0.3c-0.5,0-0.9,0-1.4,0c0.1-0.5-0.2-1.1,0.1-1.6
			c0.4,0,0.8,0,1.2,0c0.3,0,0.4-0.1,0.4-0.4c0-0.3-0.1-0.3-0.3-0.3c-0.6-0.1-0.9,0.3-1.2,0.6C72.2,103,72.2,102.9,72.2,102.9z
			 M74.6,100.7c-0.1,0.6,0,1.2-0.1,1.7c-0.1,0.5,0,0.7,0.6,0.6c0.2,0,0.4,0,0.6,0c0.6,0.1,0.7-0.2,0.6-0.6c0-0.6,0-1.2,0-1.8
			c0.1-0.4,0-0.6-0.5-0.6C75.2,100.1,74.8,100.3,74.6,100.7z M77.8,103.1C77.8,103.1,77.8,103.1,77.8,103.1c0.2,0,0.3,0,0.5,0
			c0.3,0,0.4,0,0.4-0.4c0-0.3-0.2-0.3-0.4-0.3c-0.3,0-0.7,0-1,0c-0.2,0-0.3,0.1-0.3,0.3c0,0.2,0,0.3,0.3,0.3
			C77.4,103.1,77.6,103.1,77.8,103.1z M77.8,105.4C77.8,105.4,77.8,105.4,77.8,105.4c0.2,0,0.3,0,0.5,0c0.2,0,0.4,0,0.4-0.3
			c0-0.3-0.1-0.4-0.4-0.3c-0.4,0-0.7,0-1.1,0c-0.3,0-0.2,0.2-0.2,0.4c0,0.2,0,0.3,0.2,0.3C77.4,105.4,77.6,105.4,77.8,105.4z
			 M75.3,104.7c-0.2,0-0.4,0-0.6,0c-0.3,0-0.3,0.1-0.3,0.4c0,0.2,0.1,0.3,0.3,0.3c0.4,0,0.8,0,1.2,0c0.2,0,0.2-0.1,0.2-0.3
			c0-0.2,0-0.4-0.2-0.4C75.8,104.7,75.6,104.7,75.3,104.7z M80.3,95.4c-0.2,0-0.4,0-0.6,0c-0.1,0-0.2,0.1-0.2,0.2
			c0,0.1-0.1,0.4,0.1,0.4c0.4,0.1,0.9,0.1,1.3,0c0.2,0,0.1-0.2,0.1-0.3C81,95.2,80.5,95.6,80.3,95.4z M77.7,100.7c0.2,0,0.4,0,0.6,0
			c0.3,0,0.3-0.1,0.3-0.3c0-0.2,0-0.3-0.2-0.3c-0.4,0-0.8,0-1.2,0c-0.2,0-0.3,0.1-0.2,0.3c0,0.2,0,0.3,0.2,0.3
			C77.3,100.7,77.5,100.7,77.7,100.7z"/>
		<path class="st12" d="M58.6,100.1c-0.4-0.5-0.3-1.1-0.3-1.7c0.6,0,1.1,0.2,1.7-0.1c0.2-0.3,0.1-0.5,0-0.8c0,0.1,0,0.2,0,0.3
			c-0.6,0-1.1,0-1.7,0c0-0.6,0-1.1,0-1.7c0.4,0,0.8,0,1.2,0c0.2,0,0.4,0.1,0.4-0.2c0-0.3,0-0.5-0.4-0.5c0.8-0.7,1.9-1,2.9-1.4
			c0.1,0,0.1,0,0.2,0.1c0.1,0.6,0.3,1.2,0.4,1.8c0,0.2,0.2,0.2,0.4,0.2c0.4,0,0.8,0,1.2,0c0,0.6,0,1.1-0.2,1.6c-0.2,0-0.5,0-0.7,0
			c-0.2,0-0.4-0.1-0.4,0.3c0,0.3,0.1,0.4,0.4,0.4c0.2,0,0.5,0,0.7,0c0,0.6,0,1.2,0.1,1.7c-0.2,0-0.4,0-0.6,0c-0.2,0-0.3,0-0.3,0.3
			c0,0.2,0.1,0.3,0.3,0.3c0.3,0,0.6,0,1-0.1c0,0.6,0,1.2,0,1.8c-0.2,0-0.4,0-0.7,0c-0.1,0-0.3,0-0.3,0.2c0,0.2,0,0.4,0.3,0.4
			c0.2,0,0.4,0,0.7,0c0.1,0.6,0.1,1.1,0,1.7c-0.7-0.1-0.7-0.1-0.6,0.6c0.1,0.6,0.1,1.1,0.2,1.7c0,0.3-0.2,0.8,0.4,0.5
			c0,0.2,0,0.4,0,0.6c-1,0-2,0-2.9,0c-0.5,0-0.8,0.1-0.9,0.6c0,0.2-0.1,0.3-0.4,0.2c0-0.4,0-0.9,0.1-1.3c0.3,0,0.3-0.1,0.3-0.3
			c0-0.3-0.1-0.3-0.3-0.3c0.1-2.9-0.3-5.7-0.5-8.5c-0.1,0-0.1,0-0.2,0c0,0.5,0,1,0,1.5C59.5,100.2,59,100.1,58.6,100.1z"/>
		<path class="st10" d="M64.9,102.5c0-0.6,0-1.2,0-1.8c0.1-0.3-0.2-0.3-0.3-0.5c-0.1-0.6-0.1-1.2-0.1-1.7c0-0.2,0.1-0.4,0-0.7
			c0.2-0.5,0.2-1.1,0.2-1.6c0-0.2,0.1-0.4,0.1-0.6c0.1-0.6,0-1.2,0-1.7c0.2-0.2,0.1-0.4,0.1-0.6c0.3,0.1,0.5-0.2,0.7-0.4
			c0.4-0.6,0.8-1.2,1.6-1.3c-0.1,0.5-0.3,0.9-0.4,1.3c-0.1,0.9,0.1,1.6,0.6,2.3c1.7,2.3,3.4,4.6,4.5,7.3c0.1,0.1,0.1,0.3,0.2,0.4
			c0,0-0.1,0-0.1,0c-0.2-0.1-0.4-0.5-0.7-0.5c-0.1-0.4-0.4-0.5-0.7-0.8c0,0.3,0,0.5,0,0.8c0,0.2,0,0.4,0,0.6
			c-0.1,0.6-0.2,1.2,0.1,1.7c-0.1,0.2-0.1,0.4,0,0.7c-0.2,0.6-0.2,1.1,0,1.7c0,0.2,0,0.4,0,0.6c-0.1,0.2-0.1,0.4-0.1,0.6
			c-0.2,0-0.5,0-0.7,0c0-0.2,0-0.4,0-0.6c0-0.2,0-0.4,0-0.5c0-0.6,0-1.2,0-1.8c0-0.2,0-0.4,0-0.6c0-0.6,0-1.1,0-1.7
			c0-0.2,0-0.4,0-0.6c0-0.6,0-1.2,0-1.8c-0.2-0.3-0.5-0.4-0.8-0.6c0-0.1,0.1-0.3,0.2-0.3c0.1,0,0.3-0.1,0.3-0.2
			c0-0.2-0.2-0.2-0.3-0.2c-0.9-0.4-1-0.4-1,0.6c0,0.1,0,0.1,0,0.2c-0.2,0.2,0,0.4-0.1,0.5c0,0.6,0,1.2,0,1.8c0,0.2,0,0.4,0,0.6
			c-0.1,0.6-0.1,1.1,0,1.7c0,0.2,0,0.4,0,0.6c0,0.6,0,1.2,0,1.8c0,0.2,0,0.3,0,0.5c0,0.2,0,0.4,0,0.6c-0.2,0-0.5,0-0.7,0
			c0-0.2,0-0.4,0-0.6c0-0.2,0-0.3,0-0.5c0-0.6,0-1.2,0-1.8c0-0.2,0-0.4,0-0.6c0-0.6,0-1.1,0-1.7c0-0.2,0-0.4,0-0.6
			c0-0.6,0-1.2,0-1.8c0-0.2,0-0.3,0-0.5c0-0.2,0-0.5,0-0.7c0-0.1,0-0.3-0.2-0.2c-0.6,0.2-1.2,0.3-1.5,1c0,0.2,0,0.4,0,0.5
			c0,0.6,0,1.2,0,1.7c0,0.2,0,0.4,0,0.6c0,0.6,0,1.1,0,1.7c0,0.2,0,0.4,0,0.6c0,0.6,0,1.2,0,1.8c0,0.2,0,0.4,0,0.5
			c0,0.2,0,0.4,0,0.6c-0.2,0-0.5,0-0.7,0c0-0.2,0-0.4,0-0.6c0-0.3,0.1-0.7-0.4-0.5c-0.1-0.6-0.1-1.1-0.2-1.7c0.5,0.1,0.8,0,0.6-0.6
			c0.1-0.6,0.1-1.1,0-1.7C64.8,102.9,64.9,102.7,64.9,102.5z"/>
		<path class="st12" d="M80.1,104.7c0.1-0.6,0.2-1.1,0.2-1.7c0-0.2,0.1-0.4,0.1-0.6c0-0.6,0.1-1.2,0.1-1.8c0.1-0.2,0.1-0.4,0.1-0.6
			c0.1-0.6,0.2-1.2,0.2-1.7c0-0.2,0.1-0.4,0.1-0.6c0.2-1.1,0.4-2.2,0.5-3.3c0-0.1,0-0.3,0-0.4c0.2-0.1,0.3-0.1,0.5,0
			c0.9,0.4,1.9,0.7,2.6,1.4c-0.4,0-0.3,0.4-0.3,0.7c0.1,0.6-0.2,1.1-0.1,1.7c0,0.2,0,0.3,0,0.5c-0.3,0.4-0.2,0.9-0.2,1.4
			c-0.1,2.4-0.6,4.7-0.5,7.1c0,0.7,0.1,1.5,0,2.2c-0.1,0-0.2-0.1-0.2-0.2c-0.1-0.4-0.4-0.5-0.8-0.5c-0.9,0-1.8,0-2.7,0
			c0-0.2,0-0.4,0-0.5c0-0.2,0.1-0.4,0.1-0.6c0-0.6,0.2-1.1,0.1-1.7C80.2,105.2,80.1,105,80.1,104.7z"/>
		<path class="st12" d="M64.8,93.8c-0.1,0.6,0.1,1.2,0,1.7c-0.5,0-1.1,0-1.6,0c0-0.5,0.1-1-0.1-1.5c0.1-0.1,0.3-0.2,0.5-0.2
			C64,93.7,64.4,93.7,64.8,93.8z"/>
		<path class="st13" d="M59.5,95.4c0.4,0,0.4,0.2,0.4,0.5c0,0.3-0.3,0.2-0.4,0.2c-0.4,0-0.8,0-1.2,0c0-0.1,0-0.1,0-0.2
			C58.6,95.5,59.1,95.5,59.5,95.4z"/>
		<path class="st12" d="M57.5,96c0,0.4,0,0.7,0,1.3c-0.5-0.4-1-0.7-1.6-0.8C56.3,96.2,56.9,96.1,57.5,96z"/>
		<path class="st13" d="M84.3,96.1c0-0.3-0.1-0.6,0.3-0.7c0.4,0.1,1,0,1.3,0.5c-0.1,0.3-0.3,0.2-0.4,0.2
			C85.1,96.1,84.7,96.1,84.3,96.1z"/>
		<path class="st10" d="M63,93.9c0.3,0.5,0.1,1,0.1,1.5c-0.2,0.1-0.1,0.3-0.1,0.5c-0.1-0.6-0.3-1.2-0.4-1.8C62.7,94,62.9,94,63,93.9
			z"/>
		<path class="st13" d="M64.8,93.8c-0.4,0-0.8,0-1.2,0c0.4-0.3,0.9-0.4,1.3-0.6C64.8,93.4,65,93.6,64.8,93.8z"/>
		<path class="st14" d="M80.6,93.7c-0.2,0-0.5,0-0.7,0c-0.4,0.1-0.6-0.1-0.5-0.5C79.8,93.4,80.2,93.5,80.6,93.7z"/>
		<path class="st10" d="M67.3,91.3c0,0.1,0,0.1-0.1,0.1C67.2,91.4,67.2,91.4,67.3,91.3z"/>
		<path class="st10" d="M60.7,107.7c0,0.4,0,0.9-0.1,1.3c-0.2-0.1-0.5-0.3-0.7-0.4c0-0.3,0-0.6,0-1c0-0.2,0-0.3,0-0.5
			c0-0.6,0-1.2,0-1.8c0-0.2,0-0.4,0-0.6c0-0.6,0-1.1,0-1.7c0-0.2,0-0.4,0-0.6c0-0.6,0-1.2,0-1.8c0-0.2,0-0.3,0-0.5c0-0.5,0-1,0-1.5
			c0.1,0,0.1,0,0.2,0c0.3,2.8,0.7,5.7,0.5,8.5C60.7,107.3,60.7,107.5,60.7,107.7z"/>
		<path class="st14" d="M63.3,109.1c0.7,0,1.2,0.5,1.2,1.2c0,0.2-0.1,0.4-0.3,0.2c-0.5-0.2-1-0.4-1.5-0.6c-0.4-0.1-0.3-0.3-0.1-0.5
			C62.7,109.2,63,109,63.3,109.1z"/>
		<path class="st12" d="M70.4,108.3c0-0.2,0-0.4,0.1-0.6c1.1,0,2.2,0.1,3.3,0c0,0.2,0,0.4,0,0.6C72.7,108.3,71.5,108.3,70.4,108.3z"
			/>
		<path class="st14" d="M81.1,109.1c0,0,0.2,0,0.3,0.1c0.2,0.1,0.5,0.2,0.5,0.4c0,0.3-0.3,0.2-0.5,0.3c-0.4,0.2-0.9,0.3-1.3,0.5
			c-0.3,0.1-0.3,0-0.3-0.3C79.9,109.5,80.4,109,81.1,109.1z"/>
		<path class="st12" d="M65.6,108.3c0-0.2,0-0.4,0-0.6c0.6,0,1.1,0.1,1.7,0c0,0.2,0,0.4,0,0.6C66.7,108.3,66.1,108.3,65.6,108.3z"/>
		<path class="st12" d="M68,108.3c0-0.2,0-0.4,0-0.6c0.6,0.1,1.1,0.1,1.7,0c0,0.2,0,0.4,0,0.6C69.1,108.3,68.5,108.3,68,108.3z"/>
		<path class="st12" d="M76.2,107.7c0,0.2,0,0.4,0,0.6c-0.6,0-1.1,0-1.7,0c0-0.2,0-0.4,0-0.6C75.1,107.7,75.6,107.7,76.2,107.7z"/>
		<path class="st12" d="M76.9,108.3c0-0.2,0-0.4,0-0.6c0.6,0.1,1.1,0.1,1.7,0c0,0.2,0,0.4,0,0.6C78,108.3,77.5,108.3,76.9,108.3z"/>
		<path class="st12" d="M85,107.7c0.1,0.1,0.1,0.2,0.1,0.4c-0.2,0.3-0.5,0.5-0.9,0.5c0-0.3,0-0.6,0-0.9
			C84.5,107.7,84.8,107.7,85,107.7z"/>
		<path class="st12" d="M60,107.7c0,0.3,0,0.6,0,1c-0.3,0-0.5-0.2-0.7-0.4c0-0.2,0-0.4,0-0.6C59.5,107.7,59.7,107.7,60,107.7z"/>
		<path class="st12" d="M84.2,107.2c0-0.6,0-1.2,0-1.8c0.3,0,0.6,0.1,1,0c0,0.6,0,1.2-0.2,1.8C84.8,107.1,84.5,107.1,84.2,107.2z"/>
		<path class="st13" d="M84.2,98.3c0-0.2,0-0.3,0-0.5c0.5,0,0.9,0,1.4,0c0.3,0,0.3,0.1,0.4,0.4c0,0.3-0.1,0.3-0.4,0.3
			C85.1,98.4,84.7,98.5,84.2,98.3z"/>
		<path class="st14" d="M85,100.7c-0.2,0-0.3,0-0.5,0c-0.2,0-0.2-0.1-0.2-0.3c0-0.2,0-0.3,0.2-0.3c0.3,0,0.6,0,1,0
			c0.1,0,0.4-0.1,0.4,0.2c0,0.2-0.1,0.4-0.4,0.4C85.3,100.7,85.1,100.7,85,100.7z"/>
		<path class="st13" d="M84.9,102.4c0.2,0.1,0.6-0.2,0.6,0.3c0,0.5-0.3,0.4-0.6,0.4c-0.2,0-0.6,0.1-0.6-0.3
			C84.2,102.2,84.7,102.6,84.9,102.4z"/>
		<path class="st13" d="M85.2,105.3c-0.3,0.1-0.6,0.1-1,0c0-0.6,0.3-0.8,0.8-0.6C85.4,104.9,85.2,105.1,85.2,105.3z"/>
		<path class="st14" d="M84.2,107.2c0.3,0,0.5,0,0.8,0c0,0.2,0,0.4,0,0.6c-0.3,0-0.5,0-0.8,0C84.2,107.5,84.2,107.3,84.2,107.2z"/>
		<path class="st12" d="M60,100.7c0,0.6,0,1.2,0,1.8c-0.3,0-0.7,0-1,0c-0.1-0.6-0.3-1.1-0.2-1.7C59.1,100.7,59.5,100.7,60,100.7z"/>
		<path class="st12" d="M59.9,103.1c0,0.6,0,1.1,0,1.7c-0.2,0-0.5,0-0.7,0c-0.2-0.5-0.2-1.1-0.2-1.7C59.3,103,59.6,103.1,59.9,103.1
			z"/>
		<path class="st12" d="M60,105.4c0,0.6,0,1.2,0,1.8c-0.2,0-0.4,0-0.7,0c0-0.6-0.2-1.2-0.1-1.7C59.4,105.4,59.7,105.4,60,105.4z"/>
		<path class="st13" d="M60,98.3c-0.6,0.2-1.1,0.1-1.7,0.1c0-0.2,0-0.4,0-0.6c0.6,0,1.1,0,1.7,0C60,98,60,98.1,60,98.3z"/>
		<path class="st14" d="M60,100.7c-0.4,0-0.8,0-1.2,0c-0.1-0.2-0.2-0.4-0.1-0.6c0.5,0,0.9,0,1.4,0C60,100.3,60,100.5,60,100.7z"/>
		<path class="st13" d="M59.9,103.1c-0.3,0-0.6,0-1,0c-0.1-0.2-0.1-0.4,0-0.6c0.3,0,0.7,0,1,0C60,102.7,59.9,102.9,59.9,103.1z"/>
		<path class="st13" d="M60,105.4c-0.3,0-0.5,0-0.8,0c0-0.2-0.1-0.4,0-0.7c0.2,0,0.5,0,0.7,0C59.9,105,60,105.2,60,105.4z"/>
		<path class="st14" d="M59.3,107.1c0.2,0,0.4,0,0.7,0c0,0.2,0,0.3,0,0.5c-0.2,0.1-0.4,0-0.7,0C59.3,107.5,59.3,107.3,59.3,107.1z"
			/>
		<path class="st12" d="M71.9,102.9c0,0,0.1,0,0.1,0c0.1,0,0.1,0,0.2,0c0,0.1,0,0.1,0,0.2c0,0,0,0,0,0.1c-0.3,0.5-0.1,1.1-0.1,1.6
			c-0.5,0-1,0-1.6,0c-0.3-0.6-0.1-1.1-0.1-1.7c0.4,0.2,0.9,0,1.3,0.1C71.9,103.1,71.9,103,71.9,102.9z"/>
		<path class="st12" d="M70.5,107.1c-0.2-0.6-0.2-1.1,0-1.7c0.5,0,1.1,0,1.6,0c0,0.6,0,1.1,0,1.7C71.6,107.1,71,107.1,70.5,107.1z"
			/>
		<path class="st12" d="M76.2,100.7c0,0.6,0,1.2,0,1.8c-0.6,0-1.1,0-1.7,0c0-0.6-0.1-1.2,0.1-1.7C75.1,100.7,75.7,100.7,76.2,100.7z
			"/>
		<path class="st13" d="M72.1,105.4c-0.5,0-1.1,0-1.6,0c-0.1-0.2-0.1-0.5,0-0.7c0.5,0,1,0,1.6,0c0.5,0,0.9,0,1.4,0
			c0.2,0,0.3,0.1,0.3,0.3c0,0.2-0.1,0.3-0.3,0.3C73,105.4,72.5,105.4,72.1,105.4z"/>
		<path class="st14" d="M70.5,107.1c0.5,0,1.1,0,1.6,0c0.4,0,0.8,0,1.1,0c0.4,0,0.6,0.1,0.6,0.5c-1.1,0.1-2.2,0-3.3,0
			C70.5,107.5,70.5,107.3,70.5,107.1z"/>
		<path class="st13" d="M74.5,102.4c0.6,0,1.1,0,1.7,0c0.1,0.5,0,0.7-0.6,0.6c-0.2,0-0.4,0-0.6,0C74.5,103.2,74.4,102.9,74.5,102.4z
			"/>
		<path class="st13" d="M77.8,103.1c-0.2,0-0.4,0-0.6,0c-0.2,0-0.3-0.1-0.3-0.3c0-0.2,0-0.3,0.3-0.3c0.3,0,0.7,0,1,0
			c0.2,0,0.4,0,0.4,0.3c0,0.3-0.2,0.4-0.4,0.4C78.1,103.1,77.9,103.1,77.8,103.1C77.8,103.1,77.8,103.1,77.8,103.1z"/>
		<path class="st13" d="M77.8,105.4c-0.2,0-0.4,0-0.6,0c-0.2,0-0.2-0.1-0.2-0.3c0-0.2,0-0.4,0.2-0.4c0.4,0,0.7,0,1.1,0
			c0.2,0,0.4,0,0.4,0.3c0,0.3-0.2,0.3-0.4,0.3C78.1,105.4,77.9,105.4,77.8,105.4C77.8,105.4,77.8,105.4,77.8,105.4z"/>
		<path class="st13" d="M75.3,104.7c0.2,0,0.4,0,0.6,0c0.3,0,0.2,0.2,0.2,0.4c0,0.2,0,0.3-0.2,0.3c-0.4,0-0.8,0-1.2,0
			c-0.2,0-0.3-0.1-0.3-0.3c0-0.2,0-0.4,0.3-0.4C75,104.7,75.2,104.7,75.3,104.7z"/>
		<path class="st13" d="M80.3,95.4c0.2,0.2,0.6-0.3,0.7,0.3c0,0.1,0,0.3-0.1,0.3c-0.4,0-0.9,0.1-1.3,0c-0.2,0-0.1-0.3-0.1-0.4
			c0-0.1,0.1-0.2,0.2-0.2C79.9,95.4,80.1,95.4,80.3,95.4z"/>
		<path class="st14" d="M78.6,107.7c-0.6,0-1.1,0.1-1.7,0c-0.1-0.4,0.1-0.6,0.6-0.5c0.2,0,0.4,0,0.6,0
			C78.5,107,78.7,107.2,78.6,107.7z"/>
		<path class="st14" d="M76.2,107.7c-0.6,0.1-1.1,0-1.7,0c-0.1-0.5,0.1-0.6,0.6-0.6c0.2,0,0.4,0,0.6,0
			C76.2,107,76.3,107.3,76.2,107.7z"/>
		<path class="st14" d="M77.7,100.7c-0.2,0-0.4,0-0.6,0c-0.2,0-0.2-0.1-0.2-0.3c0-0.2,0-0.3,0.2-0.3c0.4,0,0.8,0,1.2,0
			c0.2,0,0.2,0.1,0.2,0.3c0,0.2,0,0.3-0.3,0.3C78.1,100.7,77.9,100.7,77.7,100.7z"/>
		<path class="st13" d="M72.2,103.1C72.2,103.1,72.2,103,72.2,103.1c0.3-0.4,0.6-0.8,1.2-0.7c0.2,0,0.3,0.1,0.3,0.3
			c0,0.3-0.1,0.4-0.4,0.4C73,103.1,72.6,103.1,72.2,103.1z"/>
		<path class="st13" d="M81,97.8c0,0.2-0.1,0.4-0.1,0.6c-0.3,0-0.5,0-0.8,0c-0.3,0-0.4-0.1-0.4-0.4c0-0.3,0.1-0.3,0.4-0.3
			C80.4,97.8,80.7,97.8,81,97.8z"/>
		<path class="st14" d="M76.2,100.7c-0.5,0-1.1,0-1.6,0c0.3-0.4,0.6-0.6,1.1-0.6C76.2,100.1,76.3,100.3,76.2,100.7z"/>
		<path class="st14" d="M80.7,100.1c0,0.2,0,0.4-0.1,0.6c-0.2,0-0.5,0-0.7,0c-0.2,0-0.4,0.1-0.4-0.2c0-0.2,0.2-0.4,0.4-0.4
			C80.1,100.1,80.4,100.1,80.7,100.1z"/>
		<path class="st13" d="M80.4,102.5c0,0.2-0.1,0.4-0.1,0.6c-0.2,0-0.5,0-0.7,0c-0.2,0-0.3-0.1-0.3-0.3c0-0.2,0-0.3,0.3-0.3
			C79.9,102.4,80.2,102.4,80.4,102.5z"/>
		<path class="st13" d="M80.1,104.7c0,0.2,0.1,0.5-0.1,0.7c-0.3,0-0.8,0-0.6-0.5C79.5,104.6,79.9,104.8,80.1,104.7z"/>
		<path class="st14" d="M79.9,107.1c0,0.2-0.1,0.4-0.1,0.6c-0.2,0-0.4,0-0.4-0.3C79.4,107,79.7,107.1,79.9,107.1z"/>
		<path class="st13" d="M63,95.9c0.1-0.2-0.1-0.4,0.1-0.5c0.5,0,1.1,0,1.6,0c0,0.2-0.1,0.4-0.1,0.6c-0.4,0-0.8,0-1.2,0
			C63.3,96.1,63.1,96.1,63,95.9z"/>
		<path class="st13" d="M64.4,97.7c0.1,0.2,0.1,0.4,0,0.7c-0.2,0-0.5,0-0.7,0c-0.3,0-0.4-0.1-0.4-0.4c0-0.3,0.2-0.2,0.4-0.3
			C63.9,97.8,64.2,97.8,64.4,97.7z"/>
		<path class="st13" d="M64.9,102.5c0,0.2,0,0.4,0,0.6c-0.2,0-0.4,0-0.7,0c-0.3,0-0.3-0.3-0.3-0.4c0-0.2,0.2-0.2,0.3-0.2
			C64.4,102.4,64.6,102.5,64.9,102.5z"/>
		<path class="st14" d="M64.5,100.1c0.1,0.2,0.4,0.2,0.3,0.5c-0.3,0.1-0.6,0-1,0.1c-0.2,0-0.3-0.1-0.3-0.3c0-0.2,0.1-0.3,0.3-0.3
			C64.1,100.1,64.3,100.1,64.5,100.1z"/>
		<path class="st13" d="M64.8,104.8c0.2,0.6-0.1,0.7-0.6,0.6C64.1,104.7,64.1,104.7,64.8,104.8z"/>
		<path class="st13" d="M64.4,107.1c0.5-0.1,0.4,0.2,0.4,0.5C64.2,107.9,64.5,107.4,64.4,107.1z"/>
		<path class="st13" d="M60.7,107.7c0-0.2,0-0.4,0-0.6c0.2-0.1,0.3,0,0.3,0.3C61,107.6,61,107.8,60.7,107.7z"/>
		<path class="st10" d="M60,98.3c0-0.2,0-0.4,0-0.5c0-0.1,0-0.2,0-0.3C60.1,97.8,60.2,98.1,60,98.3z"/>
		<path class="st12" d="M68,107.2c0-0.6,0-1.2,0-1.8c0.6,0.1,1.1,0,1.7,0c0,0.6,0,1.2,0,1.8C69.1,107.1,68.6,107.1,68,107.2z"/>
		<path class="st12" d="M65.6,107.1c0-0.6,0-1.2,0-1.8c0.6,0,1.1,0,1.7,0c0,0.6,0,1.2,0,1.8C66.7,107.1,66.1,107.1,65.6,107.1z"/>
		<path class="st12" d="M67.3,100.7c0,0.6,0,1.2,0,1.8c-0.6,0-1.1,0-1.7,0c0-0.6,0-1.2,0-1.7C66.1,100.7,66.7,100.7,67.3,100.7z"/>
		<path class="st12" d="M69.7,100.7c0,0.6,0,1.2,0,1.8c-0.6,0-1.1-0.1-1.7,0c0-0.6,0-1.2,0-1.8C68.6,100.8,69.1,100.7,69.7,100.7z"
			/>
		<path class="st12" d="M65.6,104.7c0-0.6,0-1.1,0-1.7c0.6,0,1.1,0,1.7,0c0,0.6,0,1.1,0,1.7C66.7,104.8,66.2,104.7,65.6,104.7z"/>
		<path class="st12" d="M69.7,103.1c0,0.6,0,1.1,0,1.7c-0.5,0-1.1,0-1.6,0c-0.1-0.6-0.1-1.1,0-1.7C68.6,103.1,69.1,103.1,69.7,103.1
			z"/>
		<path class="st12" d="M65.6,100.2c0.3-0.6,0.9-0.8,1.5-1c0.2-0.1,0.2,0.1,0.2,0.2c0,0.2,0,0.5,0,0.7
			C66.7,100.2,66.1,100.2,65.6,100.2z"/>
		<path class="st13" d="M67.3,103.1c-0.6,0-1.1,0-1.7,0c0-0.2,0-0.4,0-0.6c0.6,0,1.1,0,1.7,0C67.3,102.7,67.3,102.9,67.3,103.1z"/>
		<path class="st13" d="M65.6,104.7c0.6,0,1.1,0,1.7,0c0,0.2,0,0.4,0,0.6c-0.6,0-1.1,0-1.7,0C65.6,105.2,65.6,105,65.6,104.7z"/>
		<path class="st13" d="M68,104.8c0.5,0,1.1,0,1.6,0c0,0.2,0,0.4,0,0.6c-0.6,0-1.1,0.1-1.7,0C68,105.2,68,105,68,104.8z"/>
		<path class="st13" d="M69.7,103.1c-0.6,0-1.1,0-1.7,0c0-0.2,0-0.4,0-0.6c0.6-0.1,1.1,0,1.7,0C69.7,102.7,69.7,102.9,69.7,103.1z"
			/>
		<path class="st12" d="M68.1,100.1c0-0.1,0-0.1,0-0.2c0-1,0.1-1,1-0.6c0.1,0.1,0.3,0,0.3,0.2c0,0.2-0.2,0.2-0.3,0.2
			c-0.1,0-0.2,0.2-0.2,0.3C68.6,100.1,68.4,100.1,68.1,100.1z"/>
		<path class="st14" d="M65.6,100.2c0.6,0,1.1,0,1.7,0c0,0.2,0,0.3,0,0.5c-0.6,0.1-1.1,0-1.7,0C65.6,100.5,65.6,100.3,65.6,100.2z"
			/>
		<path class="st14" d="M68,107.2c0.6,0,1.1,0,1.7,0c0,0.2,0,0.4,0,0.5c-0.6,0-1.1,0.1-1.7,0C68,107.5,68,107.3,68,107.2z"/>
		<path class="st14" d="M65.6,107.1c0.6,0,1.1,0,1.7,0c0,0.2,0,0.3,0,0.5c-0.6,0.1-1.1,0-1.7,0C65.6,107.5,65.6,107.3,65.6,107.1z"
			/>
		<path class="st13" d="M71.9,102.9c0,0.1,0.1,0.2-0.1,0.2c-0.4,0-0.9,0.1-1.3-0.1c0-0.2,0-0.4,0-0.6c0.2,0,0.5,0,0.7,0
			C71.5,102.4,71.6,102.7,71.9,102.9z"/>
		<path class="st14" d="M68.1,100.1c0.3,0,0.5,0,0.8,0c0.3,0.1,0.6,0.3,0.8,0.6c-0.6,0-1.1,0.1-1.7,0
			C68.1,100.5,67.9,100.3,68.1,100.1z"/>
		<path class="st12" d="M71.2,102.4c-0.2,0-0.5,0-0.7,0c0-0.3,0-0.5,0-0.8C70.7,101.9,71.1,102,71.2,102.4z"/>
		<path class="st5" d="M79.3,82.9c-0.2,0.1-0.8-0.4-1-0.3c-0.1-0.2-0.2-0.4-0.2-0.6c0-1.2,0-2.1-0.9-3.1c-1.1-1.1-0.6-2.6-0.9-4.2
			c-0.8,1.2-1.9,1.1-3,0.9c-1.1-0.2-2.2-0.4-3.4-0.7c-0.2,0-0.4-0.1-0.6-0.1c-1,0-1.5-0.1-1.7,1.2c-0.2,0.9,0.1,1.9-0.5,2.7
			c-0.9,1.2-0.8,2.8-0.7,4.4c-0.3-0.2-1.1-0.5-1.4-0.6c-0.2-0.8-0.7-2.1-0.7-3c0-3.7-0.3-7.3,2.9-9.6c2.6-1.8,5.8-2.1,8.6-0.1
			c0.2,0.2,0.5,0.3,0.8,0.3c1.6,0,2.1,1.1,2.7,2.6c0.4,1.1,0.5,2.2,0.6,3.4c0.1,1.7,0.5,3.3,0.1,4.9C80,81.4,79.4,82.6,79.3,82.9z"
			/>
		<path class="st13" d="M64.5,73.7c0.2-1.5,0.5-2.9,1.1-4.2c0.7-1.5,1.3-1.8,3.2-1.8c0.6,0,1.1,0.1,1.7,0.3c1.4,0.4,2.8,0.1,4.2-0.1
			c0.6-0.1,1.3-0.2,1.9-0.1c1,0.1,1.6,0.6,2.1,1.4c0.7,1.4,1.1,3,1.3,4.6c-2.6,1.1-5.3,1.5-8,1.5c-0.6,0-1.1-0.1-1.7-0.1
			C68.3,75,66.4,74.5,64.5,73.7z"/>
		<path class="st11" d="M80.1,74.6c0,1.3,0,1.4-1.3,1.9c-1.2,0.5-2.4,0.7-3.6,0.8c-1.7,0.2-3.3,0.1-5,0.1c-1.8,0-3.5-0.4-5.2-1.1
			c-0.9-0.3-0.8-1-0.8-1.7c0.2-0.3,0-0.6,0.2-0.9c1.8,0.8,3.7,1.2,5.7,1.4c0.6,0,1.1,0.1,1.7,0.1c2.8,0,5.5-0.4,8-1.5
			C80.2,74,80,74.3,80.1,74.6z"/>
		<path class="st13" d="M77.7,79.1c-1.5,0.1-3.1,0.2-4.6,0.3c-0.7,0-1.4,0-2.2-0.1c-1.4-0.1-2.9-0.1-4.3-0.3c-1.6-0.2-3.3-0.5-4.8-1
			c-0.4-0.1-0.8-0.3-1.2-0.6c-0.8-0.5-0.8-1.1,0-1.7c0.4-0.3,0.9-0.5,1.4-0.7c0.7-0.2,1.5-0.5,2.3-0.6c0,0.7-0.1,1.3,0.8,1.7
			c1.7,0.7,3.4,1.1,5.2,1.1c1.7,0,3.3,0.1,5-0.1c1.2-0.1,2.4-0.4,3.6-0.8c1.3-0.5,1.3-0.5,1.3-1.9c1.2,0.1,2.3,0.5,3.4,1
			c0.4,0.2,0.9,0.5,0.9,1.1c0,0.6-0.5,0.8-0.9,1.1c-1.2,0.6-2.5,0.9-3.8,1.1C79,79,78.4,79,77.7,79.1z"/>
	</g>
	<g>
		<path class="st15" d="M80.6,106.7c0.4-0.7,0.4-1.5,0.6-2.2c0.6-2.3,1.2-4.6,2.4-6.6c0.2-0.3,0.3-0.5,0.5-0.7
			c0.3-0.4,0.7-0.7,1.3-0.6c1.1,4.7,1.1,9.5,1.4,14.3c-0.9-0.3-1.7-0.8-2.5-1.3c-0.2-0.1-0.4-0.3-0.6-0.2l0,0c0-0.2-0.1-0.3-0.3-0.2
			c-1-0.6-1.8-1.4-2.7-2.2C80.6,106.9,80.6,106.8,80.6,106.7z"/>
		<path class="st15" d="M110.8,96.5c0.7-0.1,1.1,0.5,1.4,1c1.2,1.8,1.8,3.8,2.4,5.8c0.3,1,0.5,2,0.7,3c0,0-0.1,0.1-0.1,0.1
			c-0.3-0.1-0.4,0.2-0.6,0.3c-1.5,1.3-3.2,2.5-5,3.4c0.1-2.4,0.1-4.9,0.3-7.3c0.1-0.9,0.2-1.8,0.3-2.7
			C110.4,99,110.6,97.8,110.8,96.5z"/>
		<path class="st2" d="M109.6,110.3c1.8-0.9,3.5-2.1,5-3.4c0.2-0.2,0.3-0.4,0.6-0.3c-1,1.2-2.3,2.2-3.6,3.1
			c-8.2,5.7-19,5.8-27.2,0.3c-0.2-0.2-0.5-0.3-0.7-0.5c0.3-0.1,0.4,0.1,0.6,0.2c0.8,0.5,1.6,0.9,2.5,1.3c0.8,0.4,1.6,0.8,2.5,0.9
			c0.2,0.2,0.4,0.2,0.7,0.3c4.4,1.4,8.8,1.5,13.2,0.6c1.3-0.3,2.6-0.6,3.8-1.2C107.9,111.1,108.8,110.8,109.6,110.3z"/>
		<path class="st2" d="M83.4,109.1c0.2,0,0.3,0,0.3,0.2C83.6,109.3,83.4,109.3,83.4,109.1z"/>
		<path class="st16" d="M103.1,93.9c0.1,0.2,0.4,0.4,0.6,0.6c0.5,0.6,0.6,1.3,0.3,2c-0.2,0.5-0.5,0.8-0.8,1.3
			c-1.9,2.6-3.6,5.3-4.8,8.3c-0.2,0-0.4,0-0.6,0c0,0,0-0.1,0-0.1c-1.2-2.9-2.9-5.6-4.8-8.2c-0.3-0.4-0.6-0.9-0.8-1.4
			c-0.3-0.6-0.3-1.3,0.3-1.8c0.2-0.2,0.4-0.4,0.6-0.6c0.8-0.8,1.2-1.8,1.4-2.8c0.1-0.3,0-0.5-0.3-0.7c-0.6-0.5-1-1.1-1.3-1.8
			c-0.4-1-0.6-2-0.8-3.1c0-0.2,0-0.5-0.4-0.5c-0.5,0.1-0.7-0.3-1-0.6c-0.2-0.5-0.4-1.1-0.4-1.6c0-0.4-0.1-0.8,0.2-1.1
			c0.4,0.1,0.8,0.2,1,0.6c0.1,0.2,0.4,0.1,0.5,0c0.4-0.3,0.8-0.5,1.2-0.8c1.1-0.8,2.1-1.7,3.3-2.6c-2,0-3.9-0.2-5.7-0.6
			c-0.9-0.2-1.8-0.4-2.6-0.8c-0.4-0.2-1-0.4-1-1c0-0.6,0.5-0.8,1-1.1c0.9-0.4,1.8-0.6,2.7-0.8c0,1.2,0,1.2,1.3,1.7
			c1.5,0.5,3,0.7,4.6,0.8c1.2,0,2.4,0,3.5-0.1c1.1-0.1,2.2-0.3,3.3-0.7c0.8-0.3,1.5-0.6,1.3-1.7c0.9,0.2,1.7,0.4,2.6,0.8
			c0.2,0.1,0.4,0.2,0.6,0.3c0.8,0.5,0.8,1.1,0,1.6c-0.8,0.5-1.6,0.7-2.5,0.9c-0.9,0.2-1.8,0.3-2.7,0.5c0.5,0.5,0.9,1,1.1,1.6
			c0.2,0.5,0.4,1.1,0.7,1.6c0.1,0.2,0.1,0.4,0.4,0.4c0.2,0,0.4-0.1,0.5-0.3c0-0.1,0.1-0.2,0.1-0.3c0.5,0.2,0.5,0.6,0.4,0.9
			c0,0.8-0.3,1.5-0.6,2.2c-0.2,0.1-0.3,0.4-0.5,0.4c-0.7-0.1-0.7,0.4-0.8,0.8c0,0.3-0.1,0.6-0.2,0.9c-0.3,1.4-0.7,2.8-1.9,3.7
			c-0.2,0.1-0.2,0.3-0.2,0.5C101.9,92.1,102.3,93.1,103.1,93.9z"/>
		<path class="st14" d="M97.8,106c0.2,0,0.4,0,0.6,0c0.5,0,1.1,0,1.6,0c1.5,0,2.9,0,4.4,0c0.2,0,0.3,0,0.3-0.3c0-1.2,0-2.4,0.1-3.6
			c0-0.8,0.1-1.7,0.1-2.5c0-0.3,0-0.6,0-0.9c0.1-1.3,0.1-2.6,0.4-3.9c0.7,0.2,1.4,0.2,2.1,0.6c-0.2,1.8-0.2,3.7-0.3,5.5
			c-0.2,2.8,0.1,5.7,0.1,8.5c0,0.7,0,1.3,0,2c-1.2,0.6-2.5,1-3.8,1.2c-4.5,1-8.9,0.8-13.2-0.6c-0.2-0.1-0.5-0.1-0.7-0.3
			c0.1-2.1-0.2-4.2,0.1-6.3c0.1-1,0-2,0-3c0-0.8-0.1-1.6-0.1-2.5c0-0.8-0.2-1.5-0.2-2.3c0.1-0.8,0-1.6-0.2-2.3
			c0.6-0.4,1.4-0.4,2.1-0.6c0.2,1.3,0.2,2.7,0.3,4c0,0.2,0,0.5,0.1,0.7c0,1-0.1,1.9,0.1,2.9c0,1.1,0,2.3,0,3.4
			c0,0.2,0.1,0.2,0.3,0.2c1.4,0,2.9,0,4.3,0C96.7,106,97.2,106,97.8,106z M106.6,106C106.6,106,106.6,106,106.6,106
			c-0.4-0.1-0.8-0.1-1.2-0.1c0,0,0,0,0,0.1C105.7,106,106.1,106,106.6,106z M90.9,106C90.9,106,90.9,106,90.9,106
			c-0.4-0.1-0.8-0.1-1.2-0.1c0,0,0,0,0,0.1C90.2,106,90.5,106,90.9,106z"/>
		<path class="st16" d="M91,73.9c0.2-0.9,0.3-1.8,0.6-2.7c0.8-2.3,1.5-2.9,3.8-2.4c1.8,0.4,3.5,0.2,5.3-0.1c1.7-0.2,2.3,0.2,3,1.6
			c0.5,1.2,0.7,2.4,1,3.7c-0.4,0-0.7,0.2-1.1,0.3c-3.2,1-6.4,1.2-9.6,0.5C92.9,74.7,91.9,74.4,91,73.9z"/>
		<path class="st17" d="M89,95.4c0.2,0.8,0.3,1.6,0.2,2.3c-0.1,0.8,0.2,1.5,0.2,2.3c0,0.8,0,1.6,0.1,2.5c0,1,0.2,2,0,3
			c-0.3,2.1-0.1,4.2-0.1,6.3c-0.9-0.1-1.7-0.5-2.5-0.9c-0.3-4.8-0.3-9.6-1.4-14.3C86.6,96,87.8,95.7,89,95.4z"/>
		<path class="st17" d="M107,111.4c0-0.7,0-1.3,0-2c0-2.8-0.3-5.7-0.1-8.5c0.1-1.8,0.1-3.7,0.3-5.5c1.2,0.3,2.4,0.6,3.5,1.1
			c-0.2,1.2-0.4,2.5-0.6,3.7c-0.1,0.9-0.2,1.8-0.3,2.7c-0.2,2.4-0.2,4.8-0.3,7.3C108.8,110.8,107.9,111.1,107,111.4z"/>
		<path class="st15" d="M104.8,99.6c0,0.8-0.1,1.7-0.1,2.5c-0.1,0-0.2,0.1-0.3,0.1c-1.1,0.9-2.2,1.8-3.4,2.6
			c-0.4,0.3-0.9,0.6-1.1,1.1c-0.5,0-1.1,0-1.6,0c1.2-3,2.9-5.7,4.8-8.3c0.3-0.4,0.6-0.8,0.8-1.3c0.3-0.7,0.3-1.4-0.3-2
			c0.5,0,1,0.4,1.5,0.3c-0.2,1.3-0.2,2.6-0.4,3.9c-0.3,0.1-0.7,0.1-1.1,0.1C104.1,99.2,104.5,99.4,104.8,99.6z"/>
		<path class="st18" d="M91,73.9c0.9,0.6,1.9,0.8,2.9,1c3.3,0.7,6.5,0.5,9.6-0.5c0.4-0.1,0.7-0.4,1.1-0.3c0.1,0.2,0,0.5,0.2,0.7
			c0.2,1.1-0.5,1.4-1.3,1.7c-1.1,0.4-2.2,0.6-3.3,0.7c-1.2,0.1-2.3,0.1-3.5,0.1c-1.6-0.1-3.1-0.3-4.6-0.8c-1.2-0.4-1.2-0.4-1.3-1.7
			C90.9,74.4,90.7,74.1,91,73.9z"/>
		<path class="st15" d="M91.4,98.8c-0.1-1.3-0.1-2.7-0.3-4c0.3,0,0.6-0.1,0.8-0.2c0.2-0.1,0.3-0.2,0.5,0c-0.5,0.5-0.5,1.1-0.3,1.8
			c0.2,0.5,0.5,0.9,0.8,1.4c1.9,2.6,3.5,5.3,4.8,8.2c0,0,0,0.1,0,0.1c-0.5,0-1.1,0-1.6,0c-0.2-0.5-0.6-0.8-1-1.1
			c-0.9-0.7-1.8-1.3-2.7-2c-0.2-0.2-0.5-0.6-0.9-0.5c-0.2-0.9-0.1-1.9-0.1-2.9c0.3-0.2,0.6-0.3,0.9-0.7C92,98.8,91.7,98.8,91.4,98.8
			z"/>
		<path class="st18" d="M90.7,84.5c0.3,0.3,0.5,0.7,1,0.6c0.3-0.1,0.3,0.3,0.4,0.5c0.2,1,0.4,2.1,0.8,3.1c0.3,0.7,0.7,1.3,1.3,1.8
			c0.3,0.2,0.3,0.4,0.3,0.7c-0.2,1.1-0.6,2.1-1.4,2.8c-0.5-0.3-1-0.3-1.5-0.6c-0.3-0.1-0.6-0.2-0.8-0.3c-0.3-0.1-0.4-0.4-0.3-0.7
			c0.4-1.7,0.4-3.4,0.3-5.2C90.6,86.3,90.5,85.4,90.7,84.5z"/>
		<path class="st18" d="M103.1,93.9c-0.8-0.8-1.2-1.8-1.3-2.9c0-0.2,0-0.4,0.2-0.5c1.2-0.9,1.6-2.3,1.9-3.7c0.1-0.3,0.1-0.6,0.2-0.9
			c0.1-0.5,0.1-1,0.8-0.8c0.2,0,0.3-0.2,0.5-0.4c0,1.9,0,3.8,0,5.7c0,0.7,0.1,1.4,0.4,2c0.2,0.4-0.1,0.5-0.4,0.7
			C104.6,93.5,103.8,93.6,103.1,93.9z"/>
		<path class="st18" d="M90.7,78.4c1.8,0.3,3.7,0.5,5.7,0.6c-1.2,0.9-2.2,1.8-3.3,2.6c-0.4,0.3-0.8,0.5-1.2,0.8
			c-0.2,0.1-0.4,0.2-0.5,0c-0.2-0.4-0.6-0.5-1-0.6C90.5,80.6,90.4,79.5,90.7,78.4z"/>
		<path class="st18" d="M105.4,81.6c0,0.1-0.1,0.2-0.1,0.3c-0.1,0.2-0.3,0.3-0.5,0.3c-0.3,0-0.3-0.2-0.4-0.4
			c-0.2-0.5-0.4-1.1-0.7-1.6c-0.3-0.6-0.6-1.1-1.1-1.6c0.9-0.2,1.8-0.3,2.7-0.5C105.6,79.4,105.5,80.5,105.4,81.6z"/>
		<path class="st17" d="M99.9,106c0.2-0.6,0.7-0.8,1.1-1.1c1.2-0.8,2.3-1.7,3.4-2.6c0.1-0.1,0.2-0.1,0.3-0.1c0,1.2-0.1,2.4-0.1,3.6
			c0,0.3-0.1,0.3-0.3,0.3C102.9,106,101.4,106,99.9,106z"/>
		<path class="st17" d="M91.6,102.4c0.4-0.1,0.6,0.3,0.9,0.5c0.8,0.7,1.8,1.3,2.7,2c0.4,0.3,0.8,0.6,1,1.1c-1.4,0-2.9,0-4.3,0
			c-0.2,0-0.3,0-0.3-0.2C91.6,104.6,91.6,103.5,91.6,102.4z"/>
		<path class="st17" d="M104.8,99.6c-0.4-0.2-0.7-0.4-1.1-0.8c0.4,0,0.8,0,1.1-0.1C104.8,99,104.8,99.3,104.8,99.6z"/>
		<path class="st17" d="M91.4,98.8c0.3,0,0.6,0,1,0c-0.3,0.4-0.6,0.5-0.9,0.7C91.5,99.3,91.4,99,91.4,98.8z"/>
		<path class="st16" d="M106.6,106c-0.4,0-0.8,0-1.2,0c0,0,0,0,0-0.1C105.7,105.9,106.2,105.9,106.6,106
			C106.6,106,106.6,106,106.6,106z"/>
		<ellipse class="st16" cx="90.4" cy="106" rx="0.8" ry="0"/>
	</g>
</g>
</svg>
