<?xml version="1.0" encoding="utf-8"?>
<!-- Generator: Adobe Illustrator 22.0.1, SVG Export Plug-In . SVG Version: 6.00 Build 0)  -->
<svg version="1.1" id="Capa_1" xmlns="http://www.w3.org/2000/svg" xmlns:xlink="http://www.w3.org/1999/xlink" x="0px" y="0px"
	 viewBox="0 0 166 166" style="enable-background:new 0 0 166 166;" xml:space="preserve">
<style type="text/css">
	.st0{fill:#B02715;}
	.st1{opacity:0.37;fill:#FFFFFF;enable-background:new    ;}
	.st2{fill:#36008C;}
	.st3{fill:#230066;}
	.st4{fill:#FFFFFF;}
	.st5{fill:#681BE0;}
	.st6{fill:#D8D8D8;}
	.st7{fill:#666666;}
	.st8{fill:#D6001A;}
	.st9{fill:#91021A;}
	.st10{fill:url(#SVGID_1_);}
	.st11{fill:#6614AD;}
</style>
<title>btn6vivienda rural</title>
<title>btn2vivienda rural</title>
<g id="Biblioteca">
	<g id="Layer_1_4_">
		<path class="st0" d="M145.8,30.6V143c0,1.5-1.3,2.8-2.8,2.8H30.6c-0.7,0-1.4-0.3-1.9-0.8l-0.3-0.3l-7.1-7.2l-0.3-0.2
			c-0.5-0.5-0.8-1.2-0.8-1.9V23.1c0-1.6,1.3-2.8,2.8-2.8h112.4c0.7,0,1.5,0.3,2,0.8l0.2,0.2l7.1,7.1l0,0
			C145.4,28.9,145.8,29.7,145.8,30.6z"/>
		<circle class="st1" cx="86.1" cy="83.1" r="50.2"/>
	</g>
	<g>
		<g>
			<path class="st2" d="M119.5,110.3H64.4v-66h51.1c2.2,0,4,1.8,4,4V110.3z"/>
			<rect x="64.4" y="44.4" class="st3" width="26.8" height="66"/>
			<rect x="70.3" y="57" class="st4" width="43.4" height="43.4"/>
			<path class="st5" d="M59,119.5h60.5v-9.2H59c-2,0-3.6,1.6-3.6,3.6v2C55.4,117.9,57,119.5,59,119.5z"/>
			<rect x="70.3" y="57" class="st6" width="21" height="43.4"/>
			<path class="st4" d="M59.1,118.8h60.4v-7.7H59.1c-1.7,0-3,1.3-3,3v1.7C56.1,117.4,57.4,118.8,59.1,118.8z"/>
			<path class="st5" d="M60,110.3h4.4v-66h-4.9c-2.3,0-4.1,1.8-4.1,4.1v66.4C55.4,112.4,57.5,110.3,60,110.3z"/>
			<g>
				<rect x="73.6" y="64.6" class="st7" width="22.9" height="1.7"/>
				<rect x="97.2" y="64.6" class="st7" width="13.5" height="1.7"/>
				<rect x="73.6" y="69.2" class="st7" width="18.1" height="1.7"/>
				<rect x="92.9" y="69.2" class="st7" width="17.8" height="1.7"/>
				<rect x="73.6" y="73.7" class="st7" width="22.9" height="1.7"/>
				<rect x="97.2" y="73.7" class="st7" width="13.5" height="1.7"/>
				<g>
					<rect x="73.6" y="78.4" class="st7" width="22.9" height="1.7"/>
					<rect x="97.2" y="78.4" class="st7" width="13.5" height="1.7"/>
					<rect x="73.6" y="82.9" class="st7" width="18.1" height="1.7"/>
					<rect x="93" y="82.9" class="st7" width="17.8" height="1.7"/>
					<rect x="73.6" y="87.5" class="st7" width="22.9" height="1.7"/>
					<rect x="97.3" y="87.5" class="st7" width="13.5" height="1.7"/>
				</g>
			</g>
			<rect x="65.1" y="115" class="st8" width="6.2" height="12.2"/>
			<rect x="65.1" y="115" class="st9" width="3.1" height="12.2"/>
			
				<linearGradient id="SVGID_1_" gradientUnits="userSpaceOnUse" x1="59.9" y1="53.05" x2="119.5" y2="53.05" gradientTransform="matrix(1 0 0 -1 0 168)">
				<stop  offset="0" style="stop-color:#FFFFFF"/>
				<stop  offset="1" style="stop-color:#000000"/>
			</linearGradient>
			<rect x="59.9" y="114.3" class="st10" width="59.6" height="1.3"/>
			<path class="st11" d="M59.9,44.4h-0.4c-2.3,0-4.1,1.8-4.1,4.1v66.4c0-2.5,2-4.5,4.5-4.6V44.4z"/>
		</g>
	</g>
</g>
</svg>
