<?xml version="1.0" encoding="utf-8"?>
<!-- Generator: Adobe Illustrator 22.0.1, SVG Export Plug-In . SVG Version: 6.00 Build 0)  -->
<svg version="1.1" id="Capa_1" xmlns="http://www.w3.org/2000/svg" xmlns:xlink="http://www.w3.org/1999/xlink" x="0px" y="0px"
	 viewBox="0 0 166 166" style="enable-background:new 0 0 166 166;" xml:space="preserve">
<style type="text/css">
	.st0{fill:#5591A4;}
	.st1{opacity:0.37;fill:#FFFFFF;enable-background:new    ;}
	.st2{fill:#417E93;}
	.st3{fill:#FFFFFF;}
	.st4{enable-background:new    ;}
</style>
<title>btn6vivienda rural</title>
<g id="Noticias">
	<g id="Layer_1_1_">
		<path class="st0" d="M145.8,30.6V143c0,1.5-1.3,2.8-2.8,2.8H30.6c-0.7,0-1.4-0.3-1.9-0.8l-0.3-0.3l-7.1-7.2l-0.3-0.2
			c-0.5-0.5-0.8-1.2-0.8-1.9V23.1c0-1.6,1.3-2.8,2.8-2.8h112.4c0.7,0,1.5,0.3,2,0.8l0.2,0.2l7.1,7.1l0,0
			C145.4,28.9,145.8,29.7,145.8,30.6z"/>
		<circle class="st1" cx="86.1" cy="83.1" r="50.2"/>
	</g>
	<polygon class="st2" points="52.7,50.2 112.3,50.2 117.3,57.7 123.6,57.7 123.6,107.4 112.1,109.6 54,109.6 	"/>
	<path class="st3" d="M117.3,57.7v47.9c0,1.3-1.1,2.3-2.5,2.3s-2.5-1-2.5-2.3V50.2H52.7v57.2c0,4.6,4,8.3,9,8.3h52.9
		c5,0,9-3.7,9-8.3V57.7H117.3z M83.3,106.3H59V83.1h24.3V106.3z M105.7,106.3H88.1v-4.9h17.6V106.3z M105.7,100.2H88.1v-4.9h17.6
		V100.2z M105.7,94.1H88.1v-4.9h17.6V94.1z M105.7,88H88.1v-4.9h17.6V88z M105.7,78.3H59v-20h46.7V78.3z"/>
	<g class="st4">
		<path class="st3" d="M71.2,73.3H69l-3.7-6v6h-2.1v-8.7h2.7l3.2,5v-5h2.1V73.3z"/>
		<path class="st3" d="M79.7,73.3h-6.3v-8.7h6.3v1.7h-4.1v1.5h3.8v1.7h-3.8v2.2h4.1V73.3z"/>
		<path class="st3" d="M93.6,64.6l-2.3,8.7h-2.5l-1.6-5.7l-1.5,5.7h-2.5l-2.3-8.7h2.3l1.3,6l1.6-6h2.2l1.5,6l1.4-6H93.6z"/>
		<path class="st3" d="M102.1,70.6c0,0.9-0.4,1.6-1.1,2.1s-1.7,0.8-3,0.8c-0.7,0-1.4-0.1-1.9-0.2s-1-0.3-1.5-0.5v-2.1h0.2
			c0.5,0.4,1,0.7,1.6,0.9s1.1,0.3,1.7,0.3c0.1,0,0.3,0,0.5,0s0.4-0.1,0.5-0.1c0.2-0.1,0.3-0.2,0.4-0.3s0.2-0.3,0.2-0.5
			c0-0.2-0.1-0.4-0.2-0.5s-0.4-0.2-0.7-0.3c-0.3-0.1-0.7-0.2-1-0.2s-0.7-0.2-1-0.3c-0.7-0.2-1.3-0.6-1.6-1s-0.5-0.9-0.5-1.5
			c0-0.8,0.4-1.5,1.1-2s1.7-0.8,2.8-0.8c0.6,0,1.1,0.1,1.7,0.2s1,0.3,1.5,0.4v2h-0.2c-0.4-0.3-0.8-0.5-1.3-0.7s-1-0.3-1.6-0.3
			c-0.2,0-0.4,0-0.6,0s-0.4,0.1-0.5,0.1c-0.2,0.1-0.3,0.1-0.4,0.3S97,66.8,97,66.9c0,0.2,0.1,0.4,0.3,0.5s0.5,0.2,1,0.3
			c0.3,0.1,0.6,0.1,0.9,0.2s0.6,0.1,1,0.3c0.7,0.2,1.2,0.5,1.5,0.9S102.1,70,102.1,70.6z"/>
	</g>
</g>
</svg>
