<?xml version="1.0" encoding="utf-8"?>
<!-- Generator: Adobe Illustrator 22.0.1, SVG Export Plug-In . SVG Version: 6.00 Build 0)  -->
<svg version="1.1" id="Capa_1" xmlns="http://www.w3.org/2000/svg" xmlns:xlink="http://www.w3.org/1999/xlink" x="0px" y="0px"
	 viewBox="0 0 166 166" style="enable-background:new 0 0 166 166;" xml:space="preserve">
<style type="text/css">
	.st0{fill:#1554B0;}
	.st1{opacity:0.37;fill:#FFFFFF;enable-background:new    ;}
	.st2{fill:#B5B5B5;}
	.st3{fill:#FFFFFF;}
	.st4{fill:#727171;}
	.st5{fill:#1E1E1E;}
	.st6{fill:#FFBC00;}
	.st7{fill:#020202;}
	.st8{fill:#7C5A05;}
	.st9{fill:#FFA20D;}
</style>
<title>btn6vivienda rural</title>
<g id="Herramientas">
	<g id="Layer_1">
		<path class="st0" d="M145.8,30.6V143c0,1.5-1.3,2.8-2.8,2.8H30.6c-0.7,0-1.4-0.3-1.9-0.8l-0.3-0.3l-7.1-7.2l-0.3-0.2
			c-0.5-0.5-0.8-1.2-0.8-1.9V23.1c0-1.6,1.3-2.8,2.8-2.8h112.4c0.7,0,1.5,0.3,2,0.8l0.2,0.2l7.1,7.1l0,0
			C145.4,28.9,145.8,29.7,145.8,30.6z"/>
		<circle class="st1" cx="86.1" cy="83.1" r="50.2"/>
	</g>
	<g>
		<path class="st2" d="M115.6,107.8L80.7,72.9c0,0,2.6-5.6,2.6-8.9c0-9.1-7.4-16.4-16.4-16.4c-2.8,0-5.5,0.7-7.8,2L69.5,61
			c1.7,1.7,2,4.4,0.5,6.3c-1.8,2.3-5,2.4-7,0.4L52.4,56.2c-1.3,2.3-2,5-2,7.8c0,9.1,7.4,16.4,16.4,16.4c2.6,0,6.8-1.3,6.8-1.3
			l35.3,35.3c1.8,1.8,4.7,1.8,6.5,0C117.4,112.6,117.4,109.6,115.6,107.8z M111.7,112.5c-1,0-1.8-0.8-1.8-1.8s0.8-1.8,1.8-1.8
			s1.8,0.8,1.8,1.8C113.6,111.6,112.7,112.5,111.7,112.5z"/>
		<path class="st3" d="M80.7,72.9c0,0,2.6-5.6,2.6-8.9c0-9.1-7.4-16.4-16.4-16.4c-2.8,0-5.5,0.7-7.8,2L69.5,61l-8.2-11
			c0,0,1.6-1.2,5-1.3c10-0.4,16.4,9.8,16.3,15.2C82.5,69.6,80.7,72.9,80.7,72.9z"/>
		<path class="st4" d="M112.9,112.1c-1.4,0.9-3.8-1-2.3-2.9l-41-41.4c0,0-1,1.1-3.4,1.3c-1.7,0.1-3.1-1.4-3.1-1.4L52.4,56.2
			c-1.3,2.3-2,5-2,7.8c0,9.1,7.4,16.4,16.4,16.4c2.6,0,6.8-1.3,6.8-1.3l35.3,35.3c1.8,1.8,4.7,1.8,6.5,0L112.9,112.1z"/>
	</g>
	<g>
		<g>
			<polygon class="st2" points="82.7,83.4 105,64.4 105.2,60.9 116.1,50 121.6,55.5 111,66.1 107.3,66.6 88.2,88.9 			"/>
			<polygon class="st4" points="84.8,85.6 118.9,52.8 121.6,55.5 111,66.1 107.3,66.6 88.2,88.9 			"/>
		</g>
		<g>
			<path class="st5" d="M53.9,101.7l19.9-19.9c2.3-2.3,6.1-2.3,8.5,0l6.7,6.7c2.3,2.3,2.3,6.1,0,8.5l-19.9,19.9
				c-2.3,2.3-6.1,2.3-8.5,0l-6.7-6.7C51.6,107.8,51.6,104,53.9,101.7z"/>
			
				<rect x="57.4" y="88.6" transform="matrix(0.7071 -0.7071 0.7071 0.7071 -49.2539 79.6226)" class="st6" width="28.2" height="21.4"/>
			<path class="st7" d="M89,96.9c2.3-2.3,2.3-6.1,0-8.5l-3.3-3.3l-25.8,25.8c-0.9,0.9-1.6,2-1.9,3.2l2.7,2.7c2.3,2.3,6.1,2.3,8.5,0
				L89,96.9z"/>
			
				<rect x="61.1" y="97.7" transform="matrix(0.7071 -0.7071 0.7071 0.7071 -50.8685 83.3581)" class="st8" width="28.2" height="10.7"/>
			<path class="st9" d="M57.8,102.6L57.8,102.6c0.4,0.4,1.1,0.4,1.5,0l15.9-15.9c0.4-0.4,0.4-1,0-1.4l0,0c-0.4-0.4-1-0.4-1.4,0
				l-16,15.9C57.4,101.5,57.4,102.2,57.8,102.6z"/>
			<path class="st9" d="M62.8,107.6L62.8,107.6c0.4,0.4,1.1,0.4,1.5,0l15.9-15.9c0.4-0.4,0.4-1,0-1.4l0,0c-0.4-0.4-1-0.4-1.4,0
				l-16,15.9C62.4,106.5,62.4,107.2,62.8,107.6z"/>
			<path class="st9" d="M67.8,112.6L67.8,112.6c0.4,0.4,1.1,0.4,1.5,0l15.9-15.9c0.4-0.4,0.4-1,0-1.4l0,0c-0.4-0.4-1-0.4-1.4,0
				l-16,15.9C67.4,111.5,67.4,112.2,67.8,112.6z"/>
		</g>
	</g>
</g>
</svg>
