<?xml version="1.0" encoding="utf-8"?>
<!-- Generator: Adobe Illustrator 22.0.1, SVG Export Plug-In . SVG Version: 6.00 Build 0)  -->
<svg version="1.1" id="Capa_1" xmlns="http://www.w3.org/2000/svg" xmlns:xlink="http://www.w3.org/1999/xlink" x="0px" y="0px"
	 viewBox="0 0 166 166" style="enable-background:new 0 0 166 166;" xml:space="preserve">
<style type="text/css">
	.st0{fill:#5F95E3;}
	.st1{opacity:0.5;fill:#FFFFFF;enable-background:new    ;}
	.st2{fill:#FFFFFF;}
	.st3{fill:#A8A291;}
	.st4{fill:#D9D9D9;}
	.st5{fill:#E8E8E8;}
	.st6{fill:#6B6A69;}
	.st7{fill:#FEFEEA;}
	.st8{fill:#E0E0D4;}
	.st9{fill:#8C8C8B;}
	.st10{fill:#F5E0B8;}
	.st11{fill:#14130F;}
	.st12{fill:#CCCCCC;}
	.st13{fill:#6B4A3B;}
	.st14{fill:#E73127;}
</style>
<g>
	<g id="Layer_1_5_">
		<g>
			<path class="st0" d="M145.8,30.6V143c0,1.5-1.3,2.8-2.8,2.8H30.6c-0.7,0-1.4-0.3-1.9-0.8l-0.3-0.3l-7.1-7.2l-0.3-0.2
				c-0.5-0.5-0.8-1.2-0.8-1.9V23.1c0-1.6,1.3-2.8,2.8-2.8h112.4c0.7,0,1.5,0.3,2,0.8l0.2,0.2l7.1,7.1l0,0
				C145.4,28.9,145.8,29.7,145.8,30.6z"/>
			<path class="st1" d="M145.2,77.1c0-5.2-0.6-10.4-1.8-15.5c-8.8-8.8-28.2-28.2-28.5-28.4c-1.8-2-4.3-3.2-7-3.4l-0.1-0.1H53.4v10.7
				H41l0.3,81.8l20.2,20.6c36.3,8.9,72.9-13.3,81.8-49.5C144.6,87.9,145.2,82.5,145.2,77.1L145.2,77.1z"/>
		</g>
		<polygon class="st2" points="116.7,111.6 53.4,111.6 53.4,29.7 107.8,29.7 116.7,36.7 		"/>
		<rect x="61.4" y="42.5" class="st3" width="47.7" height="1.9"/>
		<rect x="61.4" y="49.9" class="st3" width="47.7" height="1.9"/>
		<rect x="61.4" y="57.3" class="st3" width="47.7" height="1.9"/>
		<rect x="61.4" y="64.7" class="st3" width="47.7" height="1.9"/>
		<rect x="61.4" y="72.1" class="st3" width="47.7" height="1.9"/>
		<rect x="61.4" y="79.5" class="st3" width="47.7" height="1.9"/>
		<rect x="61.4" y="86.9" class="st3" width="47.7" height="1.9"/>
		<rect x="61.4" y="94.3" class="st3" width="47.7" height="1.9"/>
		<rect x="61.4" y="101.7" class="st3" width="47.7" height="1.9"/>
		<path class="st4" d="M107.1,29.7l2.8,7.7l6.8-0.8C116.7,36.7,115.9,30.2,107.1,29.7z"/>
		<polygon class="st5" points="104.2,122.3 41,122.3 41,40.4 95.4,40.4 104.2,47.4 		"/>
		<g>
			<path class="st6" d="M94.6,71.4c-0.1,0-0.2-0.1-0.3-0.1c-0.1,0-0.1-0.1-0.2,0c0,0,0,0,0,0c-0.3,0.3-0.6,0.4-1,0.4
				c-0.5,0-1-0.1-1.4-0.5c-0.1-0.1-0.2-0.1-0.3-0.1c-0.1,0-0.3,0-0.4-0.1c-0.1,0-0.1,0-0.2-0.1c-0.4-0.2-0.8-0.3-1.2-0.2
				c-0.1,0-0.3-0.1-0.4-0.1c-0.1,0-0.3-0.1-0.4-0.1c-0.3-0.1-0.6-0.2-0.9-0.1c-0.1,0-0.2,0-0.2-0.1c-0.1-0.1-0.3-0.2-0.5-0.2
				c-1-0.4-2-0.9-3-1.4c-0.1,0-0.2-0.1-0.3-0.2c-0.2-0.2-0.5-0.3-0.8-0.2c0,0-0.1,0-0.1,0c-0.4,0.2-0.7,0.1-1.1-0.2
				c-0.1-0.1-0.3-0.2-0.4-0.1c-0.2,0-0.5,0-0.7-0.2c-0.1-0.1-0.2-0.1-0.3-0.1c-0.2,0.1-0.4,0.1-0.7,0c0,0-0.1,0-0.1,0
				C79.7,68,79.5,68,79.3,68c-0.1,0-0.2,0-0.2-0.2c0-0.1,0-0.2-0.1-0.2c-0.1,0-0.1,0.1-0.1,0.2c0,0.1-0.1,0.1-0.2,0.1
				c-0.3,0-0.6,0-0.8-0.1c-0.1,0-0.1,0-0.2,0c-0.1,0.1-0.2,0.2-0.3,0.3c0,0-0.1,0.1-0.1,0.1c-0.1,0-0.1,0-0.2,0.1
				c0,0.1-0.1,0.1-0.2,0c-0.2-0.3-0.5-0.5-0.7-0.8c0-0.1-0.1-0.1-0.1,0c-0.3,0.2-0.7,0.2-1.1,0.3c-0.1,0-0.2,0-0.3,0.2
				c0,0.1-0.1,0.1-0.2,0.1c-0.1,0-0.1-0.1-0.2-0.1c-0.1-0.1-0.3-0.2-0.3,0.1c0,0.1-0.1,0.1-0.2,0c-0.2-0.1-0.4-0.1-0.6-0.2
				c-0.1,0-0.2,0-0.3,0c-0.2,0.1-0.4,0.2-0.6,0.2c0,0-0.1,0-0.1,0c-0.1,0.2-0.3,0.3-0.4,0.6c0,0.2-0.1,0.3-0.1,0.5
				c0,0.1-0.1,0.2,0,0.3c0,0.1,0,0.1-0.1,0.2c-0.3,0.3-0.6,0.6-1,0.8c-0.2,0.1-0.3,0.2-0.4,0.3c0,0,0,0,0,0.1c0,0.2-0.1,0.4-0.2,0.5
				c-0.1,0.1-0.1,0.1-0.2,0.1c-0.1,0-0.2,0-0.3,0c-0.1,0.1-0.3,0-0.4,0c0,0,0,0-0.1,0c-0.1-0.1,0-0.2-0.1-0.3c-0.1,0,0-0.1,0.1-0.2
				c0,0-0.1,0-0.1,0c-0.1,0.1-0.3,0-0.4,0.1c-0.1,0-0.1,0-0.1-0.1c-0.1-0.2-0.1-0.1-0.2,0c-0.1,0.1-0.1,0.2-0.2,0.3
				c-0.1,0.2-0.2,0.2-0.3,0c-0.1-0.1-0.2-0.2,0-0.3c0-0.2,0.2-0.3,0.3-0.4c0,0,0,0,0-0.1c0,0,0-0.1,0-0.1c0-0.3,0-0.3-0.3-0.1
				c-0.1,0-0.1,0-0.2,0c-0.1-0.1-0.2-0.1-0.1-0.2c0.1-0.2,0-0.2-0.1-0.3c-0.1-0.1-0.3-0.2-0.3-0.3c0-0.1,0-0.1-0.1-0.1
				c-0.2-0.1-0.3-0.3-0.1-0.4c0.1-0.1,0.2-0.3,0.1-0.4c0-0.1-0.1-0.2,0.1-0.3c0.1,0,0-0.1,0-0.1c0,0-0.1-0.1-0.1-0.1
				c0,0-0.1-0.1-0.1-0.1c0.1-0.2-0.1-0.4-0.2-0.5c0,0,0-0.1,0-0.1c0-0.1,0.1-0.2-0.1-0.2c-0.1,0-0.1-0.1-0.1-0.2
				c0-0.1,0-0.2-0.1-0.1c-0.1,0-0.2,0-0.2-0.1c0-0.1,0-0.2-0.1-0.2c0,0-0.1,0-0.1,0c0,0,0,0,0,0.1c0,0,0,0,0,0.1
				c0,0.3,0,0.5-0.2,0.8c0,0.1-0.1,0.2-0.2,0.1c-0.1-0.1-0.2-0.1-0.2-0.3c0,0,0-0.1,0-0.1c0-0.1,0.1-0.1,0-0.2c0,0-0.1,0-0.1,0
				c0,0.1-0.1,0.1-0.1,0.2c0,0,0,0.1,0.1,0.1c0,0,0,0.1,0,0.1c0,0,0,0.1,0,0.1c-0.1,0.1-0.1,0.4-0.4,0.3c-0.2-0.1-0.5,0-0.6-0.3
				c0-0.1-0.1-0.1-0.2,0c-0.1,0.1-0.3,0.3-0.5,0.3c-0.1,0-0.2,0-0.3-0.2c-0.1,0.1-0.1,0.3-0.3,0.4c-0.1,0.1-0.2,0-0.2-0.1
				c-0.1-0.1,0-0.2,0-0.3c0-0.2,0-0.4-0.1-0.6c0-0.1-0.1-0.2-0.2-0.2c-0.1-0.1-0.2-0.1-0.2-0.3c0,0,0,0,0,0c0,0,0,0,0,0
				c-0.1,0-0.1,0-0.2,0c-0.1-0.1-0.3-0.1-0.4,0c-0.1,0.1-0.2,0.2-0.3,0.3c-0.2,0-0.4-0.1-0.4-0.3c0-0.1,0-0.2,0.1-0.2
				c0.1,0,0.2-0.1,0.2-0.2c0-0.1,0-0.2-0.1-0.2c-0.1,0-0.2-0.1-0.2-0.2c0-0.1-0.1-0.3-0.2-0.4c-0.1-0.1-0.1-0.2-0.1-0.3
				c0-0.1,0-0.1,0.1-0.1c0.1-0.1,0.1-0.1,0.1-0.2c-0.1-0.2-0.1-0.2,0-0.3c0.1-0.1,0.1-0.1,0.1-0.2c-0.1,0.2-0.4,0-0.5,0.2
				c0,0.1-0.1,0-0.2-0.1c0.1,0,0.2-0.1,0.2-0.2c0.2,0,0.3,0,0.5-0.2c0.1-0.1,0.1-0.1,0.2,0c0,0.1,0.1,0.3,0,0.4
				c0,0.1-0.1,0.1-0.1,0.2c0,0-0.1,0,0,0.1c0.1,0.1,0.1,0.2,0.2,0.3c0.1,0.1,0.1,0.2,0.1,0.3c0,0.1-0.1,0.1-0.2,0.1c0,0,0,0,0,0.1
				c0.1,0.1,0.1,0.2,0.1,0.3c0,0.1,0.1,0.1,0.1,0.1c0.3,0.2,0.3,0.5,0,0.7c-0.1,0,0,0.1,0,0.1c0.1,0.1,0.2,0,0.3-0.1
				c0.1-0.1,0.2-0.3,0.4-0.3c0.1,0.1,0.3,0.2,0.4,0.2c0,0,0.1-0.1,0.1,0c0,0,0.1,0.1,0,0.2c0,0.1-0.1,0.2,0.1,0.2
				c0,0.1,0.1,0.1,0.2,0.1c0.1,0.2,0.2,0.5,0.1,0.7c0,0.1,0,0.1,0,0.2c0,0.1,0,0.1,0.1,0.2c0.1,0,0.1,0,0.2-0.1c0,0,0-0.1,0-0.1
				c0-0.1,0.1-0.2,0.2-0.2c0,0.2,0.1,0.2,0.2,0.2c0.2,0,0.3-0.1,0.5-0.2c0.1-0.1,0.2-0.1,0.3,0c0.1,0.1,0.2,0.3,0.4,0.2
				c0,0,0.1,0,0.1,0.1c0.1,0.1,0.2,0,0.2-0.1c0-0.1,0-0.1,0.1-0.2c0,0,0.1-0.1,0-0.1c-0.1-0.1-0.1-0.2-0.1-0.4
				c0-0.1-0.1-0.4-0.4-0.3c0,0-0.1,0-0.1-0.1c0-0.1,0-0.1,0-0.1c0.1-0.1,0.1-0.1,0.2-0.2c0,0,0.1-0.1,0.2,0c0.1,0,0.1,0.1,0.1,0.2
				c0,0.2,0.2,0.3,0.2,0.4c0,0,0,0,0.1,0c0,0,0.1-0.1,0.1,0c0,0.1,0,0.1,0,0.2c0,0.1-0.1,0.2,0,0.2c0,0,0,0.1,0.1,0
				c0.2-0.1,0.3-0.6,0.2-0.8c0-0.1,0-0.1,0.1-0.2c0.1,0,0.2-0.1,0.2,0c0,0.1,0.1,0.1,0.1,0.2c0,0.1,0,0.1,0.1,0.1
				c0.2,0,0.2,0,0.2,0.2c0,0.1,0,0.1,0.1,0.2c0.1,0,0.1,0.1,0.1,0.1c-0.1,0.2,0,0.3,0.1,0.4c0,0,0.1,0.1,0,0.1
				c-0.1,0.3,0.1,0.4,0.3,0.6c0.1,0.1,0.2,0.1,0.2,0.2c0,0.1,0,0.1,0.1,0.1c0,0,0,0,0,0.1c0,0,0,0,0,0c-0.2,0.1-0.3,0-0.3-0.1
				c0-0.1-0.2-0.1-0.2-0.1c-0.1,0,0,0.1,0,0.2c0,0,0.1,0.1,0,0.1c-0.1,0.1,0,0.3-0.2,0.4c-0.1,0-0.1,0.1,0,0.1
				c0,0.1,0.1,0.1,0.1,0.1c0.2,0,0.2,0.1,0.2,0.2c0,0.2,0.2,0.4,0.4,0.3c0.1,0,0.1,0,0.2,0c0,0.1,0.1,0.2,0,0.3
				c-0.1,0-0.2,0-0.1,0.2c0.1,0,0.1-0.1,0.2-0.1c0,0,0.1,0,0.1,0c0.3,0.1,0.2,0.3,0.3,0.5c0,0,0,0.1,0,0.1c0,0,0,0,0,0.1
				c0,0.1-0.1,0.1-0.2,0.2c-0.1,0-0.2,0.1-0.2,0.2c0,0,0,0.1,0,0.1c0,0,0,0.1,0,0.1C68,71,68,71,68,71c0.1-0.1,0.1-0.2,0.2-0.3
				c0.1-0.1,0.3-0.1,0.3,0c0.1,0.1,0.2,0.1,0.3,0c0,0,0.1-0.1,0.1-0.1c0.2,0.1,0.3,0.2,0.2,0.5c0,0.1,0,0.2,0.1,0.2
				c0.1,0,0.2,0,0.2-0.1c0.1-0.2,0.2-0.2,0.3-0.1c0,0,0,0,0.1,0c0.1-0.1,0.2-0.2,0.2-0.4c0-0.1,0-0.2,0.1-0.2
				c0.2-0.2,0.5-0.4,0.7-0.6c0,0,0,0,0.1,0c0.1,0,0.1,0,0.2-0.1c0.1-0.1,0.2-0.2,0.3-0.3c0.1-0.1,0.3-0.2,0.2-0.5c0,0,0,0,0,0
				c0.1-0.4,0.1-0.9,0.5-1.3c0.1-0.1,0.1-0.1,0.2-0.1c0.1,0,0.3,0,0.4-0.1c0.2-0.2,0.5-0.1,0.7,0c0.1,0,0.1,0.1,0.2,0
				c0,0,0.1,0,0.1,0c0.1,0,0.1,0.1,0.2-0.1c0,0,0-0.1,0-0.1c0-0.1,0-0.1,0.1-0.1c0.1,0,0.1,0.1,0.1,0.1c0.1,0.2,0.3,0.2,0.4,0.2
				c0,0,0.1,0,0.1-0.1c0.1-0.1,0.2-0.1,0.3-0.2c0.3-0.1,0.6,0,0.9-0.2c0.4-0.2,0.4-0.2,0.7,0.2c0.1,0.2,0.4,0.3,0.5,0.4c0,0,0,0,0,0
				c0.1,0,0.3,0,0.4-0.1c0.1-0.1,0.1-0.1,0.2-0.2c0.1-0.1,0.2-0.1,0.4-0.1c0.2,0.1,0.4,0.1,0.6,0.1c0.2,0,0.3-0.1,0.3-0.2
				c0-0.1,0-0.2,0.1-0.2c0.1,0,0.2,0.1,0.2,0.2c0.1,0.1,0,0.1,0,0.2c0,0,0,0.1,0.1,0.1c0.1,0,0.2,0,0.3-0.1c0.1-0.1,0.2-0.1,0.2-0.1
				c0.2,0,0.5,0,0.7-0.1c0.1,0,0.2,0,0.3,0.1c0.2,0.2,0.5,0.2,0.7,0.2c0.1,0,0.3,0,0.4,0.1c0.3,0.3,0.7,0.4,1.1,0.2
				c0.4-0.2,0.7,0,1,0.2c0.1,0.1,0.1,0.1,0.2,0.2c1,0.4,2,1,3,1.4c0.1,0.1,0.3,0.1,0.4,0.2c0.1,0.1,0.1,0.1,0.2,0.1
				c0.3-0.1,0.6-0.1,0.9,0.1c0.1,0.1,0.2,0,0.3-0.1c0-0.1,0-0.1,0-0.2c-0.1-0.2-0.2-0.3-0.2-0.5c-0.1-0.1,0-0.3,0-0.4
				c0-0.1,0.1-0.2,0.1-0.3c0.1-0.2,0.1-0.3,0-0.5c-0.1-0.1-0.1-0.1,0-0.2c0,0,0.1-0.1,0.1-0.1c0-0.1-0.1-0.1-0.2-0.2
				c-0.1,0-0.2-0.3-0.2-0.4c0.2-0.2,0.2-0.4,0.3-0.6c0-0.1,0-0.1-0.1-0.1c-0.3-0.2-0.4-0.5-0.3-0.9c0-0.2,0.3-0.4,0.2-0.7
				c0-0.1,0-0.3-0.2-0.4c-0.2,0-0.3-0.1-0.4,0c-0.1,0.1-0.3-0.1-0.5,0.1c0,0,0,0,0,0c-0.2,0.2-0.3,0.2-0.5,0c0,0-0.1-0.1-0.1,0
				c-0.1,0.1-0.2,0.1-0.3,0c-0.1-0.1-0.1-0.1-0.2,0c-0.1,0.1-0.2,0.1-0.3,0c-0.2-0.1-0.4-0.1-0.6,0c-0.1,0.1-0.3,0.1-0.4,0
				c-0.1-0.1-0.1-0.1-0.2-0.1c-0.3,0-0.7-0.1-1,0.2c-0.1,0.1-0.3,0.1-0.4-0.1c0-0.1-0.1-0.1-0.2-0.2c-0.2-0.1-0.4-0.2-0.6-0.3
				c-0.1-0.1-0.3-0.1-0.4,0c-0.1,0-0.1,0-0.2,0c-0.3-0.2-0.6-0.5-0.9-0.7c0,0,0,0,0.1,0l0,0l0,0c0.3,0.2,0.5,0.4,0.8,0.6
				c0.1,0.1,0.1,0.1,0.2,0c0.1-0.1,0.3,0,0.4,0c0.1,0.1,0.2,0.1,0.3,0.2c0.2,0.1,0.4,0.2,0.5,0.3c0.1,0.1,0.2,0,0.2,0
				c0.1-0.1,0.2-0.1,0.3-0.2c0,0,0.1-0.1,0.2,0c0.2,0,0.4,0,0.6,0.1c0.1,0,0.1,0,0.2,0.1c0.1,0.1,0.2,0.1,0.4,0
				c0.2-0.1,0.4-0.2,0.6,0c0.1,0.1,0.2,0.1,0.2,0c0.1-0.1,0.2-0.1,0.3,0c0,0,0.1,0.1,0.1,0c0.1-0.2,0.2-0.1,0.3,0
				c0.1,0.1,0.3,0.1,0.4,0c0,0,0.1-0.1,0.2-0.1c0.3,0.1,0.6-0.2,0.9,0c0,0,0,0,0,0c0.1,0,0.1,0,0.1,0.1c0,0.3,0.1,0.5-0.1,0.8
				c-0.2,0.3-0.1,0.8,0.3,1c0,0,0.1,0.1,0.1,0.1c-0.1,0.2-0.2,0.5-0.3,0.7c-0.1,0.1-0.1,0.3,0.1,0.3c0.1,0,0.1,0.1,0.2,0.2
				c0,0.1-0.1,0.1-0.1,0.1c-0.1,0.1-0.1,0.1,0,0.2c0.2,0.2,0.1,0.4,0,0.6c0,0.1-0.1,0.1-0.1,0.2c-0.1,0.1-0.1,0.3,0,0.4
				c0.1,0.1,0.1,0.3,0.2,0.5c0,0.1,0.1,0.2,0,0.3c0,0.1-0.1,0.1,0,0.2c0.2,0.1,0.3,0.1,0.5,0.1c0.4,0,0.7,0,1.1,0.2
				c0.1,0,0.1,0.1,0.2,0.1c0.1,0.1,0.2,0.1,0.4,0.1c0.2,0,0.3,0,0.4,0.1c0.2,0.1,0.3,0.2,0.5,0.3c0,0,0.1,0.1,0.2,0.1
				c0.4,0,0.7,0,1.1,0c0.1,0,0.1,0,0.2-0.1c0-0.1,0.1-0.2,0-0.2c-0.2-0.1-0.3-0.3-0.4-0.6c-0.1-0.2-0.1-0.4-0.2-0.6
				c-0.1-0.1-0.1-0.2,0-0.4c0.2-0.4,0.2-0.9,0.1-1.3c0-0.1-0.1-0.3-0.1-0.5c0-0.3-0.1-0.6-0.2-0.8c-0.1-0.1-0.1-0.3-0.2-0.4
				c-0.1-0.1,0-0.2,0.1-0.3c0.2-0.1,0.1-0.2,0.1-0.4c-0.1-0.2-0.2-0.5-0.3-0.7c-0.1-0.3-0.3-0.4-0.6-0.6c-0.1,0-0.1,0-0.1,0
				c-0.1,0.1-0.3,0.2-0.5,0c-0.2-0.1-0.4-0.3-0.4-0.5c0-0.1-0.1-0.1-0.2-0.2c-0.4-0.3-0.9-0.5-1.3-0.8c0,0-0.1-0.1-0.1-0.1
				c-0.2,0-0.3-0.1-0.4-0.2c-0.1-0.1-0.1-0.2-0.1-0.4c0-0.1-0.1-0.2-0.1-0.3c0,0-0.1,0-0.1,0c-0.2,0.2-0.5,0.2-0.8,0.2
				c-0.2,0-0.5,0.1-0.7-0.1c0,0-0.1,0-0.1,0c-0.2,0-0.4,0.1-0.6,0.1c-0.1,0-0.1,0-0.2,0c-0.2-0.1-0.5-0.1-0.8-0.1
				c-0.5,0-0.9,0.1-1.4-0.1c-0.1-0.1-0.2-0.1-0.2-0.3c0-0.1,0-0.1,0-0.2c0-0.1-0.1-0.2-0.2-0.1c-0.2,0.1-0.5-0.1-0.5-0.3
				c0-0.4-0.1-0.7-0.2-1c0-0.1-0.1-0.2-0.1-0.4c0-0.3-0.1-0.4-0.3-0.6c-0.1-0.1-0.2-0.1-0.3-0.1c-0.2,0.1-0.3,0.1-0.5,0
				c-0.1,0-0.1-0.1-0.2-0.1c-0.2-0.1-0.4,0-0.6,0.1c-0.2,0.1-0.3,0.1-0.4,0c0,0-0.1-0.1-0.1-0.1c-0.1-0.1-0.2-0.1-0.1-0.3
				c0.1-0.2,0.1-0.5-0.1-0.7c0-0.1-0.1-0.1-0.1-0.1c-0.2,0-0.3,0-0.5-0.2c-0.3-0.2-0.6,0-0.7,0.3c0,0.1,0,0.2,0,0.3
				c0,0.2-0.3,0.4-0.5,0.4c-0.1,0-0.3,0-0.3,0.1c-0.1,0.1-0.2,0.1-0.3,0c-0.1-0.1-0.1-0.2-0.3-0.2c-0.2,0-0.5-0.1-0.7,0.1
				c-0.1,0.1-0.2,0-0.2,0c-0.1-0.1-0.3-0.2-0.4-0.3c-0.1-0.1-0.1,0-0.2,0c-0.1,0.1-0.1,0.2-0.1,0.3c0.1,0.1,0.2,0.2,0.3,0.2
				c0.2,0,0.3,0,0.5,0c0.1,0,0.1,0,0.2,0.1c0.1,0.2,0.2,0.3,0.4,0.4c0.1,0.1,0.3,0.2,0.4,0.2c0.1,0,0.2,0.2,0.3,0.1c0,0,0,0,0,0
				c0,0.2,0.2,0.1,0.3,0.2c0,0,0,0,0,0c0,0,0,0-0.1,0c-0.1-0.1-0.2-0.2-0.4-0.2c-0.1-0.1-0.2-0.1-0.4-0.2c-0.2-0.1-0.3-0.2-0.5-0.3
				c-0.1-0.3-0.3-0.4-0.5-0.3c0,0,0,0,0,0c0,0,0,0-0.1,0c-0.1,0-0.2,0-0.3,0c-0.1,0-0.4-0.4-0.3-0.5c0,0,0,0,0.1-0.1
				c0,0,0.1-0.1,0.1-0.1c0.1-0.1,0.1-0.1,0.2,0c0.1,0.1,0.2,0.2,0.3,0.3c0.1,0.1,0.2,0.1,0.3,0c0.1-0.1,0.2-0.1,0.3-0.1
				c0.3,0,0.5,0,0.7,0.3c0,0,0.1,0.1,0.1,0.1c0.1-0.1,0.3-0.1,0.5-0.1c0.2,0,0.3-0.2,0.4-0.4c0-0.2,0-0.3,0.1-0.4
				c0.1-0.1,0.1-0.2-0.1-0.2c0,0-0.1,0-0.1-0.1c0-0.2-0.2-0.3-0.3-0.4c0,0-0.1-0.1-0.1-0.1c0-0.2-0.1-0.3-0.3-0.3
				c-0.1-0.1-0.2-0.1-0.3-0.2c-0.1-0.1-0.3-0.2-0.5-0.1c-0.1,0-0.2,0-0.3-0.1c-0.1-0.2-0.3-0.3-0.6-0.3c-0.2,0-0.3-0.1-0.3-0.3
				c0-0.1-0.1-0.1-0.2-0.1c-0.2,0.1-0.4,0-0.4-0.2c0-0.1-0.1-0.2-0.2-0.1c-0.1,0.1-0.2,0.1-0.3,0.1c-0.1,0-0.2,0-0.2-0.1
				c0,0,0,0-0.1,0c-0.2,0.1-0.3,0.1-0.5,0.1c-0.1,0-0.2,0.1-0.2,0.2c0,0.2,0.1,0.5,0,0.7c-0.2,0.6-0.4,1.2-0.7,1.7
				c-0.1,0.1-0.2,0.3,0,0.4c0,0,0,0,0,0c0,0,0,0,0,0.1c0,0,0,0-0.1,0c0-0.1-0.1-0.1-0.3-0.1c0.1-0.1,0.2-0.3,0.2-0.4
				c0.4-0.8,0.8-1.5,0.7-2.4c0,0,0,0,0,0c0-0.1,0-0.1,0.1-0.1c0.2,0,0.4,0,0.6-0.1c0.1,0,0.1-0.1,0.1-0.1c-0.1-0.3-0.1-0.5-0.3-0.7
				c-0.1,0-0.1-0.1-0.1-0.2c0-0.1,0-0.3,0-0.4c0-0.1-0.1-0.1-0.1-0.2c-0.2,0-0.3,0-0.5-0.1c-0.2-0.2-0.4-0.2-0.6-0.2
				c-0.1,0-0.2,0-0.3,0c-0.3,0-0.6-0.1-0.9-0.1c-0.2,0-0.4-0.1-0.4-0.4c0-0.1,0-0.1-0.1-0.1c-0.2-0.1-0.4-0.1-0.6-0.1
				c-0.3,0-0.3,0-0.3,0.3c0,0,0,0,0,0c-0.2,0.2-0.1,0.3,0.1,0.5c0.1,0.1,0.1,0.2,0,0.3c0,0-0.1,0.1-0.1,0.1
				c-0.2,0.2-0.2,0.2-0.1,0.4c0.1,0.1,0.1,0.2,0.2,0.2c0.2,0.2,0.1,0.7-0.2,0.8c-0.1,0.1-0.1,0.1,0,0.2c0.1,0.2,0.3,0.4,0.5,0.6
				c0.1,0.1,0.1,0.2,0,0.2c-0.1,0.1-0.1,0.1-0.1,0.2c0,0.1,0,0.2-0.1,0.2c-0.2,0.1-0.4,0.2-0.5,0.4c0,0.1-0.1,0.2-0.2,0.2
				c-0.1,0.1-0.1,0.3-0.1,0.4c0,0,0,0,0,0c0-0.1,0-0.1,0-0.2c0-0.1,0.1-0.2,0.2-0.3c0.2-0.2,0.3-0.5,0.5-0.5c0.2,0,0.3-0.1,0.3-0.3
				c0,0,0-0.1,0.1-0.1c0.1-0.1,0.1-0.1,0-0.2c-0.2-0.2-0.3-0.4-0.5-0.6c-0.1-0.1-0.1-0.2,0-0.2c0.4-0.3,0.4-0.5,0.2-0.8c0,0,0,0,0,0
				c-0.3-0.4-0.2-0.3,0.1-0.6c0.1-0.1,0.1-0.2,0-0.3c-0.1-0.1-0.1-0.2-0.1-0.4c0.1-0.2,0-0.3-0.2-0.4c-0.3-0.2-0.7-0.1-1.1-0.3
				c0,0-0.1,0-0.1,0c0,0,0,0.1,0,0.1c0,0.1,0.1,0.2,0.1,0.3c0.2,0.3,0.2,0.7,0.1,1c0,0,0,0.1-0.1,0.1c-0.3,0.2-0.6,0.3-0.9,0.2
				c-0.1-0.1-0.2,0-0.2,0.1c0,0.2-0.1,0.5,0,0.7c0.1,0.2,0,0.4-0.1,0.6c0,0-0.1,0.1-0.1,0.1c-0.1,0-0.3,0-0.4-0.1
				c-0.4-0.2-0.8-0.4-1.2-0.5c-0.1,0-0.1-0.1-0.2-0.1c0-0.1,0-0.2,0-0.3c0-0.1,0-0.1,0-0.2c0.2-0.2,0.2-0.4,0.1-0.7
				c0-0.1,0-0.2-0.1-0.1c-0.1,0-0.1,0-0.2,0c-0.2-0.1-0.5-0.3-0.8-0.2c-0.2,0-0.4,0-0.4,0.2c-0.1,0.4-0.4,0.5-0.7,0.6
				c-0.1,0.1-0.2,0.1-0.4,0c-0.5-0.2-1-0.3-1.6-0.2c0,0-0.1,0-0.1,0c-0.3-0.1-0.5-0.1-0.8-0.1c-0.2,0-0.3,0-0.5,0
				c-0.5-0.1-1.1-0.1-1.6,0c-0.4,0.1-0.8,0.2-1.2,0.5c-0.3,0.3-0.7,0.5-1.2,0.3c-0.1,0-0.1,0-0.2,0c-0.2,0-0.4,0-0.6-0.1
				c-0.4-0.2-0.7-0.4-0.8-0.9c0,0,0,0,0,0c-0.1-0.2-0.2-0.3-0.4-0.2c-0.1,0-0.1,0-0.2,0c-0.1,0-0.2,0.1-0.2,0.2
				c-0.1,0.4-0.3,0.8-0.5,1.1c-0.2,0.3-0.3,0.5-0.3,0.8c0,0.2,0,0.2,0.2,0.2c0.4,0.1,0.9,0.1,1.3,0.2c0.5,0.1,1.1,0.2,1.6,0.3l0,0
				l0,0c0,0,0,0,0,0c0,0,0,0,0.1,0c0,0,0,0,0,0c0,0,0,0-0.1,0c-1-0.2-2-0.4-3.1-0.5c0,0-0.1,0-0.1,0c-0.1,0.2-0.2,0.4-0.4,0.7
				C53.1,56.9,53.1,57,53,57c-0.1,0-0.1,0.2-0.1,0.2c0.1,0.1,0.1,0.1,0,0.2c-0.1,0.1-0.1,0.2,0,0.2c0.1,0.1,0.2,0.1,0.2,0.2
				c-0.1,0.1,0.1,0.2,0,0.3c-0.1,0.1-0.1,0.2-0.3,0.2c0,0-0.2,0-0.1,0.1c0.1,0.2,0.1,0.3,0.3,0.2c0.1,0,0.1,0,0.2,0.1
				c0,0.1,0.1,0.2,0,0.3c-0.1,0.1-0.2,0.2-0.3,0.1c0,0-0.1,0-0.1,0c0,0.2-0.2,0.3-0.3,0.5c0.1,0.1,0.2,0.1,0.3,0.2
				c0.1,0.1,0.1,0.1,0.3,0c0.1-0.2,0.3-0.3,0.5-0.3c0.2,0,0.3,0.2,0.6,0.1c0,0,0.1,0,0.1,0.1c0,0.1,0.1,0,0.2,0.1
				c0.1,0,0.1-0.1,0.1-0.1c0-0.1,0-0.1,0.1-0.1c0.1,0,0.2,0,0.2,0.1c0.1,0.1,0.2,0.3,0.2,0.4c0,0.1,0.1,0.2,0.2,0.2
				c0.2,0,0.3,0.1,0.5,0c0,0,0.1,0,0.1,0c0.1,0.1,0.1,0.1,0.2,0.2c0.1,0.1,0.2,0.2,0.1,0.3c-0.1,0.1-0.2,0.3-0.3,0.3
				c-0.1,0-0.2-0.1-0.2,0c0,0.1,0.1,0.2,0.1,0.2c0,0,0.1,0.1,0.1,0.1c0,0.2,0.2,0.2,0.3,0.3c0,0,0.1,0.1,0.1,0.1
				c0.2,0.1,0.2,0.2,0.3,0.4c0,0.1,0.1,0.1,0.2,0.1c0.1-0.1,0.2-0.1,0.3,0c0,0,0.1,0,0.1,0c0.2-0.1,0.5,0.1,0.7,0
				c0.1,0,0.2,0,0.3,0.1c0,0,0,0,0.1,0c0.2-0.1,0.4,0,0.6,0.1c0,0,0,0,0,0.1c0,0.1-0.1,0.2,0.1,0.2l0,0c0,0.1,0.1,0.1,0.1,0.1
				c0.1,0,0.2,0,0.3,0c0,0,0,0.1,0.1,0.1c0,0.1-0.1,0.1-0.1,0.2c0,0.1,0.1,0.1,0.2,0.1c0.1,0,0.2-0.1,0.3-0.1c0,0,0.1,0.1,0.1,0.1
				c0,0.1,0,0.1,0.1,0.1c0,0,0,0.1,0,0.1c0,0.2,0.1,0.1,0.2,0.2c0,0,0,0,0.1,0l0,0c0,0,0,0,0,0.1c0,0,0,0.1,0.1,0.1c0,0,0,0,0-0.1
				c0-0.1,0-0.2,0-0.3c0,0,0,0,0,0c0.1,0,0.1,0,0.1-0.1c0.1,0,0.2,0.1,0.2,0.2c-0.1,0-0.1,0.1-0.1,0.1c0,0,0,0-0.1,0
				c0,0,0-0.1-0.1-0.1c0,0,0,0.1,0,0.1c0,0.1,0,0.1,0,0.2C60.1,64,60,64.1,60,63.9c0-0.1-0.1-0.1-0.1-0.1c-0.1,0-0.2-0.1-0.2-0.2
				c0-0.1-0.1-0.2-0.2-0.1c-0.2,0.1-0.4,0-0.5-0.1c0,0,0-0.1,0-0.1c0.1-0.2-0.1-0.2-0.2-0.2c-0.3,0-0.3,0-0.4-0.3
				c0-0.1-0.3-0.2-0.4-0.1c-0.1,0.1-0.1,0.1-0.2,0c-0.1-0.1-0.2-0.2-0.3,0c-0.1,0.1-0.1,0-0.2,0c-0.1-0.1-0.2-0.1-0.3,0
				c-0.1,0.1-0.1,0-0.2,0c-0.1-0.1-0.2-0.1-0.3-0.1c-0.1,0.1-0.4-0.1-0.3-0.3c0-0.1,0-0.2-0.1-0.2c-0.1-0.1-0.3-0.1-0.4-0.2
				c-0.1-0.1-0.2-0.1-0.2-0.3c0,0-0.1-0.1-0.1-0.1c-0.1-0.1-0.1-0.2,0-0.3c0.1-0.1,0.1-0.2,0.3-0.2c0.1,0,0.2-0.1,0.3-0.2
				c0-0.1,0-0.2-0.1-0.2c0,0,0,0,0,0c-0.2,0.1-0.3-0.1-0.4,0c-0.2,0-0.3,0-0.4-0.1c-0.1,0-0.1-0.1-0.1-0.2c0-0.1-0.1-0.3-0.2-0.4
				c0,0.1,0,0.1-0.1,0.2c0,0.1-0.1,0.2-0.2,0.1c-0.1,0-0.1,0-0.1,0.1c-0.1,0.2-0.2,0.3-0.4,0.1c0,0-0.1,0-0.1,0
				c-0.3-0.1-0.3-0.3-0.2-0.5c-0.1-0.1-0.4,0-0.5,0.2c-0.1,0.2-0.3,0.2-0.4,0.2c-0.1,0-0.1,0-0.1-0.1c0-0.2-0.1-0.3-0.3-0.3
				c-0.1,0-0.1,0-0.2-0.1c-0.1-0.1-0.1-0.2,0.1-0.2c0.3-0.1,0.3-0.1,0.4-0.4c0-0.2,0.2-0.2,0.3-0.2c0.1,0,0.1,0,0.1-0.1
				c0-0.1,0,0-0.1,0c-0.1,0-0.3-0.1-0.4-0.2c-0.1-0.1-0.1-0.2-0.1-0.3c0-0.1,0.2-0.1,0.3-0.1c0.1,0,0.2,0,0.2-0.2
				c0-0.1-0.1-0.2-0.2-0.3c-0.1-0.1-0.2-0.3-0.3-0.4c-0.1-0.1,0-0.1,0.1-0.1c0.1,0,0.2-0.1,0.2-0.2c0,0,0-0.1,0.1-0.1
				c0.4-0.3,0.6-0.7,0.6-1.1c0-0.3,0.1-0.6,0.3-0.9c0.3-0.3,0.5-0.7,0.5-1.1c0-0.2,0.1-0.3,0.3-0.3c0.1,0,0.3-0.1,0.4-0.1
				c0.1,0,0.4,0.2,0.4,0.3c0,0,0,0,0,0.1c0,0.4,0.3,0.6,0.7,0.8c0.2,0.1,0.4,0.1,0.6,0.1c0,0,0.1,0,0.1,0c0.4,0.2,0.8,0,1.1-0.3
				c0.3-0.3,0.8-0.4,1.2-0.5c0.7-0.1,1.4,0,2.1,0c0.3,0,0.6,0,0.9,0.1c0,0,0.1,0,0.1,0c0.5,0,1,0,1.5,0.3c0.1,0,0.2,0,0.3,0
				c0.3-0.1,0.5-0.3,0.6-0.6c0.1-0.2,0.2-0.3,0.5-0.3c0.3,0,0.6,0,0.8,0.2c0.1,0,0.1,0.1,0.2,0.1c0.2,0,0.3,0.1,0.3,0.3
				c0,0.3,0,0.6-0.2,0.8c0,0.1,0,0.2,0.1,0.2c0.4,0.2,0.9,0.4,1.3,0.6c0.1,0,0.2,0.1,0.3,0c0.1-0.1,0.1-0.2,0.1-0.3
				c-0.1-0.3-0.1-0.7,0-1c0.1-0.1,0.1-0.2,0.2-0.1c0.3,0.1,0.5,0.1,0.8-0.1c0,0,0.1,0,0.1-0.1c0-0.2,0.2-0.4,0-0.7
				c-0.1-0.2-0.2-0.5-0.3-0.7c0-0.1-0.1-0.1,0-0.2c0.1-0.1,0.2-0.1,0.3-0.1c0.1,0,0.1,0.1,0.2,0.1c0.2,0.1,0.3,0.2,0.5,0.1
				c0.1,0,0.2,0,0.3,0.1c0.2,0.1,0.4,0.1,0.7,0.1c0.3-0.1,0.5,0.1,0.7,0.2c0.1,0,0.1,0.1,0.1,0.2c0,0.2,0.1,0.2,0.2,0.2
				c0.5,0.1,1.1,0.1,1.6,0.2c0,0,0.1,0,0.1,0c0.2,0.2,0.5,0.2,0.8,0.3c0.1,0,0.2,0.1,0.2,0.2c0,0.2,0.1,0.3,0,0.5
				c0,0.1,0,0.1,0.1,0.1c0.3,0.2,0.3,0.6,0.3,0.9c0,0.1,0,0.1,0.1,0.2c0.1,0,0.1,0,0.2,0c0.1-0.1,0.1-0.1,0.2-0.1
				c0.1,0,0.2,0.1,0.2,0.2c0,0.1,0.1,0.2,0.3,0.1c0.2-0.1,0.2-0.1,0.3,0.1c0.1,0.2,0.1,0.2,0.3,0.2c0.2,0,0.5,0.1,0.6,0.4
				c0,0.1,0.1,0.1,0.2,0.1c0.2,0,0.3,0,0.5,0.1c0.2,0.1,0.3,0.2,0.5,0.3c0.1,0.1,0.2,0.1,0.2,0.3c0,0.1,0.1,0.2,0.1,0.2
				c0.1,0.1,0.3,0.1,0.3,0.3c0,0.1,0.1,0.1,0.2,0c0.2-0.1,0.4,0,0.6,0.1c0.1,0.1,0.2,0.1,0.4,0.1c0.1,0,0.2,0,0.2,0.1
				c0.1,0.3,0.2,0.5,0.1,0.8c0,0.1,0,0.1,0.1,0.1c0.1,0,0.1,0.1,0.3,0c0.3-0.2,0.6-0.3,0.9-0.1c0.2,0.1,0.4,0.2,0.6,0.1
				c0.1,0,0.2,0,0.3,0.1c0,0,0.1,0.1,0.1,0.1c0.2,0.1,0.3,0.4,0.3,0.6c0,0.1,0.1,0.3,0.1,0.4c0.1,0.3,0.2,0.6,0.2,1
				c0,0.2,0.1,0.3,0.3,0.2c0.2-0.1,0.4,0.1,0.4,0.3c0,0.2,0,0.2,0.2,0.3c0.3,0.1,0.5,0.1,0.8,0.1c0.3,0,0.5,0,0.8-0.1
				c0,0,0.1,0,0.1,0c0.3,0.2,0.6,0.1,0.9,0.1c0.2,0,0.3-0.1,0.5,0.1c0,0,0.1,0,0.1,0c0.3,0,0.5,0,0.8,0c0.3,0,0.6-0.3,0.6-0.6
				c0-0.2,0-0.3,0-0.4c0-0.1,0.1-0.2,0.2-0.2c0.2,0,0.4-0.2,0.4-0.4c0-0.1,0.1-0.1,0.2-0.1c0.2,0,0.4,0,0.6,0.1
				c0.1,0.1,0.2,0,0.3,0.1c0.2,0,0.3,0,0.5,0.1c0,0,0.1,0,0.2,0c0.2-0.1,0.5,0,0.7,0.1c0,0,0.1,0.1,0.1,0.1c0.3,0.3,0.7,0.4,1.1,0.5
				c0.2,0,0.3,0.1,0.5,0.3c0.1,0.2,0.3,0.3,0.6,0.4c0.1,0,0.1,0.1,0.2,0.1c0.2,0.1,0.3,0.2,0.5,0.3c0,0.1,0,0.1,0,0.2
				c-0.1,0-0.1-0.1-0.2-0.1c-0.2-0.1-0.3-0.3-0.6-0.4c-0.2,0-0.3-0.1-0.5-0.3c-0.1-0.1-0.2-0.3-0.4-0.3c-0.5-0.1-0.9-0.3-1.3-0.6
				c-0.1-0.1-0.2-0.1-0.2-0.1c-0.1,0-0.2,0-0.4,0c-0.1,0.1-0.3-0.1-0.4-0.1c-0.2-0.1-0.5-0.1-0.8-0.2c-0.1,0-0.3-0.1-0.4,0.1
				c-0.1,0.2-0.2,0.3-0.5,0.3c-0.1,0-0.2,0.2-0.1,0.3c0.1,0.2-0.1,0.6-0.3,0.7c0.1,0.1,0.1,0.3,0.1,0.4c0,0.2,0.2,0.4,0.4,0.4
				c0.1,0,0.1,0,0.2,0.1c0.4,0.2,0.8,0.5,1.3,0.7c0.1,0.1,0.2,0.1,0.2,0.2c0.1,0.2,0.2,0.3,0.4,0.4c0.1,0.1,0.3,0.1,0.4-0.1
				c0,0,0.1-0.1,0.1-0.1c0.2,0.1,0.4,0.2,0.5,0.4c0.2,0.3,0.3,0.7,0.5,1c0.1,0.2,0.1,0.3-0.1,0.4c-0.1,0.1-0.1,0.1-0.1,0.2
				c0.1,0.3,0.2,0.5,0.3,0.8c0,0.1,0,0.1,0,0.2c0,0.2,0,0.4,0.1,0.6c0.1,0.3,0.2,0.6,0.1,0.9c-0.1,0.2-0.2,0.4-0.2,0.6
				c0,0.2,0.2,0.4,0.2,0.7c0,0,0,0.1,0.1,0.1c0,0.2,0.1,0.3,0.3,0.4c0.1,0.1,0.2,0.1,0.1,0.3c0.1-0.1,0.2-0.1,0.3-0.2
				c0.1-0.1,0.2-0.1,0.3,0c0.1,0.1,0.2,0.2,0.3,0.1C94.6,71.2,94.6,71.3,94.6,71.4z M64.9,66.2c0.1,0,0.1,0,0.2,0c0.1,0,0.1,0,0.2,0
				C65.1,65.9,65.1,65.9,64.9,66.2C64.9,66.2,64.9,66.2,64.9,66.2z M53.7,60c0.1,0.1,0.2,0.2,0.4,0.2c0.1,0,0.1-0.1,0.1-0.2
				c0-0.1-0.1,0-0.1,0C53.9,60.1,53.8,60.1,53.7,60z M67.2,67.9C67.2,67.9,67.2,67.9,67.2,67.9C67.3,67.9,67.3,67.9,67.2,67.9
				C67.3,67.9,67.3,67.9,67.2,67.9C67.3,67.9,67.2,67.9,67.2,67.9z"/>
			<path class="st7" d="M94.6,71.2c-0.1,0-0.2-0.1-0.3-0.1c-0.1-0.1-0.2-0.1-0.3,0c-0.1,0.1-0.2,0.2-0.3,0.2c0.1-0.1,0-0.2-0.1-0.3
				c-0.1-0.1-0.2-0.2-0.3-0.4c0,0,0-0.1-0.1-0.1c-0.1-0.2-0.2-0.4-0.2-0.7c0-0.2,0.1-0.4,0.2-0.6c0.1-0.3,0-0.6-0.1-0.9
				C93.1,68,93,67.8,93,67.5c0-0.1,0-0.1,0-0.2c-0.1-0.3-0.2-0.5-0.3-0.8c0-0.1,0-0.2,0.1-0.2c0.2-0.1,0.2-0.2,0.1-0.4
				c-0.2-0.3-0.3-0.7-0.5-1c-0.1-0.2-0.4-0.3-0.5-0.4c0,0-0.1,0-0.1,0.1c-0.1,0.1-0.3,0.2-0.4,0.1c-0.2-0.1-0.3-0.2-0.4-0.4
				c0-0.1-0.1-0.2-0.2-0.2c-0.4-0.2-0.8-0.5-1.3-0.7c-0.1,0-0.1-0.1-0.2-0.1c-0.2,0-0.4-0.2-0.4-0.4c0-0.2,0-0.3-0.1-0.4
				c0.2-0.1,0.3-0.5,0.3-0.7c0-0.1,0-0.3,0.1-0.3c0.3,0,0.4-0.2,0.5-0.3c0.1-0.2,0.3-0.2,0.4-0.1c0.3,0.1,0.5,0.1,0.8,0.2
				c0.1,0,0.3,0.2,0.4,0.1c0.1-0.1,0.2,0,0.4,0c0.1,0,0.2,0,0.2,0.1c0.4,0.3,0.8,0.5,1.3,0.6c0.2,0,0.3,0.2,0.4,0.3
				c0.1,0.2,0.3,0.3,0.5,0.3c0.2,0.1,0.4,0.3,0.6,0.4c0.1,0,0.1,0.1,0.2,0.1C94.6,65.7,94.6,68.4,94.6,71.2z M92.4,63.1
				c0,0,0-0.1,0-0.1c0-0.1-0.1-0.2-0.2-0.2c-0.1,0-0.2,0.1-0.2,0.2c0,0.1,0,0.2,0,0.3c0,0.1,0.1,0.1,0.2,0.1c0.1,0,0.1-0.1,0.2-0.1
				C92.4,63.2,92.4,63.2,92.4,63.1z M91.6,62.8c0.2,0,0.2,0.1,0.2,0.3c0.1,0,0.1-0.1,0.1-0.2C91.9,62.8,91.7,62.8,91.6,62.8z
				 M91.9,63.4c-0.1-0.1-0.2,0-0.3-0.1c0,0,0,0,0,0c0,0,0,0.1,0,0.1C91.7,63.4,91.8,63.4,91.9,63.4z"/>
			<path class="st7" d="M78.2,60.3c-0.1-0.1-0.3-0.1-0.3-0.2c0,0,0,0,0,0c-0.1,0.1-0.2,0-0.3-0.1c-0.1-0.1-0.3-0.1-0.4-0.2
				c-0.2-0.1-0.3-0.2-0.4-0.4c0-0.1-0.1-0.1-0.2-0.1c-0.2,0-0.3-0.1-0.5,0c-0.2,0-0.3-0.1-0.3-0.2c-0.1-0.1-0.1-0.2,0.1-0.3
				c0.1-0.1,0.1-0.1,0.2,0c0.1,0.1,0.3,0.2,0.4,0.3c0.1,0.1,0.2,0.1,0.2,0c0.2-0.1,0.5-0.1,0.7-0.1c0.1,0,0.2,0.2,0.3,0.2
				c0.1,0.1,0.1,0.1,0.3,0c0.1-0.1,0.2-0.1,0.3-0.1c0.2,0,0.4-0.2,0.5-0.4c0-0.1,0-0.2,0-0.3c0.1-0.3,0.4-0.5,0.7-0.3
				c0.1,0.1,0.3,0.2,0.5,0.2c0.1,0,0.1,0,0.1,0.1c0.1,0.2,0.2,0.4,0.1,0.7c-0.1,0.1,0,0.2,0.1,0.3c0,0,0.1,0,0.1,0.1
				c0.2,0.1,0.3,0.1,0.4,0c0.2-0.1,0.4-0.2,0.6-0.1c0.1,0,0.1,0.1,0.2,0.1c0.2,0.1,0.3,0.1,0.5,0c0.1,0,0.2,0,0.3,0.1
				c0.2,0.2,0.3,0.3,0.3,0.6c0,0.1,0.1,0.2,0.1,0.4c0.1,0.3,0.2,0.7,0.2,1c0,0.2,0.3,0.4,0.5,0.3c0.1,0,0.2,0,0.2,0.1
				c0,0.1,0,0.1,0,0.2c0,0.1,0.1,0.2,0.2,0.3c0.4,0.2,0.9,0.1,1.4,0.1c0.3,0,0.5-0.1,0.8,0.1c0.1,0,0.1,0,0.2,0
				c0.2,0,0.4-0.1,0.6-0.1c0,0,0.1,0,0.1,0c0.2,0.2,0.5,0.1,0.7,0.1c0.3,0,0.6,0,0.8-0.2c0,0,0.1,0,0.1,0c0,0.1,0.1,0.2,0.1,0.3
				c0,0.1,0.1,0.3,0.1,0.4c0.1,0.1,0.2,0.2,0.4,0.2c0.1,0,0.1,0,0.1,0.1c0.4,0.3,0.9,0.5,1.3,0.8c0.1,0,0.1,0.1,0.2,0.2
				c0.1,0.2,0.3,0.3,0.4,0.5c0.1,0.1,0.4,0.1,0.5,0c0-0.1,0.1-0.1,0.1,0c0.2,0.1,0.5,0.3,0.6,0.6c0.1,0.2,0.2,0.5,0.3,0.7
				c0.1,0.1,0.1,0.3-0.1,0.4c-0.1,0.1-0.1,0.1-0.1,0.3c0.1,0.1,0.1,0.3,0.2,0.4c0.1,0.3,0.2,0.5,0.2,0.8c0,0.2,0.1,0.3,0.1,0.5
				c0.1,0.4,0.1,0.9-0.1,1.3c-0.1,0.2,0,0.3,0,0.4c0.1,0.2,0.1,0.4,0.2,0.6c0.1,0.2,0.2,0.4,0.4,0.6c0.1,0.1,0,0.2,0,0.2
				c0,0.1-0.1,0.1-0.2,0.1c-0.4,0-0.7,0-1.1,0c-0.1,0-0.1,0-0.2-0.1c-0.2-0.1-0.3-0.2-0.5-0.3c-0.1-0.1-0.3-0.1-0.4-0.1
				c-0.1,0-0.2,0-0.4-0.1c-0.1,0-0.1-0.1-0.2-0.1c-0.3-0.2-0.7-0.3-1.1-0.2c-0.2,0-0.4-0.1-0.5-0.1c-0.1,0-0.1-0.1,0-0.2
				c0.1-0.1,0.1-0.2,0-0.3c-0.1-0.1-0.1-0.3-0.2-0.5c-0.1-0.1-0.1-0.3,0-0.4c0-0.1,0.1-0.1,0.1-0.2c0.1-0.2,0.2-0.4,0-0.6
				c-0.1-0.1,0-0.1,0-0.2c0,0,0.1-0.1,0.1-0.1c0-0.1-0.1-0.2-0.2-0.2c-0.2-0.1-0.2-0.2-0.1-0.3c0.1-0.2,0.2-0.4,0.3-0.7
				c0-0.1,0-0.1-0.1-0.1c-0.3-0.2-0.5-0.7-0.3-1c0.2-0.3,0.1-0.5,0.1-0.8c0-0.1,0-0.1-0.1-0.1c0,0,0,0,0,0c-0.3-0.2-0.6,0.1-0.9,0
				c-0.1,0-0.1,0-0.2,0.1c-0.1,0.1-0.3,0.1-0.4,0c-0.1-0.1-0.2-0.1-0.3,0c0,0.1-0.1,0-0.1,0c-0.1-0.1-0.2-0.1-0.3,0
				c-0.1,0.1-0.1,0.1-0.2,0c-0.2-0.1-0.4-0.1-0.6,0c-0.1,0.1-0.3,0.1-0.4,0c0,0-0.1-0.1-0.2-0.1c-0.2,0-0.4,0-0.6-0.1
				c-0.1,0-0.1,0-0.2,0c-0.1,0.1-0.2,0.1-0.3,0.2c-0.1,0-0.2,0.1-0.2,0c-0.1-0.2-0.3-0.2-0.5-0.3c-0.1-0.1-0.2-0.1-0.3-0.2
				c-0.1-0.1-0.3-0.1-0.4,0c-0.1,0-0.2,0-0.2,0c-0.3-0.2-0.5-0.4-0.8-0.6c0.1-0.1,0.2-0.2,0.3-0.2c0.1,0,0.3,0,0.2-0.2
				c0-0.1,0-0.2-0.1-0.4c0-0.1-0.1-0.2,0-0.3c0.2-0.1,0.2-0.4,0.4-0.5c0,0,0.1-0.1,0-0.1c-0.1,0-0.1-0.1-0.1-0.2
				c0-0.2-0.1-0.3-0.2-0.4c-0.1-0.1-0.3-0.2-0.4,0c-0.1,0.1-0.4,0.1-0.5-0.1c0-0.1-0.1-0.1-0.2-0.2c-0.1,0-0.1,0-0.2-0.1
				c-0.1,0-0.3,0-0.3-0.2c0,0,0-0.1-0.1,0c-0.1,0.1-0.2,0-0.3,0c-0.1,0-0.1,0-0.1,0.1c0,0.1,0,0.1,0.1,0.1c0.1,0.1,0.1,0.1,0,0.2
				c0,0-0.1,0.1-0.1,0.1c-0.1,0-0.1,0-0.2,0c0-0.1-0.1-0.1-0.2-0.1c-0.2,0-0.3-0.1-0.3-0.3c0-0.1-0.1-0.1-0.2-0.2
				c-0.1,0-0.1,0.1-0.1,0.1c0,0.1-0.1,0.1-0.1,0.2c-0.1,0.1-0.2,0.1-0.2,0c0,0,0-0.1-0.1-0.1c-0.1,0,0,0.1,0,0.1c0,0.1,0,0.2,0,0.4
				c0,0.1-0.1,0.2-0.2,0.3c-0.1,0.1-0.2,0-0.2-0.1c-0.1-0.1-0.2-0.2-0.2,0c-0.1,0.2-0.4,0.3-0.6,0.3c-0.1,0-0.2,0.1-0.2,0
				c-0.2-0.1-0.5-0.1-0.7-0.2c0-0.1,0-0.2-0.2-0.2c-0.1,0-0.1,0-0.1-0.1c0-0.1,0.1-0.1,0.1-0.1c0.2-0.1,0.5-0.3,0.7-0.4c0,0,0,0,0,0
				c0.2-0.1,0.5-0.1,0.7-0.2c0,0,0.1,0,0.1,0c0.1,0.1,0.2,0.1,0.2,0.1c0.1,0,0.2-0.1,0.4-0.1c0.1,0,0.2-0.1,0.2-0.2
				c0-0.3,0-0.3,0.3-0.2c0,0,0,0,0.1,0c0.2-0.1,0.2,0,0.2,0.1c0,0.1,0.1,0.1,0.1,0.1c0,0,0.1,0,0.1,0c0-0.2,0.2-0.3,0.2-0.5
				c0-0.4-0.1-0.5-0.4-0.6c-0.1,0-0.1,0-0.1,0.1c0,0,0,0.1,0,0.1c0,0.1-0.1,0.3-0.2,0.3c-0.1,0-0.1-0.1-0.1-0.2c0,0,0-0.1-0.1-0.1
				c-0.1,0,0,0.1,0,0.1c0,0.1,0.1,0.1-0.1,0.1C78.5,60.2,78.4,60.2,78.2,60.3z"/>
			<path class="st7" d="M81.6,63.8c0.3,0.2,0.6,0.5,0.9,0.7c0.1,0,0.1,0,0.2,0c0.1-0.1,0.3,0,0.4,0c0.2,0.1,0.4,0.2,0.6,0.3
				c0.1,0,0.2,0.1,0.2,0.2c0.1,0.2,0.2,0.1,0.4,0.1c0.3-0.3,0.7-0.2,1-0.2c0.1,0,0.1,0,0.2,0.1c0.1,0.1,0.3,0.1,0.4,0
				c0.2-0.1,0.4-0.1,0.6,0c0.1,0.1,0.2,0,0.3,0c0.1-0.1,0.1-0.1,0.2,0c0.1,0.1,0.2,0.1,0.3,0c0-0.1,0.1,0,0.1,0
				c0.2,0.2,0.3,0.2,0.5,0c0,0,0,0,0,0c0.1-0.1,0.3,0.1,0.5-0.1c0.1-0.1,0.3,0,0.4,0c0.3,0,0.2,0.2,0.2,0.4c0.1,0.3-0.1,0.4-0.2,0.7
				c-0.1,0.3,0.1,0.7,0.3,0.9c0.1,0,0.1,0.1,0.1,0.1c-0.1,0.2-0.1,0.5-0.3,0.6c-0.1,0.1,0.1,0.4,0.2,0.4c0.1,0,0.1,0.1,0.2,0.2
				c0,0.1,0,0.1-0.1,0.1c-0.1,0.1-0.1,0.1,0,0.2c0.1,0.2,0.1,0.3,0,0.5c-0.1,0.1-0.1,0.2-0.1,0.3c-0.1,0.1-0.1,0.3,0,0.4
				c0.1,0.2,0.2,0.3,0.2,0.5c0,0.1,0,0.1,0,0.2c-0.1,0.2-0.1,0.2-0.3,0.1c-0.3-0.1-0.6-0.2-0.9-0.1c-0.1,0-0.1,0-0.2-0.1
				c-0.1-0.1-0.3-0.2-0.4-0.2c-1-0.4-2-0.9-3-1.4c-0.1,0-0.1-0.1-0.2-0.2c-0.3-0.2-0.6-0.4-1-0.2c-0.4,0.2-0.8,0.1-1.1-0.2
				c-0.1-0.1-0.2-0.1-0.4-0.1c-0.3,0-0.5,0-0.7-0.2c-0.1-0.1-0.2-0.1-0.3-0.1c-0.2,0.1-0.5,0.1-0.7,0.1c-0.1,0-0.2,0-0.2,0.1
				c-0.1,0.1-0.2,0.1-0.3,0.1c-0.1,0,0-0.1-0.1-0.1c0-0.1,0-0.2,0-0.2c-0.1-0.1-0.1-0.2-0.2-0.2c-0.1,0-0.1,0.1-0.1,0.2
				c0,0.2-0.1,0.2-0.3,0.2c-0.2,0-0.4,0-0.6-0.1c-0.1-0.1-0.2-0.1-0.4,0.1c-0.1,0.1-0.1,0.1-0.2,0.2C77.3,68,77.2,68,77,68
				c0,0,0,0,0,0c-0.1-0.2-0.3-0.2-0.5-0.4c-0.2-0.4-0.2-0.4-0.7-0.2c-0.3,0.1-0.6,0.1-0.9,0.2c-0.1,0-0.2,0-0.3,0.2
				c0,0,0,0.1-0.1,0.1c-0.1-0.1-0.3-0.1-0.4-0.2c0-0.1-0.1-0.1-0.1-0.1c-0.1,0-0.1,0.1-0.1,0.1c0,0,0,0.1,0,0.1
				c0,0.1-0.1,0.1-0.2,0.1c0.1-0.1,0.1-0.2,0-0.4c0,0-0.1-0.1,0-0.1c0.2-0.1,0.4-0.3,0.6-0.4c0.1,0,0.1-0.1,0.1-0.2
				c0-0.1-0.1-0.3-0.1-0.4c0,0,0-0.1-0.1-0.1c-0.1,0-0.1,0-0.1-0.1c0-0.1,0-0.1,0.1-0.2c0.1,0,0.1-0.1,0.1-0.1
				c-0.1-0.1,0-0.2,0.1-0.3c0.1-0.1,0.1-0.1,0.2,0c0.1,0,0.2,0.1,0.2,0c0.1-0.1,0.2-0.1,0.3,0c0.1,0.1,0.2,0.2,0,0.4
				c-0.1,0.1-0.1,0.2,0.1,0.3c0,0,0.1,0.1,0.1,0.1c0,0.1,0.1,0.2,0.2,0.2c0.1,0,0.1-0.1,0.1-0.2c0-0.1,0.1-0.1,0.2-0.1
				c0.1,0.1,0.2,0.1,0.2,0.2c0,0.1,0.1,0.2,0.2,0.2c0.1,0,0.1-0.1,0.1-0.2c0-0.1,0.1-0.2,0.1-0.3c0.1-0.1,0.1-0.2,0.1-0.4
				c0-0.1-0.1-0.1,0-0.2c0.1-0.1,0.1,0,0.2,0c0,0,0,0,0.1,0.1c0.1,0.1,0.2,0.1,0.3,0c0.1-0.1,0.1-0.1,0.1-0.2c0-0.1,0-0.3,0.1-0.4
				c0.1-0.2,0.1-0.3,0-0.5c-0.1-0.2-0.3-0.3-0.5-0.4c-0.1,0-0.2-0.1-0.3-0.1c-0.1,0-0.1-0.1-0.1-0.2c0-0.1,0.1-0.1,0.1-0.1
				c0.1,0,0.1-0.1,0.1-0.2c0.1-0.1,0.1-0.1,0.2-0.2c0.1,0,0.1-0.1,0.1-0.2c0,0,0-0.1,0-0.1c0,0,0.1,0,0.1,0c0.3-0.1,0.5-0.1,0.7,0.3
				c0,0.1,0.1,0.1,0.1,0.2c0.1,0.2,0.1,0.2,0.2,0c0.1-0.2,0.2-0.2,0.4-0.2c0.3,0.1,0.5,0.1,0.8,0c0.1-0.1,0.2,0,0.3,0
				c0.2,0.2,0.2,0.2,0.3-0.1c0,0,0,0,0,0c0.1-0.2,0.3-0.2,0.5-0.3c0.1-0.1,0.2,0,0.2,0.1c0.1,0,0.1,0,0.2,0c0.1,0,0.2,0,0.3,0
				c0,0.1,0,0.1,0,0.2c0,0.2,0.2,0.3,0.4,0.3c0.1,0,0.2,0,0.2,0C81.5,63.7,81.5,63.8,81.6,63.8L81.6,63.8L81.6,63.8z M80.1,66
				c0,0.1,0,0.1,0.1,0.1c0.1,0,0.2,0,0.2-0.1c0.1-0.1,0.1-0.2,0-0.3c0-0.1-0.1-0.2-0.2-0.2c-0.1,0-0.2,0.1-0.2,0.2
				c0,0.1,0.1,0.2,0.2,0.2c0.1,0,0.1,0,0.1,0.1c0,0.1,0,0.1-0.1,0.1C80.2,66.1,80.1,66.1,80.1,66z M79.9,66.1
				c-0.1,0-0.1-0.1-0.1-0.1c0-0.1,0-0.3,0-0.4c0,0,0-0.1,0-0.1c0,0-0.1,0-0.1,0.1c0.1,0.1,0,0.3,0,0.4c0,0.1,0,0.1-0.1,0.1
				C79.7,66.1,79.8,66.1,79.9,66.1z"/>
			<path class="st8" d="M59.8,63.5C59.8,63.5,59.8,63.5,59.8,63.5c0-0.2,0-0.2-0.1-0.2c0,0-0.1-0.1-0.1-0.1c0-0.1-0.1-0.1-0.2,0
				c-0.2,0.1-0.2,0.1-0.3-0.1c0,0,0-0.1-0.1-0.1c0-0.1-0.1-0.1-0.1-0.1c-0.1,0-0.2,0-0.3,0c0,0,0,0,0,0c-0.1-0.1,0-0.2-0.1-0.2
				c0,0,0,0,0-0.1c0,0,0,0,0,0c0-0.1-0.1-0.2,0.1-0.3c0.2-0.1,0.2-0.3,0-0.4c-0.1-0.1-0.2-0.1-0.2-0.3c0-0.1-0.1-0.2-0.2-0.2
				c-0.1,0-0.2,0-0.3-0.2c-0.1-0.1-0.2-0.2-0.3-0.3c-0.1-0.1-0.1-0.1-0.2,0c-0.1,0.1-0.2,0.1-0.3,0c-0.1-0.2-0.1-0.3-0.3-0.4
				c-0.1-0.1,0-0.2,0.1-0.2c0.1,0,0.1,0,0.2-0.1c0.2-0.1,0.4-0.2,0.6-0.3c0.1-0.1,0.2-0.1,0.2-0.2c0.1-0.2,0.2-0.3,0.4-0.2
				c0.1,0,0.3,0,0.3-0.1c0.1-0.1,0-0.2-0.1-0.2c0-0.1-0.1-0.2-0.2-0.2c0,0-0.1,0-0.1,0C58.2,59.1,58.1,59,58,59
				c-0.1,0-0.2-0.1-0.2-0.2c0-0.2-0.1-0.4-0.3-0.5c-0.1-0.1-0.2-0.1-0.3-0.1c-0.1,0-0.1,0.1-0.1,0.1c-0.1,0.1-0.2,0-0.2-0.1
				c0-0.3-0.1-0.5-0.1-0.8c0-0.1,0.2-0.1,0.2-0.2c0-0.2,0.1-0.4-0.1-0.6c0.3,0,0.5,0.1,0.8,0.1c1.1,0.2,2.2,0.4,3.3,0.6
				c1.1,0.2,2.2,0.4,3.3,0.6c0.2,0,0.2,0.1,0.1,0.2c-0.1,0.2-0.1,0.3-0.2,0.5c0,0.1,0,0.2,0,0.3c0.1,0.2,0.3,0.4,0.4,0.7
				c-0.2,0-0.4,0-0.5,0.2c0,0-0.1,0-0.1,0c-0.1,0-0.2,0.1-0.3,0.2c0,0.1-0.1,0.2-0.1,0.2c-0.1,0.2-0.2,0.2-0.3,0.2
				c-0.1,0-0.3-0.1-0.4,0c-0.1,0.1-0.2,0.1-0.3,0.1c-0.1,0-0.1,0.1-0.1,0.1c0.2,0.2,0,0.2-0.1,0.2c-0.1,0-0.1,0-0.2,0.1
				c-0.2,0-0.3,0.1-0.3,0.4c0,0.1-0.1,0.1-0.1,0.1c-0.1,0-0.2,0-0.3,0.1c-0.1,0.1-0.1,0.1-0.2,0.1c-0.1,0.1-0.2,0.2-0.1,0.3
				c0,0.1,0,0.2-0.1,0.2c-0.2,0.1-0.3,0.4-0.6,0.5c0,0,0,0,0,0.1c0,0.2-0.1,0.3-0.2,0.4c-0.1,0.1-0.1,0.3,0,0.4c0,0,0,0.1,0,0.1
				c0,0,0,0,0,0c-0.1,0-0.1,0.1-0.1,0.2c0,0,0,0-0.1,0C60,63.6,59.8,63.6,59.8,63.5z M60.4,59.2c-0.1,0.1-0.1,0.1-0.1,0.1
				c0.1,0.1,0,0.3,0.1,0.4c0,0.1-0.1,0-0.1,0.1c0.1,0,0.2,0,0.2,0C60.4,59.6,60.5,59.4,60.4,59.2z M60,59.2c0,0-0.1,0.1-0.1,0.1
				c0.1,0.1,0,0.3,0.1,0.4c0,0.1,0,0.1-0.1,0.1c0.1,0,0.2,0,0.3,0C59.9,59.6,60.1,59.4,60,59.2z"/>
			<path class="st7" d="M56.9,56.6c0.1,0.2,0.1,0.4,0.1,0.6c0,0.1-0.1,0.1-0.2,0.2c-0.1,0.3,0,0.5,0.1,0.8c0,0.1,0.2,0.1,0.2,0.1
				c0,0,0-0.1,0.1-0.1c0.1,0,0.2,0,0.3,0.1c0.1,0.1,0.3,0.3,0.3,0.5c0,0.1,0.1,0.2,0.2,0.2c0.1,0,0.2,0.1,0.3-0.1c0,0,0.1,0,0.1,0
				c0.1,0.1,0.2,0.1,0.2,0.2c0,0.1,0.2,0.1,0.1,0.2c-0.1,0.1-0.2,0.1-0.3,0.1c-0.2-0.1-0.4,0-0.4,0.2c0,0.1-0.1,0.2-0.2,0.2
				c-0.2,0.1-0.4,0.2-0.6,0.3c-0.1,0-0.1,0.1-0.2,0.1c-0.1,0-0.2,0.1-0.1,0.2c0.1,0.1,0.2,0.3,0.3,0.4c0.1,0.1,0.2,0.1,0.3,0
				c0.1-0.1,0.2-0.1,0.2,0c0.1,0.1,0.2,0.2,0.3,0.3c0.1,0.1,0.2,0.2,0.3,0.2c0.1,0,0.2,0.1,0.2,0.2c0,0.1,0.1,0.2,0.2,0.3
				c0.2,0.1,0.2,0.3,0,0.4c-0.2,0.1-0.1,0.2-0.1,0.3c0,0,0,0,0,0c-0.2-0.1-0.3-0.2-0.6-0.1c0,0-0.1,0-0.1,0
				c-0.1-0.1-0.2-0.1-0.3-0.1c-0.2,0.1-0.5-0.1-0.7,0c0,0-0.1,0-0.1,0c-0.1-0.1-0.2-0.1-0.3,0c-0.1,0-0.2,0-0.2-0.1
				c0-0.2-0.1-0.3-0.3-0.4c0,0-0.1,0-0.1-0.1c-0.1-0.1-0.3-0.1-0.3-0.3c0,0,0-0.1-0.1-0.1c0-0.1-0.2-0.1-0.1-0.2
				c0.1-0.1,0.1,0,0.2,0c0.2,0,0.3-0.2,0.3-0.3c0.1-0.1,0-0.2-0.1-0.3c-0.1-0.1-0.1-0.1-0.2-0.2c0,0-0.1-0.1-0.1,0
				c-0.2,0.1-0.3,0-0.5,0c-0.1,0-0.2-0.1-0.2-0.2c0-0.2-0.1-0.3-0.2-0.4c-0.1-0.1-0.2-0.1-0.2-0.1c-0.1,0-0.1,0.1-0.1,0.1
				c0,0,0,0.1-0.1,0.1c-0.1,0-0.2,0.1-0.2-0.1c0,0,0-0.1-0.1-0.1c-0.2,0-0.4-0.1-0.6-0.1c-0.2,0-0.4,0.1-0.5,0.3
				c-0.1,0.1-0.1,0.2-0.3,0c-0.1-0.1-0.2-0.2-0.3-0.2c0.1-0.1,0.3-0.3,0.3-0.5c0,0,0-0.1,0.1,0c0.2,0.1,0.2-0.1,0.3-0.1
				c0.1-0.1,0-0.2,0-0.3c0-0.1-0.1-0.1-0.2-0.1c-0.3,0-0.2,0-0.3-0.2c0-0.1,0.1-0.1,0.1-0.1c0.2,0,0.2-0.1,0.3-0.2
				c0-0.1-0.1-0.2,0-0.3c0.1-0.1-0.1-0.2-0.2-0.2c-0.1-0.1-0.1-0.1,0-0.2c0.1-0.1,0.1-0.1,0-0.2c0,0,0-0.2,0.1-0.2
				c0.1-0.1,0.2-0.2,0.2-0.3c0.1-0.2,0.3-0.4,0.4-0.7c0-0.1,0.1,0,0.1,0c1,0.2,2,0.4,3.1,0.5c0,0,0,0,0.1,0
				C56.9,56.6,56.9,56.6,56.9,56.6z"/>
			<path class="st8" d="M65.9,53.9c0.1,0,0.1,0,0.2,0c0.1,0,0.2,0,0.1,0.1c-0.1,0.1-0.3-0.1-0.2,0.2c0,0,0,0-0.1,0.1
				c-0.2,0-0.3,0.2-0.3,0.3c-0.1,0.1-0.1,0.3-0.2,0.4c-0.1,0.2-0.1,0.4,0.1,0.5c0.1,0.1,0.1,0.1,0,0.2c-0.1,0.1-0.2,0.2-0.2,0.3
				c-0.2,0.4-0.4,0.8-0.6,1.3c-0.1,0.2-0.2,0.3-0.1,0.5c0,0.1,0,0.1-0.1,0.1c0,0-0.1,0-0.1,0c-0.6-0.1-1.3-0.2-1.9-0.3
				c-1-0.2-2.1-0.4-3.1-0.5c-0.8-0.1-1.6-0.3-2.4-0.4c0,0,0,0-0.1,0c0,0,0,0,0,0l0,0c0,0,0,0,0,0c0-0.1,0-0.1-0.1-0.2
				c-0.1-0.2-0.1-0.4-0.1-0.6c0-0.1,0.1-0.1,0.2-0.2c0,0,0.1-0.1,0.1-0.1c0.1-0.1,0.4-0.2,0.5-0.1c0.2,0.2,0.3,0.2,0.5-0.1
				c0,0,0-0.1,0-0.1c0,0,0-0.1,0.1-0.1c0.1,0,0.2,0,0.2-0.1c0,0,0,0,0.1-0.1c0.2-0.1,0.4-0.2,0.7-0.1c0.1,0,0.2,0.1,0.2,0.2
				c0,0.1,0.1,0.2,0.2,0.1c0.1-0.1,0.3-0.2,0.3-0.4c0-0.1,0-0.1,0.1-0.1c0.1,0,0.1-0.1,0.1-0.2c0-0.1,0-0.1,0.1-0.1
				c0.1,0.1,0.3,0.2,0.3,0.3c0,0,0,0.1,0.1,0.1c0,0,0.1-0.1,0.1-0.1c-0.1-0.2,0.1-0.3,0.3-0.4c0.1-0.1,0.2-0.2,0.2,0.1
				c0,0.1,0.1,0.1,0.1,0.1c0.2,0.1,0.2,0.2,0,0.4c-0.1,0.1-0.1,0.1,0,0.1c0,0,0.1,0.1,0.2,0c0-0.1,0.1-0.1,0.2-0.1
				c0.2,0,0.2,0.2,0.3,0.3c0.1,0.1,0.2,0.1,0.2,0c0.1-0.1,0.1-0.1,0.2-0.1c0.1,0,0.2,0,0.2,0.1c0,0.1,0.3,0.2,0.4,0.1
				c0.1-0.1,0.2-0.2,0.2-0.3c0-0.1,0-0.1,0.1-0.1c0.1,0,0.2,0,0.2,0.1c0,0.2,0.1,0.2,0.2,0.3c0.1,0.1,0.1,0.1,0.1,0
				c0-0.2,0.1-0.1,0.2-0.1c0,0,0.1,0.1,0.1,0.1c0.1,0.1,0.2,0.1,0.2,0c0.1-0.1,0.2-0.2,0.2-0.3c0-0.1,0.1-0.1,0.1-0.1
				c0.1,0,0.2,0,0.2,0.1c0,0.2,0.2,0.3,0,0.5c-0.1,0.1-0.1,0.1,0,0.2c0,0.1,0.1,0,0.1,0c0,0,0.1,0,0.1,0c0.1,0.1,0.1,0,0.1-0.1
				c0,0,0-0.1,0-0.1c0.1-0.1,0.1-0.2,0.1-0.4c0-0.1,0-0.3-0.2-0.3c0,0,0-0.1-0.1-0.1c0-0.1,0.2-0.4,0.3-0.5c0.1,0,0.2,0,0.3-0.1
				C65.7,54.1,65.8,54,65.9,53.9z M61.5,55.8c-0.1,0-0.1,0-0.1,0.1c0.2,0.1,0,0.2,0.1,0.4c0,0.1,0,0.1-0.1,0.1c0.1,0,0.2,0,0.2,0
				C61.4,56.2,61.6,56,61.5,55.8z"/>
			<path class="st7" d="M69.6,58c0-0.2,0-0.3,0.1-0.4c0.1-0.1,0.1-0.1,0.2-0.2c0.1-0.2,0.3-0.3,0.5-0.4c0.1,0,0.2-0.1,0.1-0.2
				c0-0.1,0-0.2,0.1-0.2c0.1-0.1,0.1-0.1,0-0.2c-0.2-0.2-0.3-0.4-0.5-0.6c0-0.1-0.1-0.1,0-0.2c0.3-0.1,0.4-0.6,0.2-0.8
				c-0.1-0.1-0.1-0.2-0.2-0.2c-0.1-0.2-0.1-0.2,0.1-0.4c0,0,0.1-0.1,0.1-0.1c0.1-0.1,0.1-0.2,0-0.3c-0.1-0.1-0.2-0.3-0.1-0.5
				c0,0,0,0,0,0c0-0.3,0-0.3,0.3-0.3c0.2,0,0.4,0,0.6,0.1c0.1,0,0.1,0.1,0.1,0.1c0,0.2,0.2,0.4,0.4,0.4c0.3,0,0.6,0.1,0.9,0.1
				c0.1,0,0.2,0,0.3,0c0.2,0,0.4,0,0.6,0.2C73.8,54,74,54,74.1,54c0.1,0,0.2,0,0.1,0.2c0,0.1,0,0.3,0,0.4c0,0.1,0,0.1,0.1,0.2
				c0.2,0.2,0.2,0.5,0.3,0.7c0,0.1,0,0.1-0.1,0.1c-0.2,0.1-0.4,0.1-0.6,0.1c-0.1,0-0.1,0-0.1,0.1c0,0,0,0,0,0
				c0.1,0.9-0.3,1.7-0.7,2.4c-0.1,0.1-0.1,0.2-0.2,0.4c0.1,0,0.2,0,0.3,0.1c-0.1,0.1-0.3,0.1-0.3,0c0-0.2-0.2-0.3-0.4-0.2
				c-0.1,0-0.2,0-0.2-0.1c-0.1-0.1-0.2-0.2-0.3-0.1c-0.1,0-0.2,0-0.2-0.2c0-0.1-0.1-0.2-0.2-0.3c-0.1-0.1-0.4,0-0.4,0.2
				c0,0.2-0.1,0.3-0.3,0.3c0-0.1,0.1-0.1,0.1-0.2c-0.1,0-0.2,0-0.3,0c-0.1,0-0.1,0.1-0.1,0.1c0,0,0,0,0,0c0.1-0.1,0.2,0,0.3,0
				c-0.1,0.1-0.1,0.2-0.2,0.3c-0.1,0-0.3,0-0.4-0.1c0,0,0-0.1,0-0.1c0-0.1,0.1-0.2,0-0.2c-0.1,0,0,0.1,0,0.1c0,0,0,0,0,0.1
				C70.1,58.2,69.9,58.1,69.6,58C69.6,58,69.6,58,69.6,58z M71.7,56.6c0.1,0.1,0.2,0.1,0.3,0c0.1,0,0.1-0.1,0.1-0.2
				c-0.1-0.1-0.1-0.1,0-0.2c0-0.1,0-0.1,0-0.1c-0.1-0.1-0.2,0-0.2,0c0,0,0,0.1,0,0.1c0-0.1,0.1-0.1,0.2-0.1c0,0,0.1,0.1,0.1,0.1
				c0,0.1-0.1,0.1-0.2,0.1c0.1,0,0.3,0,0.2,0.2C72,56.7,71.8,56.6,71.7,56.6z"/>
			<path class="st8" d="M61.3,63.8c0.1-0.1,0-0.3,0-0.4c0-0.1-0.1-0.1-0.2,0c-0.1,0.2-0.3,0.2-0.5,0.2c-0.1,0-0.1,0.1-0.2,0.1
				c0-0.1-0.1-0.1-0.2-0.2c-0.1-0.1-0.2-0.2-0.1-0.3c0.1-0.1,0.2-0.3,0.3-0.4c0,0,0.1,0,0.1-0.1c0.3-0.1,0.4-0.4,0.6-0.6
				c0,0,0-0.1,0-0.1c0-0.3,0.3-0.5,0.6-0.5c0.1,0,0.2,0,0.2-0.2c0-0.2,0.1-0.3,0.2-0.3c0.1,0,0.2-0.1,0.3-0.1c0.1,0,0.1-0.1,0.1-0.2
				c0,0-0.1,0,0-0.1c0.1,0,0.2,0,0.3-0.1c0.1-0.1,0.2-0.1,0.3-0.1c0.1,0,0.2,0,0.3,0c0.1,0,0.1,0,0.2-0.1c0.1-0.1,0.2-0.3,0.2-0.4
				c0-0.1,0.1-0.1,0.1-0.1c0.1,0,0.2,0,0.2-0.1c0.2-0.1,0.4-0.1,0.6,0.1c0.1,0.1,0.2,0.3,0.3,0.3l0,0c0,0.1,0.1,0.1,0.1,0.1
				c0.6,0.4,1.2,0.9,1.8,1.3c0.1,0.1,0.1,0.1,0,0.2c-0.5,0.3-0.9,0.5-1.4,0.8c-0.3,0.2-0.5,0.3-0.8,0.5c-0.1,0.1-0.2,0.2-0.3,0.2
				c0-0.1-0.1-0.2-0.1-0.3c-0.1-0.2-0.2-0.1-0.3-0.1c-0.1,0-0.1,0.1-0.1,0.1c-0.1,0.3-0.3,0.5-0.4,0.7c-0.2,0.2-0.3,0.4-0.5,0.6
				c-0.3,0.4-0.6,0.8-0.9,1.1c-0.1-0.1-0.1-0.2,0.1-0.3c0.1-0.1,0.1-0.1,0.1-0.2c0-0.1,0-0.2,0-0.3c-0.1,0-0.2,0-0.3,0
				c-0.1,0-0.2,0-0.3-0.2c0-0.2,0.1-0.1,0.2-0.1c0.1,0,0.2,0,0.2-0.1c0-0.1,0-0.2,0.1-0.2c0.1-0.1,0.2-0.2,0.2-0.4
				c0-0.1,0-0.2-0.1-0.1c-0.1,0.2-0.3,0.1-0.5,0.1c0,0-0.1,0-0.1,0C61.8,63.8,61.6,63.9,61.3,63.8z M63.8,62.2c0,0,0-0.1,0-0.1
				c0-0.1-0.1-0.2-0.2-0.2c-0.1,0-0.2,0.1-0.2,0.2c0,0.1,0,0.2,0,0.3c0,0.1,0.1,0.1,0.2,0.1c0.1,0,0.1,0,0.2-0.1
				C63.8,62.3,63.8,62.3,63.8,62.2z M63.3,62.5c-0.1,0-0.2,0-0.1-0.1c0-0.1,0-0.3,0-0.4c0,0,0-0.1-0.1,0c0,0-0.1,0.1-0.1,0.1
				c0.1,0.1,0,0.3,0.1,0.4c0,0.1,0,0.1-0.2,0.1C63.1,62.5,63.2,62.5,63.3,62.5z"/>
			<path class="st8" d="M80.1,61.4c0-0.1,0-0.1,0.1-0.1c0-0.1,0.1-0.1,0-0.2c0,0-0.1,0-0.1-0.1c0,0,0.1-0.1,0.1-0.1
				c0.1,0,0.2,0.1,0.3,0c0,0,0.1,0,0.1,0c0,0.2,0.2,0.2,0.3,0.2c0.1,0,0.1,0,0.2,0.1c0.1,0,0.1,0.1,0.2,0.2c0.1,0.2,0.3,0.2,0.5,0.1
				c0.1-0.1,0.3-0.1,0.4,0c0.1,0.1,0.2,0.2,0.2,0.4c0,0.1,0,0.2,0.1,0.2c0.1,0,0,0.1,0,0.1c-0.1,0.2-0.2,0.4-0.4,0.5
				c-0.1,0.1-0.1,0.2,0,0.3c0.1,0.1,0,0.3,0.1,0.4c0.1,0.2,0,0.2-0.2,0.2c-0.2,0-0.2,0.2-0.3,0.2c0,0,0,0,0,0s0,0,0,0
				c0-0.3-0.2-0.5-0.4-0.5c0,0,0,0,0,0c-0.1-0.2-0.3-0.3-0.5-0.2c-0.2,0-0.5,0.1-0.7-0.1c0,0,0,0,0,0c-0.2,0.1-0.5,0.2-0.6,0.4
				c0,0.1-0.1,0.1-0.2,0c-0.1-0.1-0.1-0.1-0.2-0.1c0,0,0,0,0,0l0,0c0,0,0,0,0,0c0,0,0,0-0.1,0c0,0,0,0,0,0c-0.2,0-0.4,0-0.5,0
				c-0.1,0-0.2,0-0.3,0c-0.1,0-0.1,0-0.2,0.1c-0.1,0.1-0.1,0.2-0.2,0.2c-0.1,0-0.1-0.2-0.1-0.2c0,0,0,0,0,0
				c-0.1-0.2-0.2-0.3-0.4-0.3c-0.2,0-0.3,0.1-0.4,0.1c-0.2,0-0.4,0.1-0.5,0.1c-0.1,0-0.1,0-0.2,0.1c0,0.2-0.1,0.2-0.2,0.1
				c-0.1-0.1-0.3,0-0.4,0c-0.1,0.1,0,0.1,0.1,0.2c0,0,0,0,0,0.1c-0.1,0-0.2,0-0.3,0c-0.4,0-0.7,0.1-1,0.5c-0.1,0.2-0.2,0.3-0.4,0.3
				c-0.1,0-0.1,0.1-0.1,0.2c0,0.1,0,0.1,0,0.2c-0.2,0.1-0.3,0.2-0.5,0.1c-0.1-0.1-0.2,0-0.2,0.1c0,0.1,0,0.1-0.1,0.1
				c-0.2,0-0.3,0.1-0.4,0.3c0,0.1-0.1,0.1-0.1,0c-0.2-0.1-0.4-0.2-0.6-0.3c0.1-0.1,0.2-0.1,0.2-0.2c0.1-0.1,0-0.1,0-0.2
				c0-0.1-0.1-0.2,0-0.3c0.1,0,0.1-0.1,0.1-0.2c0-0.2,0-0.4,0-0.5c0-0.2,0.1-0.2,0.3-0.3c0.2,0,0.4,0,0.5,0.1c0,0,0.1,0.1,0.1,0
				c0.1-0.1,0.3-0.2,0.5-0.4c0.1,0,0.2,0,0.2,0c0.2,0.1,0.3,0.1,0.4,0c0.1-0.1,0.2-0.1,0.2-0.1c0.2,0,0.3,0,0.5-0.2
				c0.1-0.1,0.2-0.1,0.4-0.1c0.1,0,0.3,0.1,0.4,0c0.1-0.1,0.3-0.1,0.4-0.1c0.2,0,0.4,0,0.5,0c0.1,0,0.2,0,0.4,0.1
				c0-0.2-0.2-0.2-0.3-0.2c-0.2,0-0.4,0-0.6,0c0.2-0.2,0.3-0.4,0.3-0.6c0,0,0-0.1,0.1-0.1c0,0,0.1-0.1,0-0.1c-0.1-0.1,0-0.2,0-0.3
				c0.2,0.1,0.5,0.1,0.7,0.2c0.1,0,0.1,0,0.2,0c0.2,0,0.4-0.1,0.6-0.3c0.1-0.1,0.2,0,0.2,0c0.1,0.1,0.1,0.2,0.2,0.1
				c0.1-0.1,0.2-0.1,0.2-0.3c0-0.1,0-0.2,0-0.4c0,0,0-0.1,0-0.1c0,0,0.1,0,0.1,0.1c0.1,0.1,0.1,0.1,0.2,0c0.1-0.1,0.1-0.1,0.1-0.2
				c0,0,0-0.1,0.1-0.1c0.1,0,0.2,0.1,0.2,0.2c0,0.2,0.1,0.3,0.3,0.3c0.1,0,0.2,0.1,0.2,0.1c0,0.1,0,0.1,0,0.2c0,0.1,0,0.1,0.1,0.1
				c0.1,0,0.2,0,0.2,0.1c0,0.1,0,0.1-0.1,0.2c-0.1,0-0.1,0-0.2-0.1c0,0.1,0,0.1,0.1,0.1c0.2,0,0.3,0,0.3-0.2c0-0.2-0.1-0.2-0.2-0.2
				c-0.1,0-0.1,0-0.1-0.1C80,61.5,80,61.5,80.1,61.4c0,0.1,0.1,0.1,0.1,0C80.2,61.4,80.2,61.5,80.1,61.4z M73.1,64.3
				c-0.1-0.1-0.2-0.1-0.2,0c-0.1,0.1-0.2,0.4,0,0.5c0.1,0.1,0.1,0.1,0.2,0c0.1-0.1,0.1-0.1,0.1-0.2c0-0.1-0.1-0.1-0.2-0.1
				c0,0-0.1,0.1-0.1,0c0,0,0-0.1,0-0.1C72.9,64.3,73,64.3,73.1,64.3z"/>
			<path class="st7" d="M73.2,58.7C73.2,58.7,73.2,58.7,73.2,58.7c-0.3-0.2-0.1-0.3,0-0.5c0.3-0.5,0.5-1.1,0.7-1.7
				c0.1-0.2,0-0.5,0-0.7c0-0.1,0-0.2,0.2-0.2c0.2,0,0.3,0,0.5-0.1c0,0,0.1,0,0.1,0c0,0.1,0.1,0.1,0.2,0.1c0.1,0.1,0.2,0.1,0.3-0.1
				c0.1-0.1,0.1-0.1,0.2,0.1c0,0.2,0.3,0.3,0.4,0.2c0.1-0.1,0.2,0,0.2,0.1c0,0.2,0.2,0.2,0.3,0.3c0.2,0,0.5,0.1,0.6,0.3
				c0,0.1,0.1,0.2,0.3,0.1c0.2,0,0.3,0,0.5,0.1c0.1,0.1,0.2,0.1,0.3,0.2c0.1,0.1,0.3,0.1,0.3,0.3c0,0.1,0.1,0.1,0.1,0.1
				c0.1,0.1,0.4,0.2,0.3,0.4c0,0,0.1,0.1,0.1,0.1c0.2,0,0.1,0.1,0.1,0.2c-0.1,0.1-0.1,0.3-0.1,0.4c0,0.2-0.2,0.4-0.4,0.4
				c-0.2,0-0.3,0-0.5,0.1c0,0-0.1,0-0.1-0.1c-0.2-0.3-0.4-0.3-0.7-0.3c-0.1,0-0.2,0-0.3,0.1c-0.1,0.1-0.2,0.1-0.3,0
				c-0.1-0.1-0.2-0.2-0.3-0.3c-0.1-0.1-0.1-0.1-0.2,0c0,0-0.1,0.1-0.1,0.1c0,0,0,0-0.1,0.1c0,0.1,0.2,0.5,0.3,0.5c0.1,0,0.2,0,0.3,0
				c0,0.1,0,0.2-0.1,0.4c0,0-0.1-0.1-0.1-0.1c-0.1-0.1-0.2-0.2-0.3-0.1c0,0.1-0.1,0-0.2,0c-0.1,0-0.2,0-0.2,0.1
				c-0.1,0.1-0.2,0.1-0.3,0.1c-0.1,0,0-0.1-0.1-0.2c0,0,0,0,0,0c0-0.1,0-0.2-0.2-0.2c-0.1,0-0.2,0-0.2,0c-0.1-0.2-0.2-0.1-0.3-0.1
				c-0.1,0-0.2,0-0.3,0c-0.1,0-0.1,0-0.1-0.1c0.1-0.1,0.2-0.2,0.3-0.2c0.2,0.1,0.3,0,0.3-0.2c-0.1,0-0.2,0-0.3-0.1
				c-0.2-0.3-0.2-0.3-0.5,0c-0.1,0.1-0.2,0.1-0.2,0.1C73.6,58.6,73.4,58.7,73.2,58.7C73.2,58.7,73.2,58.7,73.2,58.7z M75,58.2
				C75,58.3,75,58.3,75,58.2c-0.1,0.1-0.1,0.2,0,0.2c0.1,0,0.1,0,0.2,0c0,0,0,0.1,0.1,0.1c0.1,0,0.1-0.2,0.1-0.2
				c-0.1-0.1,0-0.3-0.1-0.4c0,0,0,0,0-0.1c0,0-0.1,0-0.1,0c0,0,0,0.1-0.1,0.1C75.1,58.1,75,58.2,75,58.2z"/>
			<path class="st7" d="M65.9,53.9c-0.1,0.1-0.2,0.3-0.3,0.4c-0.1,0.1-0.2,0.1-0.3,0.1c-0.1,0-0.4,0.3-0.3,0.5c0,0,0,0.1,0.1,0.1
				c0.2,0,0.1,0.2,0.2,0.3c0,0.1,0,0.3-0.1,0.4c0,0,0,0.1,0,0.1c0,0.1,0,0.1-0.1,0.1c0,0-0.1,0-0.1,0c-0.1,0-0.1,0-0.1,0
				c0-0.1,0-0.1,0-0.2c0.2-0.2,0-0.3,0-0.5c0-0.1-0.1-0.1-0.2-0.1c-0.1,0-0.1,0-0.1,0.1c-0.1,0.1-0.1,0.2-0.2,0.3
				c-0.1,0.1-0.2,0.1-0.2,0c0,0-0.1-0.1-0.1-0.1c-0.1-0.1-0.2-0.1-0.2,0.1c0,0.1-0.1,0.1-0.1,0c-0.1-0.1-0.2-0.1-0.2-0.3
				c0-0.1-0.1-0.1-0.2-0.1c-0.1,0-0.1,0-0.1,0.1c0,0.2-0.1,0.2-0.2,0.3c-0.1,0.1-0.4-0.1-0.4-0.1c0-0.1-0.2-0.1-0.2-0.1
				c-0.1,0-0.2,0-0.2,0.1c-0.1,0.1-0.2,0.1-0.2,0c-0.1-0.1-0.1-0.2-0.3-0.3c-0.1,0-0.1,0-0.2,0.1c-0.1,0.1-0.1,0-0.2,0
				c-0.1-0.1,0-0.1,0-0.1c0.1-0.1,0.1-0.3,0-0.4c0,0-0.1,0-0.1-0.1c0-0.2-0.1-0.1-0.2-0.1c-0.1,0.1-0.3,0.2-0.3,0.4
				c0,0,0,0.1-0.1,0.1c0,0-0.1,0-0.1-0.1c-0.1-0.1-0.2-0.2-0.3-0.3c-0.1,0-0.1,0-0.1,0.1c0,0.1,0,0.1-0.1,0.2c0,0-0.1,0.1-0.1,0.1
				c0,0.2-0.1,0.3-0.3,0.4c-0.1,0.1-0.2,0-0.2-0.1c0-0.1-0.1-0.2-0.2-0.2c-0.2-0.1-0.5,0-0.7,0.1c0,0-0.1,0-0.1,0.1
				c0,0.1-0.1,0.2-0.2,0.1c0,0-0.1,0-0.1,0.1c0,0,0,0.1,0,0.1c-0.1,0.3-0.2,0.3-0.5,0.1c-0.1-0.1-0.4,0-0.5,0.1c0,0-0.1,0.1-0.1,0.1
				c-0.1,0.1-0.2,0.1-0.2,0.2c0,0.2,0,0.4,0.1,0.6c0,0.1,0.1,0.1,0.1,0.2c-0.5-0.1-1.1-0.2-1.6-0.3c-0.4-0.1-0.9-0.2-1.3-0.2
				c-0.1,0-0.2-0.1-0.2-0.2c0.1-0.3,0.1-0.6,0.3-0.8c0.3-0.3,0.5-0.7,0.5-1.1c0-0.1,0.1-0.2,0.2-0.2c0.1,0,0.1,0,0.2,0
				c0.2,0,0.3,0,0.4,0.2c0,0,0,0,0,0c0,0.5,0.4,0.7,0.8,0.9c0.2,0.1,0.4,0.1,0.6,0.1c0.1,0,0.1,0,0.2,0c0.5,0.2,0.9,0,1.2-0.3
				c0.3-0.3,0.7-0.4,1.2-0.5c0.5-0.1,1.1-0.1,1.6,0c0.2,0,0.3,0,0.5,0c0.3,0,0.5,0,0.8,0.1c0,0,0.1,0,0.1,0c0.5-0.1,1.1,0,1.6,0.2
				c0.1,0.1,0.3,0,0.4,0c0.3-0.1,0.6-0.2,0.7-0.6c0-0.2,0.2-0.2,0.4-0.2C65.4,53.6,65.7,53.7,65.9,53.9z"/>
			<path class="st7" d="M66.4,55.2c0.4,0.2,0.8,0.4,1.2,0.5c0.1,0.1,0.3,0.1,0.4,0.1c0,0,0.1,0,0.1-0.1c0.1-0.2,0.2-0.3,0.1-0.6
				c-0.1-0.2-0.1-0.5,0-0.7c0-0.1,0.1-0.2,0.2-0.1c0.3,0.1,0.6,0,0.9-0.2c0,0,0-0.1,0.1-0.1c0.1-0.4,0.1-0.7-0.1-1
				c-0.1-0.1-0.1-0.2-0.1-0.3c0,0,0-0.1,0-0.1c0,0,0.1,0,0.1,0c0.3,0.3,0.7,0.2,1.1,0.3c0.2,0.1,0.3,0.2,0.2,0.4
				c-0.1,0.2-0.1,0.3,0.1,0.4c0.1,0.1,0.1,0.2,0,0.3c-0.3,0.3-0.3,0.2-0.1,0.6c0,0,0,0,0,0c0.2,0.4,0.2,0.6-0.2,0.8
				c-0.1,0.1-0.1,0.1,0,0.2c0.2,0.2,0.3,0.4,0.5,0.6c0.1,0.1,0.1,0.1,0,0.2c0,0-0.1,0.1-0.1,0.1c0,0.2-0.1,0.3-0.3,0.3
				c-0.3,0.1-0.4,0.3-0.5,0.5c-0.1,0.1-0.2,0.2-0.2,0.3c-0.2-0.1-0.4-0.2-0.6,0c-0.1,0-0.2,0.1-0.3,0c-0.1-0.1-0.2-0.2-0.3-0.2
				c-0.2,0-0.3-0.1-0.5-0.2c-0.1,0-0.2-0.1-0.2-0.2c0-0.1-0.2,0-0.2-0.1c0,0,0-0.1,0-0.1c0,0,0,0,0,0c0,0,0,0,0,0
				c-0.2,0-0.4-0.2-0.7-0.2c0,0-0.1,0-0.1-0.1c0-0.1-0.1-0.1-0.2-0.1c-0.3-0.1-0.5-0.1-0.7-0.4c0,0-0.1-0.1-0.1,0
				c-0.1,0-0.2-0.1-0.2-0.2c0,0,0,0,0-0.1c0.3,0,0.3-0.1,0.3-0.4c0,0,0,0,0-0.1c0.1-0.1,0.1-0.2,0.2-0.1c0.2,0.1,0.3,0.1,0.4-0.1
				C66.3,55.3,66.3,55.3,66.4,55.2z M67.4,56.7c0.3,0,0.2,0.1,0.2,0.3c0.1,0,0.1-0.1,0.1-0.2C67.6,56.6,67.5,56.6,67.4,56.7z"/>
			<path class="st8" d="M76.8,63.3c0,0,0,0.1,0,0.1c0,0.1,0,0.2-0.1,0.2c-0.1,0-0.2,0.1-0.2,0.2c0,0.1-0.1,0.1-0.1,0.2
				c0,0-0.1,0-0.1,0.1c0,0.1,0,0.2,0.1,0.2c0.1,0,0.2,0.1,0.3,0.1c0.2,0.1,0.4,0.2,0.5,0.4c0.1,0.2,0.1,0.3,0,0.5
				c-0.1,0.1-0.1,0.3-0.1,0.4c0,0.1,0,0.1-0.1,0.2c-0.1,0.1-0.2,0.1-0.3,0c0,0,0,0-0.1-0.1c-0.1-0.1-0.1-0.1-0.2,0
				c-0.1,0,0,0.1,0,0.2c0.1,0.1,0,0.3-0.1,0.4c-0.1,0.1-0.1,0.2-0.1,0.3c0,0.1,0,0.2-0.1,0.2c-0.1,0-0.2-0.1-0.2-0.2
				c0-0.1-0.1-0.2-0.2-0.2c-0.1-0.1-0.2-0.1-0.2,0.1c0,0.1,0,0.2-0.1,0.2c-0.1,0-0.1-0.1-0.2-0.2c0-0.1-0.1-0.1-0.1-0.1
				c-0.2-0.1-0.2-0.2-0.1-0.3c0.2-0.2,0-0.3,0-0.4c-0.1-0.1-0.2-0.1-0.3,0c-0.1,0-0.2,0-0.2,0c-0.1-0.1-0.2,0-0.2,0
				c-0.1,0.1-0.1,0.2-0.1,0.3c0,0.1,0,0.1-0.1,0.1c-0.1,0-0.1,0.1-0.1,0.2c0,0.1,0,0.1,0.1,0.1c0.1,0,0.1,0,0.1,0.1
				c0,0.1,0.1,0.3,0.1,0.4c0,0.1,0,0.2-0.1,0.2c-0.3,0-0.4,0.3-0.6,0.4c-0.1,0,0,0.1,0,0.1c0.1,0.1,0.1,0.2,0,0.4c0,0-0.1,0-0.1,0
				c-0.1-0.1-0.2-0.1-0.4-0.2c-0.1-0.1-0.2-0.1-0.3,0c-0.1,0.1-0.3,0.1-0.4,0.1c-0.3,0-0.5,0.1-0.6,0.3c0,0,0,0-0.1,0
				c0.1-0.3,0-0.6,0.1-0.9c0-0.4,0-0.7-0.2-1c-0.1-0.1-0.1-0.3-0.2-0.4c0-0.1,0-0.1,0-0.2c0.1-0.1,0.1,0,0.2,0
				c0.2,0.1,0.4,0.2,0.6,0.3c0.1,0,0.1,0.1,0.2,0c0.1-0.2,0.2-0.2,0.4-0.3c0.1,0,0.1,0,0.1-0.1c0-0.2,0.1-0.2,0.2-0.1
				c0.2,0.1,0.6-0.1,0.6-0.3c0-0.1,0-0.1,0.1-0.2c0.2-0.1,0.3-0.2,0.4-0.3c0.1-0.2,0.3-0.3,0.5-0.4c0.2-0.1,0.5-0.1,0.7-0.1
				c0.2,0,0.2,0,0.1-0.2c0,0-0.1-0.1,0-0.2c0.1,0,0.2-0.1,0.2,0c0,0,0,0,0.1,0c0.2,0.1,0.2,0.1,0.2-0.1c0-0.1,0.1-0.2,0.2-0.2
				C76.4,63.4,76.6,63.4,76.8,63.3C76.8,63.3,76.8,63.3,76.8,63.3z"/>
			<path class="st8" d="M73.2,58.7c0.2-0.1,0.4-0.2,0.5,0c0.1,0.1,0.2,0,0.2-0.1c0.2-0.3,0.2-0.3,0.5,0c0.1,0.1,0.2,0.1,0.3,0.1
				c-0.1,0.1-0.1,0.3-0.3,0.2c-0.2-0.1-0.2,0.1-0.3,0.2c-0.1,0.1,0,0.1,0.1,0.1c0.1,0,0.2,0,0.3,0c0.1,0,0.2,0,0.3,0.1
				c0,0.1,0.1,0,0.2,0c0.1,0,0.2,0,0.2,0.2c0,0,0,0,0,0c0,0.1,0,0.2,0.1,0.2c0.1,0,0.2,0,0.3-0.1c0.1-0.1,0.1-0.1,0.2-0.1
				c0.1,0,0.1,0,0.2,0c0.1-0.1,0.2-0.1,0.3,0.1c0,0,0,0,0.1,0.1c0-0.1,0-0.3,0.1-0.4c0,0,0,0,0.1,0c0,0,0.1,0.1,0.1,0.1
				c0.1,0.2,0.3,0.2,0.5,0.2c0.2,0.1,0.3,0.2,0.5,0.3c-0.1,0.1-0.1,0.2,0,0.3c0.1,0.1,0.3,0,0.4-0.1c0.1,0,0.2,0.1,0.4,0.2
				c0,0.3,0,0.3-0.3,0.4c0,0,0,0,0,0c-0.3,0-0.5,0.1-0.7,0.2c0,0,0,0,0,0l0,0c-0.3,0.1-0.5,0.2-0.8,0.4c-0.2,0.1-0.4,0.1-0.6,0.1
				c-0.4-0.1-0.8-0.1-1,0.3c0,0.1-0.1,0-0.1,0c-0.1-0.1-0.1-0.2-0.2-0.2c-0.3-0.3-0.5-0.7-0.9-0.9c-0.2-0.1-0.5-0.3-0.7-0.4
				c-0.2-0.1-0.2-0.1-0.1-0.3c0.1-0.2,0.3-0.1,0.4-0.2c0,0,0,0,0,0c0,0.1,0.1,0.1,0.1,0c0.2-0.1,0.4-0.2,0.5-0.3
				c0.1,0,0.2-0.1,0.2-0.2c0,0,0-0.1,0-0.1c0,0-0.1,0-0.1,0c-0.2,0-0.2,0-0.3-0.2c0,0,0-0.1,0-0.1c0-0.1,0-0.1-0.1-0.1
				C73.4,58.8,73.3,58.8,73.2,58.7z"/>
			<path class="st8" d="M70.9,70C70.9,70,70.9,70,70.9,70c-0.2,0-0.2-0.1-0.2-0.1c-0.1-0.1-0.1-0.1-0.2-0.1c-0.1,0-0.1,0.1-0.1,0.2
				c0,0.2-0.1,0.3-0.2,0.3c-0.1,0.1-0.3,0.1-0.3,0.2c0,0-0.1,0.1-0.1,0c-0.1-0.1-0.2-0.2-0.1-0.3c0-0.1,0-0.2-0.1-0.3
				c0-0.1-0.1-0.2-0.1-0.2c0.1-0.2,0.2-0.4,0.3-0.6c-0.4,0-0.4,0-0.4,0.1c0.1-0.1,0.2,0,0.3,0c-0.1,0.2-0.1,0.3-0.2,0.4
				c-0.2,0-0.3-0.1-0.3-0.3c0-0.2-0.4-0.4-0.5-0.3c-0.2,0.2-0.4,0.2-0.6,0.3c-0.1-0.1-0.1-0.1-0.2,0c-0.1,0.1-0.1,0-0.2,0
				c-0.1-0.1-0.1-0.1-0.1-0.2c0-0.1,0-0.2-0.2-0.2c-0.1,0-0.1-0.1,0-0.1c0.1-0.2,0.2-0.3,0.1-0.5c0,0,0,0,0,0c0,0.1,0.1,0.2,0.2,0.2
				c0.1,0,0.2,0,0.2-0.1c0,0,0,0,0,0c0.2,0.1,0.3,0,0.4-0.1c0.2-0.1,0.3-0.2,0.5-0.3c0.1,0,0.2,0,0.3-0.1c0.2-0.1,0.4-0.1,0.6-0.1
				c0.3,0,0.5,0.2,0.4,0.5c0,0.1,0,0.1,0,0.1c0,0,0.1,0,0.1,0c0-0.1,0.2-0.1,0.2-0.1c0.1-0.1-0.1-0.2,0-0.3c0,0,0,0,0,0
				c0-0.1,0-0.1,0.1-0.1c0.1,0.1,0.2,0.1,0.2-0.1c0,0,0-0.1,0-0.1c0.1-0.1,0.6-0.1,0.7,0c0.1,0,0.1,0.1,0.2,0.1
				c0-0.1-0.1-0.1-0.1-0.2c0,0-0.1-0.1,0-0.1c0.1-0.2,0-0.4,0-0.6c0,0,0-0.1-0.1,0c-0.2,0.1-0.2-0.1-0.2-0.2c0-0.1-0.1-0.2-0.1-0.3
				c0.1-0.2,0.2-0.4,0.3-0.7c0,0,0-0.1,0.1-0.1c0,0,0.1,0.1,0.1,0.1c0.1,0.2,0.2,0.4,0.3,0.7c0,0.1,0,0.1,0,0.2c0,0.7,0,1.5-0.2,2.2
				c-0.1,0.2-0.2,0.4-0.1,0.6c0,0,0,0.1-0.1,0.1C71.3,69.7,71.1,69.8,70.9,70z"/>
			<path class="st8" d="M65.3,56.1c0,0.1,0.1,0.2,0.2,0.2c0,0,0.1,0,0.1,0c0.2,0.2,0.5,0.3,0.7,0.4c0.1,0,0.1,0.1,0.2,0.1
				c0,0.1,0.1,0.1,0.1,0.1c0.2,0.1,0.4,0.2,0.7,0.2c0,0.1,0,0.1,0.1,0.1c0.1,0,0.2,0,0.3,0c0,0.1,0.1,0.2,0.2,0.2
				c0.2,0.1,0.3,0.1,0.5,0.2c0.1,0,0.3,0,0.3,0.2c0.1,0.1,0.2,0,0.3,0c0.2-0.2,0.4-0.1,0.6,0c0,0.1,0,0.1,0,0.2c0,0.2,0,0.4-0.1,0.6
				c-0.1,0.1-0.2,0.2-0.3,0.1c-0.2,0-0.5-0.1-0.7-0.1c-0.5-0.1-0.9-0.1-1.3-0.4c-0.1-0.1-0.2-0.1-0.3,0c-0.1,0-0.1,0-0.2,0
				c-0.1,0-0.2,0-0.3-0.1c-0.6-0.1-1.1-0.2-1.7-0.3c0,0-0.1,0-0.1-0.1c0-0.1,0-0.3,0-0.4C64.8,57,65,56.5,65.3,56.1z"/>
			<path class="st8" d="M69.7,58c0.2,0.1,0.4,0.2,0.6,0.3c0,0.1,0.1,0.3-0.1,0.4c0.1,0,0.2,0,0.3,0c-0.1,0-0.1-0.1-0.1-0.2
				c0-0.1,0-0.1,0-0.2c0.1,0.1,0.3,0.1,0.4,0.1c0,0.1-0.1,0.1,0,0.2c0.1-0.1,0.1-0.3,0.2-0.4c0.2,0,0.3-0.1,0.3-0.3
				c0-0.2,0.3-0.3,0.4-0.2c0.1,0.1,0.1,0.2,0.2,0.3c0,0.1,0.1,0.2,0.2,0.2c0.1,0,0.2,0,0.3,0.1c0,0.1,0.1,0.1,0.2,0.1
				c0.2,0,0.3,0,0.4,0.2c0,0.1,0.2,0.1,0.3,0c0,0,0,0,0.1,0c0,0.1,0.1,0.1,0.2,0.1c0.1,0,0.1,0,0.1,0.1c0,0.3,0.1,0.3,0.3,0.4
				c0,0,0,0.1-0.1,0.1c-0.2,0.1-0.4,0.2-0.6,0.3c0,0-0.1,0-0.1,0c0-0.1-0.1-0.1-0.1,0c0,0-0.1,0.1-0.2,0c-0.1,0-0.1,0-0.1,0.1
				c-0.1,0.2-0.3,0.3-0.4,0.5c-0.1,0.1-0.1,0-0.2,0c-0.6-0.4-1.1-0.8-1.7-1.1c-0.1,0-0.1-0.1-0.2-0.1c-0.3,0-0.5-0.1-0.7-0.2
				c-0.1,0-0.1-0.1-0.1-0.2C69.6,58.4,69.6,58.2,69.7,58z M71.3,58.7c-0.1-0.1-0.2-0.1-0.4-0.2c0.1,0.2,0.3,0.2,0.5,0.4
				c0,0.1,0.1,0.2,0,0.3c-0.1,0.3,0,0.4,0.2,0.5c0,0,0.1,0,0.1,0.1c0.2,0.2,0.3,0.1,0.5,0.1c0.1,0,0.1-0.1,0.1-0.1
				c-0.1-0.1-0.1-0.2,0-0.3c0-0.1,0.1-0.1,0.1-0.2c0-0.1,0-0.1-0.1-0.1c-0.1,0-0.2-0.1-0.3-0.2c-0.1-0.1-0.2-0.2-0.3-0.2
				c-0.1,0-0.1-0.1-0.1-0.1c0-0.1-0.1-0.3-0.1-0.4c0-0.1-0.1-0.1-0.1,0C71.3,58.2,71.2,58.4,71.3,58.7
				C71.3,58.6,71.3,58.6,71.3,58.7z"/>
			<path class="st9" d="M69.7,58c0,0.2,0,0.4-0.2,0.6c-0.1,0.1,0,0.1,0.1,0.2c0.2,0.1,0.4,0.2,0.7,0.2c0.1,0,0.1,0.1,0.2,0.1
				c0.6,0.2,1.2,0.7,1.7,1.1c0.1,0,0.1,0.1,0.2,0c0,0,0,0,0,0c0,0.1-0.1,0.1-0.1,0.2c0,0.2-0.1,0.4-0.2,0.5C72,61.1,72,61.2,72,61.3
				c0,0.1,0,0.2,0,0.3c0,0.1,0,0.1-0.1,0.1c0-0.1,0.1-0.1,0.1-0.2c0-0.3,0-0.5,0.2-0.8c0.1-0.1,0.1-0.4,0-0.5
				c-0.4-0.3-0.9-0.7-1.3-0.9c-0.3-0.2-0.6-0.2-0.9,0.1c-0.2,0.2-0.3,0.3-0.3,0.5c0,0.1,0,0.2,0.1,0.2c0.1,0,0.2,0,0.2,0.1
				c0,0,0,0,0,0c-0.1,0-0.1,0-0.2,0c-0.1,0-0.2,0-0.2,0.2c0,0.1,0,0.2-0.1,0.2c0,0,0,0,0,0c0.1-0.3,0.1-0.5,0.2-0.8
				c0-0.2,0.1-0.3,0.2-0.3c0.1-0.1,0.3-0.2,0.4-0.3c0,0,0.1,0,0.1-0.1c0-0.1-0.1,0-0.1,0c-0.2,0-0.3-0.1-0.5-0.2
				c-0.1-0.1-0.2-0.1-0.4-0.1c-0.5-0.1-1-0.1-1.5-0.2c-0.2,0-0.2,0-0.2,0.2c-0.1,0.4-0.2,0.8-0.2,1.2c0,0.1-0.1,0.2-0.2,0.2
				c-0.3,0.2-0.6,0.4-0.9,0.6c0.2,0.1,0.4,0.3,0.6,0.4c0.3,0.2,0.5,0.3,0.7,0.6c0,0,0,0,0,0c-0.1,0-0.1-0.1-0.2-0.1
				c-0.1-0.1-0.1-0.1-0.2,0c-0.7,0.4-1.4,0.9-2.2,1.3c0,0,0,0,0,0c0.2-0.2,0.5-0.3,0.8-0.5c0.4-0.3,0.9-0.6,1.4-0.8
				c0.1-0.1,0.1-0.1,0-0.2c-0.6-0.4-1.2-0.8-1.8-1.3c0,0-0.1-0.1-0.1-0.1c0.1,0,0.1,0,0.2,0.1c0.2,0.2,0.5,0.3,0.7,0.5
				c0.1,0.1,0.1,0.1,0.2,0c0.3-0.2,0.6-0.4,0.8-0.6c0.1,0,0.1-0.1,0.1-0.2c0.1-0.4,0.2-0.9,0.3-1.3c0-0.1,0-0.1,0-0.2
				c-0.2-0.1-0.3-0.2-0.5-0.3c-0.1-0.1-0.1,0.1-0.2,0.1c0,0-0.1,0-0.2,0c-0.2,0-0.4-0.1-0.6-0.1c-0.5-0.1-1-0.2-1.4-0.3
				c0,0-0.1,0-0.1,0c0,0.2-0.2,0.4-0.2,0.7c0,0.1,0,0.1,0,0.2c0.2,0.4,0.5,0.8,0.7,1.1c0,0,0.1,0.1,0.1,0.1C65,60,65,59.9,64.9,59.8
				c-0.2-0.2-0.4-0.2-0.6-0.1c-0.1,0.1-0.2,0.1-0.2,0.1c-0.1,0-0.1,0-0.1,0.1c-0.1,0.1-0.2,0.3-0.2,0.4c0,0.1-0.1,0.1-0.2,0.1
				c-0.1,0-0.2,0-0.3,0c-0.1,0-0.2,0-0.3,0.1c-0.1,0.1-0.2,0-0.3,0.1c0,0,0,0.1,0,0.1c0.1,0.1,0.1,0.2-0.1,0.2
				c-0.1,0-0.2,0.1-0.3,0.1c-0.2,0-0.2,0.1-0.2,0.3c0,0.2-0.1,0.2-0.2,0.2c-0.3-0.1-0.6,0.2-0.6,0.5c0,0,0,0.1,0,0.1
				c-0.3,0.1-0.4,0.4-0.6,0.6c0,0-0.1,0-0.1,0.1c0,0.2-0.2,0.3-0.3,0.4c-0.1,0.1,0,0.2,0.1,0.3c0,0.1-0.1,0.1-0.1,0.1c0,0,0,0,0-0.1
				c-0.1-0.1-0.1-0.3,0-0.4c0.1-0.1,0.2-0.2,0.2-0.4c0,0,0-0.1,0-0.1c0.3-0.1,0.4-0.4,0.6-0.5c0.1-0.1,0.1-0.1,0.1-0.2
				c0-0.1,0-0.2,0.1-0.3c0.1,0,0.1-0.1,0.2-0.1c0.1-0.1,0.2-0.1,0.3-0.1c0.1,0,0.2,0,0.1-0.1c0-0.2,0.1-0.3,0.3-0.4
				c0.1,0,0.1,0,0.2-0.1c0.1,0,0.3,0,0.1-0.2c-0.1-0.1,0-0.1,0.1-0.1c0.1,0,0.2,0,0.3-0.1c0.1-0.1,0.3,0,0.4,0c0.2,0,0.3,0,0.3-0.2
				c0-0.1,0.1-0.2,0.1-0.2c0.1-0.1,0.1-0.2,0.3-0.2c0,0,0.1,0,0.1,0c0.1-0.1,0.3-0.2,0.5-0.2c-0.1-0.2-0.3-0.5-0.4-0.7
				c-0.1-0.1-0.1-0.2,0-0.3c0.1-0.2,0.1-0.3,0.2-0.5c0-0.1,0-0.2-0.1-0.2c-1.1-0.2-2.2-0.4-3.3-0.6c-1.1-0.2-2.2-0.4-3.3-0.6
				c-0.3,0-0.5-0.1-0.8-0.1c0,0-0.1,0-0.1,0c0,0,0,0,0,0c0.8,0.1,1.6,0.3,2.4,0.4c1,0.2,2.1,0.4,3.1,0.5c0.6,0.1,1.3,0.2,1.9,0.3
				c0,0,0.1,0,0.1,0c0.1,0,0.2,0,0.1-0.1c0-0.2,0-0.4,0.1-0.5c0.2-0.4,0.4-0.8,0.6-1.3c0.1-0.1,0.1-0.2,0.2-0.3c0.1,0,0.1-0.1,0-0.2
				c-0.2-0.2-0.2-0.3-0.1-0.5c0.1-0.1,0.1-0.3,0.2-0.4c0.1-0.2,0.1-0.3,0.3-0.3c0,0,0.1,0,0.1-0.1c-0.1-0.3,0.1-0.1,0.2-0.2
				c0.1,0.2,0.1,0.5-0.1,0.7c0,0.1,0,0.1,0,0.2c0,0.1,0,0.2,0,0.3c-0.1-0.1-0.2-0.4-0.1-0.5c0.1-0.1,0.1-0.3,0.1-0.5
				c0,0,0-0.1-0.1-0.1c0,0-0.1,0,0,0.1c0.1,0.1,0,0.1-0.1,0.1c-0.2,0-0.3,0.2-0.4,0.4c0,0.1-0.1,0.2-0.1,0.3
				c-0.2,0.2-0.1,0.4,0.1,0.6c0,0,0,0,0,0c0,0,0,0,0,0.1c-0.2,0.1-0.3,0.2-0.3,0.4c0,0,0,0,0,0.1c-0.3,0.4-0.5,0.9-0.7,1.3
				c-0.1,0.1,0,0.2,0,0.4c0,0.1,0.1,0.1,0.1,0.1c0.6,0.1,1.1,0.2,1.7,0.3c0.1,0,0.2,0,0.3,0.1c0.1,0,0.1,0,0.2,0
				c0.1-0.1,0.2-0.1,0.3,0c0.4,0.3,0.9,0.3,1.3,0.4c0.2,0,0.5,0.1,0.7,0.1c0.1,0,0.2,0,0.3-0.1C69.5,58.4,69.6,58.2,69.7,58
				C69.6,58,69.6,58,69.7,58C69.6,58,69.6,58,69.7,58z"/>
			<path class="st7" d="M69.4,69.7c0,0.1,0.1,0.2,0.1,0.2c0.1,0.1,0.1,0.2,0.1,0.3c0,0.1,0.1,0.2,0.1,0.3c0,0,0.1,0,0.1,0
				c0.1-0.1,0.2-0.2,0.3-0.2c0.1-0.1,0.2-0.2,0.2-0.3c0-0.1,0-0.1,0.1-0.2c0.1,0,0.2,0,0.2,0.1c0,0,0,0.1,0.1,0.1
				c-0.3,0.2-0.5,0.3-0.7,0.6c-0.1,0.1-0.1,0.1-0.1,0.2c0,0.1-0.1,0.3-0.2,0.4c0,0,0,0-0.1,0c-0.1-0.1-0.3-0.1-0.3,0.1
				c0,0.1-0.1,0.1-0.2,0.1c-0.1,0-0.1-0.2-0.1-0.2c0.1-0.3,0.1-0.4-0.2-0.5c-0.1,0-0.1,0-0.1,0.1c-0.1,0.1-0.2,0.1-0.3,0
				c-0.1-0.1-0.3-0.1-0.3,0c-0.1,0.1-0.1,0.2-0.2,0.3c0,0,0,0.1-0.1,0.1c0,0,0-0.1,0-0.1c0,0,0-0.1,0-0.1c0-0.1,0.1-0.2,0.2-0.2
				c0.1,0,0.1-0.1,0.2-0.2c0,0,0,0,0-0.1c0,0,0-0.1,0-0.1c-0.1-0.2-0.1-0.4-0.3-0.5c0,0-0.1,0-0.1,0c0,0,0,0,0,0
				c0.1-0.1,0-0.2,0-0.3c0,0,0,0,0,0c0.2-0.1,0.5-0.1,0.6-0.3c0.1-0.1,0.5,0,0.5,0.3c0,0.2,0.1,0.2,0.3,0.3
				C69.4,69.7,69.3,69.7,69.4,69.7z"/>
			<path class="st7" d="M61.3,63.8c0.2,0.1,0.4,0.1,0.6-0.1c0,0,0.1,0,0.1,0c0.2,0,0.3,0.1,0.5-0.1c0,0,0.1,0,0.1,0.1
				c0,0.1-0.1,0.3-0.2,0.4c-0.1,0.1-0.1,0.1-0.1,0.2c0,0.1-0.1,0.1-0.2,0.1c-0.1,0-0.2,0-0.2,0.1c0,0.1,0.1,0.2,0.3,0.2
				c0.1,0,0.2,0,0.3,0c0,0.1,0,0.2,0,0.3c0,0.1,0,0.2-0.1,0.2c-0.1,0.1-0.1,0.2-0.1,0.3c-0.1,0.1-0.1,0.2-0.2,0.3
				c-0.2,0.1-0.2,0.2-0.4,0.3c-0.1,0.1-0.2,0.2-0.3,0.1c0,0-0.1-0.1,0-0.1c0.3-0.2,0.3-0.5,0-0.7c0,0-0.1-0.1-0.1-0.1
				c0-0.1-0.1-0.2-0.1-0.3c0,0,0-0.1,0-0.1c0.1,0,0.2,0,0.2-0.1c0-0.1,0-0.3-0.1-0.3c-0.1-0.1-0.1-0.2-0.2-0.3c0,0,0,0,0-0.1
				C61.3,63.9,61.3,63.8,61.3,63.8z"/>
			<path class="st9" d="M70.9,70c0.2-0.2,0.4-0.4,0.6-0.5c0,0,0.1-0.1,0.1-0.1c-0.1-0.2,0-0.4,0.1-0.6c0.2-0.7,0.2-1.4,0.2-2.2
				c0-0.1,0-0.1,0-0.2c-0.1-0.2-0.2-0.4-0.3-0.7c0,0,0-0.1-0.1-0.1c-0.1,0-0.1,0-0.1,0.1c-0.1,0.2-0.2,0.5-0.3,0.7
				c-0.1,0.1,0,0.2,0.1,0.3c0,0.1,0.1,0.2,0.2,0.2c0,0,0.1,0,0.1,0c0,0.2,0.1,0.4,0,0.6c0,0,0,0.1,0,0.1c0,0.1,0.1,0.1,0.1,0.2
				c-0.1,0-0.2-0.1-0.2-0.1c-0.1-0.1-0.6-0.1-0.7,0c0,0,0,0.1,0,0.1c0,0.2-0.1,0.1-0.2,0.1c-0.1-0.1-0.1,0-0.1,0.1c0,0,0,0,0,0
				c-0.1,0.1,0.1,0.2,0,0.3c-0.1,0.1-0.2,0-0.2,0.1c0,0,0,0-0.1,0c0,0-0.1-0.1,0-0.1c0.1-0.3-0.1-0.5-0.4-0.5c-0.2,0-0.4,0-0.6,0.1
				c-0.1,0.1-0.2,0-0.3,0.1c-0.2,0.1-0.3,0.2-0.5,0.3c-0.1,0.1-0.2,0.2-0.4,0.1c0,0,0,0,0-0.1c0,0,0,0,0,0c0.1,0.1,0.3,0,0.4-0.1
				c0.1-0.1,0.3-0.2,0.5-0.3c0.1-0.1,0.2,0,0.4-0.1c0.2-0.1,0.4-0.1,0.7-0.1c0.3,0,0.5,0.2,0.5,0.5c0,0.1,0,0.1,0.1,0.1
				c0,0,0.1,0,0.1-0.1c0-0.1,0-0.2,0-0.2c0-0.1,0-0.1,0.1-0.1c0.1,0,0.3,0,0.3-0.1c0,0,0,0,0,0c0.2,0,0.3,0,0.5-0.1
				c0.1,0,0.3,0.1,0.2-0.1c0.1-0.1,0.1-0.2,0.1-0.3c0-0.1,0-0.2-0.2-0.2c0,0,0,0,0,0c-0.1-0.2-0.3-0.5-0.1-0.7
				c0.1-0.1,0.1-0.2,0.1-0.3c0-0.2,0.1-0.3,0.2-0.4c0.1-0.1,0.3-0.1,0.4-0.3c0,0,0,0,0,0c0,0.1-0.1,0.1-0.2,0.2
				c0.2,0.1,0.4,0.2,0.6,0.3c0.1,0,0.1,0,0.1,0c0.1-0.2,0.2-0.2,0.4-0.3c0.1,0,0.1-0.1,0.1-0.1c0-0.1,0.1-0.2,0.2-0.1
				c0.2,0.1,0.4,0,0.5-0.1c0.1,0,0-0.1,0-0.2c0-0.1,0-0.2,0.1-0.2c0.2-0.1,0.3-0.2,0.4-0.3c0.2-0.3,0.6-0.5,1-0.5c0.1,0,0.2,0,0.3,0
				c0,0,0-0.1,0-0.1c0-0.1-0.1-0.1-0.1-0.2c0.1-0.1,0.3-0.1,0.4,0c0.1,0.1,0.2,0.1,0.2-0.1c0-0.1,0.1-0.1,0.2-0.1
				c0.2,0,0.4-0.1,0.5-0.1c0,0,0,0,0,0c-0.1,0.1-0.3,0.1-0.5,0.1c-0.1,0-0.2,0.1-0.2,0.2c-0.1,0.2-0.1,0.2-0.2,0.1c0,0,0,0-0.1,0
				c-0.1-0.1-0.2,0-0.2,0c-0.1,0.1,0,0.1,0,0.2c0.1,0.2,0.1,0.2-0.1,0.2c-0.2,0-0.5,0-0.7,0.1c-0.2,0.1-0.3,0.2-0.5,0.4
				c-0.1,0.1-0.2,0.3-0.4,0.3c-0.1,0-0.1,0.1-0.1,0.2c0,0.2-0.4,0.5-0.6,0.3c-0.1-0.1-0.2-0.1-0.2,0.1c0,0.1-0.1,0.1-0.1,0.1
				c-0.2,0-0.3,0.1-0.4,0.3c0,0.1-0.1,0.1-0.2,0c-0.2-0.1-0.4-0.2-0.6-0.3c0,0-0.1-0.1-0.2,0c-0.1,0.1-0.1,0.1,0,0.2
				c0.1,0.1,0.1,0.3,0.2,0.4c0.2,0.3,0.2,0.7,0.2,1c0,0.3,0,0.6-0.1,0.9c0,0,0.1,0,0.1,0c0.1-0.2,0.3-0.3,0.6-0.3
				c0.1,0,0.3-0.1,0.4-0.1c0.1-0.1,0.2-0.1,0.3,0c0.1,0.1,0.2,0.1,0.4,0.2c-0.1,0.1-0.1,0-0.2,0c-0.2-0.2-0.5-0.2-0.7,0
				c-0.1,0.1-0.3,0.1-0.4,0.1c-0.1,0-0.2,0-0.2,0.1c-0.4,0.3-0.4,0.8-0.5,1.3c0,0,0,0,0,0c0.1,0.2,0,0.3-0.2,0.5
				c-0.1,0.1-0.2,0.2-0.3,0.3C71.1,70,71,70,70.9,70z M71.4,67.6C71.4,67.6,71.4,67.6,71.4,67.6C71.4,67.7,71.4,67.7,71.4,67.6
				C71.4,67.7,71.5,67.7,71.4,67.6C71.4,67.6,71.4,67.6,71.4,67.6z"/>
			<path class="st9" d="M67.7,68.2C67.7,68.2,67.6,68.2,67.7,68.2c-0.1-0.2-0.2-0.2-0.3-0.3c-0.2-0.1-0.5-0.2-0.3-0.6
				c0,0,0-0.1,0-0.1c-0.2-0.1-0.2-0.2-0.1-0.4c0-0.1,0-0.1-0.1-0.1c-0.1,0-0.1-0.1-0.1-0.2c0-0.1-0.1-0.2-0.2-0.2
				c-0.1,0-0.1,0-0.1-0.1c0-0.1-0.1-0.1-0.1-0.2c-0.1-0.1-0.1-0.1-0.2,0c-0.1,0-0.1,0.1-0.1,0.2c0.1,0.2-0.1,0.6-0.2,0.8
				c-0.1,0-0.1,0-0.1,0c-0.1-0.1,0-0.2,0-0.2c0-0.1,0-0.1,0-0.2c0-0.1-0.1,0-0.1,0c0,0-0.1,0-0.1,0c0-0.2-0.2-0.3-0.2-0.4
				c0-0.1,0-0.1-0.1-0.2c-0.1,0-0.1,0-0.2,0c-0.1,0.1-0.1,0.1-0.2,0.2c0,0-0.1,0.1,0,0.1c0,0.1,0.1,0.1,0.1,0.1
				c0.3-0.1,0.4,0.2,0.4,0.3c0,0.2,0,0.3,0.1,0.4c0,0,0,0.1,0,0.1c-0.1,0-0.1,0.1-0.1,0.2c0,0.1-0.1,0.2-0.2,0.1
				c0,0-0.1-0.1-0.1-0.1c-0.2,0-0.3-0.1-0.4-0.2c-0.1-0.1-0.1-0.2-0.3,0c-0.1,0.1-0.3,0.2-0.5,0.2c-0.2,0-0.2-0.1-0.2-0.2
				c0,0,0,0,0,0c0.1,0.1,0.1,0.2,0.3,0.2c0.1-0.1,0.3-0.1,0.3-0.3c0.1-0.2,0.2-0.1,0.3-0.1c0.1,0,0.1,0.1,0.2,0.2
				c0.1,0.1,0.2,0.2,0.3,0.2c0.1,0,0.2,0.1,0.2-0.1c0,0,0.1-0.1,0-0.2c-0.1-0.1-0.2-0.2-0.1-0.3c0,0,0,0,0-0.1
				c-0.1-0.1-0.2-0.2-0.3-0.1c-0.1,0-0.2,0-0.2-0.1c0-0.1,0-0.2,0-0.3c0.1-0.1,0.1-0.1,0.2-0.2c0.1-0.1,0.2-0.1,0.3,0
				c0.1,0,0.1,0.1,0.1,0.2c0,0.1,0.1,0.2,0.1,0.3c0,0.1,0.1,0.1,0.2,0.1c0,0,0.1,0,0.1,0.1c0,0.1,0,0.1,0,0.2c0,0,0,0,0,0
				c0,0,0,0,0,0c0.2-0.1,0.1-0.4,0.1-0.5c-0.1-0.2,0-0.2,0.1-0.3c0.1-0.1,0.2-0.1,0.3,0.1c0,0.1,0.1,0.1,0.1,0.1
				c0.1,0,0.1-0.1,0.1-0.2c0,0,0,0,0,0c0.2,0.1-0.1,0.2-0.1,0.3c0.2,0,0.3,0.1,0.3,0.3c0,0.1,0,0.1,0.1,0.1c0.1,0.1,0.2,0.2,0.1,0.3
				c-0.1,0.1,0,0.2,0.1,0.3c0.1,0,0.1,0.1,0.1,0.2c-0.1,0.2,0,0.3,0.1,0.3c0.1,0.1,0.1,0.1,0.2,0.1C67.7,67.9,67.8,68,67.7,68.2
				L67.7,68.2z M65.8,66.8C65.8,66.8,65.8,66.8,65.8,66.8C65.8,66.8,65.8,66.8,65.8,66.8C65.8,66.8,65.8,66.8,65.8,66.8
				C65.8,66.8,65.8,66.8,65.8,66.8z"/>
			<path class="st8" d="M78.2,60.3c0.1-0.1,0.3-0.2,0.5-0.1c0.1,0,0.1-0.1,0.1-0.1c0,0,0-0.1,0-0.1c0,0,0.1,0,0.1,0.1
				c0,0.1,0,0.2,0.1,0.2c0.1,0,0.2-0.2,0.2-0.3c0,0,0-0.1,0-0.1c0-0.1,0-0.1,0.1-0.1c0.4,0,0.5,0.2,0.4,0.6c0,0.2-0.2,0.3-0.2,0.5
				c0,0,0,0-0.1,0c-0.1,0-0.1,0-0.1-0.1c0-0.1,0-0.2-0.2-0.1c0,0,0,0-0.1,0c-0.3-0.1-0.3-0.1-0.3,0.2c0,0.1,0,0.2-0.2,0.2
				c-0.1,0-0.2,0.1-0.4,0.1c-0.1,0-0.2,0-0.2-0.1C78.3,60.7,78.3,60.7,78.2,60.3C78.2,60.4,78.2,60.3,78.2,60.3z"/>
			<path class="st8" d="M65.6,55.6C65.6,55.6,65.6,55.6,65.6,55.6c-0.2-0.2-0.3-0.4-0.1-0.6c0.1-0.1,0.1-0.2,0.1-0.3
				c0.1-0.2,0.2-0.4,0.4-0.4c0.1,0,0.1,0,0.1-0.1c0-0.1,0-0.1,0-0.1c0,0,0.1,0,0.1,0.1c0,0.2,0,0.4-0.1,0.5c-0.1,0.1,0,0.4,0.1,0.5
				c0.1,0,0.1,0.1,0.2,0.1c-0.1,0-0.1,0.1-0.1,0.1c-0.1,0.2-0.3,0.2-0.4,0.1C65.7,55.4,65.7,55.5,65.6,55.6z"/>
			<path class="st9" d="M62.1,65.7c0.1-0.1,0.1-0.2,0.2-0.3c0.3-0.4,0.6-0.8,0.9-1.1c0.2-0.2,0.3-0.4,0.5-0.6
				c0.2-0.2,0.3-0.4,0.4-0.7c0-0.1,0.1-0.2,0.1-0.1c0.1,0,0.3,0,0.3,0.1c0,0.1,0.1,0.2,0.1,0.3c0.1-0.1,0.2-0.2,0.3-0.2c0,0,0,0,0,0
				c-0.1,0.1-0.2,0.2-0.2,0.3c-0.1,0.1-0.1,0.1-0.1,0c0-0.1-0.1-0.2-0.1-0.3c0-0.1-0.2-0.1-0.3-0.1c-0.1,0-0.1,0.1-0.1,0.1
				c-0.1,0.1-0.1,0.3-0.2,0.4c-0.3,0.4-0.6,0.8-0.9,1.2c-0.2,0.3-0.5,0.6-0.7,0.9c0,0-0.1,0.1,0,0.1c0.1,0,0.2,0.1,0.4,0
				c0.1-0.1,0.1,0,0.2,0.1c0.1,0.1,0,0.3,0,0.4c0,0,0,0,0,0c-0.1,0-0.1-0.1-0.1-0.2c0-0.1,0-0.1,0-0.2c0-0.1-0.1,0-0.1,0
				C62.4,65.8,62.3,65.8,62.1,65.7z"/>
			<path class="st9" d="M72.3,60.3c0.1-0.2,0.3-0.3,0.4-0.5c0-0.1,0.1-0.1,0.1-0.1c0.1,0,0.1,0,0.2,0c0.1,0,0.1-0.1,0.1,0
				c0,0,0,0.1,0.1,0c0.2-0.1,0.4-0.2,0.6-0.3c0,0,0.1-0.1,0.1-0.1c-0.3,0-0.3-0.1-0.3-0.4c0-0.1,0-0.1-0.1-0.1c-0.1,0-0.2,0-0.2-0.1
				c0,0,0,0,0-0.1c0,0,0,0,0,0c0.1,0.1,0.1,0,0.2,0c0.1,0,0.2,0,0.1,0.1c0,0,0,0.1,0,0.1c0,0.2,0.1,0.2,0.3,0.2c0,0,0.1,0,0.1,0
				c0,0,0,0.1,0,0.1c0,0.1-0.1,0.2-0.2,0.2c-0.2,0.1-0.4,0.2-0.5,0.3c-0.1,0-0.1,0.1-0.1,0c0,0,0,0,0,0c-0.1,0.1-0.3,0-0.4,0.2
				c-0.1,0.2-0.1,0.2,0.1,0.3c0.2,0.1,0.4,0.3,0.7,0.4c0.4,0.2,0.6,0.6,0.9,0.9c0,0,0,0,0,0c-0.2-0.1-0.3-0.3-0.4-0.4
				c-0.2-0.2-0.2-0.2-0.4,0c0,0,0,0,0,0c0,0,0-0.1,0.1-0.1c0.1-0.1,0.1-0.2,0-0.2c-0.3-0.2-0.6-0.3-0.8-0.5
				C72.5,60.2,72.4,60.2,72.3,60.3C72.3,60.3,72.3,60.3,72.3,60.3z"/>
			<path class="st9" d="M67.9,69.4C67.9,69.4,67.9,69.4,67.9,69.4c-0.1,0-0.1,0-0.2,0c-0.2,0.1-0.4,0-0.4-0.3c0-0.1,0-0.2-0.2-0.2
				c-0.1,0-0.1,0-0.1-0.1c0-0.1,0-0.1,0-0.1c0.1-0.1,0.1-0.2,0.2-0.4c0-0.1,0-0.1,0-0.1c-0.1-0.1-0.1-0.1,0-0.2c0.1,0,0.2,0,0.2,0.1
				c0.1,0.2,0.2,0.2,0.3,0.1c0,0.1,0,0.2-0.2,0.1c-0.1,0-0.2-0.1-0.2-0.2c0,0,0-0.1-0.1,0c0,0,0,0,0,0.1c0,0.2,0,0.4-0.1,0.5
				c-0.1,0.1-0.1,0.1,0,0.1c0.2,0,0.2,0.1,0.2,0.2c0,0.1,0.1,0.2,0.1,0.2c0.1,0,0.1,0.1,0.2,0C67.8,69.3,67.9,69.3,67.9,69.4z"/>
			<path class="st9" d="M63.6,67c-0.1,0-0.2,0-0.2,0.2c0,0,0,0.1,0,0.1c0,0.1-0.1,0.1-0.2,0.1c-0.1,0-0.1-0.1-0.1-0.2
				c0-0.1,0-0.1,0-0.2c0-0.3-0.1-0.5-0.1-0.7c0,0,0,0,0,0c0.2,0.2,0.2,0.5,0.2,0.8c0,0.1,0,0.2,0,0.2c0.1,0,0.1-0.1,0.1-0.2
				C63.4,66.9,63.5,66.9,63.6,67C63.7,67,63.6,67,63.6,67z"/>
			<path class="st7" d="M76.9,59.7c-0.2,0-0.4,0-0.5-0.2c0,0-0.1-0.1-0.1-0.1c0,0,0,0,0,0C76.7,59.3,76.8,59.4,76.9,59.7z"/>
			<path class="st7" d="M77.8,60.2c-0.1,0.1-0.3,0.1-0.4,0.1c-0.1-0.1-0.1-0.2,0-0.3C77.5,60,77.7,60.1,77.8,60.2z"/>
			<path class="st9" d="M59.2,63.1c0.1,0.2,0.1,0.2,0.3,0.1c0.1,0,0.1,0,0.2,0c-0.1,0-0.2,0.2-0.3,0.1c-0.1,0-0.2,0-0.2-0.1
				C59.1,63.2,59.1,63.2,59.2,63.1z"/>
			<path class="st10" d="M64.9,66.2C64.9,66.2,64.9,66.2,64.9,66.2c0.3-0.3,0.3-0.3,0.4,0c-0.1,0-0.1,0-0.2,0
				C65,66.2,65,66.2,64.9,66.2z"/>
			<path class="st8" d="M53.7,60c0.1,0,0.2,0,0.3,0c0,0,0.1-0.1,0.1,0c0,0.1,0,0.2-0.1,0.2C53.9,60.2,53.8,60.2,53.7,60z"/>
			<path class="st9" d="M78.2,60.4c0,0.4,0,0.4-0.3,0.5c0,0-0.1,0-0.1,0c0,0,0,0,0,0c0,0,0,0,0,0C78.2,60.7,78.2,60.7,78.2,60.4
				C78.2,60.4,78.2,60.4,78.2,60.4z"/>
			<path class="st9" d="M81.3,63.3c0.2,0.1,0.3,0.2,0.4,0.5c0,0,0,0-0.1,0c0,0,0,0,0,0s0,0,0,0c0-0.1,0-0.2-0.1-0.3
				C81.4,63.4,81.4,63.4,81.3,63.3z"/>
			<path class="st9" d="M58.6,62.9c0.1,0,0.2,0,0.3,0c0.1,0,0.1,0,0.1,0.1c-0.1,0-0.2,0-0.3,0C58.7,63,58.6,63,58.6,62.9z"/>
			<path class="st9" d="M60.1,63.7c0-0.1,0-0.2,0.1-0.2c0,0.1,0,0.2,0,0.3c0,0,0,0.1,0,0.1C60.1,63.9,60.1,63.8,60.1,63.7
				C60.1,63.8,60.2,63.8,60.1,63.7L60.1,63.7z"/>
			<path class="st9" d="M60.5,63.6c0.1,0.1,0.1-0.1,0.2-0.1c0,0.1-0.1,0.2-0.2,0.2c0,0,0,0,0,0C60.5,63.6,60.5,63.6,60.5,63.6z"/>
			<path class="st9" d="M58.5,62.7c0.1,0.1,0,0.2,0.1,0.2C58.4,62.9,58.4,62.8,58.5,62.7z"/>
			<path class="st9" d="M59.8,63.5c0,0.1,0.2,0.1,0.2,0.2C59.9,63.7,59.8,63.7,59.8,63.5z"/>
			<path class="st9" d="M63,66.3c-0.1,0-0.2,0-0.2-0.1c0,0,0,0,0,0C62.9,66.2,63,66.2,63,66.3C63,66.3,63,66.3,63,66.3z"/>
			<path class="st7" d="M68,69.8c0,0.1-0.1,0.1-0.2,0.1C67.8,69.8,67.9,69.8,68,69.8C67.9,69.8,67.9,69.8,68,69.8z"/>
			<path class="st9" d="M59.7,63.3c0.1,0,0.1,0,0.1,0.1C59.7,63.4,59.7,63.4,59.7,63.3z"/>
			<path class="st8" d="M60.1,63.7C60.2,63.8,60.1,63.8,60.1,63.7C60.1,63.8,60.1,63.8,60.1,63.7z"/>
			<path class="st10" d="M67.2,67.9C67.2,67.9,67.3,67.9,67.2,67.9C67.3,67.9,67.3,67.9,67.2,67.9C67.3,67.9,67.3,67.9,67.2,67.9
				C67.2,67.9,67.2,67.9,67.2,67.9z"/>
			<path class="st10" d="M62.6,66C62.6,66,62.6,66,62.6,66C62.6,66,62.6,66,62.6,66C62.6,66,62.6,66,62.6,66z"/>
			<path class="st7" d="M56.7,56.5C56.7,56.5,56.7,56.5,56.7,56.5C56.7,56.5,56.7,56.5,56.7,56.5z"/>
			<path class="st11" d="M92.4,63.1c0,0,0,0.1,0,0.2c0,0.1-0.1,0.1-0.2,0.1c-0.1,0-0.1,0-0.2-0.1c0-0.1,0-0.2,0-0.3
				c0-0.1,0.1-0.2,0.2-0.2c0.1,0,0.2,0.1,0.2,0.2C92.4,63,92.4,63.1,92.4,63.1z M92.3,63.1c0-0.1,0-0.3-0.1-0.3
				c-0.1,0-0.1,0.2-0.1,0.3c0,0.1,0,0.2,0.1,0.3C92.3,63.4,92.3,63.2,92.3,63.1z"/>
			<path class="st11" d="M91.6,62.8c0.1,0,0.2,0,0.3,0.1c0,0.1,0,0.2-0.1,0.2C91.8,62.9,91.8,62.9,91.6,62.8z"/>
			<path class="st11" d="M91.9,63.4c-0.1,0.1-0.2,0-0.3,0c0,0-0.1,0,0-0.1c0,0,0,0,0,0C91.7,63.4,91.8,63.3,91.9,63.4z"/>
			<path class="st9" d="M74.3,61.6c0.1,0.1,0.2,0.2,0.2,0.2c0,0,0.1,0.1,0.1,0c0.3-0.4,0.6-0.4,1-0.3c0.2,0,0.4,0,0.6-0.1
				c0.2-0.2,0.5-0.3,0.8-0.4c0,0,0,0,0,0c-0.2,0.1-0.5,0.3-0.7,0.4c0,0-0.1,0-0.1,0.1c0,0.1,0.1,0.1,0.1,0.1c0.1,0,0.2,0.1,0.2,0.2
				c0,0.1,0,0.2,0,0.3c0,0,0,0.1,0,0.1c0,0,0,0,0,0c-0.1-0.1,0-0.2,0-0.4c0,0,0-0.1,0-0.1c-0.1,0-0.2-0.1-0.3-0.1
				c-0.2,0-0.4,0-0.6-0.1c-0.3,0-0.5,0-0.7,0.2c-0.3,0.3-0.2,0.3-0.5,0C74.3,61.7,74.3,61.6,74.3,61.6
				C74.2,61.6,74.3,61.6,74.3,61.6z"/>
			<path class="st11" d="M80.1,61.4c0,0,0.1,0,0.1,0C80.2,61.6,80.2,61.5,80.1,61.4C80,61.5,80,61.5,80,61.6c0,0.1,0,0.1,0.1,0.1
				c0.1,0,0.2,0.1,0.2,0.2c0,0.1-0.1,0.2-0.3,0.2c-0.1,0-0.1-0.1-0.1-0.1c0.1,0.1,0.1,0.1,0.2,0.1c0.1,0,0.1-0.1,0.1-0.2
				c0-0.1-0.1-0.1-0.2-0.1c-0.1,0-0.1,0-0.1-0.1c0-0.1,0-0.1,0-0.2C80,61.5,80.1,61.5,80.1,61.4z"/>
			<path class="st6" d="M77.8,60.8C77.8,60.8,77.8,60.8,77.8,60.8c-0.2,0.1-0.5,0.1-0.7,0.2c0,0,0,0,0,0c0,0,0,0,0,0
				C77.3,60.8,77.5,60.8,77.8,60.8z"/>
			<path class="st6" d="M77,61C77,61,77,61,77,61C77,61,77,61,77,61C77,61,77,61,77,61C77,61,77,61,77,61C77,61,77,61,77,61z"/>
			<path class="st6" d="M76.7,63.3C76.7,63.3,76.7,63.3,76.7,63.3c0.1-0.1,0.2-0.2,0.4-0.2c0.2,0,0.3,0.1,0.4,0.3c0,0,0,0,0,0
				c0,0.1,0.1,0.2,0.1,0.2c0.1,0,0.1-0.1,0.2-0.2c0-0.1,0.1-0.1,0.2-0.1c0.1,0,0.2,0,0.3,0c0.2,0.1,0.4,0.1,0.5,0c0,0,0,0,0,0
				c0,0,0,0,0.1,0l0,0l0,0c0,0,0,0,0,0c0.1,0,0.2,0.1,0.2,0.1c0.1,0.1,0.1,0.1,0.2,0c0.1-0.3,0.4-0.3,0.6-0.4c0,0,0,0,0,0
				c0.2,0.2,0.5,0.1,0.7,0.1c0,0,0,0,0,0c0,0,0,0-0.1,0c-0.1,0-0.2,0-0.3,0c-0.1,0-0.1,0-0.2,0c-0.1,0-0.1-0.1-0.2-0.1
				c-0.2,0.1-0.4,0.1-0.5,0.3c0,0,0,0,0,0c-0.1,0.2-0.1,0.2-0.3,0.1c-0.1-0.1-0.2-0.1-0.3,0c-0.3,0.2-0.5,0.1-0.8,0
				c-0.2,0-0.3,0-0.4,0.2c-0.1,0.2-0.1,0.2-0.2,0c0-0.1-0.1-0.1-0.1-0.2c-0.1-0.4-0.4-0.4-0.7-0.3C76.8,63.3,76.8,63.3,76.7,63.3
				C76.8,63.3,76.8,63.3,76.7,63.3z"/>
			<path class="st8" d="M80.7,63.2C80.7,63.2,80.8,63.2,80.7,63.2c0.3-0.1,0.5,0,0.6,0.1c0,0,0,0,0,0c0,0.1,0.1,0.1,0.2,0.2
				c0.1,0.1,0.2,0.2,0.1,0.3c-0.1,0-0.1-0.1-0.2-0.1c-0.1,0-0.1-0.1-0.2,0c-0.2,0-0.4-0.1-0.4-0.3C80.7,63.3,80.7,63.2,80.7,63.2z"
				/>
			<path class="st11" d="M80.1,66c0.1,0.1,0.1,0.1,0.2,0.1c0,0,0.1-0.1,0.1-0.1c0-0.1,0-0.1-0.1-0.1c-0.1,0-0.2,0-0.2-0.2
				c0-0.1,0.1-0.2,0.2-0.2c0.1,0,0.2,0,0.2,0.2c0,0.1,0,0.2,0,0.3c-0.1,0.1-0.1,0.1-0.2,0.1C80.1,66.1,80,66.1,80.1,66z M80.3,65.7
				c0-0.1,0-0.1-0.1-0.1c-0.1,0-0.1,0.1-0.1,0.2c0,0.1,0.1,0.1,0.1,0.1C80.3,65.8,80.3,65.8,80.3,65.7z"/>
			<path class="st11" d="M79.9,66.1c-0.1,0-0.2,0-0.3,0c0.1,0,0.1-0.1,0.1-0.1c0-0.1,0-0.3,0-0.4c0-0.1,0-0.1,0.1-0.1
				c0.1,0,0,0,0,0.1c0,0.1,0,0.3,0,0.4C79.8,66,79.8,66.1,79.9,66.1z"/>
			<path class="st11" d="M60.4,59.2c0.1,0.2-0.1,0.4,0.1,0.6c-0.1,0-0.1,0-0.2,0c0,0,0.1,0,0.1-0.1c0-0.1,0.1-0.3-0.1-0.4
				C60.3,59.3,60.3,59.3,60.4,59.2z"/>
			<path class="st11" d="M60,59.2c0.1,0.2-0.1,0.4,0.1,0.6c-0.1,0-0.1,0-0.3,0c0.1,0,0.1-0.1,0.1-0.1c0-0.1,0.1-0.3-0.1-0.4
				C59.9,59.3,59.9,59.2,60,59.2z"/>
			<path class="st11" d="M61.5,55.8c0.1,0.2-0.1,0.4,0.1,0.6c-0.1,0-0.1,0-0.2,0c0.1,0,0.1-0.1,0.1-0.1c0-0.1,0.1-0.3-0.1-0.4
				C61.4,55.9,61.4,55.8,61.5,55.8z"/>
			<path class="st11" d="M71.7,56.6c0.1,0,0.3,0.1,0.3-0.1c0-0.1-0.1-0.2-0.2-0.2c0.1,0,0.2,0,0.2-0.1c0,0,0-0.1-0.1-0.1
				c-0.1,0-0.1,0-0.2,0.1c0-0.1,0-0.1,0-0.1c0.1,0,0.2,0,0.2,0c0.1,0,0.1,0.1,0,0.1c0,0.1-0.1,0.1,0,0.2c0.1,0.1,0,0.2-0.1,0.2
				C71.9,56.7,71.8,56.7,71.7,56.6z"/>
			<path class="st11" d="M70.9,58.3c-0.1,0.1-0.1,0.3-0.2,0.4c0-0.1,0-0.2,0-0.2c0-0.1,0.1-0.2,0.2-0.3c-0.1,0-0.2,0-0.3,0
				c0,0,0,0,0,0c0,0,0-0.1,0.1-0.1c0.1,0,0.2,0,0.3,0C71,58.1,70.9,58.2,70.9,58.3z"/>
			<path class="st11" d="M70.4,58.3c0,0.1,0,0.1,0,0.2c0,0.1,0,0.1,0.1,0.2c-0.1,0-0.2,0-0.3,0C70.4,58.6,70.3,58.4,70.4,58.3
				c-0.1-0.1-0.1-0.1-0.1-0.1c0-0.1-0.1-0.1,0-0.1C70.4,58.1,70.3,58.2,70.4,58.3C70.4,58.3,70.4,58.3,70.4,58.3z"/>
			<path class="st11" d="M63.8,62.2c0,0.1,0,0.1,0,0.2c0,0.1-0.1,0.1-0.2,0.1c-0.1,0-0.1-0.1-0.2-0.1c0-0.1,0-0.2,0-0.3
				c0-0.1,0.1-0.2,0.2-0.2c0.1,0,0.2,0.1,0.2,0.2C63.8,62.1,63.8,62.2,63.8,62.2z M63.7,62.2C63.7,62.2,63.7,62.2,63.7,62.2
				c0-0.2,0-0.3-0.1-0.3c-0.1,0-0.1,0.1-0.1,0.2c0,0,0,0.1,0,0.1c0,0.1,0,0.2,0.1,0.2C63.7,62.5,63.7,62.3,63.7,62.2z"/>
			<path class="st11" d="M63.3,62.5c-0.1,0-0.2,0-0.4,0c0.1,0,0.2,0,0.2-0.1c0-0.1,0.1-0.3-0.1-0.4c0,0,0.1-0.1,0.1-0.1
				c0,0,0.1,0,0.1,0c0,0.1,0,0.3,0,0.4C63.2,62.4,63.2,62.5,63.3,62.5z"/>
			<path class="st9" d="M73.5,63.5c-0.1,0.2-0.3,0.3-0.5,0.4c-0.1,0.1-0.1,0-0.1,0c-0.1-0.1-0.3-0.2-0.5-0.1c-0.1,0-0.3,0.1-0.3,0.3
				c0,0.2,0,0.4,0,0.5c0,0.1,0,0.1-0.1,0.2c0,0,0,0,0,0c0.1-0.1,0-0.2-0.1-0.2c-0.3-0.2-0.6-0.5-0.9-0.7c-0.1-0.1-0.1-0.1-0.2-0.1
				c-0.7-0.2-1.4-0.3-2.1-0.7c-0.1,0-0.1,0-0.2,0.1c-0.1,0.3-0.3,0.5-0.7,0.6c-0.1,0-0.2,0.1-0.2,0.3c0,0.1,0,0.1-0.1,0.1
				c-0.3,0.2-0.5,0.4-0.8,0.5c-0.1,0.1-0.1,0.1-0.2,0.1c-0.1,0-0.1,0-0.1,0.1c0,0.1,0,0.3,0.1,0.4c0.1,0.1,0.1,0.1,0,0.2
				c-0.1,0.1-0.2,0.1-0.2,0.3c0,0.2,0.1,0.3,0.2,0.4c0,0,0,0,0,0c-0.1-0.1-0.2-0.2-0.2-0.4c0-0.2,0.1-0.3,0.2-0.3
				c0.1-0.1,0.1-0.1,0-0.2c-0.1-0.1-0.1-0.2-0.1-0.4c0-0.1,0-0.2,0.1-0.2c0.1,0,0.1,0,0.2-0.1c0.3-0.2,0.5-0.4,0.8-0.5
				c0,0,0.1-0.1,0.1-0.1c0-0.1,0-0.1,0.1-0.2c0.1-0.1,0.2-0.2,0.4-0.2c0.1,0,0.2-0.1,0.2-0.2c0-0.1,0.1-0.2,0.2-0.3
				c0.1-0.1,0.1-0.2,0-0.3c-0.3-0.3-0.6-0.6-0.9-0.9c0,0,0,0,0,0c0,0,0.1,0,0.1,0.1c0.1,0.1,0.2,0.2,0.3,0.2c0.1,0,0.2-0.2,0.3-0.2
				c0,0,0,0,0,0c0,0,0,0,0,0.1c-0.1,0.1-0.2,0.1-0.2,0.3c0,0.1,0.2,0.2,0.2,0.3c0,0,0,0,0,0c0.1,0.1,0.2,0.3,0.4,0.4
				c0.6,0.3,1.1,0.5,1.7,0.6c0.3,0.1,0.6,0.1,0.9,0.4c0.2,0.2,0.4,0.3,0.6,0.4c0.1,0,0.1,0.1,0.2,0.1c0-0.2,0-0.5,0-0.7
				c0-0.3,0-0.6,0-0.8c0-0.2,0-0.3-0.1-0.4c-0.2-0.2-0.3-0.5-0.4-0.8c0.1,0.1,0.2,0.2,0.2,0.4c0,0,0,0.1,0,0.1
				c0.1,0.2,0.2,0.3,0.3,0.4c0.1,0.1,0.1,0.2,0.1,0.3c0,0.3,0,0.7,0,1c0.2-0.2,0.3-0.4,0.3-0.6c0.1-0.4,0.1-0.8,0.1-1.2
				c0-0.1,0-0.2,0.2-0.2c0.1,0,0.2-0.1,0.3-0.1c0,0,0,0,0,0c-0.1,0.1-0.1,0.2-0.3,0.2c-0.1,0-0.1,0.1-0.1,0.2c0,0.5,0,1.1-0.3,1.6
				c0,0.1,0,0.1,0.1,0.1c0.2,0,0.4,0,0.5,0.1c0.1,0.1,0.1,0,0.1,0C73.2,63.7,73.3,63.6,73.5,63.5C73.5,63.5,73.5,63.5,73.5,63.5z"/>
			<path class="st9" d="M76.5,62.2c0,0-0.1,0.1-0.1,0.1c0,0.3-0.1,0.4-0.3,0.6c0.2,0,0.4,0,0.6,0c0.1,0,0.2,0,0.3,0.2
				C76.9,63,76.7,63,76.6,63c-0.2,0-0.4,0-0.5,0c-0.2,0-0.3,0-0.4,0.1c-0.1,0.1-0.3,0-0.4,0c-0.2,0-0.3,0-0.4,0.1
				c-0.1,0.1-0.3,0.2-0.5,0.2c-0.1,0-0.2,0-0.2,0.1c-0.1,0.2-0.2,0.2-0.4,0c0,0,0,0,0,0c0.1,0.1,0.3,0.1,0.4-0.1
				c0-0.1,0.1-0.1,0.2-0.1c0.1,0,0.2,0.1,0.3,0c0.2-0.2,0.5-0.3,0.8-0.2c0.1,0,0.2,0,0.2,0c0.1,0,0.1-0.1,0.2-0.1
				c0.3,0,0.5-0.3,0.5-0.6C76.4,62.3,76.4,62.2,76.5,62.2C76.5,62.2,76.5,62.2,76.5,62.2z"/>
			<path class="st11" d="M73.1,64.3c-0.1,0-0.2-0.1-0.2,0c0,0,0,0.1,0,0.1c0,0.1,0.1,0,0.1,0c0.1,0,0.2,0,0.2,0.1
				c0,0.1,0,0.2-0.1,0.2c-0.1,0-0.2,0-0.2,0c-0.1-0.1-0.1-0.4,0-0.5C72.9,64.3,73,64.2,73.1,64.3z M73,64.7c0-0.1,0-0.1-0.1-0.1
				c-0.1,0-0.1,0-0.1,0.1c0,0.1,0,0.2,0.1,0.2C73,64.8,73,64.8,73,64.7z"/>
			<path class="st9" d="M81.3,63.3c-0.2-0.1-0.3-0.2-0.5-0.2c0,0,0,0,0,0C81.1,63,81.2,63.1,81.3,63.3z"/>
			<path class="st9" d="M72,64.7c-0.1,0.1,0,0.2,0,0.3c0,0.1,0.1,0.2,0,0.2c0,0,0,0,0,0c0-0.1,0-0.2,0-0.4
				C71.9,64.8,71.9,64.7,72,64.7C72,64.7,72,64.7,72,64.7z"/>
			<path class="st7" d="M78.9,63.5c-0.2,0.1-0.4,0.1-0.5,0C78.5,63.5,78.7,63.5,78.9,63.5z"/>
			<path class="st9" d="M73.7,63.5c-0.1,0-0.2,0-0.2,0c0,0,0,0,0,0C73.6,63.4,73.7,63.4,73.7,63.5C73.8,63.5,73.8,63.5,73.7,63.5z"
				/>
			<path class="st7" d="M79,63.4C79,63.4,79,63.4,79,63.4C79,63.4,79,63.4,79,63.4z"/>
			<path class="st7" d="M79.1,63.4C79,63.4,79,63.4,79.1,63.4C79,63.4,79,63.4,79.1,63.4z"/>
			<path class="st11" d="M75.1,58C75.2,58,75.2,58,75.1,58c0.1-0.1,0.1-0.1,0.1-0.1c0,0,0,0,0,0.1c0,0.1-0.1,0.3,0.1,0.4
				c0,0-0.1,0.1-0.1,0.2c-0.1,0,0-0.1-0.1-0.1c0-0.1-0.1,0-0.2,0c-0.1,0-0.1,0-0.1-0.1c0,0,0,0,0,0c0.1,0.1,0.2,0.1,0.2,0
				C75.2,58.2,75.2,58.2,75.1,58C75.1,58.1,75.1,58.1,75.1,58z"/>
			<path class="st6" d="M75.1,58C75.1,58.1,75.1,58.1,75.1,58c0,0.1-0.1,0.2-0.1,0.2c0,0,0,0,0,0C75,58.2,75.1,58.1,75.1,58z"/>
			<path class="st6" d="M75,58.3C75,58.3,75,58.3,75,58.3C75,58.3,75,58.3,75,58.3C75,58.3,75,58.3,75,58.3C75,58.3,75,58.3,75,58.3
				z"/>
			<path class="st8" d="M65.3,56c0-0.2,0.2-0.3,0.3-0.4C65.6,55.9,65.6,56,65.3,56z"/>
			<path class="st11" d="M67.4,56.7c0.1,0,0.2,0,0.3,0.1c0,0.1,0,0.2-0.1,0.2C67.6,56.8,67.6,56.6,67.4,56.7z"/>
			<path class="st11" d="M67.7,57.2c-0.1,0-0.2,0-0.3,0c-0.1,0-0.1,0-0.1-0.1c0,0,0,0,0,0c0,0,0,0,0.1,0
				C67.5,57.2,67.6,57.1,67.7,57.2z"/>
			<path class="st8" d="M67.4,57.2C67.4,57.2,67.4,57.2,67.4,57.2C67.4,57.1,67.4,57.1,67.4,57.2C67.4,57.1,67.4,57.1,67.4,57.2z"/>
			<path class="st9" d="M77,61C77,61,77,61,77,61C77,61,77,61,77,61C77,61,77,61,77,61z"/>
			<path class="st11" d="M69.4,69.7c-0.1,0,0-0.1,0-0.1c0.1-0.1,0.1-0.3,0.2-0.4c-0.1,0-0.2,0-0.3,0c0-0.1,0-0.1,0.4-0.1
				C69.6,69.3,69.5,69.5,69.4,69.7z"/>
			<path class="st9" d="M71.3,58.7C71.3,58.6,71.3,58.6,71.3,58.7c-0.1-0.3,0-0.5,0.1-0.6c0.1-0.1,0.1,0,0.1,0
				c0,0.1,0.1,0.3,0.1,0.4c0,0.1,0.1,0.1,0.1,0.1c0.2,0,0.3,0.1,0.3,0.2c0.1,0.1,0.1,0.2,0.3,0.2c0.1,0,0.1,0,0.1,0.1
				c0,0.1-0.1,0.1-0.1,0.2c-0.1,0.1-0.1,0.2,0,0.3c0.1,0.1,0,0.1-0.1,0.1c-0.2,0-0.4,0.1-0.5-0.1c0,0-0.1-0.1-0.1-0.1
				c-0.2-0.1-0.4-0.2-0.2-0.5c0-0.1,0-0.2,0-0.3c0,0,0,0,0.1,0c0,0,0,0,0,0c0,0,0,0,0,0c0,0.1,0,0.2,0,0.2c-0.1,0.2,0,0.3,0.2,0.4
				c0.1,0,0.1,0.1,0.2,0.1c0.1,0.1,0.2,0.1,0.3,0.1c0.1,0,0.2,0,0.1-0.2c0-0.1,0-0.1,0-0.2c0-0.1,0.1-0.2,0.1-0.2c0,0,0-0.1,0-0.1
				c-0.2,0-0.2-0.2-0.3-0.3c-0.1-0.1-0.1-0.1-0.2-0.1c-0.1,0-0.2-0.1-0.2-0.2c0-0.1-0.1-0.2-0.1-0.4C71.3,58.2,71.3,58.4,71.3,58.7
				C71.4,58.6,71.4,58.7,71.3,58.7C71.4,58.7,71.3,58.7,71.3,58.7z"/>
			<path class="st11" d="M71.5,58.9C71.5,58.8,71.4,58.8,71.5,58.9c-0.2-0.2-0.4-0.2-0.5-0.4c0.1,0.1,0.2,0.1,0.4,0.2
				c0,0,0.1,0,0.1,0c0.1,0.1,0.3,0.2,0.4,0.3C71.7,59,71.6,58.9,71.5,58.9C71.5,58.9,71.5,58.9,71.5,58.9
				C71.5,58.9,71.5,58.9,71.5,58.9z"/>
			<path class="st8" d="M73.8,63.5c-0.1-0.1-0.2-0.1-0.3,0c-0.1,0.1-0.3,0.2-0.4,0.3c0,0-0.1,0.1-0.1,0c-0.1-0.1-0.3-0.2-0.5-0.1
				c-0.1,0-0.1,0-0.1-0.1c0.3-0.5,0.3-1,0.3-1.6c0-0.1,0-0.2,0.1-0.2c0.1,0,0.2-0.1,0.3-0.2c0.1-0.1,0.2-0.1,0.2-0.2
				c0.1-0.1,0.2-0.1,0.2-0.3c-0.1,0.1-0.2,0.1-0.2,0.2c-0.1,0.1-0.2,0.1-0.2,0.2c-0.1,0.1-0.2,0.2-0.3,0.1c-0.1,0-0.2,0-0.2,0.2
				c0,0.4,0,0.8-0.1,1.2c0,0.2-0.2,0.4-0.3,0.6c0-0.4,0-0.7,0-1c0-0.1,0-0.2-0.1-0.3c-0.1-0.1-0.2-0.3-0.3-0.4c0,0,0-0.1,0-0.1
				c0-0.1-0.1-0.2-0.2-0.4c0.1,0.3,0.2,0.6,0.4,0.8c0.1,0.1,0.1,0.3,0.1,0.4c0,0.3,0,0.6,0,0.8c0,0.2,0,0.5,0,0.7
				c-0.1,0-0.1-0.1-0.2-0.1c-0.2-0.1-0.4-0.3-0.6-0.4c-0.2-0.2-0.5-0.3-0.9-0.4c-0.6-0.1-1.2-0.3-1.7-0.6c-0.2-0.1-0.3-0.3-0.4-0.4
				c0,0,0,0,0,0c-0.1-0.1-0.2-0.2-0.2-0.3c0-0.1,0.1-0.2,0.2-0.3c0,0,0,0,0-0.1c0,0,0,0,0,0c-0.1,0.1-0.2,0.2-0.3,0.2
				c-0.1,0-0.2-0.2-0.3-0.2c0,0-0.1,0-0.1-0.1c-0.2-0.3-0.5-0.4-0.7-0.6c-0.2-0.1-0.4-0.3-0.6-0.4c0.3-0.2,0.6-0.4,0.9-0.6
				c0.1-0.1,0.1-0.1,0.2-0.2c0.1-0.4,0.2-0.8,0.2-1.2c0-0.2,0.1-0.2,0.2-0.2c0.5,0.1,1,0.1,1.5,0.2c0.1,0,0.2,0.1,0.4,0.1
				c0.2,0.1,0.3,0.1,0.5,0.2c0,0,0.1,0,0.1,0c0,0,0,0.1-0.1,0.1c-0.1,0.1-0.3,0.2-0.4,0.3c-0.1,0.1-0.2,0.2-0.2,0.3
				c0,0.3-0.1,0.5-0.2,0.8c-0.2,0.2-0.4,0.3-0.5,0.5c0.2-0.2,0.4-0.3,0.5-0.5c0.1-0.1,0.1-0.2,0.1-0.2c0-0.2,0.1-0.2,0.2-0.2
				c0.1,0,0.1,0,0.2,0c0.1,0.1,0.1,0.2,0.3,0.2c-0.1-0.1-0.2-0.2-0.3-0.3c-0.1-0.1-0.2-0.1-0.2-0.1c-0.1,0-0.1,0-0.1-0.2
				c0-0.2,0.2-0.4,0.3-0.5c0.3-0.3,0.5-0.3,0.9-0.1c0.5,0.3,0.9,0.6,1.3,0.9c0.1,0.1,0.1,0.3,0,0.5c-0.2,0.2-0.2,0.5-0.2,0.8
				c0,0.1,0,0.1-0.1,0.2c0.1,0,0.1,0,0.1-0.1c0-0.1,0-0.2,0-0.3c0-0.1,0-0.2,0.1-0.3c0.1-0.2,0.2-0.3,0.2-0.5c0-0.1,0-0.1,0.1-0.2
				c0.1-0.1,0.2-0.1,0.3,0c0.3,0.2,0.6,0.4,0.8,0.5c0.1,0.1,0.2,0.1,0,0.2c0,0,0,0.1-0.1,0.1c0,0,0,0,0,0c0.2-0.2,0.2-0.2,0.4,0
				c0.1,0.1,0.3,0.3,0.4,0.4c0,0,0,0.1,0.1,0.1c0.2,0.3,0.2,0.3,0.5,0c0.2-0.2,0.4-0.2,0.7-0.2c0.2,0,0.4,0.1,0.6,0.1
				c0.1,0,0.2,0.1,0.3,0.1c0.1,0,0,0.1,0,0.1c0,0.1,0,0.3,0,0.4c-0.1,0.1-0.1,0.1-0.1,0.2c0,0.3-0.2,0.5-0.5,0.6
				c-0.1,0-0.1,0-0.2,0.1c-0.1,0-0.1,0.1-0.2,0c-0.3-0.1-0.6,0-0.8,0.2c-0.1,0.1-0.2,0-0.3,0c-0.1,0-0.2,0-0.2,0.1
				C74,63.6,73.9,63.5,73.8,63.5z M71.2,61.4c0.1,0.1,0.2,0.2,0.3,0.2C71.4,61.5,71.3,61.4,71.2,61.4c-0.1-0.1-0.2-0.2-0.3-0.3
				c-0.1-0.1-0.2-0.2-0.4-0.3c-0.1-0.1-0.2-0.2-0.3-0.3c0.1,0.1,0.2,0.2,0.3,0.3c0.1,0.1,0.2,0.2,0.4,0.3C71,61.2,71,61.3,71.2,61.4
				z M74.2,62.9C74.2,62.9,74.2,62.9,74.2,62.9C74.2,62.9,74.2,62.9,74.2,62.9c0.4-0.1,0.1-0.3,0.2-0.5c0,0-0.1-0.1-0.2-0.1
				c-0.3,0-0.1,0.3-0.2,0.4C73.9,62.7,74,62.8,74.2,62.9C74.1,62.9,74.1,62.9,74.2,62.9z M70.5,62C70.5,62,70.5,62,70.5,62
				c-0.2-0.1-0.3,0-0.3,0.1c0,0.2,0,0.4,0.2,0.4c0.1,0,0.1,0,0.2,0c0.1-0.1,0.1-0.2,0-0.2c0-0.1-0.1-0.1-0.2-0.1c0,0-0.1,0.1-0.1,0
				c0-0.1,0-0.1,0.1-0.2C70.4,62,70.4,62.1,70.5,62z M68.4,60.3c0.1,0,0.2,0,0.2,0.2c0,0.2-0.2,0.1-0.3,0.1c0.1,0.1,0.2,0.1,0.3,0
				c0.1,0,0.1-0.1,0.1-0.2c0-0.1-0.1-0.1,0-0.2c0-0.1,0-0.1,0-0.2c-0.1-0.1-0.2,0-0.2,0c0,0,0,0.1,0,0.1c0-0.1,0.1-0.1,0.2-0.1
				c0,0,0.1,0.1,0.1,0.1C68.6,60.2,68.5,60.2,68.4,60.3z M73,60.9c-0.1,0-0.2,0-0.2,0c-0.1,0-0.1,0.1-0.1,0.2c0,0.1,0,0.1,0.1,0.1
				c0.1,0,0.2,0,0.2,0.1c0,0.1,0,0.1-0.1,0.2c-0.1,0.1-0.1,0-0.2-0.1c0,0.1,0,0.1,0,0.1c0.1,0,0.2,0,0.3,0c0.1-0.1,0.1-0.1,0-0.2
				c0-0.1-0.1-0.1-0.2-0.1c-0.1,0-0.1,0-0.1-0.1c0-0.1,0-0.1,0.1-0.1C72.9,61,72.9,61,73,60.9z M71.2,60.3c0,0.2-0.1,0.1-0.2,0.1
				c0,0-0.1,0-0.1,0c0,0.1,0,0,0.1,0.1c0.1,0,0.2-0.1,0.2,0.1c0,0,0.1,0,0.1,0c0-0.1,0-0.1,0.1-0.2c-0.1-0.1,0-0.3-0.1-0.4
				c0-0.1,0,0-0.1,0C71.2,60.2,71.3,60.3,71.2,60.3z M69.8,62c0.1,0.1,0,0.3,0,0.4c0,0.1,0,0.1-0.1,0.2c0.1,0,0.2,0,0.2,0
				c-0.1-0.2,0-0.4-0.1-0.6C69.8,62,69.8,62,69.8,62z M68.1,60c-0.1,0-0.1,0.1-0.1,0.1c0.1,0.1,0,0.3,0.1,0.4c0,0.1,0,0.1-0.1,0.1
				c0.1,0,0.2,0,0.2,0C68,60.4,68.1,60.2,68.1,60z M73.8,62.9c-0.2-0.2,0-0.4-0.1-0.6c0,0-0.1,0.1-0.1,0.1c0.2,0.1,0,0.3,0.1,0.4
				c0,0.1,0,0.1-0.1,0.1C73.7,62.9,73.8,62.9,73.8,62.9z M70.9,60.7c-0.2,0-0.1-0.2-0.1-0.3c0-0.1,0-0.2,0-0.3
				c-0.1,0-0.2,0.1-0.1,0.1c0.1,0.1,0,0.3,0.1,0.4c0,0.1,0,0.1-0.1,0.1C70.7,60.7,70.8,60.7,70.9,60.7z M72.4,60.9
				C72.2,61,72.2,61,72.3,61c0.1,0.1,0,0.3,0.1,0.4c0,0.1-0.1,0-0.1,0.1c0.1,0,0.2,0,0.2,0C72.3,61.3,72.5,61.1,72.4,60.9z
				 M68.3,61.8C68.3,61.8,68.3,61.8,68.3,61.8c0.2-0.1,0.4-0.3,0.5-0.5C68.6,61.5,68.4,61.6,68.3,61.8z"/>
			<path class="st8" d="M67.5,61.9c0.3,0.3,0.6,0.6,0.9,0.9c0.1,0.1,0.1,0.2,0,0.3c-0.1,0.1-0.1,0.2-0.2,0.3
				c-0.1,0.1-0.1,0.2-0.2,0.2c-0.1,0-0.3,0.1-0.4,0.2c-0.1,0.1-0.1,0.1-0.1,0.2c0,0.1,0,0.1-0.1,0.1c-0.3,0.2-0.5,0.4-0.8,0.5
				c-0.1,0-0.1,0.1-0.2,0.1c-0.1,0-0.2,0.1-0.1,0.2c0,0.1,0,0.3,0.1,0.4c0.1,0.1,0.1,0.1,0,0.2c-0.1,0.1-0.2,0.2-0.2,0.3
				c0,0.2,0.1,0.3,0.2,0.4c0,0.1,0,0.1-0.1,0.2c0,0-0.1-0.1-0.1-0.1c-0.1-0.1-0.2-0.1-0.3-0.1c-0.1,0.1-0.2,0.1-0.1,0.3
				c0.1,0.1,0.1,0.4-0.1,0.5c0,0,0,0,0,0c0-0.1,0-0.1,0-0.2c0,0,0-0.1-0.1-0.1c-0.1,0-0.2,0-0.2-0.1c0-0.1-0.1-0.2-0.1-0.3
				c0-0.1,0-0.1-0.1-0.2c-0.1-0.1-0.2-0.1-0.3,0c-0.1,0.1-0.1,0.1-0.2,0.2c-0.1,0.1-0.1,0.2,0,0.3c0,0.1,0.1,0.1,0.2,0.1
				c0.1,0,0.2,0,0.3,0.1c0,0,0,0,0,0.1c-0.1,0.1,0,0.2,0.1,0.3c0.1,0.1,0,0.1,0,0.2c0,0.2-0.1,0.1-0.2,0.1c-0.1,0-0.2-0.1-0.3-0.2
				c0-0.1-0.1-0.1-0.2-0.2c-0.1-0.1-0.2-0.1-0.3,0.1c-0.1,0.1-0.2,0.2-0.3,0.3c-0.1,0.1-0.2,0-0.3-0.2c-0.2-0.1-0.2,0-0.3,0.1
				c0,0.1,0,0.2-0.1,0.2c-0.1,0,0-0.1,0-0.2c0-0.3,0-0.5-0.2-0.8c-0.1-0.1-0.1-0.1-0.2-0.1c0-0.1,0.1-0.2,0-0.4
				c-0.1-0.1-0.1-0.1-0.2-0.1c-0.1,0.1-0.2,0-0.4,0c-0.1,0,0-0.1,0-0.1c0.2-0.3,0.5-0.6,0.7-0.9c0.3-0.4,0.6-0.8,0.9-1.2
				c0.1-0.1,0.1-0.3,0.2-0.4c0-0.1,0-0.1,0.1-0.1c0.1,0,0.2,0,0.3,0.1c0,0.1,0.1,0.2,0.1,0.3c0,0.1,0.1,0.1,0.1,0
				c0.1-0.1,0.2-0.2,0.2-0.3c0.7-0.4,1.4-0.9,2.2-1.3c0.1-0.1,0.2,0,0.2,0C67.4,61.8,67.4,61.8,67.5,61.9z M65.3,64.4
				c0-0.1,0-0.1,0-0.2c-0.1-0.1-0.1-0.1-0.2-0.1c-0.1,0-0.1,0.1-0.1,0.2c0,0.1,0.1,0.1,0.2,0.1c0,0,0.1,0,0.1,0c0,0.1,0,0.1,0,0.2
				c0,0-0.1,0-0.1,0c0,0,0-0.1-0.1,0c0,0,0,0.1,0,0.1C65.2,64.8,65.3,64.7,65.3,64.4z"/>
			<path class="st8" d="M65.2,60.1c0-0.1,0-0.1-0.1-0.1c-0.3-0.3-0.5-0.7-0.7-1.1c0-0.1-0.1-0.1,0-0.2c0.1-0.2,0.2-0.4,0.2-0.7
				c0-0.1,0.1-0.1,0.1,0c0.5,0.1,1,0.2,1.4,0.3c0.2,0,0.4,0.1,0.6,0.1c0,0,0.1,0,0.2,0c0.1,0,0.1-0.1,0.2-0.1
				c0.2,0.1,0.3,0.2,0.5,0.3c0,0,0,0.1,0,0.2c-0.1,0.4-0.2,0.9-0.3,1.3c0,0.1-0.1,0.2-0.1,0.2c-0.3,0.2-0.6,0.4-0.8,0.6
				c-0.1,0.1-0.1,0.1-0.2,0c-0.2-0.2-0.5-0.4-0.7-0.5C65.3,60.2,65.2,60.1,65.2,60.1C65.2,60.1,65.2,60.1,65.2,60.1z M65.8,59
				c-0.1,0-0.1,0.1-0.1,0.1c0.1,0.1,0,0.3,0.1,0.4c0,0.1,0,0.1-0.1,0.1c0.1,0,0.2,0,0.3,0C65.7,59.4,65.8,59.2,65.8,59z M66.3,59.3
				c0.1-0.1,0.1-0.1,0.1-0.2c0-0.1-0.2-0.1-0.2-0.1c-0.1,0-0.1,0.1-0.1,0.1c0-0.1,0.1-0.1,0.2-0.1C66.3,59.1,66.3,59.2,66.3,59.3z
				 M66.4,59.6c-0.1-0.1-0.3,0-0.4-0.1c0,0,0,0-0.1,0c0,0,0,0.1,0,0C66.2,59.6,66.3,59.6,66.4,59.6z"/>
			<path class="st8" d="M72,64.7c-0.1,0.1-0.1,0.1-0.1,0.2c0,0.1,0.1,0.2,0,0.4c-0.1,0.1-0.3,0.1-0.4,0.3c-0.1,0.1-0.2,0.3-0.2,0.4
				c0,0.1,0,0.2-0.1,0.3c-0.2,0.3,0,0.5,0.1,0.7c0,0,0,0,0,0c0.2,0,0.2,0.1,0.2,0.2c0,0.1,0.1,0.2-0.1,0.3c0,0.2-0.2,0.1-0.2,0.1
				c-0.2,0-0.3,0-0.5,0.1c0,0,0,0,0,0c0,0.2-0.1,0.2-0.3,0.1c-0.1,0-0.1,0-0.1,0.1c0,0.1,0,0.1,0,0.2c0,0.1,0,0.1-0.1,0.1
				c0,0-0.1,0-0.1-0.1c0-0.3-0.2-0.5-0.5-0.5c-0.2,0-0.5,0-0.7,0.1c-0.1,0.1-0.2,0-0.4,0.1c-0.2,0.1-0.3,0.2-0.5,0.3
				c-0.1,0.1-0.2,0.1-0.4,0.1c0-0.2-0.1-0.3-0.2-0.4c-0.1,0-0.1-0.1-0.2-0.1c-0.1-0.1-0.2-0.2-0.1-0.3c0-0.1,0-0.2-0.1-0.2
				c-0.1,0-0.1-0.1-0.1-0.3c0.1-0.1,0-0.2-0.1-0.3c0,0-0.1,0-0.1-0.1c0-0.2-0.1-0.3-0.3-0.3c0-0.1,0.3-0.1,0.1-0.3
				c-0.1-0.1-0.2-0.2-0.2-0.4c0-0.1,0.1-0.2,0.2-0.3c0.1-0.1,0.1-0.1,0-0.2c-0.1-0.1-0.1-0.2-0.1-0.4c0-0.1,0-0.1,0.1-0.1
				c0.1,0,0.2,0,0.2-0.1c0.3-0.2,0.5-0.4,0.8-0.5c0,0,0.1,0,0.1-0.1c-0.1-0.2,0.1-0.3,0.2-0.3c0.3-0.1,0.5-0.3,0.7-0.6
				c0-0.1,0.1-0.1,0.2-0.1c0.7,0.4,1.4,0.5,2.1,0.7c0.1,0,0.2,0.1,0.2,0.1c0.3,0.2,0.6,0.5,0.9,0.7C72,64.5,72,64.6,72,64.7z
				 M69.1,65.9c0.2,0,0.2-0.1,0.2-0.3c0,0,0-0.1,0-0.1c0-0.1,0-0.1,0-0.2c-0.1-0.1-0.2-0.1-0.2,0c-0.1,0-0.1,0.1,0,0.2
				c0,0.1,0,0.1,0,0.1C68.8,65.8,68.9,65.9,69.1,65.9z"/>
			<path class="st8" d="M71.4,67.6C71.4,67.6,71.4,67.6,71.4,67.6C71.5,67.7,71.4,67.7,71.4,67.6C71.4,67.7,71.4,67.7,71.4,67.6
				C71.4,67.6,71.4,67.6,71.4,67.6z"/>
			<path class="st8" d="M65.8,66.8C65.8,66.8,65.8,66.8,65.8,66.8C65.8,66.8,65.8,66.8,65.8,66.8C65.8,66.8,65.8,66.8,65.8,66.8
				C65.8,66.8,65.8,66.8,65.8,66.8z"/>
			<path class="st8" d="M65.9,66.7C65.8,66.7,65.8,66.7,65.9,66.7C65.8,66.7,65.8,66.7,65.9,66.7C65.8,66.7,65.8,66.7,65.9,66.7z"/>
			<path class="st8" d="M67.3,68.2C67.3,68.2,67.3,68.2,67.3,68.2C67.3,68.1,67.3,68.2,67.3,68.2C67.3,68.2,67.3,68.2,67.3,68.2z"/>
			<path class="st7" d="M92.3,63.1c0,0.1,0,0.3-0.1,0.3c-0.1,0-0.1-0.2-0.1-0.3c0-0.1,0-0.3,0.1-0.3C92.3,62.9,92.3,63,92.3,63.1z"
				/>
			<path class="st8" d="M80.3,65.7c0,0.1,0,0.1-0.1,0.1c-0.1,0-0.1,0-0.1-0.1c0-0.1,0-0.1,0.1-0.2C80.3,65.5,80.3,65.6,80.3,65.7z"
				/>
			<path class="st8" d="M63.7,62.2c0,0.1,0,0.2-0.1,0.2c-0.1,0-0.1-0.2-0.1-0.2c0,0,0-0.1,0-0.1c0-0.1,0-0.2,0.1-0.2
				C63.7,61.9,63.7,62.1,63.7,62.2C63.7,62.2,63.7,62.2,63.7,62.2z"/>
			<path class="st8" d="M73,64.7c0,0.1,0,0.2-0.1,0.2c-0.1,0-0.1-0.1-0.1-0.2c0-0.1,0-0.1,0.1-0.1C73,64.6,73,64.6,73,64.7z"/>
			<path class="st7" d="M75,58.3C75,58.3,75,58.3,75,58.3c0.1-0.1,0.1-0.1,0.1-0.2c0.1,0.1,0.1,0.2,0,0.2
				C75.2,58.4,75.1,58.4,75,58.3z"/>
			<path class="st8" d="M71.5,58.9c0.1,0,0.2,0.1,0.3,0.1c-0.1-0.1-0.3-0.2-0.4-0.3c0,0,0-0.1,0-0.1c-0.1-0.2,0-0.4,0.1-0.5
				c0.1,0.1,0.1,0.2,0.1,0.4c0,0.1,0.1,0.2,0.2,0.2c0.1,0,0.1,0,0.2,0.1c0.1,0.1,0.1,0.3,0.3,0.3c0.1,0,0,0.1,0,0.1
				c0,0.1-0.1,0.2-0.1,0.2c0,0.1-0.1,0.1,0,0.2c0.1,0.1,0,0.1-0.1,0.2c-0.1,0-0.2,0-0.3-0.1c-0.1-0.1-0.1-0.1-0.2-0.1
				c-0.2-0.1-0.3-0.2-0.2-0.4C71.5,59.1,71.5,59,71.5,58.9z"/>
			<path class="st8" d="M71.5,58.9C71.5,58.9,71.5,58.9,71.5,58.9C71.5,58.9,71.5,58.9,71.5,58.9z"/>
			<path class="st11" d="M74.2,62.9C74.1,62.9,74.1,62.9,74.2,62.9c-0.2,0-0.2-0.1-0.2-0.2c0.1-0.1-0.1-0.4,0.2-0.4
				c0.1,0,0.2,0.1,0.2,0.1C74.2,62.5,74.5,62.8,74.2,62.9C74.2,62.9,74.2,62.9,74.2,62.9C74.2,62.9,74.2,62.9,74.2,62.9z M74.2,62.6
				c-0.1,0-0.1,0.1-0.1,0.1c0,0.1,0,0.1,0.1,0.1c0.1,0,0.1,0,0.1-0.1C74.3,62.6,74.3,62.6,74.2,62.6z M74.3,62.4
				c0-0.1,0-0.1-0.1-0.1c-0.1,0-0.1,0.1-0.1,0.1c0,0.1,0,0.1,0.1,0.1C74.3,62.5,74.3,62.5,74.3,62.4z"/>
			<path class="st11" d="M70.5,62c-0.1,0-0.1,0-0.1,0c-0.1,0-0.1,0.1-0.1,0.2c0,0.1,0.1,0,0.1,0c0.1,0,0.1,0,0.2,0.1
				c0,0.1,0,0.2,0,0.2c0,0.1-0.1,0.1-0.2,0c-0.1,0-0.2-0.2-0.2-0.4C70.2,62,70.3,61.9,70.5,62C70.5,62,70.5,62,70.5,62z M70.4,62.4
				c0-0.1,0-0.2-0.1-0.1c-0.1,0-0.1,0-0.1,0.1c0,0.1,0,0.2,0.1,0.2C70.4,62.5,70.4,62.5,70.4,62.4z"/>
			<path class="st11" d="M68.4,60.3c0.1,0,0.2,0,0.2-0.1c0,0,0-0.1-0.1-0.1c-0.1,0-0.1,0-0.2,0.1c0-0.1,0-0.1,0-0.1
				c0.1,0,0.2,0,0.2,0c0.1,0,0.1,0.1,0,0.2c0,0.1,0,0.1,0,0.2c0.1,0.1,0,0.2-0.1,0.2c-0.1,0-0.2,0-0.3,0c0.1,0,0.3,0.1,0.3-0.1
				C68.6,60.3,68.5,60.3,68.4,60.3z"/>
			<path class="st11" d="M73,60.9c-0.1,0.1-0.1,0-0.2,0c-0.1,0-0.1,0-0.1,0.1c0,0.1,0,0.1,0.1,0.1c0.1,0,0.2,0,0.2,0.1
				c0,0.1,0,0.1,0,0.2c-0.1,0.1-0.2,0.1-0.3,0c-0.1,0-0.1-0.1,0-0.1c0.1,0.1,0.1,0.1,0.2,0.1c0.1,0,0.1-0.1,0.1-0.2
				c0-0.1-0.1-0.1-0.2-0.1c-0.1,0-0.1,0-0.1-0.1c0-0.1-0.1-0.2,0.1-0.2C72.8,60.9,72.9,60.9,73,60.9z"/>
			<path class="st11" d="M71.2,60.3c0-0.1-0.1-0.2,0-0.2c0,0,0.1-0.1,0.1,0c0,0.1-0.1,0.3,0.1,0.4c-0.1,0-0.1,0.1-0.1,0.2
				c0,0-0.1,0-0.1,0c0-0.2-0.1-0.1-0.2-0.1c0,0-0.1,0-0.1-0.1c0-0.1,0,0,0.1,0C71.2,60.5,71.3,60.5,71.2,60.3z"/>
			<path class="st11" d="M69.8,62c0,0,0.1,0,0.1-0.1c0.1,0.2,0,0.4,0.1,0.6c0,0-0.1,0-0.2,0c0.1,0,0.1-0.1,0.1-0.2
				C69.8,62.3,69.8,62.2,69.8,62z"/>
			<path class="st11" d="M68.1,60c0.1,0.2,0,0.4,0.1,0.6c0,0-0.1,0-0.2,0c0.1,0,0.1-0.1,0.1-0.1c0-0.1,0.1-0.3-0.1-0.4
				C67.9,60,68,60,68.1,60z"/>
			<path class="st11" d="M73.8,62.9c-0.1,0-0.2,0-0.2,0c0.1,0,0.1-0.1,0.1-0.1c0-0.1,0.1-0.3-0.1-0.4c0,0,0.1-0.1,0.1-0.1
				C73.8,62.5,73.7,62.7,73.8,62.9z"/>
			<path class="st11" d="M70.9,60.7c-0.1,0-0.2,0-0.3,0c0.1,0,0.1,0,0.1-0.1c0-0.1,0.1-0.3-0.1-0.4c0,0,0.1-0.1,0.1-0.1
				c0,0.1,0,0.2,0,0.3C70.8,60.5,70.7,60.6,70.9,60.7z"/>
			<path class="st11" d="M72.4,60.9c0.1,0.2-0.1,0.4,0.1,0.6c0,0-0.1,0-0.2,0c0,0,0.1,0,0.1-0.1c0-0.1,0.1-0.3-0.1-0.4
				C72.2,61,72.2,61,72.4,60.9z"/>
			<path class="st9" d="M68.3,61.8c0.2-0.2,0.4-0.3,0.5-0.5C68.7,61.5,68.5,61.7,68.3,61.8C68.3,61.8,68.3,61.8,68.3,61.8z"/>
			<path class="st9" d="M69.4,60.6c-0.1,0.2-0.3,0.4-0.5,0.5C69,61,69.2,60.8,69.4,60.6C69.4,60.6,69.4,60.6,69.4,60.6z"/>
			<path class="st9" d="M70.9,61.1c-0.1-0.1-0.3-0.2-0.4-0.3c0,0,0,0,0,0C70.7,60.8,70.8,60.9,70.9,61.1
				C70.9,61.1,70.9,61.1,70.9,61.1z"/>
			<path class="st9" d="M70.9,61.1c0.1,0.1,0.2,0.2,0.3,0.3c0,0,0,0,0,0C71,61.3,71,61.2,70.9,61.1C70.9,61.1,70.9,61.1,70.9,61.1z"
				/>
			<path class="st9" d="M71.2,61.3c0.1,0.1,0.2,0.2,0.3,0.3C71.3,61.6,71.3,61.5,71.2,61.3C71.2,61.4,71.2,61.3,71.2,61.3z"/>
			<path class="st9" d="M70.5,60.8c-0.1-0.1-0.2-0.1-0.3-0.3C70.4,60.5,70.4,60.6,70.5,60.8C70.5,60.7,70.5,60.8,70.5,60.8z"/>
			<path class="st9" d="M70,60.2c0.1,0.1,0.2,0.1,0.3,0.3C70.1,60.4,70,60.3,70,60.2C69.9,60.2,69.9,60.2,70,60.2z"/>
			<path class="st9" d="M73,61.6c0-0.1,0.1-0.2,0.2-0.2c0,0,0,0,0,0C73.1,61.5,73.1,61.6,73,61.6C73,61.7,73,61.6,73,61.6z"/>
			<path class="st9" d="M73.2,61.4c0-0.1,0.1-0.2,0.2-0.2C73.3,61.3,73.2,61.4,73.2,61.4C73.2,61.4,73.2,61.4,73.2,61.4z"/>
			<path class="st11" d="M65.3,64.4c0,0.2-0.1,0.4-0.3,0.3c0,0-0.1,0,0-0.1c0-0.1,0,0,0.1,0c0.1,0,0.1,0,0.1,0c0,0,0.1-0.1,0-0.2
				c0-0.1-0.1,0-0.1,0c-0.1,0-0.2,0-0.2-0.1c0-0.1,0-0.2,0.1-0.2c0.1,0,0.2,0,0.2,0.1C65.3,64.3,65.3,64.4,65.3,64.4z M65.3,64.3
				c0-0.1,0-0.1-0.1-0.1c-0.1,0-0.1,0.1-0.1,0.1c0,0.1,0,0.1,0.1,0.1C65.2,64.4,65.3,64.4,65.3,64.3z"/>
			<path class="st11" d="M65.8,59c0.1,0.2-0.1,0.4,0.1,0.6c-0.1,0-0.2,0-0.3,0c0.1,0,0.1-0.1,0.1-0.1c0-0.1,0.1-0.3-0.1-0.4
				C65.6,59.1,65.7,59,65.8,59z"/>
			<path class="st11" d="M66.3,59.3c0-0.1,0.1-0.2,0-0.3c-0.1,0-0.1,0-0.2,0.1c0-0.1,0-0.1,0.1-0.1c0.1,0,0.2,0,0.2,0.1
				C66.4,59.2,66.4,59.3,66.3,59.3z"/>
			<path class="st11" d="M66.4,59.6c-0.2,0-0.3,0-0.4,0c0,0-0.1,0,0,0c0,0,0-0.1,0.1,0C66.2,59.6,66.3,59.5,66.4,59.6z"/>
			<path class="st11" d="M69.1,65.9c-0.2,0-0.2-0.1-0.2-0.3c0,0,0-0.1,0-0.1c0-0.1,0-0.1,0-0.2c0.1-0.1,0.2-0.1,0.2,0
				c0.1,0.1,0.1,0.1,0,0.2c0,0,0,0.1,0,0.1C69.3,65.7,69.3,65.9,69.1,65.9z M69.1,65.8c0.1,0,0.1,0,0.1-0.1c0-0.1,0-0.1-0.1-0.1
				c-0.1,0-0.1,0-0.1,0.1C69,65.8,69,65.8,69.1,65.8z M69.1,65.3c-0.1,0-0.1,0.1-0.1,0.1c0,0.1,0,0.1,0.1,0.1c0.1,0,0.1-0.1,0.1-0.1
				C69.2,65.4,69.2,65.3,69.1,65.3z"/>
			<path class="st8" d="M74.2,62.6c0.1,0,0.1,0.1,0.1,0.1c0,0.1,0,0.1-0.1,0.1c-0.1,0-0.1-0.1-0.1-0.1
				C74.1,62.6,74.1,62.6,74.2,62.6z"/>
			<path class="st8" d="M74.3,62.4c0,0.1,0,0.1-0.1,0.1c-0.1,0-0.1,0-0.1-0.1c0-0.1,0-0.1,0.1-0.1C74.2,62.3,74.3,62.4,74.3,62.4z"
				/>
			<path class="st8" d="M70.4,62.4c0,0.1,0,0.2-0.1,0.1c-0.1,0-0.1-0.1-0.1-0.2c0-0.1,0-0.1,0.1-0.1C70.4,62.2,70.4,62.3,70.4,62.4z
				"/>
			<path class="st8" d="M65.3,64.3c0,0.1,0,0.1-0.1,0.1c-0.1,0-0.1-0.1-0.1-0.1c0-0.1,0-0.1,0.1-0.1C65.2,64.2,65.2,64.3,65.3,64.3z
				"/>
			<path class="st8" d="M69.1,65.8c-0.1,0-0.1-0.1-0.1-0.1c0-0.1,0-0.1,0.1-0.1c0.1,0,0.1,0.1,0.1,0.1
				C69.2,65.8,69.2,65.8,69.1,65.8z"/>
			<path class="st8" d="M69.1,65.3c0.1,0,0.1,0.1,0.1,0.1c0,0.1,0,0.1-0.1,0.1c-0.1,0-0.1-0.1-0.1-0.1C69,65.3,69,65.3,69.1,65.3z"
				/>
		</g>
		<path class="st3" d="M49,50.9v22.9h47.7V50.9H49z M94.7,72.8H50.9v-21h43.8V72.8z"/>
		<rect x="49" y="90.2" class="st3" width="47.7" height="1.9"/>
		<rect x="49" y="97.6" class="st3" width="47.7" height="1.9"/>
		<rect x="49" y="105" class="st3" width="47.7" height="1.9"/>
		<rect x="49" y="112.4" class="st3" width="47.7" height="1.9"/>
		<path class="st12" d="M94.7,40.4l2.8,7.8l6.8-0.8C104.2,47.4,103.4,40.9,94.7,40.4z"/>
		<g>
			
				<rect x="74.9" y="76.8" transform="matrix(0.3848 -0.923 0.923 0.3848 -11.2967 141.0644)" class="st13" width="50.5" height="4.5"/>
			<polygon class="st14" points="92.5,103.2 88.9,105.9 88.3,101.5 			"/>
			<polygon class="st14" points="106,80 104.5,79.3 110.8,64.1 108,62.9 108.7,61.3 113,63.2 			"/>
		</g>
		<rect x="49" y="82.2" class="st3" width="47.7" height="1.9"/>
	</g>
</g>
</svg>
