<?xml version="1.0" encoding="utf-8"?>
<!-- Generator: Adobe Illustrator 22.0.1, SVG Export Plug-In . SVG Version: 6.00 Build 0)  -->
<svg version="1.1" id="Capa_1" xmlns="http://www.w3.org/2000/svg" xmlns:xlink="http://www.w3.org/1999/xlink" x="0px" y="0px"
	 viewBox="0 0 166 166" style="enable-background:new 0 0 166 166;" xml:space="preserve">
<style type="text/css">
	.st0{fill:#BA4F0D;}
	.st1{opacity:0.37;fill:#FFFFFF;enable-background:new    ;}
	.st2{fill:url(#SVGID_1_);}
	.st3{fill:#5005AB;}
	.st4{fill:#515151;}
	.st5{fill:#8245D8;}
</style>
<title>btn6vivienda rural</title>
<g id="Planeacion">
	<g id="Layer_1_3_">
		<path class="st0" d="M145.8,30.6V143c0,1.5-1.3,2.8-2.8,2.8H30.6c-0.7,0-1.4-0.3-1.9-0.8l-0.3-0.3l-7.1-7.2l-0.3-0.2
			c-0.5-0.5-0.8-1.2-0.8-1.9V23.1c0-1.6,1.3-2.8,2.8-2.8h112.4c0.7,0,1.5,0.3,2,0.8l0.2,0.2l7.1,7.1l0,0
			C145.4,28.9,145.8,29.7,145.8,30.6z"/>
		<circle class="st1" cx="86.1" cy="83.1" r="50.2"/>
	</g>
	<g>
		
			<linearGradient id="SVGID_1_" gradientUnits="userSpaceOnUse" x1="47.2064" y1="89.4774" x2="124.7936" y2="81.3226" gradientTransform="matrix(1 0 0 -1 0 168)">
			<stop  offset="0.52" style="stop-color:#FCDC59"/>
			<stop  offset="0.52" style="stop-color:#FFF9BF"/>
		</linearGradient>
		<rect x="49.5" y="56.7" class="st2" width="73" height="51.8"/>
		<path class="st3" d="M122.9,54.4H95.2v-0.5c0-1.1-0.9-2-2-2H79c-1.1,0-2,0.9-2,2v0.5H49.3c-1.1,0-2,0.9-2,2v52.3c0,1.1,0.9,2,2,2
			H77v1.6c0,1.1,0.9,2,2,2h14.3c1.1,0,2-0.9,2-2v-1.6H123c1.1,0,2-0.9,2-2V56.4C124.9,55.3,124,54.4,122.9,54.4z M121.8,106.4
			c0,1.1-0.9,2-2,2H52.4c-1.1,0-2-0.9-2-2V58.7c0-1.1,0.9-2,2-2h67.4c1.1,0,2,0.9,2,2V106.4z"/>
		<g>
			<path class="st4" d="M70.1,67.1c-7.9,0-14.3,6.4-14.3,14.3s6.4,14.3,14.3,14.3s14.3-6.4,14.3-14.3H70.1V67.1z"/>
			<path class="st4" d="M70.1,65.9v1.2c7.9,0,14.3,6.4,14.3,14.3h1.2C85.5,72.8,78.6,65.9,70.1,65.9z"/>
		</g>
		<polygon class="st4" points="93.7,88.5 93.7,67.8 91.3,67.8 91.3,88.5 91.3,90.7 93.7,90.7 116.4,90.7 116.4,88.5 		"/>
		<path class="st4" d="M115,103.7H92.8c-0.8,0-1.5-0.7-1.5-1.5l0,0c0-0.8,0.7-1.5,1.5-1.5H115c0.8,0,1.5,0.7,1.5,1.5l0,0
			C116.5,103,115.8,103.7,115,103.7z"/>
		<path class="st4" d="M81.2,103.7H58.9c-0.8,0-1.5-0.7-1.5-1.5l0,0c0-0.8,0.7-1.5,1.5-1.5h22.3c0.8,0,1.5,0.7,1.5,1.5l0,0
			C82.7,103,82,103.7,81.2,103.7z"/>
		<rect x="96.3" y="81.4" class="st4" width="4" height="6.3"/>
		<rect x="102.5" y="78.3" class="st4" width="4" height="9.4"/>
		<rect x="108.5" y="80.9" class="st4" width="4" height="6.8"/>
		<polygon class="st4" points="109.2,70.1 109.2,71.4 110.8,71.4 107.4,74.9 103.7,71.2 96.7,78.2 97.6,79.1 103.7,73.1 107.4,76.7 
			111.8,72.3 111.8,73.8 113.1,73.8 113.1,70.1 		"/>
		<path class="st5" d="M122.9,54.4H95.2v-0.5c0-1.1-0.9-2-2-2h-1.9l-0.5,4.8h29c1.1,0,2,0.9,2,2v47.8c0,1.1-0.9,2-2,2H84.9l-0.7,5.9
			h9c1.1,0,2-0.9,2-2v-1.6h27.7c1.1,0,2-0.9,2-2V56.4C124.9,55.3,124,54.4,122.9,54.4z"/>
	</g>
</g>
</svg>
