<svg id="cabezote" xmlns="http://www.w3.org/2000/svg" viewBox="0 0 67.81 64.22"><defs><style>.cls-1{fill:#fff;fill-rule:evenodd;}</style></defs><title>Artboard 28SOLO</title><path class="cls-1" d="M24.54,42.82A1.5,1.5,0,0,1,23,41.37V39.6a1.06,1.06,0,0,1,.41-.83s6.76-6.76,7.07-7a5,5,0,0,1-.41-2.08,6.19,6.19,0,1,1,6.13,6.13,6.43,6.43,0,0,1-2-.31A13.07,13.07,0,0,0,33,36.69v1.24a1.49,1.49,0,0,1-1.46,1.46h-.83v.83a1.42,1.42,0,0,1-1.45,1.46H28a6.27,6.27,0,0,0-.83.73,1.15,1.15,0,0,1-.94.41ZM26,41.05a6.57,6.57,0,0,0,.84-.72,1.51,1.51,0,0,1,.93-.42h1.15v-.83a1.42,1.42,0,0,1,1.45-1.46h.83v-1a1.3,1.3,0,0,1,.52-1l1-1.14.73-.63.21-.2c0-.11.11-.11.21-.11H34a4.35,4.35,0,0,0,2.18.63,4.37,4.37,0,1,0-4.36-4.37,3.87,3.87,0,0,0,.62,2.18c0,.11.1.11.1.21s-.1.1-.1.21l-.94.83-6.75,6.76v1.14Zm11.34-10a10.66,10.66,0,0,1-2.39-2.5.74.74,0,0,1-.21-.41.39.39,0,0,1,.1-.31A2.94,2.94,0,0,1,36.6,26h.31c.21,0,.42,0,.52.11a14.37,14.37,0,0,1,2.5,2.49A.64.64,0,0,1,40,29h0v.31a2.78,2.78,0,0,1-1.87,1.87h-.31a1.18,1.18,0,0,1-.52-.1ZM38,30a1.5,1.5,0,0,0,.84-.94,10.89,10.89,0,0,0-1.88-2,2,2,0,0,0-.93.94,11.84,11.84,0,0,0,2,2Z"/></svg>