<svg xmlns="http://www.w3.org/2000/svg" viewBox="0 0 67.81 64.22"><defs><style>.cls-1{fill:#00b7ba;}.cls-2{fill:#fff;fill-rule:evenodd;}</style></defs><title>admin_institucionesNORMAL</title><g id="cotas-2" data-name="cotas"><path class="cls-1" d="M54.39,44a5.74,5.74,0,0,1-4.66,6.66L21.57,52.47a5.76,5.76,0,0,1-6.67-4.66L13.41,23.47a5.76,5.76,0,0,1,4.67-6.67l26-5.05a5.74,5.74,0,0,1,6.66,4.66Z"/><path class="cls-2" d="M24,45.84,23.3,42l5-2.15v6.27H24.05Zm-.85-4.62-.79-4.31,5.9-2.56V39Zm-.93-5.06L21.47,32l6.8-3v4.5Zm-.9-4.92-.88-4.78,0-.21.18-.11L27.82,22l.45-.26v6.52ZM40,28.46,47.4,30.2l-.3,1.9L39.27,36ZM47,33l-.5,3.2-7.59,3.65.3-3Zm-.63,4.08-.51,3.32-7.35,3.31.31-3Zm-.65,4.19L45,46.09H38.24l.16-1.55ZM29,19.13l0,10.23,10.53-1.08.45-4.54Zm0,11v2.65l10.19-.94L39.41,29Zm0,3.38v2.76l9.82-.74.29-3Zm0,3.5,0,9.14h8.79l1-9.86Z"/></g></svg>