<svg xmlns="http://www.w3.org/2000/svg" xmlns:xlink="http://www.w3.org/1999/xlink" viewBox="0 0 67.81 64.22"><defs><style>.cls-1{fill:#fff;}.cls-2{fill:#00b7ba;}</style><symbol id="Logo_Lupa" data-name="Logo_Lupa" viewBox="0 0 22.41 21.79"><g id="_Group_" data-name="&lt;Group&gt;"><g id="_Group_2" data-name="&lt;Group&gt;"><g id="_Group_3" data-name="&lt;Group&gt;"><path id="_Path_" data-name="&lt;Path&gt;" class="cls-1" d="M22.22,19.2a.76.76,0,0,0,0-1l-6-5.5a.76.76,0,0,0-1,0L13,15.1a.76.76,0,0,0,0,1l6,5.5a.76.76,0,0,0,1,0Z"/></g></g></g><g id="_Group_4" data-name="&lt;Group&gt;"><path id="_Compound_Path_" data-name="&lt;Compound Path&gt;" class="cls-1" d="M7.92,0a7.8,7.8,0,0,1,7.4,5.3,7.9,7.9,0,0,1-4.9,10,7.46,7.46,0,0,1-2.6.4,7.8,7.8,0,0,1-7.4-5.3A7.93,7.93,0,0,1,5.22.4,13.57,13.57,0,0,1,7.92,0m0,2.1A6.28,6.28,0,0,0,6,2.4H6a5.87,5.87,0,0,0-3.3,2.9,5.61,5.61,0,0,0-.3,4.4,5.8,5.8,0,0,0,5.4,3.9,6.28,6.28,0,0,0,1.9-.3A5.57,5.57,0,0,0,13,10.4a6.09,6.09,0,0,0,.2-4.4,5.68,5.68,0,0,0-5.3-3.9Z"/></g></symbol></defs><title>cancelar</title><g id="insumos"><path class="cls-2" d="M54.39,44a5.74,5.74,0,0,1-4.66,6.66L21.57,52.47a5.76,5.76,0,0,1-6.67-4.66L13.41,23.47a5.76,5.76,0,0,1,4.67-6.67l26-5.05a5.74,5.74,0,0,1,6.66,4.66Z"/><use id="lupa" width="22.41" height="21.79" transform="translate(20.61 20.65) scale(1.17 1.15)" xlink:href="#Logo_Lupa"/></g></svg>