<svg xmlns="http://www.w3.org/2000/svg" viewBox="0 0 67.81 64.22"><defs><style>.cls-1{fill:#00b7ba;}.cls-2{fill:#fff;stroke:#fff;stroke-linecap:round;stroke-linejoin:round;stroke-width:2px;}.cls-3{font-size:22.7px;fill:#be1e2d;font-family:MyriadPro-Regular, Myriad Pro;}</style></defs><title>Cerrar_comentarionormal</title><g id="Layer_11" data-name="Layer 11"><path class="cls-1" d="M53.4,40.36A5.75,5.75,0,0,1,48.74,47L20.58,48.85a5.76,5.76,0,0,1-6.67-4.67L12.42,19.84a5.76,5.76,0,0,1,4.66-6.66l26-5a5.74,5.74,0,0,1,6.66,4.66Z"/><path class="cls-2" d="M32,20c6.14,0,11.12,4,11.12,9A7.79,7.79,0,0,1,41,34.24l2.07,5.14-8.76-1.76c-.91,0-1.94.25-3,.27H31c-5.95,0-10.1-4.08-10.1-8.94s5-9,11.12-9"/><text class="cls-3" transform="matrix(0.74, -0.68, 0.68, 0.74, 31.29, 38.53)">+</text></g></svg>