<svg xmlns="http://www.w3.org/2000/svg" viewBox="0 0 67.81 64.22"><defs><style>.cls-1{fill:#fff;fill-rule:evenodd;}</style></defs><title>dialogoSOLO</title><g id="insumos"><path class="cls-1" d="M22.6,49a3.21,3.21,0,0,0,.17-.66c.19-2.72.65-9.4.69-9.94.95,1.4,6.66,5,8.55,5.5l-8.66,4.81a3,3,0,0,0-.51.44Z"/><path class="cls-1" d="M44.8,23.92l-8.58-5.51c.75-1.27,2.08-3.69,3.74-4a3.22,3.22,0,0,1,2.44.42c1.07.67,2.17,1.31,3.18,2.06a3.2,3.2,0,0,1,1,4.32C46.24,21.77,45.17,23.35,44.8,23.92Z"/><path class="cls-1" d="M35.48,19.48l1.84,1.18c-6.31,9.84-7.06,11-10.56,16.45a.92.92,0,0,1-1.48.29c-.59-.39-.75-.83-.37-1.42C27.81,31.48,34.05,21.7,35.48,19.48Z"/><path class="cls-1" d="M42.3,23.78,44.14,25,33.59,41.41a.93.93,0,0,1-1.49.29c-.59-.38-.75-.82-.37-1.41C34.63,35.78,40.87,26,42.3,23.78Z"/><path class="cls-1" d="M38.17,21.64,41,23.47l-10.89,17c-.4.63-1.15.86-2.16.22s-1.07-1.42-.67-2C30.33,33.92,36.68,24,38.17,21.64Z"/></g></svg>