<svg xmlns="http://www.w3.org/2000/svg" viewBox="0 0 67.81 64.22"><defs><style>.cls-1{fill:#00b7ba;}.cls-2{fill:#4167b0;stroke:#fff;stroke-linecap:round;stroke-linejoin:round;stroke-width:2px;}</style></defs><title>buscar</title><g id="insumos"><path class="cls-1" d="M54.39,44a5.74,5.74,0,0,1-4.66,6.66L21.57,52.47a5.76,5.76,0,0,1-6.67-4.66L13.41,23.47a5.76,5.76,0,0,1,4.67-6.67l26-5.05a5.74,5.74,0,0,1,6.66,4.66Z"/><path class="cls-2" d="M30.56,20.42c6.14,0,11.12,4,11.12,9a7.81,7.81,0,0,1-2.14,5.28l2.07,5.14-8.76-1.76c-.91,0-1.94.25-3,.27h-.35c-6,0-10.1-4.08-10.1-8.94s5-9,11.12-9"/></g></svg>