<svg xmlns="http://www.w3.org/2000/svg" viewBox="0 0 67.81 64.22"><defs><style>.cls-1{fill:#00b7ba;}.cls-2{fill:#fff;fill-rule:evenodd;}</style></defs><title>editar lapiz</title><g id="insumos"><path class="cls-1" d="M54.39,44a5.74,5.74,0,0,1-4.66,6.66L21.57,52.47a5.76,5.76,0,0,1-6.67-4.66L13.41,23.47a5.76,5.76,0,0,1,4.67-6.67l26-5.05a5.74,5.74,0,0,1,6.66,4.66Z"/><path class="cls-2" d="M23.73,20.43a.68.68,0,0,1,.32.18L28,24.55a.77.77,0,0,1,0,1.09L25.9,27.73a.77.77,0,0,1-1.09,0l-3.94-3.94a.7.7,0,0,1-.18-.31,6.38,6.38,0,0,0,6.71,9L40.59,45.69a3.78,3.78,0,0,0,5.35-5.35h0L32.76,27.14a6.38,6.38,0,0,0-9-6.71Z"/></g></svg>