<svg xmlns="http://www.w3.org/2000/svg" viewBox="0 0 67.81 64.22"><defs><style>.cls-1{fill:#fff;fill-rule:evenodd;}.cls-2{fill:none;stroke:#fede06;stroke-linecap:round;stroke-linejoin:round;stroke-width:2px;}</style></defs><title>limpiarSOLO</title><g id="insumos"><path class="cls-1" d="M35.62,27.07a1.73,1.73,0,0,1,1.61.87c.35.64,1.27,2.79.55,2.79-2.45,0-18.47,0-20.92,0-.72,0,.19-2.15.56-2.79a1.7,1.7,0,0,1,1.6-.87Z"/><path class="cls-1" d="M33.48,48.94A1.75,1.75,0,0,0,35.37,47c0-5,1.07-15.09,1.07-15.2H18.2c0,.11,1.06,10.23,1.07,15.2a1.75,1.75,0,0,0,1.89,1.91ZM28.11,42V37.24c0-.6-.4-1-.9-.93s-.67.43-.67,1c0,2.24,0,4.49,0,6.73,0,.92,0,1.83,0,2.74a.89.89,0,0,0,.51.9c.55.21,1.05-.21,1.06-.9Zm-5.77,0v4.6c0,.11,0,.22,0,.34a.82.82,0,0,0,.68.79.77.77,0,0,0,.81-.53,1.81,1.81,0,0,0,.06-.52c0-3.1,0-6.21,0-9.31a2.23,2.23,0,0,0,0-.37.78.78,0,0,0-.68-.68.8.8,0,0,0-.86.9Zm10,0V40.68c0-1.18,0-2.36,0-3.54a.77.77,0,1,0-1.54,0c0,.12,0,.24,0,.37v9.1a3.1,3.1,0,0,0,0,.43.78.78,0,0,0,.53.69c.52.18,1-.22,1-.85Z"/><path class="cls-1" d="M30.54,26.06H24.11A3.12,3.12,0,0,1,27,23.41,3.26,3.26,0,0,1,30.54,26.06Z"/><line class="cls-2" x1="46.96" y1="15.49" x2="38.2" y2="24.25"/><line class="cls-2" x1="38.12" y1="17.68" x2="38.12" y2="24.17"/><line class="cls-2" x1="44.69" y1="24.25" x2="38.2" y2="24.25"/></g></svg>