<svg xmlns="http://www.w3.org/2000/svg" viewBox="0 0 67.81 64.22"><defs><style>.cls-1{fill:#00b7ba;}.cls-2{fill:#fff;}</style></defs><title>exp_datosNORMAL</title><g id="cotas-2" data-name="cotas"><path class="cls-1" d="M54.39,44a5.74,5.74,0,0,1-4.66,6.66L21.57,52.47a5.76,5.76,0,0,1-6.67-4.66L13.41,23.47a5.76,5.76,0,0,1,4.67-6.67l26-5.05a5.74,5.74,0,0,1,6.66,4.66Z"/><polygon class="cls-2" points="42.26 35.21 25.87 35.21 25.87 25.35 24.52 25.35 24.52 36.33 43.69 36.33 43.69 25.35 42.26 25.35 42.26 35.21"/><polygon class="cls-2" points="24.54 42.67 25.41 43.26 29.89 36.56 28.63 36.56 24.54 42.67"/><polygon class="cls-2" points="43.74 42.67 42.87 43.26 38.39 36.56 39.65 36.56 43.74 42.67"/><rect class="cls-2" x="23.12" y="23.43" width="22.01" height="1.56"/><rect class="cls-2" x="21.68" y="23.43" width="1.18" height="1.56"/><rect class="cls-2" x="45.41" y="23.43" width="1.18" height="1.56"/><path class="cls-2" d="M34.13,21.61a3,3,0,0,1,3.1,2H38A3.75,3.75,0,0,0,34.13,21a3.75,3.75,0,0,0-3.88,2.61H31A3,3,0,0,1,34.13,21.61Z"/><rect class="cls-2" x="28.48" y="28.15" width="0.34" height="5.99"/><rect class="cls-2" x="29.26" y="28.96" width="0.34" height="5.18"/><rect class="cls-2" x="30.05" y="26.94" width="0.34" height="7.2"/><rect class="cls-2" x="30.84" y="29.83" width="0.34" height="4.31"/><rect class="cls-2" x="31.62" y="26.63" width="0.34" height="7.51"/><rect class="cls-2" x="32.41" y="27.92" width="0.34" height="6.22"/><rect class="cls-2" x="33.2" y="30.93" width="0.34" height="3.21"/><rect class="cls-2" x="33.98" y="27.2" width="0.34" height="6.94"/><rect class="cls-2" x="34.77" y="29.03" width="0.34" height="5.11"/><rect class="cls-2" x="35.56" y="32.3" width="0.34" height="1.84"/><rect class="cls-2" x="36.34" y="28.29" width="0.34" height="5.85"/><rect class="cls-2" x="37.13" y="30.54" width="0.34" height="3.6"/><rect class="cls-2" x="37.92" y="27.15" width="0.34" height="6.99"/><rect class="cls-2" x="38.7" y="28.41" width="0.34" height="5.73"/><rect class="cls-2" x="39.49" y="31.27" width="0.34" height="2.87"/></g></svg>