<svg xmlns="http://www.w3.org/2000/svg" viewBox="0 0 67.81 64.22"><defs><style>.cls-1{fill:#00b7ba;}.cls-2{fill:#fff;}</style></defs><title>Generar_procesonormal</title><g id="Layer_11" data-name="Layer 11"><path class="cls-1" d="M53.4,41.32A5.75,5.75,0,0,1,48.73,48L20.57,49.81a5.77,5.77,0,0,1-6.67-4.66L12.41,20.8a5.76,5.76,0,0,1,4.67-6.66l26-5.05a5.74,5.74,0,0,1,6.66,4.66Z"/><path class="cls-2" d="M38.27,18.46v-.75a1.56,1.56,0,0,0-1.54-1.56l-2.54,0a2.79,2.79,0,0,0,.34-1.33,2.87,2.87,0,0,0-5.73,0,2.91,2.91,0,0,0,.32,1.34H27.05a1.54,1.54,0,0,0-1.55,1.54v.75l-3.45,0a2.33,2.33,0,0,0-2.35,2.33L19.53,43.8a2.35,2.35,0,0,0,2.33,2.36l19.67.13A2.35,2.35,0,0,0,43.9,44L44,20.85a2.35,2.35,0,0,0-2.33-2.37ZM30,14.78a1.71,1.71,0,1,1,3.41,0,1.75,1.75,0,0,1-.65,1.33H30.61A1.74,1.74,0,0,1,30,14.78ZM41.56,42.55A1.44,1.44,0,0,1,40.11,44l-16.79-.11a1.43,1.43,0,0,1-1.43-1.45L22,22.14a1.45,1.45,0,0,1,1.45-1.43l2,0a1.15,1.15,0,0,0,1.14,1.15L37.09,22a1.15,1.15,0,0,0,1.16-1.14h2a1.45,1.45,0,0,1,1.43,1.45Zm0,0"/><path class="cls-2" d="M25.1,30.31a3.71,3.71,0,0,0,.35.85l-.43.55a.45.45,0,0,0,0,.59l.75.74a.43.43,0,0,0,.59,0l.54-.43a4.08,4.08,0,0,0,.89.37l.08.7a.45.45,0,0,0,.44.4h1.05a.45.45,0,0,0,.45-.4l.07-.67a4.39,4.39,0,0,0,.95-.38l.53.41a.44.44,0,0,0,.59,0l.74-.75a.44.44,0,0,0,0-.59l-.41-.52a3.82,3.82,0,0,0,.39-.93l.63-.07a.45.45,0,0,0,.39-.44V28.69a.45.45,0,0,0-.39-.44l-.62-.07a3.88,3.88,0,0,0-.38-.92l.38-.48a.45.45,0,0,0,0-.6L32,25.44a.44.44,0,0,0-.59,0l-.47.37a3.77,3.77,0,0,0-1-.41l-.07-.6a.45.45,0,0,0-.44-.4H28.38a.45.45,0,0,0-.44.4l-.07.6a4.34,4.34,0,0,0-1,.42l-.49-.38a.44.44,0,0,0-.59,0l-.75.75a.44.44,0,0,0,0,.59l.41.51a3.54,3.54,0,0,0-.37.93l-.65.07a.45.45,0,0,0-.39.45v1.05a.44.44,0,0,0,.39.44Zm3.81-2.85a1.75,1.75,0,1,1-1.74,1.74,1.74,1.74,0,0,1,1.74-1.74Zm0,0"/><path class="cls-2" d="M39.32,30.57l-.55-.47a.44.44,0,0,0-.59,0l-.31.29a3,3,0,0,0-.81-.27L37,29.72a.44.44,0,0,0-.47-.35l-.73.06a.44.44,0,0,0-.4.42v.43a3.29,3.29,0,0,0-.79.41l-.36-.24a.44.44,0,0,0-.58.08l-.47.56a.44.44,0,0,0,0,.59l.33.34a2.71,2.71,0,0,0-.24.78l-.46.1a.43.43,0,0,0-.35.47l.06.72a.43.43,0,0,0,.42.4l.5,0a3.28,3.28,0,0,0,.35.67l-.28.42a.45.45,0,0,0,.09.58l.55.47a.44.44,0,0,0,.59,0l.36-.34a3.31,3.31,0,0,0,.75.25l.1.49a.45.45,0,0,0,.47.36l.72-.07a.45.45,0,0,0,.41-.42v-.49A2.94,2.94,0,0,0,38.3,36l.4.27a.45.45,0,0,0,.58-.08l.47-.56a.44.44,0,0,0,0-.59l-.32-.34a3.09,3.09,0,0,0,.25-.78l.44-.09a.46.46,0,0,0,.36-.47l-.06-.73a.44.44,0,0,0-.43-.4l-.44,0a3.27,3.27,0,0,0-.37-.72l.24-.37a.44.44,0,0,0-.08-.58Zm-2.73,4.19a1.43,1.43,0,1,1-.24-2.84,1.44,1.44,0,0,1,1.54,1.3,1.42,1.42,0,0,1-1.3,1.54Zm0,0"/><path class="cls-2" d="M27.63,36.71a.44.44,0,0,0-.39.44v.44a.44.44,0,0,0,.39.45l.32,0a2.87,2.87,0,0,0,.24.57l-.21.26a.43.43,0,0,0,0,.59l.31.31a.43.43,0,0,0,.59,0l.26-.2a2.58,2.58,0,0,0,.59.26l0,.34a.44.44,0,0,0,.44.39h.44a.45.45,0,0,0,.45-.39l0-.32a2.44,2.44,0,0,0,.63-.25l.25.2a.44.44,0,0,0,.58,0l.32-.31A.44.44,0,0,0,33,39l-.18-.25a2.73,2.73,0,0,0,.26-.61l.3,0a.44.44,0,0,0,.39-.44V37.2a.45.45,0,0,0-.39-.45l-.28,0a3.07,3.07,0,0,0-.24-.62l.17-.22a.44.44,0,0,0,0-.58L32.66,35a.43.43,0,0,0-.58,0l-.21.16a2.66,2.66,0,0,0-.65-.28l0-.28a.44.44,0,0,0-.44-.39h-.44a.45.45,0,0,0-.45.39l0,.27a3,3,0,0,0-.67.27L29,34.9a.42.42,0,0,0-.58,0l-.33.32a.44.44,0,0,0,0,.58l.19.24a2.78,2.78,0,0,0-.25.62Zm2.88-.5a1.16,1.16,0,1,1-1.17,1.15,1.16,1.16,0,0,1,1.17-1.15Zm0,0"/></g></svg>