<svg xmlns="http://www.w3.org/2000/svg" viewBox="0 0 67.81 64.22"><defs><style>.cls-1{fill:#00b7ba;}.cls-2{fill:none;stroke:#fff;stroke-miterlimit:10;stroke-width:2.17px;}.cls-3{fill:#fff;}.cls-4{fill:#e6e6e6;}</style></defs><title>Guardar_parcialmentenormal</title><g id="Layer_11" data-name="Layer 11"><path class="cls-1" d="M54.4,41.34A5.75,5.75,0,0,1,49.73,48L21.57,49.83a5.77,5.77,0,0,1-6.67-4.66L13.41,20.83a5.76,5.76,0,0,1,4.67-6.67l26-5.05a5.74,5.74,0,0,1,6.66,4.66Z"/><path class="cls-2" d="M44.57,39.2A13.39,13.39,0,1,1,46.9,26"/><polygon class="cls-3" points="43.41 25.73 47.71 30.58 49.76 24.42 43.41 25.73"/><path class="cls-4" d="M36.29,30.94a2,2,0,1,1-2-2A2,2,0,0,1,36.29,30.94Z"/><polyline class="cls-2" points="34.31 23.31 34.31 30.9 43.22 33.19"/></g></svg>