<svg xmlns="http://www.w3.org/2000/svg" viewBox="0 0 67.81 64.22"><defs><style>.cls-1{fill:#00b7ba;}.cls-2{fill:#fff;}.cls-3{fill:#0593aa;}</style></defs><title>guardarNORMAL</title><g id="cotas-2" data-name="cotas"><path class="cls-1" d="M53.87,43.85a5.75,5.75,0,0,1-4.66,6.67L21.05,52.34a5.75,5.75,0,0,1-6.67-4.66L12.89,23.34a5.75,5.75,0,0,1,4.66-6.66l26-5.06a5.76,5.76,0,0,1,6.66,4.67Z"/><path class="cls-2" d="M43.3,45.54h-3V45c0-.24,0-.24-.26-.24H27.43v.76h-3c0-.2,0-.41,0-.61s-.05-.16-.16-.15a8.61,8.61,0,0,1-.88,0,1.61,1.61,0,0,1-.6-.22,1.12,1.12,0,0,1-.45-1q0-10.37,0-20.74v-.21a1,1,0,0,1,.36-.77,4,4,0,0,1,.52-.31H44.76l0,0a1.2,1.2,0,0,1,.87,1.3c0,2,0,4,0,6.05,0,4.88,0,9.76,0,14.65a1.44,1.44,0,0,1-.09.58,1,1,0,0,1-1,.68H43.3Z"/><path class="cls-3" d="M24.61,23.75V42.53H43.4V23.75Z"/><rect class="cls-2" x="21.11" y="24.88" width="1.9" height="5.1"/><rect class="cls-2" x="21.11" y="36.06" width="1.9" height="5.1"/><rect class="cls-2" x="26.47" y="25.61" width="15.06" height="15.06"/><path class="cls-3" d="M31.94,33.33a1.72,1.72,0,0,1,1.78-1.65,1.7,1.7,0,0,1-.13,3.4A1.73,1.73,0,0,1,31.94,33.33Z"/><circle class="cls-3" cx="34" cy="33.14" r="3.39"/><path class="cls-3" d="M34,32.72h0a.77.77,0,0,1-.76-.76V28a.76.76,0,0,1,.76-.75h0a.76.76,0,0,1,.76.75V32A.76.76,0,0,1,34,32.72Z"/><path class="cls-3" d="M34.3,32.84h0a.77.77,0,0,1,0-1.07L37.08,29a.76.76,0,0,1,1.08,0h0a.77.77,0,0,1,0,1.07l-2.79,2.78A.75.75,0,0,1,34.3,32.84Z"/><path class="cls-3" d="M34.42,33.14h0a.77.77,0,0,1,.76-.76h3.94a.76.76,0,0,1,.76.76h0a.76.76,0,0,1-.76.76H35.18A.77.77,0,0,1,34.42,33.14Z"/><path class="cls-3" d="M34.3,33.44h0a.75.75,0,0,1,1.07,0l2.79,2.78a.77.77,0,0,1,0,1.07h0a.76.76,0,0,1-1.08,0L34.3,34.51A.77.77,0,0,1,34.3,33.44Z"/><path class="cls-3" d="M34,33.56h0a.76.76,0,0,1,.76.76v3.94A.76.76,0,0,1,34,39h0a.76.76,0,0,1-.76-.75V34.32A.77.77,0,0,1,34,33.56Z"/><path class="cls-3" d="M33.7,33.44h0a.75.75,0,0,1,0,1.07l-2.78,2.78a.75.75,0,0,1-1.07,0h0a.75.75,0,0,1,0-1.07l2.78-2.78A.75.75,0,0,1,33.7,33.44Z"/><path class="cls-3" d="M33.58,33.14h0a.76.76,0,0,1-.76.76H28.89a.76.76,0,0,1-.76-.76h0a.76.76,0,0,1,.76-.76h3.93A.76.76,0,0,1,33.58,33.14Z"/><path class="cls-3" d="M33.7,32.84h0a.75.75,0,0,1-1.07,0l-2.78-2.78a.75.75,0,0,1,0-1.07h0a.75.75,0,0,1,1.07,0l2.78,2.78A.75.75,0,0,1,33.7,32.84Z"/><circle class="cls-2" cx="34" cy="33.14" r="2.11"/></g></svg>