<?xml version="1.0" encoding="utf-8"?>
<!-- Generator: Adobe Illustrator 22.0.1, SVG Export Plug-In . SVG Version: 6.00 Build 0)  -->
<svg version="1.1" id="Capa_1" xmlns="http://www.w3.org/2000/svg" xmlns:xlink="http://www.w3.org/1999/xlink" x="0px" y="0px"
	 viewBox="0 0 67.8 64.2" style="enable-background:new 0 0 67.8 64.2;" xml:space="preserve">
<style type="text/css">
	.st0{fill:#00B7BA;}
	.st1{fill:none;stroke:#FFFFFF;stroke-width:2;stroke-miterlimit:10;}
	.st2{fill:#FFFFFF;}
</style>
<title>enviarNORMAL</title>
<g id="cotas-2">
	<path class="st0" d="M53.9,43.5c0.6,3.1-1.5,6.1-4.7,6.7c0,0,0,0,0,0L21,52c-3.1,0.6-6.1-1.5-6.7-4.7L12.9,23
		c-0.5-3.1,1.5-6.1,4.7-6.7l26-5c3.1-0.5,6.1,1.6,6.6,4.7L53.9,43.5z"/>
	<g>
		<path class="st1" d="M21.7,25.4h7.5c0.6,0,1.1-0.5,1.1-1.1v0c0-0.6,0.5-1.1,1.1-1.1h7.7c0.6,0,1.1,0.5,1.1,1.1v0
			c0,0.6,0.5,1.1,1.1,1.1h3.5c0.6,0,1.1,0.5,1.1,1.1v14.8c0,0.6-0.5,1.1-1.1,1.1H21.7c-0.6,0-1.1-0.5-1.1-1.1V26.5
			C20.6,25.9,21.1,25.4,21.7,25.4z"/>
		<circle class="st1" cx="35.5" cy="34" r="4.9"/>
		<rect x="23.5" y="28" class="st2" width="2" height="2"/>
		<rect x="23.5" y="22.2" class="st2" width="3.9" height="3.3"/>
	</g>
</g>
</svg>
