<svg xmlns="http://www.w3.org/2000/svg" viewBox="0 0 67.81 64.22"><defs><style>.cls-1{fill:#0593aa;}.cls-2{fill:#fff;}</style></defs><title>limpiar completo</title><g id="insumos"><path class="cls-1" d="M52,42.6a5.08,5.08,0,0,1-4.12,5.89L23,50.1A5.08,5.08,0,0,1,17.11,46L15.8,24.47a5.08,5.08,0,0,1,4.12-5.89l22.95-4.46a5.08,5.08,0,0,1,5.89,4.12Z"/><g id="_Group_" data-name="&lt;Group&gt;"><path id="_Path_" data-name="&lt;Path&gt;" class="cls-2" d="M41.27,25.28l3.5-3.5a.86.86,0,1,0-1.21-1.21l-3.5,3.5-3.51,3.52-5.71,5.7,1.21,1.21,5.7-5.71,2.61-2.61"/><rect id="_Path_2" data-name="&lt;Path&gt;" class="cls-2" x="30.23" y="31.29" width="5.93" height="1.71" transform="translate(-13.01 32.89) rotate(-45)"/><path id="_Compound_Path_" data-name="&lt;Compound Path&gt;" class="cls-2" d="M30.84,33.29h-5.4L28.13,36l1.21,1.21L32,39.9l0-5.4Zm-.31,2.57a.74.74,0,1,1,0-1A.73.73,0,0,1,30.53,35.86Z"/><polygon id="_Path_3" data-name="&lt;Path&gt;" class="cls-2" points="31.89 34.34 31.89 34.34 31.89 34.34 30.84 33.29 25.44 33.3 26.59 34.46 31.89 34.34"/><path id="_Path_4" data-name="&lt;Path&gt;" class="cls-2" d="M31.35,40.53,24.8,34a.46.46,0,0,0-.59,0L19.5,37.56a.43.43,0,0,0-.17.33.45.45,0,0,0,.13.35l7.64,7.64a.44.44,0,0,0,.32.13h0a.47.47,0,0,0,.33-.17l3.61-4.71A.47.47,0,0,0,31.35,40.53Z"/><g id="_Group_2" data-name="&lt;Group&gt;"><path id="_Path_5" data-name="&lt;Path&gt;" class="cls-1" d="M27.76,42.08a.44.44,0,0,0-.6.07l-1.69,2.1.6.61,0,0,1.72-2.14A.44.44,0,0,0,27.76,42.08Z"/><path id="_Path_6" data-name="&lt;Path&gt;" class="cls-1" d="M25.69,40.55l-1.88,2,.6.6h0l1.89-2.06a.43.43,0,0,0,0-.6A.42.42,0,0,0,25.69,40.55Z"/><path id="_Path_7" data-name="&lt;Path&gt;" class="cls-1" d="M24.18,39.07l-2,1.85h0l.6.6,2-1.84a.42.42,0,0,0,0-.59A.42.42,0,0,0,24.18,39.07Z"/><path id="_Path_8" data-name="&lt;Path&gt;" class="cls-1" d="M21.08,39.87l2.15-1.74a.41.41,0,0,0,.07-.59.43.43,0,0,0-.6-.07l-2.18,1.76a.08.08,0,0,0,0,0Z"/></g><path id="_Path_9" data-name="&lt;Path&gt;" class="cls-2" d="M20.18,38.75a.44.44,0,0,1,.18-.33L25,34.84a.71.71,0,0,1,.09-.53L24.8,34a.46.46,0,0,0-.59,0L19.5,37.56a.43.43,0,0,0-.17.33.45.45,0,0,0,.13.35l.83.83A.42.42,0,0,1,20.18,38.75Z"/><path id="_Path_10" data-name="&lt;Path&gt;" class="cls-2" d="M31,41l-6.6-6.6a.75.75,0,0,1,1.06-1.06L32,39.9A.75.75,0,1,1,31,41Z"/><path id="_Path_11" data-name="&lt;Path&gt;" class="cls-2" d="M24.3,33.39l0,0v0l0,.05v0l0,.08h0s0,.06,0,.08v0a.13.13,0,0,0,0,.06v.09h0s0,.06,0,.09a.76.76,0,0,0,.21.38l.55.55.1-.07a.75.75,0,0,1,1.26-.68h0l-.85-.86a.75.75,0,0,0-1.06,0l-.06.07Z"/></g></g></svg>