<svg xmlns="http://www.w3.org/2000/svg" viewBox="0 0 67.81 64.22"><defs><style>.cls-1{fill:#fff;}.cls-2{fill:#0593aa;}</style></defs><title>limpiar_1</title><g id="insumos"><g id="_Group_" data-name="&lt;Group&gt;"><path id="_Path_" data-name="&lt;Path&gt;" class="cls-1" d="M43,24.22l3.5-3.5a.86.86,0,0,0-1.21-1.21L41.79,23l-3.51,3.52-5.71,5.71,1.21,1.2,5.71-5.71,2.61-2.61"/><rect id="_Path_2" data-name="&lt;Path&gt;" class="cls-1" x="31.97" y="30.23" width="5.93" height="1.71" transform="translate(-11.75 33.8) rotate(-45)"/><path id="_Compound_Path_" data-name="&lt;Compound Path&gt;" class="cls-1" d="M32.57,32.24h-5.4l2.7,2.69,1.2,1.21,2.7,2.69v-5.4Zm-.3,2.56a.75.75,0,0,1-1.06-1,.75.75,0,0,1,1.06,0A.74.74,0,0,1,32.27,34.8Z"/><polygon id="_Path_3" data-name="&lt;Path&gt;" class="cls-1" points="33.62 33.28 33.62 33.28 33.62 33.28 32.57 32.23 27.17 32.25 28.33 33.41 33.62 33.28"/><path id="_Path_4" data-name="&lt;Path&gt;" class="cls-1" d="M33.08,39.48l-6.54-6.55a.47.47,0,0,0-.6,0l-4.7,3.61a.44.44,0,0,0-.18.33.45.45,0,0,0,.13.35l7.64,7.64a.45.45,0,0,0,.32.14h0a.43.43,0,0,0,.33-.17l3.61-4.71A.44.44,0,0,0,33.08,39.48Z"/><g id="_Group_2" data-name="&lt;Group&gt;"><path id="_Path_5" data-name="&lt;Path&gt;" class="cls-2" d="M29.49,41a.43.43,0,0,0-.59.07L27.21,43.2l.6.6,0,0,1.72-2.14A.42.42,0,0,0,29.49,41Z"/><path id="_Path_6" data-name="&lt;Path&gt;" class="cls-2" d="M27.42,39.49l-1.88,2,.6.6h0l1.89-2.06a.44.44,0,0,0,0-.6A.43.43,0,0,0,27.42,39.49Z"/><path id="_Path_7" data-name="&lt;Path&gt;" class="cls-2" d="M25.91,38l-2,1.85h0l.6.6,2-1.83a.42.42,0,0,0-.57-.63Z"/><path id="_Path_8" data-name="&lt;Path&gt;" class="cls-2" d="M22.82,38.81,25,37.07a.42.42,0,0,0,.06-.59.43.43,0,0,0-.59-.07l-2.19,1.77,0,0Z"/></g><path id="_Path_9" data-name="&lt;Path&gt;" class="cls-1" d="M21.91,37.69a.48.48,0,0,1,.18-.33l4.67-3.58a.71.71,0,0,1,.09-.53l-.31-.32a.47.47,0,0,0-.6,0l-4.7,3.61a.44.44,0,0,0-.18.33.45.45,0,0,0,.13.35L22,38A.46.46,0,0,1,21.91,37.69Z"/><path id="_Path_10" data-name="&lt;Path&gt;" class="cls-1" d="M32.71,39.9l-6.6-6.6a.75.75,0,0,1,1.06-1l6.6,6.59a.75.75,0,1,1-1.06,1.06Z"/><path id="_Path_11" data-name="&lt;Path&gt;" class="cls-1" d="M26,32.33l0,.05v0l0,.05v0l0,.08h0s0,.06,0,.08v0a.13.13,0,0,1,0,.06v.11a.25.25,0,0,0,0,.08.74.74,0,0,0,.2.38l.55.55.1-.07A.75.75,0,0,1,28,33.1h0l-.85-.85a.74.74,0,0,0-1.06,0l-.06.06Z"/></g></g></svg>