<?xml version="1.0" encoding="utf-8"?>
<!-- Generator: Adobe Illustrator 22.0.1, SVG Export Plug-In . SVG Version: 6.00 Build 0)  -->
<svg version="1.1" id="Capa_1" xmlns="http://www.w3.org/2000/svg" xmlns:xlink="http://www.w3.org/1999/xlink" x="0px" y="0px"
	 viewBox="0 0 67.8 64.2" style="enable-background:new 0 0 67.8 64.2;" xml:space="preserve">
<style type="text/css">
	.st0{fill:#00B7BA;}
	.st1{fill:#FFFFFF;}
</style>
<g id="cotas-2">
	<path class="st0" d="M53.9,43.5c0.6,3.1-1.5,6.1-4.7,6.7l0,0L21,52c-3.1,0.6-6.1-1.5-6.7-4.7L12.9,23c-0.5-3.1,1.5-6.1,4.7-6.7
		l26-5c3.1-0.5,6.1,1.6,6.6,4.7L53.9,43.5z"/>
	<g>
		<path class="st1" d="M33.4,44.7c-2.5,0-5.1,0-7.6,0c-2.6,0-4.2-1.6-4.2-4.2c0-5,0-10.1,0-15.1c0-2.6,1.6-4.3,4.3-4.3
			c2.4,0,4.8,0,7.3,0c0.6,0,1.1,0.2,1.4,0.7c0.5,0.9-0.2,1.9-1.3,1.9c-2.2,0-4.4,0-6.6,0c-2.2,0-2.4,0.1-2.4,2.4c0,4.7,0,9.5,0,14.2
			c0,1.3,0.4,1.7,1.7,1.7c5,0,10,0,14.9,0c1.3,0,1.7-0.4,1.7-1.7c0-2.4,0-4.8,0-7.2c0-1,0.6-1.6,1.5-1.5c0.7,0.1,1.1,0.6,1.1,1.3
			c0,2.7,0.1,5.4,0,8c-0.1,2.2-1.8,3.7-4,3.7C38.5,44.7,36,44.7,33.4,44.7z"/>
		<path class="st1" d="M40.5,23.7c-0.6,0-1.2,0-1.7,0c-0.9,0-1.5-0.5-1.4-1.4c0-0.8,0.6-1.3,1.5-1.3c1.6,0,3.3,0,4.9,0
			c1,0,1.5,0.5,1.5,1.5c0,1.7,0,3.3,0,5c0,0.9-0.5,1.4-1.3,1.4c-0.8,0-1.3-0.5-1.3-1.4c0-0.6,0-1.2,0-1.9c-0.3,0.3-0.5,0.4-0.6,0.6
			c-2.5,2.5-5,5-7.5,7.5c-0.4,0.4-0.9,0.7-1.4,0.4c-0.4-0.2-0.8-0.7-0.8-1.1c0-0.4,0.2-0.9,0.5-1.3c2.4-2.5,4.9-4.9,7.4-7.4
			c0.2-0.2,0.4-0.3,0.6-0.4C40.6,23.9,40.5,23.8,40.5,23.7z"/>
	</g>
</g>
</svg>
