<svg xmlns="http://www.w3.org/2000/svg" viewBox="0 0 67.81 64.22"><defs><style>.cls-1{fill:#00b7ba;}.cls-2{fill:#fff;}.cls-3{fill:none;stroke:#fff;stroke-linecap:round;stroke-linejoin:round;stroke-width:2.98px;}</style></defs><title>acceder</title><g id="insumos"><path class="cls-1" d="M54.39,44a5.74,5.74,0,0,1-4.66,6.66L21.57,52.47a5.76,5.76,0,0,1-6.67-4.66L13.41,23.47a5.76,5.76,0,0,1,4.67-6.67l26-5.05a5.74,5.74,0,0,1,6.66,4.66Z"/><g id="_Group_" data-name="&lt;Group&gt;"><g id="_Group_2" data-name="&lt;Group&gt;"><g id="_Group_3" data-name="&lt;Group&gt;"><path id="_Path_" data-name="&lt;Path&gt;" class="cls-2" d="M44.31,45.88a.83.83,0,0,0,0-1.14l-7-6.31a.91.91,0,0,0-1.17,0l-2.58,2.75a.86.86,0,0,0,0,1.15l7,6.3a.9.9,0,0,0,1.17,0Z"/></g></g></g><g id="_Group_4" data-name="&lt;Group&gt;"><path id="_Compound_Path_" data-name="&lt;Compound Path&gt;" class="cls-2" d="M27.55,23.87A9.12,9.12,0,0,1,36.22,30a9.06,9.06,0,0,1-8.79,11.92,9,9,0,0,1-3.05-17.54,16.28,16.28,0,0,1,3.17-.46m0,2.41a7.55,7.55,0,0,0-2.23.34h0A6.81,6.81,0,0,0,21.45,30a6.32,6.32,0,0,0-.35,5,6.79,6.79,0,0,0,6.33,4.47,7.45,7.45,0,0,0,2.23-.34,6.49,6.49,0,0,0,3.87-3.33,6.83,6.83,0,0,0,.23-5,6.63,6.63,0,0,0-6.21-4.47Z"/></g><line class="cls-3" x1="40.99" y1="16.08" x2="40.99" y2="29.2"/><line class="cls-3" x1="34.43" y1="22.64" x2="47.55" y2="22.64"/></g></svg>