<?xml version="1.0" encoding="utf-8"?>
<!-- Generator: Adobe Illustrator 22.0.1, SVG Export Plug-In . SVG Version: 6.00 Build 0)  -->
<svg version="1.1" id="Capa_1" xmlns="http://www.w3.org/2000/svg" xmlns:xlink="http://www.w3.org/1999/xlink" x="0px" y="0px"
	 viewBox="0 0 67.8 64.2" style="enable-background:new 0 0 67.8 64.2;" xml:space="preserve">
<style type="text/css">
	.st0{fill:#00B7BA;}
	.st1{fill:none;stroke:#FFFFFF;stroke-width:2;stroke-miterlimit:10;}
	.st2{fill:#FFFFFF;stroke:#FFFFFF;stroke-miterlimit:10;}
</style>
<title>enviarNORMAL</title>
<g id="cotas-2">
	<path class="st0" d="M53.9,43.5c0.6,3.1-1.5,6.1-4.7,6.7l0,0L21,52c-3.1,0.6-6.1-1.5-6.7-4.7L12.9,23c-0.5-3.1,1.5-6.1,4.7-6.7
		l26-5c3.1-0.5,6.1,1.6,6.6,4.7L53.9,43.5z"/>
	<g>
		<path class="st1" d="M18.2,33c0,0,6.7-7.9,15.2-7.9c8.8,0,15.3,7.9,15.3,7.9s-6.9,7.9-15.3,7.9C24.7,40.9,18.2,33,18.2,33z"/>
		<circle class="st2" cx="33.4" cy="31.9" r="3"/>
		<path class="st1" d="M42.6,31.7c0-1.6-0.4-3.1-1.2-4.4c-2.3-1.2-5-2.1-8-2.1c-2.9,0-5.6,0.9-7.9,2.2c-0.7,1.3-1.1,2.8-1.1,4.4
			c0,5,4.1,9.1,9.1,9.1C38.5,40.8,42.6,36.7,42.6,31.7z"/>
	</g>
</g>
</svg>
