<svg xmlns="http://www.w3.org/2000/svg" viewBox="0 0 67.81 64.22"><defs><style>.cls-1{fill:#00b7ba;}.cls-2{fill:none;stroke:#ffcd34;stroke-linejoin:round;stroke-width:2px;}.cls-3{fill:#fff;}</style></defs><title>exportar</title><g id="insumos"><path class="cls-1" d="M54.39,44a5.74,5.74,0,0,1-4.66,6.66L21.57,52.47a5.76,5.76,0,0,1-6.67-4.66L13.41,23.47a5.76,5.76,0,0,1,4.67-6.67l26-5.05a5.74,5.74,0,0,1,6.66,4.66Z"/><polygon class="cls-2" points="22.29 34.1 44.16 34.12 47.79 44.58 17.85 44.58 22.29 34.1"/><path class="cls-3" d="M32.72,19.64c-2.14,0-6.2.53-6.2,5.94,0,4,6.2,16.21,6.2,16.21s6.4-12.25,6.4-16C39.12,20.08,34.93,19.63,32.72,19.64Zm.1,8.92A2.56,2.56,0,1,1,35.38,26,2.56,2.56,0,0,1,32.82,28.56Z"/></g></svg>