<svg xmlns="http://www.w3.org/2000/svg" viewBox="0 0 166 166"><defs><style>.cls-1{isolation:isolate;}.cls-2{fill:#f6b900;}.cls-3{fill:#fff;opacity:0.37;}.cls-4{fill:#936052;}.cls-5{fill:#a36652;}.cls-6{fill:#e2b74b;}.cls-7{fill:#272525;opacity:0.1;mix-blend-mode:multiply;}</style></defs><title>btn6vivienda rural</title><g class="cls-1"><g id="Layer_1" data-name="Layer 1"><path class="cls-2" d="M145.76,30.59V142.94a2.82,2.82,0,0,1-2.81,2.81H30.59a2.71,2.71,0,0,1-1.9-.76l-.27-.26-7.15-7.16-.25-.24a2.69,2.69,0,0,1-.78-1.92V23.06a2.81,2.81,0,0,1,2.81-2.81H135.41a2.8,2.8,0,0,1,2,.8l.2.21,7.11,7.13,0,0A2.79,2.79,0,0,1,145.76,30.59Z"/><circle class="cls-3" cx="86.11" cy="83.11" r="50.23"/><rect class="cls-4" x="61.43" y="61.66" width="22.34" height="15.04" transform="translate(-27.67 70.93) rotate(-44.61)"/><path class="cls-5" d="M71.28,85.38l-.86.85c-1.29,1.26-3.86.74-5.74-1.18l-8.05-8.18c-1.88-1.92-2.36-4.49-1.08-5.76l.86-.84c.47-.46,1.4-.27,2.09.42l12.39,12.6C71.57,84,71.74,84.92,71.28,85.38Z"/><path class="cls-4" d="M69.25,86.85a5.3,5.3,0,0,1-4.57-1.8l-8.05-8.18a5.27,5.27,0,0,1-1.71-4.59Z"/><path class="cls-5" d="M88.45,68.55l.86-.85c1.3-1.28.8-3.88-1.1-5.8l-8.14-8.22c-1.9-1.92-4.49-2.45-5.79-1.17l-.86.86c-.47.46-.29,1.41.4,2.1L86.35,68.13C87,68.83,88,69,88.45,68.55Z"/><path class="cls-4" d="M90,66.53a5.36,5.36,0,0,0-1.75-4.63l-8.14-8.22a5.33,5.33,0,0,0-4.6-1.79Z"/><path class="cls-6" d="M85.28,69.79,83.66,71a46.71,46.71,0,0,0-9.5,9.39L73,81.87,59.92,68.57l2.35-1.51a28.53,28.53,0,0,0,8.26-8.12l1.64-2.44Z"/><rect class="cls-5" x="77.63" y="53.83" width="1.4" height="19.39" rx="0.69" ry="0.69" transform="translate(-22.05 73.32) rotate(-44.62)"/><rect class="cls-5" x="65.5" y="65.8" width="1.4" height="19.39" rx="0.69" ry="0.69" transform="translate(-33.95 68.25) rotate(-44.62)"/><path class="cls-4" d="M120.47,112.64,85.18,79.32l-1.89,2.49,32.95,35.06c2.13,2.23,3.43,2,4.62.79S122.69,114.8,120.47,112.64Z"/><path class="cls-4" d="M86.7,77.91c-.28-.28-.94-.09-1.58.42-.63-2.28-2-4.54-4.28-5.09l-.57.51-2.81,2.74-.52.55c.54,2.31,2.81,3.69,5.1,4.33-.53.64-.74,1.32-.46,1.61h0c.33.33,1.18,0,1.9-.69L86,79.81c.72-.71,1-1.56.71-1.89Z"/><path class="cls-6" d="M74.83,47.62l-4.55-2.86a.93.93,0,0,1-.23-1.37h0a.93.93,0,0,1,1.43-.05l3.62,4A.22.22,0,0,1,74.83,47.62Z"/><path class="cls-6" d="M78.92,46.7l3.14-3.61a.82.82,0,0,1,1.24,0h0a.83.83,0,0,1-.15,1.26l-4,2.64A.19.19,0,0,1,78.92,46.7Z"/><path class="cls-6" d="M76.85,45.86l-.48-5.2a.91.91,0,0,1,.92-1h0a.9.9,0,0,1,.88,1.07l-.92,5.14A.21.21,0,0,1,76.85,45.86Z"/><path class="cls-4" d="M78.63,117.38h-22v-1.63a2.21,2.21,0,0,1,2.21-2.22H76.42a2.21,2.21,0,0,1,2.21,2.22Z"/><rect class="cls-5" x="54.26" y="115.72" width="27.16" height="2.83" rx="0.51" ry="0.51"/><path class="cls-7" d="M78.63,115.75h-22v-.31a.36.36,0,0,1,.36-.35l21.56.5Z"/></g></g></svg>