<?xml version="1.0" encoding="utf-8"?>
<!-- Generator: Adobe Illustrator 22.0.1, SVG Export Plug-In . SVG Version: 6.00 Build 0)  -->
<svg version="1.1" id="Layer_1" xmlns="http://www.w3.org/2000/svg" xmlns:xlink="http://www.w3.org/1999/xlink" x="0px" y="0px"
	 viewBox="0 0 166 166" style="enable-background:new 0 0 166 166;" xml:space="preserve">
<style type="text/css">
	.st0{fill:#64B66E;}
	.st1{opacity:0.5;}
	.st2{fill:#FFFFFF;}
	.st3{fill:#94C3CF;}
	.st4{fill:#147883;}
	.st5{fill:#00303D;}
	.st6{fill:#808080;}
	.st7{fill:#EEFCFF;}
	.st8{fill:none;stroke:#EEFCFF;stroke-width:0.5;stroke-miterlimit:10;}
</style>
<title>btn1vivienda rural</title>
<path class="st0" d="M145.8,30.6v112.4c0,1.5-1.3,2.8-2.8,2.8H30.6c-0.7,0-1.4-0.3-1.9-0.8l-0.3-0.3l-7.1-7.2l-0.3-0.2
	c-0.5-0.5-0.8-1.2-0.8-1.9V23.1c0-1.6,1.3-2.8,2.8-2.8h112.4c0.7,0,1.5,0.3,2,0.8l0.2,0.2l7.1,7.1l0,0
	C145.4,28.9,145.8,29.7,145.8,30.6z"/>
<g class="st1">
	<path class="st2" d="M145,76.3c0-0.9,0-1.7-0.1-2.6c-5.4-5.4-15.2-15.2-15.6-15.6l-0.3-0.4c-0.6-0.8-1.4-1.5-2.1-2.1
		c-0.6-0.6-1.2-1.2-1.8-1.8l0,0c-0.4-0.4-0.9-0.7-1.3-1l-0.1-0.1c-0.5-0.3-1-0.6-1.4-0.9l-0.1,0c-0.5-0.3-0.9-0.5-1.4-0.7l-0.2-0.1
		c-0.4-0.2-0.9-0.3-1.3-0.5c-0.1,0-0.3-0.1-0.4-0.2c-0.5-0.2-1-0.3-1.5-0.4l-0.3-0.1c-0.4-0.1-0.9-0.1-1.3-0.2l-0.5-0.1
		c-0.6-0.1-1.3-0.1-1.9-0.1h-24c-6,9.3-14.4,16.7-24.4,21.5c-10.2,8.3-22.9,12.8-36,12.9h-0.6c0.9,1.9,2,3.7,3.2,5.4L29,107.7
		l1.4,1.3l14.1,36c3,0.4,28,0.6,31.1,0.6C113.9,145.6,145,114.6,145,76.3C145,76.3,145,76.3,145,76.3z"/>
</g>
<path class="st3" d="M49.6,43.4h66.8c11.4,0,20.6,7.3,20.6,16.3v53c0,9-9.2,16.3-20.6,16.3H49.6c-11.4,0-20.6-7.3-20.6-16.3v-53
	C29,50.7,38.2,43.4,49.6,43.4z"/>
<path class="st4" d="M39,34.8c-5.6,0-10.1,4.8-10.1,10.8v70c0,0.2,0,0.4,0,0.5c0.3-5.7,4.7-10.2,10.1-10.2s9.8,4.5,10.1,10.2
	c0-0.2,0-0.4,0-0.5v-70C49.2,39.6,44.6,34.8,39,34.8z"/>
<path class="st4" d="M126.5,136.2c5.6,0,10.1-4.8,10.1-10.8v-70c0-0.2,0-0.4,0-0.5c-0.3,5.7-4.7,10.2-10.1,10.2s-9.8-4.5-10.1-10.2
	c0,0.2,0,0.4,0,0.5v70C116.4,131.4,120.9,136.2,126.5,136.2z"/>
<path class="st5" d="M126.6,51.4c-0.1-2-0.6-4-1.5-5.8l1.3-2.7c-0.7-1.1-1.6-2.1-2.6-3l-2.9,0.9c-1.4-1-2.9-1.7-4.6-2.1l-1.2-2.8
	c-1.4-0.2-2.8-0.1-4.2,0.1l-1.1,2.8c-1.6,0.4-3.2,1.2-4.5,2.2l-3-0.8c-1,0.9-1.8,2-2.5,3.1l1.4,2.7c-0.9,1.8-1.3,3.8-1.3,5.8V52
	l-2.3,1.9c0.2,1.3,0.5,2.5,0.9,3.7l3,0.5c0.9,1.8,2.2,3.3,3.7,4.5l-0.1,3.1c1.1,0.7,2.3,1.2,3.6,1.6l2.2-2.1
	c0.8,0.2,1.6,0.2,2.4,0.2c1,0,2-0.1,2.9-0.3l2.3,2c1.2-0.4,2.4-1,3.5-1.8l-0.2-3c1.5-1.3,2.7-2.9,3.6-4.7l3-0.6
	c0.4-1.2,0.6-2.4,0.7-3.7L126.6,51.4z"/>
<ellipse class="st6" cx="113.2" cy="52.2" rx="6.9" ry="6.7"/>
<path class="st6" d="M142.8,78.1c-0.4-2-1.3-3.9-2.5-5.5l0.8-2.9c-0.9-1-2-1.8-3.1-2.5l-2.7,1.4c-1.5-0.7-3.2-1.1-4.9-1.2l-1.7-2.5
	c-0.6,0-1.2,0.1-1.8,0.2c-0.8,0.1-1.6,0.3-2.3,0.6l-0.6,3c-1.5,0.7-2.9,1.8-4,3l-3.1-0.2c-0.8,1.1-1.4,2.3-1.9,3.6l1.9,2.4
	c-0.5,2-0.6,4-0.2,6c0,0,0,0.1,0,0.1l-2,2.3c0.4,1.2,0.9,2.4,1.5,3.4h3c1.2,1.6,2.7,2.9,4.5,3.8l0.5,3c1.2,0.5,2.5,0.8,3.8,1
	l1.8-2.4c0.8,0,1.6-0.1,2.4-0.2c1-0.2,1.9-0.5,2.8-0.8l2.6,1.6c1.1-0.7,2.2-1.4,3.1-2.3l-0.7-3c1.3-1.5,2.2-3.4,2.7-5.3l2.8-1.2
	c0.2-1.2,0.2-2.5,0.1-3.8L142.8,78.1z"/>
<ellipse transform="matrix(0.9821 -0.1882 0.1882 0.9821 -12.9735 25.8912)" class="st5" cx="129.8" cy="81.3" rx="6.9" ry="6.7"/>
<rect x="59" y="104.1" class="st7" width="48.3" height="1.9"/>
<path class="st7" d="M85.8,99.2v-8.1v-0.8h-0.6h-6.4h-0.6v0.8v8.1h-1.3v1.5h10.3v-1.5H85.8z M78.8,99.2v-8.1h6.4v8.1H78.8z"/>
<path class="st7" d="M98.8,99.2v-8.1v-0.8h-0.6h-6.4h-0.6v0.8v8.1h-1.3v1.5h10.3v-1.5H98.8z M91.8,99.2v-8.1h6.4v8.1H91.8z"/>
<line class="st8" x1="105.3" y1="104.1" x2="105.3" y2="77.5"/>
<line class="st8" x1="72.3" y1="77.5" x2="72.3" y2="104.1"/>
<line class="st8" x1="60.6" y1="104.1" x2="60.6" y2="87.3"/>
<polygon class="st7" points="88.7,66.4 70,76.3 70,78.6 88.7,68.8 107.3,78.6 107.3,76.3 "/>
<polygon class="st7" points="72.3,81.3 58.6,88.3 58.6,86.3 72.3,79.2 "/>
<rect x="65" y="90.3" class="st8" width="5.6" height="13.8"/>
<path class="st7" d="M85.8,86.2v-8.1v-0.8h-0.6h-6.4h-0.6v0.8v8.1h-1.3v1.5h10.3v-1.5H85.8z M78.8,86.2v-8.1h6.4v8.1H78.8z"/>
<path class="st7" d="M98.8,86.2v-8.1v-0.8h-0.6h-6.4h-0.6v0.8v8.1h-1.3v1.5h10.3v-1.5H98.8z M91.8,86.2v-8.1h6.4v8.1H91.8z"/>
</svg>
