<svg xmlns="http://www.w3.org/2000/svg" viewBox="0 0 166 166"><defs><style>.cls-1{isolation:isolate;}.cls-2{fill:#f7931e;}.cls-3{fill:#fff;}.cls-4{fill:#f9d10b;}.cls-5{fill:#dcdae2;mix-blend-mode:multiply;}.cls-6{fill:gray;}.cls-7{fill:#ccc;}</style></defs><title>btn3vivienda rural</title><g class="cls-1"><g id="Layer_1" data-name="Layer 1"><path class="cls-2" d="M145.76,30.59V142.94a2.82,2.82,0,0,1-2.81,2.81H30.59a2.71,2.71,0,0,1-1.9-.76l-.27-.26-7.15-7.16-.25-.24a2.69,2.69,0,0,1-.78-1.92V23.06a2.81,2.81,0,0,1,2.81-2.81H135.41a2.8,2.8,0,0,1,2,.8l.2.21,7.11,7.13,0,0A2.79,2.79,0,0,1,145.76,30.59Z"/><polygon class="cls-3" points="108.69 94.36 120.81 143.09 120.81 143.1 121 143.88 116.12 143.88 115.48 140.13 106.62 94.36 108.69 94.36"/><polygon class="cls-3" points="45.32 143.73 57.61 94.36 59.86 94.36 50.83 141.04 50.31 143.88 45.28 143.88 45.32 143.73"/><polygon class="cls-4" points="78.83 94.36 83.75 94.36 83.75 96.17 78.75 96.17 78.83 94.36"/><path class="cls-4" d="M78.45,103.72a1.79,1.79,0,0,0,.69.29c.59,0-.35-.52-.68-.57l.07-1.68c.21.2.52.48.73.48a3.07,3.07,0,0,0-.72-.65v-.07c.26.19.46,0,.71.19s.66-.3.33-.57c-.52-.42-.85-.19-1-.81l0-1.37h4.68a.46.46,0,0,0,.12.3c.09.11.14.25.24.37a.4.4,0,0,0,.29.15l.21,5.34H78.4Z"/><path class="cls-4" d="M81.78,117.76a4.74,4.74,0,0,1,.85.5,1.12,1.12,0,0,1-.1.22q-.06.12-.12.27H77.85l.13-3.33a9.8,9.8,0,0,0,3.08,2Z"/><path class="cls-4" d="M83.23,109.11l1.11,0,0-.64a1.64,1.64,0,0,1-.7,0c-.45-.21-1-.33-1.41-.53H78.29l-.12,2.66C79.44,109.28,81.52,109.11,83.23,109.11Zm-2.65-.41c-.25,0-1.15-.59-.89-.59S80.86,108.7,80.58,108.7Z"/><path class="cls-4" d="M77.33,131.8,76.89,143a.88.88,0,0,1,.83.14l.36.37c.17.16.06.32-.09.42h5.63c-.11-.15-.2-.31-.31-.44s.15-.17.27-.16a1.46,1.46,0,0,1,.79.29,2.49,2.49,0,0,1,.23.31h1.13v-.07l-.15-.07a1,1,0,0,0-.32-.12,1.16,1.16,0,0,1-.78-.38c-.16-.2-.07-.36.16-.35a2.67,2.67,0,0,1,1.07.33l-.6-15h0a3,3,0,0,1-1.36-2.12,3.3,3.3,0,0,1,.49-2.06h0l-.26-.16a3.74,3.74,0,0,1-1.67-1.54H77.89a2,2,0,0,1,.14.88,2.89,2.89,0,0,1,.9.3.33.33,0,0,1,.08.58.83.83,0,0,1-.87.1,1.15,1.15,0,0,0-.29-.11,4.48,4.48,0,0,1-.23.49v.4a.51.51,0,0,1,.5.53v.41a3.41,3.41,0,0,1,2.31,1.4,2.29,2.29,0,0,1,.3,2.16c-.54,1.44-2.39,2.08-3.33,2.33h0Zm4.56,9c.34,0,.93.69.93.74C82.49,141.55,81.89,140.85,81.89,140.81Zm-1-2.5c.77,0-.33.32-.59.32C79.56,138.63,80.66,138.31,80.93,138.31Zm-2.52.28a1,1,0,0,0,.33.57c.22.22-.89.59-1.14.35a1.2,1.2,0,0,1-.41-.68C77.16,138.48,78.38,138.28,78.41,138.59Z"/><path class="cls-3" d="M67.84,123.43c.73-.82-.58-1.64.73-2.37A5.71,5.71,0,0,1,71.2,121c1.5.15,3.91.37,5.23,1.76.59,1.12-1.88,2.19-.47,3.9.74.91,2.54.41,3.2,1.48.82,1.15-1.23,2-2.3,2.22-1.39.32-2.79,0-4.1.32a23.59,23.59,0,0,0-3.36,1.23c-.91.33-2.55,1-3.29.09s.25-2.38-.16-3.37c-.65-1.48-4.51-1.72-3.28-3.93C63.74,122.7,66.85,124.75,67.84,123.43Z"/><path class="cls-3" d="M91.78,129.73c1.33-.81,3.24-.51,4.71-.51a29.17,29.17,0,0,0,4.42-.52,3.29,3.29,0,0,1,.9.06c1.18.14,5.73,1.86,5.21,3.25-.37,1.11-2.65.89-3.39,1.4-1,.89.08,1.33-.14,2.28-.37,1.92-5.38,2.51-6.26.74-.44-.88.15-1.62-.74-2.5a7.31,7.31,0,0,0-3.09-1.33C92.08,132.16,89.5,131.2,91.78,129.73Z"/><path class="cls-3" d="M85.25,125.85c-.12-.84.83-1.55.59-2.27-.35-1.07-1.91-1.07-2.26-2.15-.72-2.5,2.5-3.22-1.08-5-1.55-.83-5.25-2-3.46-4.53,1.2-1.67,4.89-1.2,6.69-1.2,2.28,0,4.56,0,6.81.13h0l.81.07c3.13.41,6.71,2.34,7.14,4,.6,2-2.86,1.43-3.22,3-.6,3.11,8.35,3.7,5.49,6.57-1.31,1.31-4.65,1.31-6.32,1.67a43.88,43.88,0,0,1-6.93,1.07C88,127.16,85.61,127.76,85.25,125.85Z"/><path class="cls-5" d="M91.78,129.73c1.32-.82,3.24-.52,4.71-.52a29.45,29.45,0,0,0,4.43-.52,3.7,3.7,0,0,1,.89.06c1.18.15,5.72,1.86,5.22,3.27-.37,1.1-2.66.87-3.39,1.39-1,.88.07,1.33-.15,2.28-.37,1.92-5.38,2.51-6.26.74-.44-.89.15-1.62-.74-2.51a7.3,7.3,0,0,0-3.09-1.32C92.08,132.17,89.49,131.2,91.78,129.73Zm-9.15-11.47c0,.07-.06.16-.09.22a1,1,0,0,0-.13.27H77.85l.14-3.34a9.8,9.8,0,0,0,3.07,2q.42.19.72.36A3.9,3.9,0,0,1,82.63,118.26ZM76.88,143l.45-11.15.06-.05c.94-.25,2.8-.89,3.33-2.33a2.28,2.28,0,0,0-.3-2.16,3.41,3.41,0,0,0-2.3-1.4v-.42a.53.53,0,0,0-.51-.53l0-.4a3.24,3.24,0,0,0,.22-.49,1.82,1.82,0,0,1,.3.11A.78.78,0,0,0,79,124a.34.34,0,0,0-.07-.58,3.47,3.47,0,0,0-.91-.3,1.81,1.81,0,0,0-.14-.87H82.3A3.8,3.8,0,0,0,84,123.83a1.61,1.61,0,0,1,.26.15h0a3.28,3.28,0,0,0-.48,2.07,2.93,2.93,0,0,0,1.36,2.11h0l.59,15a2.63,2.63,0,0,0-1.06-.33c-.24,0-.33.16-.16.34a1.17,1.17,0,0,0,.77.39.84.84,0,0,1,.31.12l.17.07v.07H84.6a2.08,2.08,0,0,0-.22-.31,1.54,1.54,0,0,0-.79-.3c-.13,0-.45,0-.28.17s.2.29.31.44H78c.15-.1.24-.26.08-.42l-.35-.36A.9.9,0,0,0,76.88,143Zm-14.21-18.3c1.07-2,4.19.09,5.16-1.22.75-.83-.56-1.65.75-2.39A6,6,0,0,1,71.2,121c1.51.15,3.92.38,5.23,1.77.59,1.12-1.87,2.19-.47,3.9.74.9,2.55.42,3.2,1.48.82,1.15-1.24,2-2.3,2.21-1.4.34-2.78,0-4.1.34a21.83,21.83,0,0,0-3.37,1.22c-.9.34-2.53,1-3.27.09s.24-2.39-.16-3.37C65.3,127.12,61.44,126.87,62.67,124.66Z"/><path class="cls-3" d="M72.08,74.76A2.91,2.91,0,0,1,73.71,74l34.21-4.11,3.83-8.49.6-3H60L71.92,74.93Z"/><path class="cls-6" d="M70.79,83.91a3.94,3.94,0,0,1,0,.6,4.65,4.65,0,1,1-4-4.58l2.89-2.87a8.25,8.25,0,1,0,4.7,7.45A7.94,7.94,0,0,0,73.68,81Z"/><path class="cls-7" d="M104.37,56.51c-2.16-2-2.88-2.15-5.48-3.17-2.59-.86-2.73-3-4.6-4.32s-4.47,0-6.48-.13c-3-.3-3.61-1.3-6.35.28l-.69.4c-1.21.66-2.42,1.18-3.62,1.9a14.58,14.58,0,0,0-3.75,3.46,31.64,31.64,0,0,1-2.85,2h34.28A6.33,6.33,0,0,1,104.37,56.51Z"/><path class="cls-3" d="M142.93,47l-11,4.59.39.91-17.88,7.37a1.35,1.35,0,0,0-.72.69l-4.8,10.64h-.07L73.89,75.4a1.32,1.32,0,0,0-.79.39l-7.84,7.75a1.36,1.36,0,0,0,0,1.92,1.35,1.35,0,0,0,1.91,0L74.67,78l18.89-2.27,7.16,14.75a1.35,1.35,0,0,0,1.21.76h0a1.35,1.35,0,0,0,1.22-.8l12.77-28.31L133.33,55l.37.89,11-4.58Zm-41,39.73-5.48-11.3,11.19-1.35Z"/><polygon class="cls-5" points="106.25 58.38 71.98 58.38 70.54 56.94 104.82 56.94 106.25 58.38"/></g></g></svg>