<svg xmlns="http://www.w3.org/2000/svg" viewBox="0 0 166 166"><defs><style>.cls-1{isolation:isolate;}.cls-2{mix-blend-mode:multiply;}.cls-3{fill:#88a80d;}.cls-4,.cls-5{fill:#fff;}.cls-4{opacity:0.5;}.cls-6{fill:#a8a291;}.cls-7{fill:#d9d9d9;}.cls-8{fill:#e8e8e8;}.cls-9{fill:#ccc;}.cls-10{fill:#6b4a3b;}.cls-11{fill:#e73127;}</style></defs><title>btn2vivienda rural</title><g class="cls-1"><g id="Layer_1" data-name="Layer 1"><g class="cls-2"><path class="cls-3" d="M145.76,30.59V142.94a2.82,2.82,0,0,1-2.81,2.81H30.59a2.71,2.71,0,0,1-1.9-.76l-.27-.26-7.15-7.16-.25-.24a2.69,2.69,0,0,1-.78-1.92V23.06a2.81,2.81,0,0,1,2.81-2.81H135.41a2.8,2.8,0,0,1,2,.8l.2.21,7.11,7.13,0,0A2.79,2.79,0,0,1,145.76,30.59Z"/><path class="cls-4" d="M145.23,77.11a67.63,67.63,0,0,0-1.81-15.49c-8.8-8.82-28.17-28.19-28.47-28.44a10.11,10.11,0,0,0-7-3.37l-.11-.09H53.44V40.41H41l.3,81.78L61.5,142.75a67.61,67.61,0,0,0,83.73-65.64Z"/></g><polygon class="cls-5" points="116.67 111.6 53.44 111.6 53.44 29.72 107.85 29.72 116.67 36.71 116.67 111.6"/><rect class="cls-6" x="61.39" y="42.52" width="47.72" height="1.87"/><rect class="cls-6" x="61.39" y="49.91" width="47.72" height="1.87"/><rect class="cls-6" x="61.39" y="57.3" width="47.72" height="1.87"/><rect class="cls-6" x="61.39" y="64.7" width="47.72" height="1.87"/><rect class="cls-6" x="61.39" y="72.09" width="47.72" height="1.87"/><rect class="cls-6" x="61.39" y="79.48" width="47.72" height="1.87"/><rect class="cls-6" x="61.39" y="86.88" width="47.72" height="1.87"/><rect class="cls-6" x="61.39" y="94.27" width="47.72" height="1.87"/><rect class="cls-6" x="61.39" y="101.66" width="47.72" height="1.87"/><path class="cls-7" d="M107.09,29.72l2.76,7.74,6.82-.75S115.86,30.24,107.09,29.72Z"/><polygon class="cls-8" points="104.22 122.29 40.99 122.29 40.99 40.41 95.4 40.41 104.22 47.41 104.22 122.29"/><rect class="cls-6" x="48.95" y="53.21" width="47.72" height="1.87"/><rect class="cls-6" x="48.95" y="60.61" width="47.72" height="1.87"/><rect class="cls-6" x="48.95" y="68" width="47.72" height="1.87"/><rect class="cls-6" x="48.95" y="75.39" width="47.72" height="1.87"/><rect class="cls-6" x="48.95" y="82.79" width="47.72" height="1.87"/><rect class="cls-6" x="48.95" y="90.18" width="47.72" height="1.87"/><rect class="cls-6" x="48.95" y="97.57" width="47.72" height="1.87"/><rect class="cls-6" x="48.95" y="104.97" width="47.72" height="1.87"/><rect class="cls-6" x="48.95" y="112.36" width="47.72" height="1.87"/><path class="cls-9" d="M94.65,40.41l2.76,7.75,6.81-.75S103.42,40.93,94.65,40.41Z"/><rect class="cls-10" x="52.37" y="77.87" width="50.47" height="4.49" transform="translate(-26.2 120.92) rotate(-67.37)"/><polygon class="cls-11" points="69.97 104.28 66.4 107.01 65.82 102.54 69.97 104.28"/><polygon class="cls-11" points="83.52 81.06 81.96 80.41 88.32 65.14 85.54 63.98 86.19 62.42 90.53 64.23 83.52 81.06"/></g></g></svg>