<svg id="Layer_1" data-name="Layer 1" xmlns="http://www.w3.org/2000/svg" viewBox="0 0 166 166"><defs><style>.cls-1{fill:#29abe2;}.cls-2{fill:#e6e6e6;opacity:0.2;}.cls-3{fill:#00a99d;stroke:#fff;stroke-miterlimit:10;stroke-width:0.5px;}.cls-4{fill:#fff;}</style></defs><title>btn4vivienda rural</title><path class="cls-1" d="M145.76,30.59V142.94a2.82,2.82,0,0,1-2.81,2.81H30.59a2.71,2.71,0,0,1-1.9-.76l-.27-.26-7.15-7.16-.25-.24a2.69,2.69,0,0,1-.78-1.92V23.06a2.81,2.81,0,0,1,2.81-2.81H135.41a2.8,2.8,0,0,1,2,.8l.2.21,7.11,7.13,0,0A2.79,2.79,0,0,1,145.76,30.59Z"/><circle class="cls-2" cx="83" cy="85" r="56.09"/><path class="cls-3" d="M65.5,62.79h-32A11.5,11.5,0,0,0,22,74.29V77a11.5,11.5,0,0,0,11.5,11.5H54.24L73.7,101.89,66.53,88.41A11.51,11.51,0,0,0,77,77V74.29A11.5,11.5,0,0,0,65.5,62.79Z"/><path class="cls-4" d="M59.37,75.66a2,2,0,1,0,2-2A2,2,0,0,0,59.37,75.66Z"/><path class="cls-4" d="M47.47,75.66a2,2,0,1,0,2-2A2,2,0,0,0,47.47,75.66Z"/><path class="cls-4" d="M35.57,75.66a2,2,0,1,0,2-2A2,2,0,0,0,35.57,75.66Z"/><path class="cls-4" d="M106.84,95.52c-1,.31-1.91.61-2.87.88a35.31,35.31,0,0,1-16.82.19c-.68-.15-1.36-.33-2.05-.52A19.32,19.32,0,0,0,85,98.24c0,8.1,4.94,14.66,11,14.66s11-6.56,11-14.66A20.14,20.14,0,0,0,106.84,95.52Z"/><path class="cls-4" d="M101.86,112.9,96,116.11l-5.88-3.21a9,9,0,0,1-.69,2.35,2.57,2.57,0,0,1-.75,1L96,120.43l7.12-4.34a2.55,2.55,0,0,1-.55-.84A9.34,9.34,0,0,1,101.86,112.9Z"/><path class="cls-4" d="M79.07,93.44c2.64.69,5.39,1.33,8.08,1.88A38.19,38.19,0,0,0,104,95.14c1.43-.36,2.85-.73,4.26-1.17a33.9,33.9,0,0,0,4-1.43A18.34,18.34,0,0,0,116,90.69a1.91,1.91,0,0,0,.87-2c-.54-2-4.43-1.67-6.12-1.67a6.7,6.7,0,0,1-3.88-.8c-1.52-1.13-1.33-3.9-2.19-5.48-.68-1.26-1.6-2.56-3.26-2.64-1.82-.09-3.38,1.3-5.19,1.22s-3-1.51-4.75-1.54a4,4,0,0,0-3.78,2.25c-1.48,2.93-1.39,4.71-2.74,5.78,6.09,3.5,14.59,1.77,14.59,1.77a18.69,18.69,0,0,1-16.27-1c-.35.09-.73.18-1.18.26-2.21.38-6.18.08-7.79,1.81a1.39,1.39,0,0,0-.36,1.6C74.75,92.21,77.24,93,79.07,93.44Z"/><path class="cls-4" d="M105.4,131.2v-1.76h1.9V118.11h0c-1.35-.51-2.3-.87-3-1.21L96,122l-8.73-4.93c-.81.36-1.93.78-3.53,1.37v11h1.9v1.76Z"/><path class="cls-4" d="M80,141l-.45-11.56h1.89V119.35a68.33,68.33,0,0,0-7,3.51c-3.46,2.91-2.19,17.24-2.19,17.24Z"/><path class="cls-4" d="M117.58,122.86a68.82,68.82,0,0,0-8-3.89v10.47h1.89v4.66L119,129S121,125.77,117.58,122.86Z"/><path class="cls-4" d="M81.85,132a.76.76,0,1,0,.75-.76A.76.76,0,0,0,81.85,132Z"/><path class="cls-4" d="M107.7,132a.76.76,0,0,0,.76.75.76.76,0,0,0,0-1.51A.76.76,0,0,0,107.7,132Z"/><path class="cls-4" d="M125.07,53c-8.57,0-15.52,5.28-15.52,11.78a10,10,0,0,0,3,6.94l-3,6.51,6.21-4a18.88,18.88,0,0,0,9.31,2.36c8.57,0,15.52-5.28,15.52-11.79S133.64,53,125.07,53Z"/></svg>