<svg id="Layer_1" data-name="Layer 1" xmlns="http://www.w3.org/2000/svg" viewBox="0 0 166 166"><defs><style>.cls-1{fill:#184f78;}.cls-2{fill:#38929a;}.cls-3{fill:#fff;}.cls-4{fill:#64b66e;}.cls-5{fill:#e73127;}.cls-6{fill:#f3701e;}.cls-7{fill:#f6b900;}</style></defs><title>btn5vivienda rural</title><path class="cls-1" d="M145.76,30.59V142.94a2.82,2.82,0,0,1-2.81,2.81H30.59a2.71,2.71,0,0,1-1.9-.76l-.27-.26-7.15-7.16-.25-.24a2.69,2.69,0,0,1-.78-1.92V23.06a2.81,2.81,0,0,1,2.81-2.81H135.41a2.8,2.8,0,0,1,2,.8l.2.21,7.11,7.13,0,0A2.79,2.79,0,0,1,145.76,30.59Z"/><circle class="cls-2" cx="83.91" cy="82.47" r="56.09"/><path class="cls-3" d="M95.57,69.88l-4.33-5.16c-2.31,1.56-4.59,3.13-6.9,4.64A73.13,73.13,0,0,1,58.77,80.25c-2.85.58-4.94-.48-5.43-2.82-.46-2.17.93-4,3.75-4.61,10.84-2.27,20.18-7.64,29.24-14.08L82,53.42l21.06-3.54C100.53,56.62,98.13,63.05,95.57,69.88Z"/><path class="cls-4" d="M114.56,90.12c0,5.34,0,10.68,0,16,0,3.72-1.33,5-5,5.06-.8,0-1.6,0-2.39,0-2.54-.17-4-1.54-4-4.1q-.09-17,0-33.94c0-2.56,1.5-3.93,4-4.09,1-.06,1.91,0,2.87,0,3.09.08,4.52,1.47,4.54,4.58C114.59,79.13,114.56,84.63,114.56,90.12Z"/><path class="cls-5" d="M99.23,94.09c0,4.14,0,8.28,0,12.42,0,3.26-1.42,4.62-4.68,4.69-1,0-1.91,0-2.86,0-2.41-.18-3.89-1.55-3.91-4q-.1-13.26,0-26.52c0-2.41,1.52-3.78,3.93-4,1-.07,2.07,0,3.11,0,2.94.11,4.37,1.5,4.41,4.48C99.27,85.49,99.23,89.79,99.23,94.09Z"/><path class="cls-6" d="M72.4,97.68c0-2.94,0-5.89,0-8.83s1.47-4.37,4.41-4.47c1,0,2.08,0,3.11,0,2.41.17,3.89,1.53,3.93,3.95q.12,9.42,0,18.86c0,2.42-1.5,3.8-3.91,4a28.63,28.63,0,0,1-3.34,0c-2.68-.13-4.12-1.52-4.19-4.2C72.34,103.89,72.4,100.79,72.4,97.68Z"/><path class="cls-7" d="M57.08,101.47c0-1.75-.07-3.5,0-5.25.11-2.66,1.53-4,4.21-4.17,1,0,2.07,0,3.1,0,2.57.14,4.06,1.48,4.13,4,.1,3.73.1,7.48,0,11.21-.06,2.41-1.53,3.76-4,3.92a28.51,28.51,0,0,1-3.58,0,3.83,3.83,0,0,1-3.89-4C57,105.29,57.08,103.38,57.08,101.47Z"/></svg>